<svg width="100" height="93" viewBox="0 0 100 93" fill="none" xmlns="http://www.w3.org/2000/svg">
<path d="M23.6461 51.2424L26.2737 31.5997L3.48242 15.8576L24.3065 22.8759L29.2245 15.3683L47.1821 4.28174L86.7647 25.9795L88.8162 59.0855L71.1817 83.4675L57.2428 85.5926L64.4511 72.4648V59.8264L59.21 49.9562L53.8845 46.4471L45.6926 54.8494V63.741L39.2993 69.6967L31.1776 70.6753L27.5805 72.7025L21.6789 70.8291L19.2199 62.0214L23.6461 55.828V51.2424Z" fill="white"/>
<path d="M60.0409 15.6886C55.699 14.7939 50.9497 15.0315 50.9497 15.0315C50.9497 15.0315 49.39 22.2036 39.7227 24.0909C39.7929 24.0909 52.4953 28.4109 60.0409 15.6886Z" fill="#94A6C3"/>
<path d="M63.9756 80.7661C69.2167 76.6838 73.1511 71.0636 74.9637 64.7025C75.048 64.4648 75.7787 64.0454 76.2705 63.7239C77.0855 63.2345 77.9145 62.8291 78.0691 62.172C78.3922 60.2986 78.5609 58.3413 78.5609 56.3841C78.5609 55.6571 77.8161 54.9161 77.0855 54.1891C76.5094 53.6998 75.9333 53.1266 75.9333 52.7212C75.1183 45.2975 71.6757 38.3631 66.1816 33.3162L65.6055 33.8894C70.931 38.8664 74.3736 45.633 75.1183 52.805C75.2026 53.4621 75.849 54.1052 76.5094 54.7623C77.0855 55.2516 77.7459 55.9926 77.7459 56.3142C77.7459 58.1876 77.5773 60.061 77.2541 61.9343C77.1698 62.2559 76.4391 62.5914 75.863 62.913C75.048 63.3184 74.3033 63.7239 74.1487 64.3809C72.1815 71.3153 67.6711 77.3549 61.6852 81.2694C62.7531 78.9906 66.1114 71.5669 67.91 67.8062L67.5868 55.741L57.1747 45.7169L51.2732 46.5278L44.7955 56.9712C44.7955 56.9712 47.8306 60.8019 43.559 65.2897C39.3857 69.6935 36.0977 70.6722 36.0977 70.6722L33.0626 69.0365C33.9619 67.8901 35.7745 66.1844 37.1656 65.038C39.5403 63.0807 41.915 62.913 41.915 60.8019C42.0133 56.3841 37.2499 57.6004 37.2499 57.6004L35.5216 59.2361L34.791 65.2757L31.1938 69.7635L30.7863 69.6796L24.8848 68.3794C24.8848 68.3794 28.496 66.506 29.0721 64.3809C29.6482 62.3398 27.9199 55.5732 27.8355 55.1678C27.9199 55.2516 29.5639 56.6357 30.2945 58.9145C31.6013 55.3215 33.3296 51.8963 33.8214 51.5748C34.3132 51.2532 40.9454 47.7441 40.9454 47.7441L38.7394 53.532L40.3834 52.6373L44.3178 43.0187C44.3178 43.0187 48.1678 41.1453 51.0343 41.1453C56.1911 41.0614 63.821 34.7841 60.3784 23.5298C61.362 23.9352 78.4063 32.4214 81.3571 49.0583C83.5631 61.8505 76.2705 73.8318 63.9756 80.7661Z" fill="#94A6C3"/>
<path d="M44.4792 17.4776C46.362 15.2687 45.6314 12.0112 45.6314 12.0112L40.1373 20.092C40.053 20.092 42.0904 20.1759 44.4792 17.4776Z" fill="#1B314F"/>
<path d="M26.02 61.5998L26.6804 58.3423C26.6804 58.3423 23.9685 63.0677 23.7296 63.7248C23.4767 64.4658 23.8982 65.766 24.9521 65.6821C26.02 65.5982 27.3268 64.0463 27.3268 62.9139C27.3268 61.446 26.02 61.5998 26.02 61.5998Z" fill="#1B314F"/>
<path d="M74.7107 9.73187C74.7107 9.73187 78.8137 9.89964 83.0713 10.389C73.4742 2.88141 64.383 0.686461 57.0061 0.686461C46.8469 0.686461 39.9618 4.85266 39.5402 5.09033L42.7439 0.0293755C42.7439 0.0293755 29.9572 -1.20091 25.4468 12.2624C24.2945 9.41032 23.2407 5.24412 23.2407 5.24412C23.2407 5.24412 16.5944 11.046 19.7138 20.6647C12.0839 17.8965 1.19416 14.0519 0.772621 13.982C0.196517 13.8981 0.0279008 14.1497 0.0279008 14.1497C0.0279008 14.1497 -0.140715 14.3874 0.351081 14.8068C1.26442 15.5198 18.4773 28.1722 22.2571 30.6188C21.4421 33.5547 21.4421 34.9388 22.2571 36.3229C23.4093 38.1963 23.4796 39.1749 23.325 40.559C23.1564 41.9431 21.681 53.9384 21.3578 55.4063C21.0346 56.8743 17.5921 62.089 17.7466 63.6409C17.9152 65.1927 20.037 71.7915 21.9339 72.5325C23.325 73.0218 26.7676 74.0843 29.058 74.0843C29.8729 74.0843 30.6176 73.9166 30.9408 73.595C32.3319 72.3787 32.7394 72.1271 33.723 72.1271C33.8073 72.1271 33.8916 72.1271 33.9619 72.1271C34.3694 72.1271 34.8612 72.2109 35.4373 72.2109C36.744 72.2109 38.4723 71.9593 39.6948 70.8269C41.4934 69.0373 44.6128 66.5908 45.5964 65.4444C46.8329 63.8925 47.4792 61.7814 47.1561 59.6564C46.9031 57.6991 47.971 55.9795 49.2076 54.2739C50.7673 52.2327 53.6337 48.5698 53.6337 48.5698C59.2964 52.792 62.8233 59.237 62.8233 66.409C62.8233 79.1313 51.6806 89.407 37.9103 89.407C35.7745 89.407 33.737 89.1693 31.6855 88.68C37.9946 90.875 43.3201 91.6159 47.676 91.6159C56.9358 91.6159 61.8538 88.2746 61.8538 88.2746C61.8538 88.2746 60.1395 90.4835 57.3433 93C57.4276 93 57.4276 93 57.4276 93C72.7576 90.875 80.2188 78.3204 80.2188 78.3204C80.2188 78.3204 79.6427 82.4027 78.9121 85.1709C99.3006 69.9181 95.858 50.8347 95.7737 50.1916C95.9423 50.4292 97.9938 52.8758 99.0476 54.19C102.336 20.5808 74.7107 9.73187 74.7107 9.73187ZM43.3201 63.4032C42.9969 63.8086 41.6058 65.0389 40.6222 65.9337C39.6386 66.8284 38.5707 67.7232 37.7557 68.548C37.4325 68.8696 36.7721 69.0373 35.7885 69.0373C35.4654 69.0373 35.1281 69.0373 34.8893 69.0373C34.7206 69.0373 34.5661 69.0373 34.3975 69.0373C34.2288 69.0373 34.1445 69.0373 34.0743 69.0373C33.8214 69.0373 33.5825 69.0373 33.3296 69.0373C34.5661 67.4016 38.1632 63.6548 39.3997 62.844C40.8751 61.8653 41.6198 60.8867 40.7065 59.1811C39.8072 57.4615 37.4325 57.8809 37.4325 57.8809C37.4325 57.8809 38.8236 57.3077 40.0601 57.3077C38.5004 56.9022 36.5333 57.3077 35.634 58.2024C34.6504 59.0972 34.819 62.2847 34.4115 64.3119C34.004 66.437 32.6129 67.4995 30.4771 69.4568C29.3249 70.5193 28.51 70.8408 27.8495 70.8408C26.4585 70.6032 24.8144 70.1838 23.6622 69.7783C22.8473 68.7158 21.6107 65.2067 21.2876 63.7387C21.5264 62.9278 22.51 61.2082 23.0018 60.2296C23.9854 58.3562 24.5615 57.2937 24.7301 56.3151C25.0533 54.931 26.1212 46.3609 26.5287 42.7819C27.5966 44.166 29.072 46.4588 28.7348 47.9267C31.1094 44.5854 29.3952 41.3139 28.5662 40.0137C27.8355 38.7135 26.8519 36.0992 27.6669 33.331C28.4818 30.5629 31.4326 22.8876 31.4326 22.8876C31.4326 22.8876 32.4162 24.6072 33.8073 24.2716C35.1984 23.9501 46.4254 7.14547 46.4254 7.14547C46.4254 7.14547 49.4605 13.7443 46.2568 18.5676C42.9828 23.3769 39.7791 24.2716 39.7791 24.2716C39.7791 24.2716 44.2896 25.0825 48.4628 22.0627C50.1771 26.0612 51.8211 30.2134 51.9054 30.7866C51.6525 31.3598 48.3785 39.1889 48.0554 39.6782C47.8867 39.846 46.7486 40.1675 45.9196 40.3353C44.5285 40.7407 43.7135 40.9924 43.3763 41.23C42.8002 41.7194 40.1726 48.8914 38.9501 52.4005C37.4747 52.8059 35.9993 53.6308 34.9314 55.2525C35.5075 54.8471 37.3061 54.5954 38.6269 54.4417C39.7791 54.3578 43.292 56.2312 44.2053 59.7403C44.2053 59.8242 44.2053 59.8242 44.2053 59.9081C44.388 61.1943 43.9805 62.4245 43.3201 63.4032ZM35.6199 64.3818C36.3646 63.3193 36.2803 61.5298 36.3646 60.9566C36.449 60.3834 36.6035 59.3209 37.2639 59.1671C37.9243 58.9993 39.484 59.251 39.484 60.3834C39.484 61.4459 38.3318 61.6836 37.5169 62.4245C36.9267 62.9838 35.7745 64.2141 35.6199 64.3818ZM68.3174 48.7935C69.1324 44.6413 69.2167 41.0483 68.9778 38.1124C72.1674 42.3485 74.1346 47.4933 74.7107 52.792C74.795 53.449 75.4414 54.0921 76.1018 54.7492C76.6779 55.2386 77.3383 55.8956 77.3383 56.3011C77.3383 58.1745 77.1697 60.0479 76.8465 61.9352C76.7622 62.1729 76.0316 62.5923 75.4555 62.9139C74.6405 63.3193 73.8958 63.7247 73.7412 64.3818C71.9426 70.6591 68.0785 76.2094 62.9217 80.1239C70.5375 72.2109 74.2189 59.1531 68.3174 48.7935ZM63.1605 80.8509C68.486 76.7686 72.589 71.0645 74.3876 64.6195C74.4719 64.3818 75.2025 63.9624 75.6943 63.6409C76.5093 63.2354 77.3383 62.7461 77.4929 62.089C77.8161 60.2156 77.9847 58.2584 77.9847 56.3011C77.9847 55.5741 77.24 54.8331 76.5093 54.1061C76.1018 53.6168 75.4414 53.0436 75.4414 52.6382C74.781 46.6825 72.4063 41.0623 68.7249 36.4068C67.0809 26.6204 60.5329 23.6006 60.3643 23.5167C60.5329 23.7683 64.7905 29.8778 61.8397 37.0499C58.8046 44.3058 51.0202 43.1733 50.3598 43.2432C49.6994 43.2432 47.1701 46.5007 43.9664 52.5403C43.5589 52.3725 41.8306 51.9671 39.8634 52.3026C41.3388 48.2203 43.5589 42.4324 43.9664 41.9431C44.135 41.7753 45.3575 41.4537 46.1865 41.2161C47.7462 40.8106 48.4769 40.559 48.7298 40.2374C48.8984 39.9858 49.7134 38.1124 50.5284 36.1551C51.2731 36.1551 53.156 35.9873 53.3106 35.9035C53.4792 35.7357 55.0389 31.7512 55.0389 31.2619C55.0389 30.8565 51.8352 22.9435 50.6127 19.9237C51.1888 19.2666 51.7649 18.4557 52.327 17.561C69.1323 19.3645 82.2563 33.5547 82.2563 50.7508C82.2563 63.9624 74.4719 75.4684 63.1605 80.8509Z" fill="#1B314F"/>
<path d="M41.3516 36.8115C42.9113 35.022 42.0963 31.6806 39.2158 31.1074C39.9605 29.4018 41.0144 25.9766 41.0144 25.9766C41.0144 25.9766 32.6538 39.0204 31.9232 39.2721C31.1784 39.5237 30.4478 36.6577 30.4478 36.6577C28.8881 42.6134 33.0754 43.4243 33.5672 41.5509C35.8575 40.9637 39.7919 38.5171 41.3516 36.8115Z" fill="#1B314F"/>
<path d="M34.2227 39.9873L38.4802 32.7314C38.4802 32.7314 40.9392 33.9617 39.7027 35.919C38.157 38.1978 34.2227 39.9873 34.2227 39.9873Z" fill="#FFD923"/>
<path d="M86.9118 73.5965C85.6753 75.2322 84.2843 76.9378 82.6543 78.5735C93.2209 58.3437 83.1461 39.8334 82.7386 39.1064C83.4833 39.8474 84.214 40.6583 84.8744 41.3853C92.982 50.3468 93.9656 63.8101 86.9118 73.5965Z" fill="#D82122"/>
<path d="M96.7623 47.5756C93.0668 37.7053 87.8257 29.303 76.2755 21.7256C65.1328 14.3858 53.1611 14.959 52.5006 15.0429C52.4163 15.0429 52.332 15.0429 52.332 15.0429C52.7395 14.8751 53.147 14.7912 53.5545 14.7213C56.0978 13.9105 59.3717 13.2534 62.6598 12.8479C71.3575 11.6037 80.1256 14.5396 86.1114 20.8308C86.1957 20.9147 86.1957 20.9147 86.2801 20.9986C93.0809 28.1706 96.6078 37.1321 96.7623 47.5756Z" fill="#D82122"/>
<path d="M73.6475 7.20251C61.4369 4.92369 53.5682 6.05611 47.9055 8.18115C47.7369 7.52407 47.1608 6.22388 46.669 5.16136C44.9687 7.20251 43.1561 9.64911 42.018 11.2009C38.8986 13.326 37.5918 15.3672 37.5918 15.3672C39.3904 9.24367 44.6456 4.68602 51.0389 3.53961C52.8375 3.21806 54.8047 3.05029 56.9405 3.05029C62.5891 3.13418 68.2378 4.51825 73.6475 7.20251Z" fill="#D82122"/>
<path d="M28.4765 22.8582C18.8935 22.5366 22.0832 11.4361 22.2518 10.793C22.2518 10.8769 22.8981 19.5168 28.4765 22.8582Z" fill="#D82122"/>
<path d="M37.9137 2.8833C30.5367 7.28717 32.0121 17.8005 32.0121 17.8005C24.9584 7.13339 37.3376 3.13495 37.9137 2.8833Z" fill="#D82122"/>
<path d="M25.7847 25.797C26.2765 26.2024 26.7683 26.9434 26.1922 28.0059C25.869 28.5791 25.3772 28.4952 24.6325 28.1737C23.6489 27.6844 17.7473 24.2591 12.4219 20.75C18.4921 22.875 24.6325 25.1539 25.6161 25.6432C25.6161 25.6432 25.7004 25.7271 25.7847 25.797Z" fill="white"/>
</svg>
