<svg width="50" height="47" viewBox="0 0 50 47" fill="none" xmlns="http://www.w3.org/2000/svg">
<path d="M12.0073 25.4604L13.3129 15.7003L1.98828 7.87833L12.3354 11.3656L14.7791 7.6352L23.7019 2.12646L43.3698 12.9077L44.3892 29.3575L35.6269 41.4726L28.7009 42.5285L32.2826 36.0055V29.7257L29.6784 24.8213L27.0323 23.0777L22.9618 27.2527V31.6708L19.7851 34.6301L15.7495 35.1163L13.9622 36.1236L11.0298 35.1928L9.80798 30.8163L12.0073 27.7389V25.4604Z" fill="white"/>
<path d="M30.0899 7.79481C27.9325 7.35022 25.5727 7.46832 25.5727 7.46832C25.5727 7.46832 24.7977 11.032 19.9941 11.9698C20.029 11.9698 26.3407 14.1163 30.0899 7.79481Z" fill="#94A6C3"/>
<path d="M32.0466 40.1322C34.6509 38.1037 36.6058 35.3112 37.5064 32.1504C37.5483 32.0323 37.9114 31.8239 38.1558 31.6641C38.5607 31.421 38.9726 31.2196 39.0494 30.8931C39.21 29.9622 39.2938 28.9897 39.2938 28.0171C39.2938 27.6559 38.9238 27.2877 38.5607 26.9265C38.2744 26.6834 37.9882 26.3985 37.9882 26.1971C37.5832 22.5084 35.8727 19.0628 33.1428 16.5551L32.8565 16.8399C35.5026 19.3129 37.2132 22.6751 37.5832 26.2388C37.6251 26.5653 37.9463 26.8848 38.2744 27.2113C38.5607 27.4544 38.8889 27.8226 38.8889 27.9824C38.8889 28.9132 38.8051 29.8441 38.6445 30.775C38.6026 30.9347 38.2395 31.1015 37.9533 31.2612C37.5483 31.4627 37.1783 31.6641 37.1015 31.9906C36.124 35.4362 33.8828 38.4372 30.9086 40.3822C31.4392 39.2499 33.1079 35.5612 34.0015 33.6926L33.841 27.6976L28.6674 22.7168L25.735 23.1197L22.5164 28.3089C22.5164 28.3089 24.0244 30.2123 21.902 32.4422C19.8283 34.6304 18.1946 35.1167 18.1946 35.1167L16.6865 34.3039C17.1333 33.7343 18.034 32.8868 18.7252 32.3171C19.9051 31.3446 21.0851 31.2612 21.0851 30.2123C21.1339 28.0171 18.7671 28.6215 18.7671 28.6215L17.9083 29.4343L17.5453 32.4352L15.7579 34.6651L15.5554 34.6234L12.623 33.9774C12.623 33.9774 14.4174 33.0465 14.7036 31.9906C14.9899 30.9764 14.1311 27.6142 14.0892 27.4128C14.1311 27.4544 14.948 28.1422 15.3111 29.2745C15.9604 27.4892 16.8192 25.7872 17.0635 25.6275C17.3079 25.4677 20.6033 23.7241 20.6033 23.7241L19.5072 26.6L20.3241 26.1554L22.279 21.3761C22.279 21.3761 24.192 20.4452 25.6163 20.4452C28.1787 20.4035 31.9698 17.2845 30.2593 11.6924C30.748 11.8938 39.217 16.1105 40.6832 24.3771C41.7793 30.7333 38.1558 36.6866 32.0466 40.1322Z" fill="#94A6C3"/>
<path d="M22.3559 8.68442C23.2915 7.58684 22.9284 5.96826 22.9284 5.96826L20.1985 9.98345C20.1566 9.98345 21.169 10.0251 22.3559 8.68442Z" fill="#1B314F"/>
<path d="M13.1872 30.6078L13.5153 28.9893C13.5153 28.9893 12.1678 31.3372 12.0492 31.6637C11.9235 32.0319 12.1329 32.678 12.6566 32.6363C13.1872 32.5946 13.8365 31.8235 13.8365 31.2608C13.8365 30.5314 13.1872 30.6078 13.1872 30.6078Z" fill="#1B314F"/>
<path d="M37.3803 4.8356C37.3803 4.8356 39.419 4.91897 41.5345 5.1621C36.7659 1.43172 32.2486 0.341091 28.5832 0.341091C23.5353 0.341091 20.1142 2.41121 19.9047 2.5293L21.4966 0.0145962C21.4966 0.0145962 15.1431 -0.596714 12.9019 6.09296C12.3294 4.67583 11.8057 2.60571 11.8057 2.60571C11.8057 2.60571 8.5033 5.48859 10.0533 10.2679C6.26212 8.89248 0.851171 6.98213 0.641715 6.9474C0.355458 6.90572 0.271676 7.03076 0.271676 7.03076C0.271676 7.03076 0.187894 7.14886 0.432259 7.35726C0.886081 7.71154 9.43887 13.9983 11.317 15.214C10.912 16.6728 10.912 17.3605 11.317 18.0482C11.8895 18.9791 11.9244 19.4654 11.8476 20.1531C11.7638 20.8408 11.0307 26.8011 10.8702 27.5305C10.7096 28.2599 8.99901 30.851 9.07582 31.6221C9.1596 32.3932 10.2139 35.672 11.1564 36.0402C11.8476 36.2833 13.5582 36.8113 14.6962 36.8113C15.1012 36.8113 15.4712 36.7279 15.6318 36.5681C16.323 35.9638 16.5255 35.8387 17.0142 35.8387C17.0561 35.8387 17.098 35.8387 17.1329 35.8387C17.3354 35.8387 17.5797 35.8804 17.866 35.8804C18.5153 35.8804 19.3741 35.7554 19.9815 35.1927C20.8752 34.3035 22.4252 33.0878 22.9139 32.5182C23.5283 31.7471 23.8495 30.6982 23.6889 29.6423C23.5632 28.6697 24.0938 27.8153 24.7082 26.9678C25.4832 25.9536 26.9075 24.1335 26.9075 24.1335C29.7212 26.2314 31.4737 29.4339 31.4737 32.9975C31.4737 39.319 25.937 44.4248 19.0948 44.4248C18.0336 44.4248 17.0212 44.3067 16.0018 44.0636C19.1367 45.1542 21.7828 45.5224 23.9472 45.5224C28.5483 45.5224 30.9919 43.8622 30.9919 43.8622C30.9919 43.8622 30.1401 44.9597 28.7507 46.2101C28.7926 46.2101 28.7926 46.2101 28.7926 46.2101C36.4098 45.1542 40.1172 38.9161 40.1172 38.9161C40.1172 38.9161 39.831 40.9445 39.4679 42.32C49.5986 34.7411 47.888 25.2589 47.8461 24.9394C47.9299 25.0574 48.9493 26.2731 49.4729 26.9261C51.1067 10.2262 37.3803 4.8356 37.3803 4.8356ZM21.7828 31.504C21.6222 31.7054 20.931 32.3167 20.4423 32.7613C19.9536 33.2059 19.423 33.6505 19.018 34.0604C18.8574 34.2201 18.5293 34.3035 18.0405 34.3035C17.88 34.3035 17.7124 34.3035 17.5937 34.3035C17.5099 34.3035 17.4331 34.3035 17.3493 34.3035C17.2656 34.3035 17.2237 34.3035 17.1887 34.3035C17.0631 34.3035 16.9444 34.3035 16.8187 34.3035C17.4331 33.4907 19.2205 31.629 19.8349 31.2261C20.568 30.7398 20.938 30.2536 20.4842 29.4061C20.0374 28.5516 18.8574 28.76 18.8574 28.76C18.8574 28.76 19.5486 28.4752 20.163 28.4752C19.388 28.2738 18.4106 28.4752 17.9637 28.9198C17.475 29.3644 17.5588 30.9482 17.3563 31.9555C17.1538 33.0114 16.4626 33.5394 15.4014 34.5119C14.8289 35.0399 14.4239 35.1996 14.0958 35.1996C13.4046 35.0815 12.5877 34.8731 12.0152 34.6717C11.6102 34.1437 10.9958 32.4001 10.8352 31.6707C10.9539 31.2678 11.4427 30.4133 11.687 29.9271C12.1758 28.9962 12.462 28.4683 12.5458 27.982C12.7064 27.2943 13.237 23.036 13.4395 21.2576C13.9701 21.9453 14.7032 23.0846 14.5356 23.814C15.7156 22.1537 14.8638 20.5282 14.4519 19.8822C14.0888 19.2361 13.6001 17.9371 14.005 16.5616C14.41 15.1862 15.8762 11.3724 15.8762 11.3724C15.8762 11.3724 16.3649 12.2269 17.0561 12.0602C17.7473 11.9004 23.3258 3.55047 23.3258 3.55047C23.3258 3.55047 24.8339 6.82931 23.242 9.22592C21.6153 11.6156 20.0234 12.0602 20.0234 12.0602C20.0234 12.0602 22.2646 12.4631 24.3382 10.9626C25.19 12.9493 26.0069 15.0125 26.0487 15.2973C25.9231 15.5821 24.2963 19.4723 24.1357 19.7154C24.0519 19.7988 23.4864 19.9586 23.0745 20.0419C22.3833 20.2434 21.9783 20.3684 21.8107 20.4865C21.5245 20.7297 20.2189 24.2933 19.6115 26.0369C18.8784 26.2384 18.1453 26.6482 17.6146 27.4541C17.9009 27.2526 18.7946 27.1276 19.4509 27.0511C20.0234 27.0095 21.7689 27.9403 22.2227 29.6839C22.2227 29.7256 22.2227 29.7256 22.2227 29.7673C22.3134 30.4064 22.111 31.0177 21.7828 31.504ZM17.9568 31.9903C18.3268 31.4623 18.2849 30.5731 18.3268 30.2883C18.3687 30.0035 18.4455 29.4755 18.7736 29.3991C19.1018 29.3158 19.8768 29.4408 19.8768 30.0035C19.8768 30.5314 19.3043 30.6495 18.8993 31.0177C18.6061 31.2956 18.0336 31.9069 17.9568 31.9903ZM34.2036 24.2447C34.6085 22.1815 34.6504 20.3962 34.5317 18.9374C36.1166 21.0423 37.0941 23.5986 37.3803 26.2314C37.4222 26.5579 37.7434 26.8775 38.0715 27.204C38.3578 27.4471 38.6859 27.7736 38.6859 27.9751C38.6859 28.9059 38.6021 29.8368 38.4416 30.7746C38.3997 30.8927 38.0366 31.1011 37.7504 31.2608C37.3454 31.4623 36.9754 31.6638 36.8986 31.9903C36.0049 35.1093 34.0849 37.8672 31.5225 39.8122C35.3067 35.8804 37.136 29.3922 34.2036 24.2447ZM31.6412 40.1735C34.2874 38.145 36.3261 35.3108 37.2197 32.1083C37.2616 31.9903 37.6247 31.7819 37.8691 31.6221C38.274 31.4206 38.6859 31.1775 38.7627 30.851C38.9233 29.9201 39.0071 28.9476 39.0071 27.9751C39.0071 27.6138 38.6371 27.2457 38.274 26.8844C38.0715 26.6413 37.7434 26.3565 37.7434 26.155C37.4152 23.1957 36.2353 20.4032 34.406 18.0899C33.5892 13.2272 30.3356 11.7267 30.2518 11.6851C30.3356 11.8101 32.4511 14.8458 30.9849 18.4095C29.4768 22.0148 25.6089 21.4521 25.2807 21.4868C24.9526 21.4868 23.6959 23.1054 22.104 26.1064C21.9015 26.023 21.0427 25.8216 20.0653 25.9883C20.7984 23.9599 21.9015 21.0839 22.104 20.8408C22.1878 20.7574 22.7952 20.5977 23.2071 20.4796C23.9821 20.2781 24.3452 20.1531 24.4708 19.9933C24.5546 19.8683 24.9596 18.9374 25.3645 17.9649C25.7346 17.9649 26.6701 17.8815 26.7469 17.8398C26.8307 17.7565 27.6057 15.7767 27.6057 15.5335C27.6057 15.3321 26.0138 11.4002 25.4064 9.89975C25.6927 9.57325 25.9789 9.17034 26.2582 8.72576C34.6085 9.62188 41.1296 16.6728 41.1296 25.2172C41.1296 31.7818 37.2616 37.499 31.6412 40.1735Z" fill="#1B314F"/>
<path d="M20.8048 18.2914C21.5798 17.4022 21.1748 15.742 19.7436 15.4572C20.1136 14.6097 20.6372 12.9077 20.6372 12.9077C20.6372 12.9077 16.483 19.389 16.12 19.514C15.7499 19.6391 15.3869 18.215 15.3869 18.215C14.6119 21.1743 16.6925 21.5772 16.9368 20.6463C18.0749 20.3546 20.0298 19.1389 20.8048 18.2914Z" fill="#1B314F"/>
<path d="M17.2578 19.868L19.3733 16.2627C19.3733 16.2627 20.5951 16.874 19.9807 17.8465C19.2127 18.9789 17.2578 19.868 17.2578 19.868Z" fill="#FFD923"/>
<path d="M43.4475 36.5682C42.8331 37.3809 42.1419 38.2284 41.332 39.0412C46.5824 28.9893 41.5764 19.7919 41.3739 19.4307C41.744 19.7988 42.107 20.2017 42.4352 20.563C46.4637 25.0158 46.9524 31.7055 43.4475 36.5682Z" fill="#D82122"/>
<path d="M48.3345 23.6401C46.4983 18.7358 43.894 14.5608 38.1549 10.7957C32.6183 7.14866 26.6697 7.43347 26.3416 7.47515C26.2997 7.47515 26.2578 7.47515 26.2578 7.47515C26.4603 7.39179 26.6628 7.35011 26.8652 7.31538C28.129 6.91247 29.7557 6.58598 31.3895 6.38452C35.7113 5.76626 40.068 7.22507 43.0422 10.3511C43.0841 10.3928 43.0841 10.3928 43.126 10.4344C46.5052 13.9981 48.2577 18.4509 48.3345 23.6401Z" fill="#D82122"/>
<path d="M36.851 3.57831C30.7838 2.44599 26.8739 3.00868 24.0602 4.06458C23.9765 3.73808 23.6902 3.09204 23.4458 2.56409C22.601 3.57831 21.7004 4.79398 21.1348 5.56506C19.5849 6.62096 18.9355 7.63518 18.9355 7.63518C19.8292 4.59252 22.4404 2.3279 25.6172 1.75827C26.5109 1.5985 27.4883 1.51514 28.5496 1.51514C31.3563 1.55682 34.163 2.24454 36.851 3.57831Z" fill="#D82122"/>
<path d="M14.4102 11.3588C9.64858 11.199 11.2335 5.68332 11.3172 5.36377C11.3172 5.40545 11.6384 9.69851 14.4102 11.3588Z" fill="#D82122"/>
<path d="M19.0948 1.43164C15.4293 3.61985 16.1624 8.84377 16.1624 8.84377C12.6575 3.54344 18.8085 1.55668 19.0948 1.43164Z" fill="#D82122"/>
<path d="M13.0694 12.8178C13.3138 13.0193 13.5582 13.3874 13.2719 13.9154C13.1113 14.2002 12.867 14.1585 12.4969 13.9988C12.0082 13.7556 9.07582 12.0537 6.42969 10.3101C9.44586 11.366 12.4969 12.4983 12.9857 12.7414C12.9857 12.7414 13.0276 12.7831 13.0694 12.8178Z" fill="white"/>
</svg>
