<svg width="33" height="39" viewBox="0 0 33 39" fill="none" xmlns="http://www.w3.org/2000/svg">
<path d="M21.476 4.15704L23.156 1.19821C23.1775 1.16029 23.1911 1.11862 23.1961 1.07556C23.2011 1.03251 23.1973 0.988915 23.1851 0.947274C23.1728 0.905633 23.1523 0.866758 23.1246 0.83287C23.0969 0.798982 23.0627 0.770744 23.0239 0.749768C22.985 0.728792 22.9423 0.715489 22.8982 0.710619C22.8541 0.705748 22.8095 0.709406 22.7668 0.721383C22.7242 0.73336 22.6843 0.753421 22.6496 0.780422C22.6149 0.807422 22.586 0.840833 22.5645 0.878747L20.867 3.86833C19.4179 3.24812 17.8529 2.92791 16.2706 2.92791C14.6884 2.92791 13.1233 3.24812 11.6742 3.86833L9.97675 0.878747C9.93335 0.801724 9.86039 0.744684 9.77391 0.720175C9.68744 0.695666 9.59453 0.705697 9.51562 0.748059C9.43672 0.790422 9.37829 0.861647 9.35318 0.946066C9.32808 1.03048 9.33835 1.12118 9.38175 1.19821L11.0618 4.15704C9.46328 4.92663 8.11276 6.11103 7.15828 7.58038C6.20381 9.04973 5.68223 10.7473 5.65075 12.4869H26.8905C26.8587 10.7469 26.3366 9.04912 25.3815 7.57974C24.4264 6.11036 23.0751 4.92615 21.476 4.15704V4.15704ZM11.3697 8.69266C11.1942 8.69266 11.0226 8.64182 10.8766 8.54658C10.7307 8.45133 10.617 8.31596 10.5499 8.15759C10.4828 7.99923 10.4653 7.82499 10.4997 7.65694C10.5341 7.48888 10.6187 7.33455 10.743 7.21349C10.8673 7.09243 11.0255 7.01007 11.1977 6.97685C11.37 6.94362 11.5484 6.96102 11.7105 7.02683C11.8726 7.09265 12.011 7.20393 12.1083 7.34659C12.2056 7.48925 12.2573 7.65687 12.257 7.82825C12.2565 8.05766 12.1629 8.27752 11.9965 8.43959C11.8302 8.60165 11.6048 8.69266 11.3697 8.69266ZM21.1732 8.69266C20.9977 8.69266 20.8261 8.64182 20.6801 8.54658C20.5342 8.45133 20.4205 8.31596 20.3534 8.15759C20.2863 7.99923 20.2688 7.82499 20.3032 7.65694C20.3376 7.48888 20.4222 7.33455 20.5465 7.21349C20.6707 7.09243 20.829 7.01007 21.0012 6.97685C21.1735 6.94362 21.3519 6.96102 21.514 7.02683C21.6761 7.09265 21.8145 7.20393 21.9118 7.34659C22.0091 7.48925 22.0608 7.65687 22.0605 7.82825C22.06 8.05766 21.9664 8.27752 21.8 8.43959C21.6337 8.60165 21.4083 8.69266 21.1732 8.69266ZM5.64725 28.3334C5.64679 28.6632 5.71303 28.9899 5.84216 29.2947C5.9713 29.5994 6.1608 29.8763 6.3998 30.1095C6.63879 30.3426 6.92258 30.5274 7.23488 30.6533C7.54719 30.7791 7.88188 30.8436 8.21975 30.8429H9.9225V35.9679C9.9225 36.5843 10.1733 37.1755 10.6198 37.6114C11.0663 38.0472 11.6719 38.2921 12.3034 38.2921C12.9348 38.2921 13.5404 38.0472 13.9869 37.6114C14.4334 37.1755 14.6842 36.5843 14.6842 35.9679V30.8429H17.8587V35.9679C17.8587 36.5841 18.1095 37.175 18.5558 37.6108C19.0022 38.0465 19.6075 38.2912 20.2387 38.2912C20.87 38.2912 21.4753 38.0465 21.9217 37.6108C22.368 37.175 22.6188 36.5841 22.6188 35.9679V30.8429H24.3232C24.6607 30.8431 24.9948 30.7784 25.3066 30.6525C25.6184 30.5265 25.9017 30.3418 26.1403 30.1089C26.3789 29.876 26.5681 29.5994 26.6972 29.2951C26.8262 28.9907 26.8925 28.6645 26.8922 28.3351V13.3069H5.64725V28.3334ZM2.38 12.9071C1.74877 12.908 1.14368 13.1533 0.697491 13.5892C0.251305 14.0251 0.000462781 14.616 0 15.2322V24.9167C-4.6573e-09 25.2218 0.0615603 25.5239 0.181167 25.8058C0.300773 26.0877 0.476082 26.3438 0.697086 26.5596C0.918089 26.7753 1.18046 26.9464 1.46921 27.0632C1.75797 27.1799 2.06745 27.24 2.38 27.24C2.69255 27.24 3.00203 27.1799 3.29079 27.0632C3.57954 26.9464 3.84191 26.7753 4.06291 26.5596C4.28392 26.3438 4.45923 26.0877 4.57883 25.8058C4.69844 25.5239 4.76 25.2218 4.76 24.9167V15.2322C4.75907 14.6163 4.50803 14.0258 4.06189 13.5903C3.61576 13.1548 3.01093 12.9097 2.38 12.9088V12.9071ZM30.156 12.9071C29.5248 12.908 28.9197 13.1533 28.4735 13.5892C28.0273 14.0251 27.7765 14.616 27.776 15.2322V24.9167C27.776 25.2218 27.8376 25.5239 27.9572 25.8058C28.0768 26.0877 28.2521 26.3438 28.4731 26.5596C28.6941 26.7753 28.9565 26.9464 29.2452 27.0632C29.534 27.1799 29.8435 27.24 30.156 27.24C30.4685 27.24 30.778 27.1799 31.0668 27.0632C31.3555 26.9464 31.6179 26.7753 31.8389 26.5596C32.0599 26.3438 32.2352 26.0877 32.3548 25.8058C32.4744 25.5239 32.536 25.2218 32.536 24.9167V15.2322C32.5351 14.6163 32.284 14.0258 31.8379 13.5903C31.3918 13.1548 30.7869 12.9097 30.156 12.9088V12.9071Z" fill="white"/>
</svg>
