<svg width="860" height="634" viewBox="0 0 860 634" fill="none" xmlns="http://www.w3.org/2000/svg">
<path fill-rule="evenodd" clip-rule="evenodd" d="M394.529 153.201L0 377.336L427.177 633.716L860 371.599L467.605 151L429.243 171.869L394.529 153.201ZM431.449 236.722L650.772 372.995L428.551 520.544L209.228 375.94L431.449 236.722Z" fill="url(#paint0_linear_48_214)"/>
<path fill-rule="evenodd" clip-rule="evenodd" d="M394.529 66.8638L0 290.999L427.177 547.379L860 285.262L467.605 64.663L429.243 85.5318L394.529 66.8638ZM431.449 150.385L650.772 286.658L428.551 434.207L209.228 289.603L431.449 150.385Z" fill="url(#paint1_linear_48_214)"/>
<path fill-rule="evenodd" clip-rule="evenodd" d="M394.529 2.16288L0 222.429L427.177 474.383L860 216.791L467.605 0L429.243 20.5085L394.529 2.16288ZM431.449 84.2423L650.772 218.162L428.551 363.165L209.228 221.057L431.449 84.2423Z" fill="url(#paint2_linear_48_214)"/>
<defs>
<linearGradient id="paint0_linear_48_214" x1="430" y1="109.621" x2="430" y2="752.095" gradientUnits="userSpaceOnUse">
<stop offset="0.269341" stop-color="#6D1454" stop-opacity="0"/>
<stop offset="0.403623" stop-color="#6D1454" stop-opacity="0"/>
<stop offset="0.761597" stop-color="#6D1454"/>
<stop offset="0.922563" stop-color="#6D1454"/>
</linearGradient>
<linearGradient id="paint1_linear_48_214" x1="430" y1="23.2837" x2="430" y2="665.758" gradientUnits="userSpaceOnUse">
<stop offset="0.269341" stop-color="#446AEF" stop-opacity="0"/>
<stop offset="0.403623" stop-color="#446AEF" stop-opacity="0"/>
<stop offset="0.761597" stop-color="#446AEF"/>
<stop offset="0.922563" stop-color="#1B4DFF"/>
</linearGradient>
<linearGradient id="paint2_linear_48_214" x1="430" y1="-40.6649" x2="430" y2="590.719" gradientUnits="userSpaceOnUse">
<stop offset="0.269341" stop-color="#5FF57A" stop-opacity="0"/>
<stop offset="0.403623" stop-color="#20FC47" stop-opacity="0.02"/>
<stop offset="0.761597" stop-color="#00FF2D"/>
<stop offset="0.922563" stop-color="#3BDA57"/>
</linearGradient>
</defs>
</svg>
