<svg width="128" height="118" viewBox="0 0 128 118" fill="none" xmlns="http://www.w3.org/2000/svg">
<mask id="mask0_2935_183" style="mask-type:alpha" maskUnits="userSpaceOnUse" x="19" y="9" width="95" height="87">
<rect width="91.8461" height="36.5401" transform="matrix(-0.769915 0.638146 0.638146 0.769915 90.3086 9.18066)" fill="url(#paint0_linear_2935_183)"/>
</mask>
<g mask="url(#mask0_2935_183)">
<g filter="url(#filter0_dddd_2935_183)">
<ellipse cx="33.2084" cy="33.5168" rx="33.2084" ry="33.5168" transform="matrix(-0.950335 0.311229 0.482186 -0.876069 81.9629 71.4517)" stroke="white" stroke-width="3" stroke-linecap="round" stroke-dasharray="0.1 12"/>
</g>
</g>
<ellipse cx="25.5" cy="88" rx="21.5" ry="22" fill="#181818"/>
<ellipse cx="103.5" cy="31" rx="21.5" ry="22" fill="#181818"/>
<g filter="url(#filter1_b_2935_183)">
<path fill-rule="evenodd" clip-rule="evenodd" d="M45.7345 90.8622C45.7345 105.054 34.8755 116.714 22.8672 116.714V118C35.7117 118 47.0202 105.631 47.0202 90.8622C47.0202 76.1046 36.2729 64 23.4182 64V65.2857C35.4163 65.2857 45.7345 76.6587 45.7345 90.8622Z" fill="url(#paint1_radial_2935_183)" fill-opacity="0.9"/>
<path fill-rule="evenodd" clip-rule="evenodd" d="M45.7345 90.8622C45.7345 105.054 34.8755 116.714 22.8672 116.714V118C35.7117 118 47.0202 105.631 47.0202 90.8622C47.0202 76.1046 36.2729 64 23.4182 64V65.2857C35.4163 65.2857 45.7345 76.6587 45.7345 90.8622Z" fill="url(#paint2_radial_2935_183)" fill-opacity="0.9"/>
<path fill-rule="evenodd" clip-rule="evenodd" d="M45.7345 90.8622C45.7345 105.054 34.8755 116.714 22.8672 116.714V118C35.7117 118 47.0202 105.631 47.0202 90.8622C47.0202 76.1046 36.2729 64 23.4182 64V65.2857C35.4163 65.2857 45.7345 76.6587 45.7345 90.8622Z" fill="url(#paint3_radial_2935_183)" fill-opacity="0.9"/>
<path fill-rule="evenodd" clip-rule="evenodd" d="M45.7345 90.8622C45.7345 105.054 34.8755 116.714 22.8672 116.714V118C35.7117 118 47.0202 105.631 47.0202 90.8622C47.0202 76.1046 36.2729 64 23.4182 64V65.2857C35.4163 65.2857 45.7345 76.6587 45.7345 90.8622Z" fill="url(#paint4_radial_2935_183)" fill-opacity="0.9"/>
<path fill-rule="evenodd" clip-rule="evenodd" d="M45.7345 90.8622C45.7345 105.054 34.8755 116.714 22.8672 116.714V118C35.7117 118 47.0202 105.631 47.0202 90.8622C47.0202 76.1046 36.2729 64 23.4182 64V65.2857C35.4163 65.2857 45.7345 76.6587 45.7345 90.8622Z" fill="url(#paint5_radial_2935_183)" fill-opacity="0.9"/>
</g>
<path d="M45.3928 90.862C45.3928 76.4823 35.3966 64.8927 23.1428 64.8927C10.8861 64.8927 0.433594 76.7611 0.433594 91.1375C0.433594 105.517 10.4298 117.107 22.6836 117.107C34.9403 117.107 45.3928 105.238 45.3928 90.862Z" fill="url(#paint6_linear_2935_183)"/>
<path d="M45.3928 90.862C45.3928 76.4823 35.3966 64.8927 23.1428 64.8927C10.8861 64.8927 0.433594 76.7611 0.433594 91.1375C0.433594 105.517 10.4298 117.107 22.6836 117.107C34.9403 117.107 45.3928 105.238 45.3928 90.862Z" stroke="url(#paint7_radial_2935_183)" stroke-width="0.5"/>
<path d="M45.3928 90.862C45.3928 76.4823 35.3966 64.8927 23.1428 64.8927C10.8861 64.8927 0.433594 76.7611 0.433594 91.1375C0.433594 105.517 10.4298 117.107 22.6836 117.107C34.9403 117.107 45.3928 105.238 45.3928 90.862Z" stroke="url(#paint8_linear_2935_183)" stroke-opacity="0.07" stroke-width="0.5"/>
<g filter="url(#filter2_iii_2935_183)">
<path d="M42.8444 90.7842C42.8444 77.9685 33.9435 67.7142 23.1179 67.7142C12.2855 67.7142 2.70312 78.4995 2.70312 91.3074C2.70312 104.123 11.604 114.377 22.4296 114.377C33.262 114.377 42.8444 103.592 42.8444 90.7842Z" stroke="url(#paint9_linear_2935_183)"/>
<path d="M42.8444 90.7842C42.8444 77.9685 33.9435 67.7142 23.1179 67.7142C12.2855 67.7142 2.70312 78.4995 2.70312 91.3074C2.70312 104.123 11.604 114.377 22.4296 114.377C33.262 114.377 42.8444 103.592 42.8444 90.7842Z" stroke="url(#paint10_linear_2935_183)" stroke-opacity="0.25"/>
</g>
<path d="M28.5061 83.1484L17.041 79.0884L16.7044 81.4684L24.0809 84.0806L16.0196 86.3105L15.9732 86.6388L15.6389 89.0024L14.2936 98.5144L16.2934 99.2225L17.1547 93.1329L23.724 101.854L25.7625 102.576L25.9639 101.152L27.4421 90.7002L19.7368 87.9716L28.1741 85.4956L28.5061 83.1484ZM25.0693 92.3419L24.1754 98.6914L17.6375 89.7188L17.6387 89.7106L25.0693 92.3419Z" fill="url(#paint11_linear_2935_183)"/>
<g filter="url(#filter3_b_2935_183)">
<path fill-rule="evenodd" clip-rule="evenodd" d="M125.735 26.8622C125.735 41.0543 114.875 52.7143 102.867 52.7143V54C115.712 54 127.02 41.6313 127.02 26.8622C127.02 12.1046 116.273 -5.36442e-07 103.418 -5.36442e-07V1.28571C115.416 1.28571 125.735 12.6587 125.735 26.8622Z" fill="url(#paint12_radial_2935_183)" fill-opacity="0.9"/>
<path fill-rule="evenodd" clip-rule="evenodd" d="M125.735 26.8622C125.735 41.0543 114.875 52.7143 102.867 52.7143V54C115.712 54 127.02 41.6313 127.02 26.8622C127.02 12.1046 116.273 -5.36442e-07 103.418 -5.36442e-07V1.28571C115.416 1.28571 125.735 12.6587 125.735 26.8622Z" fill="url(#paint13_radial_2935_183)" fill-opacity="0.9"/>
<path fill-rule="evenodd" clip-rule="evenodd" d="M125.735 26.8622C125.735 41.0543 114.875 52.7143 102.867 52.7143V54C115.712 54 127.02 41.6313 127.02 26.8622C127.02 12.1046 116.273 -5.36442e-07 103.418 -5.36442e-07V1.28571C115.416 1.28571 125.735 12.6587 125.735 26.8622Z" fill="url(#paint14_radial_2935_183)" fill-opacity="0.9"/>
<path fill-rule="evenodd" clip-rule="evenodd" d="M125.735 26.8622C125.735 41.0543 114.875 52.7143 102.867 52.7143V54C115.712 54 127.02 41.6313 127.02 26.8622C127.02 12.1046 116.273 -5.36442e-07 103.418 -5.36442e-07V1.28571C115.416 1.28571 125.735 12.6587 125.735 26.8622Z" fill="url(#paint15_radial_2935_183)" fill-opacity="0.9"/>
<path fill-rule="evenodd" clip-rule="evenodd" d="M125.735 26.8622C125.735 41.0543 114.875 52.7143 102.867 52.7143V54C115.712 54 127.02 41.6313 127.02 26.8622C127.02 12.1046 116.273 -5.36442e-07 103.418 -5.36442e-07V1.28571C115.416 1.28571 125.735 12.6587 125.735 26.8622Z" fill="url(#paint16_radial_2935_183)" fill-opacity="0.9"/>
</g>
<path d="M125.393 26.862C125.393 12.4823 115.397 0.892651 103.143 0.892651C90.8861 0.892651 80.4336 12.7611 80.4336 27.1375C80.4336 41.5173 90.4298 53.1069 102.684 53.1069C114.94 53.1069 125.393 41.2384 125.393 26.862Z" fill="url(#paint17_linear_2935_183)"/>
<path d="M125.393 26.862C125.393 12.4823 115.397 0.892651 103.143 0.892651C90.8861 0.892651 80.4336 12.7611 80.4336 27.1375C80.4336 41.5173 90.4298 53.1069 102.684 53.1069C114.94 53.1069 125.393 41.2384 125.393 26.862Z" stroke="url(#paint18_radial_2935_183)" stroke-width="0.5"/>
<path d="M125.393 26.862C125.393 12.4823 115.397 0.892651 103.143 0.892651C90.8861 0.892651 80.4336 12.7611 80.4336 27.1375C80.4336 41.5173 90.4298 53.1069 102.684 53.1069C114.94 53.1069 125.393 41.2384 125.393 26.862Z" stroke="url(#paint19_linear_2935_183)" stroke-opacity="0.05" stroke-width="0.5"/>
<g filter="url(#filter4_iii_2935_183)">
<path d="M122.844 26.7842C122.844 13.9685 113.944 3.71418 103.118 3.71418C92.2855 3.71418 82.7031 14.4995 82.7031 27.3074C82.7031 40.1231 91.604 50.3774 102.43 50.3774C113.262 50.3774 122.844 39.5921 122.844 26.7842Z" stroke="url(#paint20_linear_2935_183)"/>
<path d="M122.844 26.7842C122.844 13.9685 113.944 3.71418 103.118 3.71418C92.2855 3.71418 82.7031 14.4995 82.7031 27.3074C82.7031 40.1231 91.604 50.3774 102.43 50.3774C113.262 50.3774 122.844 39.5921 122.844 26.7842Z" stroke="url(#paint21_linear_2935_183)" stroke-opacity="0.25"/>
</g>
<path d="M108.477 25.8898C108.84 23.7923 107.266 22.5645 105.074 21.6901L105.866 18.8557L104.138 18.3294L103.373 21.0905C102.916 20.9545 102.447 20.8179 101.977 20.6937L102.742 17.9201L101.014 17.3938L100.236 20.2165C99.8527 20.1093 99.4822 20.0027 99.1242 19.8968L99.1245 19.8843L96.7297 19.1612L96.2239 21.0022C96.2239 21.0022 97.5082 21.3683 97.4831 21.3795C98.1868 21.5906 98.2992 22.0696 98.2652 22.4413L97.3643 25.6685C97.4137 25.6835 97.4755 25.6992 97.5491 25.7404C97.4873 25.7247 97.4255 25.709 97.364 25.6809L96.1079 30.1966C96.0157 30.4034 95.7842 30.715 95.3028 30.5653C95.3146 30.5908 94.0437 30.188 94.0437 30.188L93.1246 32.1443L95.3834 32.8354C95.8029 32.9694 96.2103 33.0904 96.6174 33.2237L95.8252 36.0831L97.5533 36.6094L98.3449 33.7749C98.8138 33.924 99.2827 34.0731 99.727 34.2084L98.9482 37.0311L100.676 37.5574L101.468 34.6981C104.436 35.4138 106.677 35.3072 107.675 32.6579C108.486 30.5341 107.723 29.2366 106.178 28.334C107.34 28.1334 108.215 27.4199 108.477 25.8898ZM104.352 31.276C103.764 33.4115 100.141 32.0514 98.9686 31.6911L100.02 27.8992C101.193 28.2595 104.979 29.043 104.352 31.276ZM105.038 25.6722C104.492 27.6231 101.486 26.4572 100.511 26.1571L101.467 22.7212C102.442 23.0213 105.598 23.6473 105.038 25.6722Z" fill="url(#paint22_linear_2935_183)"/>
<defs>
<filter id="filter0_dddd_2935_183" x="2.84375" y="-3.27441" width="127.441" height="111.397" filterUnits="userSpaceOnUse" color-interpolation-filters="sRGB">
<feFlood flood-opacity="0" result="BackgroundImageFix"/>
<feColorMatrix in="SourceAlpha" type="matrix" values="0 0 0 0 0 0 0 0 0 0 0 0 0 0 0 0 0 0 127 0" result="hardAlpha"/>
<feOffset/>
<feGaussianBlur stdDeviation="2"/>
<feColorMatrix type="matrix" values="0 0 0 0 1 0 0 0 0 1 0 0 0 0 1 0 0 0 1 0"/>
<feBlend mode="normal" in2="BackgroundImageFix" result="effect1_dropShadow_2935_183"/>
<feColorMatrix in="SourceAlpha" type="matrix" values="0 0 0 0 0 0 0 0 0 0 0 0 0 0 0 0 0 0 127 0" result="hardAlpha"/>
<feOffset/>
<feGaussianBlur stdDeviation="4"/>
<feColorMatrix type="matrix" values="0 0 0 0 0.270833 0 0 0 0 1 0 0 0 0 0.762597 0 0 0 1 0"/>
<feBlend mode="normal" in2="effect1_dropShadow_2935_183" result="effect2_dropShadow_2935_183"/>
<feColorMatrix in="SourceAlpha" type="matrix" values="0 0 0 0 0 0 0 0 0 0 0 0 0 0 0 0 0 0 127 0" result="hardAlpha"/>
<feOffset/>
<feGaussianBlur stdDeviation="6"/>
<feColorMatrix type="matrix" values="0 0 0 0 0.270588 0 0 0 0 1 0 0 0 0 0.760784 0 0 0 1 0"/>
<feBlend mode="normal" in2="effect2_dropShadow_2935_183" result="effect3_dropShadow_2935_183"/>
<feColorMatrix in="SourceAlpha" type="matrix" values="0 0 0 0 0 0 0 0 0 0 0 0 0 0 0 0 0 0 127 0" result="hardAlpha"/>
<feOffset/>
<feGaussianBlur stdDeviation="8"/>
<feColorMatrix type="matrix" values="0 0 0 0 0.204167 0 0 0 0 0.204167 0 0 0 0 0.204167 0 0 0 1 0"/>
<feBlend mode="normal" in2="effect3_dropShadow_2935_183" result="effect4_dropShadow_2935_183"/>
<feBlend mode="normal" in="SourceGraphic" in2="effect4_dropShadow_2935_183" result="shape"/>
</filter>
<filter id="filter1_b_2935_183" x="-12.1328" y="29" width="94.1523" height="124" filterUnits="userSpaceOnUse" color-interpolation-filters="sRGB">
<feFlood flood-opacity="0" result="BackgroundImageFix"/>
<feGaussianBlur in="BackgroundImageFix" stdDeviation="17.5"/>
<feComposite in2="SourceAlpha" operator="in" result="effect1_backgroundBlur_2935_183"/>
<feBlend mode="normal" in="SourceGraphic" in2="effect1_backgroundBlur_2935_183" result="shape"/>
</filter>
<filter id="filter2_iii_2935_183" x="-1.79688" y="63.2144" width="49.1406" height="55.6631" filterUnits="userSpaceOnUse" color-interpolation-filters="sRGB">
<feFlood flood-opacity="0" result="BackgroundImageFix"/>
<feBlend mode="normal" in="SourceGraphic" in2="BackgroundImageFix" result="shape"/>
<feColorMatrix in="SourceAlpha" type="matrix" values="0 0 0 0 0 0 0 0 0 0 0 0 0 0 0 0 0 0 127 0" result="hardAlpha"/>
<feOffset dx="4" dy="-6"/>
<feGaussianBlur stdDeviation="2"/>
<feComposite in2="hardAlpha" operator="arithmetic" k2="-1" k3="1"/>
<feColorMatrix type="matrix" values="0 0 0 0 0.316667 0 0 0 0 0.316667 0 0 0 0 0.316667 0 0 0 0.25 0"/>
<feBlend mode="normal" in2="shape" result="effect1_innerShadow_2935_183"/>
<feColorMatrix in="SourceAlpha" type="matrix" values="0 0 0 0 0 0 0 0 0 0 0 0 0 0 0 0 0 0 127 0" result="hardAlpha"/>
<feOffset dx="-4" dy="6"/>
<feGaussianBlur stdDeviation="2"/>
<feComposite in2="hardAlpha" operator="arithmetic" k2="-1" k3="1"/>
<feColorMatrix type="matrix" values="0 0 0 0 0.270833 0 0 0 0 0.270833 0 0 0 0 0.270833 0 0 0 0.25 0"/>
<feBlend mode="normal" in2="effect1_innerShadow_2935_183" result="effect2_innerShadow_2935_183"/>
<feColorMatrix in="SourceAlpha" type="matrix" values="0 0 0 0 0 0 0 0 0 0 0 0 0 0 0 0 0 0 127 0" result="hardAlpha"/>
<feOffset dx="-4" dy="-4"/>
<feGaussianBlur stdDeviation="2"/>
<feComposite in2="hardAlpha" operator="arithmetic" k2="-1" k3="1"/>
<feColorMatrix type="matrix" values="0 0 0 0 0.270833 0 0 0 0 0.270833 0 0 0 0 0.270833 0 0 0 0.25 0"/>
<feBlend mode="normal" in2="effect2_innerShadow_2935_183" result="effect3_innerShadow_2935_183"/>
</filter>
<filter id="filter3_b_2935_183" x="67.8672" y="-35" width="94.1523" height="124" filterUnits="userSpaceOnUse" color-interpolation-filters="sRGB">
<feFlood flood-opacity="0" result="BackgroundImageFix"/>
<feGaussianBlur in="BackgroundImageFix" stdDeviation="17.5"/>
<feComposite in2="SourceAlpha" operator="in" result="effect1_backgroundBlur_2935_183"/>
<feBlend mode="normal" in="SourceGraphic" in2="effect1_backgroundBlur_2935_183" result="shape"/>
</filter>
<filter id="filter4_iii_2935_183" x="78.2031" y="-0.785645" width="49.1406" height="55.6631" filterUnits="userSpaceOnUse" color-interpolation-filters="sRGB">
<feFlood flood-opacity="0" result="BackgroundImageFix"/>
<feBlend mode="normal" in="SourceGraphic" in2="BackgroundImageFix" result="shape"/>
<feColorMatrix in="SourceAlpha" type="matrix" values="0 0 0 0 0 0 0 0 0 0 0 0 0 0 0 0 0 0 127 0" result="hardAlpha"/>
<feOffset dx="4" dy="-6"/>
<feGaussianBlur stdDeviation="2"/>
<feComposite in2="hardAlpha" operator="arithmetic" k2="-1" k3="1"/>
<feColorMatrix type="matrix" values="0 0 0 0 0.316667 0 0 0 0 0.316667 0 0 0 0 0.316667 0 0 0 0.25 0"/>
<feBlend mode="normal" in2="shape" result="effect1_innerShadow_2935_183"/>
<feColorMatrix in="SourceAlpha" type="matrix" values="0 0 0 0 0 0 0 0 0 0 0 0 0 0 0 0 0 0 127 0" result="hardAlpha"/>
<feOffset dx="-4" dy="6"/>
<feGaussianBlur stdDeviation="2"/>
<feComposite in2="hardAlpha" operator="arithmetic" k2="-1" k3="1"/>
<feColorMatrix type="matrix" values="0 0 0 0 0.270833 0 0 0 0 0.270833 0 0 0 0 0.270833 0 0 0 0.25 0"/>
<feBlend mode="normal" in2="effect1_innerShadow_2935_183" result="effect2_innerShadow_2935_183"/>
<feColorMatrix in="SourceAlpha" type="matrix" values="0 0 0 0 0 0 0 0 0 0 0 0 0 0 0 0 0 0 127 0" result="hardAlpha"/>
<feOffset dx="-4" dy="-4"/>
<feGaussianBlur stdDeviation="2"/>
<feComposite in2="hardAlpha" operator="arithmetic" k2="-1" k3="1"/>
<feColorMatrix type="matrix" values="0 0 0 0 0.270833 0 0 0 0 0.270833 0 0 0 0 0.270833 0 0 0 0.25 0"/>
<feBlend mode="normal" in2="effect2_innerShadow_2935_183" result="effect3_innerShadow_2935_183"/>
</filter>
<linearGradient id="paint0_linear_2935_183" x1="45.9231" y1="0" x2="45.9231" y2="36.5401" gradientUnits="userSpaceOnUse">
<stop stop-color="#D9D9D9" stop-opacity="0"/>
<stop offset="1" stop-color="#D9D9D9"/>
</linearGradient>
<radialGradient id="paint1_radial_2935_183" cx="0" cy="0" r="1" gradientUnits="userSpaceOnUse" gradientTransform="translate(48.9029 79.9337) rotate(126.521) scale(10.5706 4.71442)">
<stop stop-color="#0A0505"/>
<stop offset="0.302247" stop-color="#20FF48"/>
<stop offset="0.989583" stop-color="#12FF3C" stop-opacity="0"/>
</radialGradient>
<radialGradient id="paint2_radial_2935_183" cx="0" cy="0" r="1" gradientUnits="userSpaceOnUse" gradientTransform="translate(54.2753 102.755) rotate(-137.954) scale(26.4651 11.8032)">
<stop offset="0.114583" stop-color="#3BDA57"/>
<stop offset="1" stop-color="#3BDA57" stop-opacity="0"/>
</radialGradient>
<radialGradient id="paint3_radial_2935_183" cx="0" cy="0" r="1" gradientUnits="userSpaceOnUse" gradientTransform="translate(41.6903 125.147) rotate(-100.008) scale(27.4172 12.2279)">
<stop stop-color="#12FF3C"/>
<stop offset="1" stop-color="#26C742" stop-opacity="0"/>
</radialGradient>
<radialGradient id="paint4_radial_2935_183" cx="0" cy="0" r="1" gradientUnits="userSpaceOnUse" gradientTransform="translate(54.7345 100.23) rotate(-143.444) scale(20.1217 17.3524)">
<stop offset="0.00401228" stop-color="#3BDA57"/>
<stop offset="0.317708" stop-color="#12FF3C"/>
<stop offset="0.713542" stop-color="#006011"/>
<stop offset="1" stop-color="#CCFFFA" stop-opacity="0"/>
</radialGradient>
<radialGradient id="paint5_radial_2935_183" cx="0" cy="0" r="1" gradientUnits="userSpaceOnUse" gradientTransform="translate(34.6223 91) rotate(-82.4047) scale(26.4378 11.7911)">
<stop offset="0.154514" stop-color="#008F19"/>
<stop offset="1" stop-color="#6EFF87" stop-opacity="0"/>
</radialGradient>
<linearGradient id="paint6_linear_2935_183" x1="46.4348" y1="99.0847" x2="-13.0723" y2="84.3323" gradientUnits="userSpaceOnUse">
<stop stop-color="#010101" stop-opacity="0"/>
<stop stop-opacity="0.9"/>
<stop offset="0.459707" stop-color="#363636" stop-opacity="0.971584"/>
<stop offset="0.827067" stop-color="#0A0A0A" stop-opacity="0.995031"/>
<stop offset="1" stop-color="#010101"/>
<stop offset="1" stop-color="white" stop-opacity="0"/>
</linearGradient>
<radialGradient id="paint7_radial_2935_183" cx="0" cy="0" r="1" gradientUnits="userSpaceOnUse" gradientTransform="translate(-9.96437 76.0763) rotate(25.9442) scale(34.1112 29.4164)">
<stop stop-color="#343434"/>
<stop offset="1" stop-color="#A4A4A4" stop-opacity="0"/>
</radialGradient>
<linearGradient id="paint8_linear_2935_183" x1="20.3418" y1="90.9998" x2="70.5764" y2="68.408" gradientUnits="userSpaceOnUse">
<stop stop-color="#3D3F3E"/>
<stop offset="1" stop-color="#606261"/>
</linearGradient>
<linearGradient id="paint9_linear_2935_183" x1="-18.1846" y1="115.842" x2="36.8757" y2="98.6477" gradientUnits="userSpaceOnUse">
<stop stop-color="#008F19"/>
<stop offset="1" stop-color="#00FF2D" stop-opacity="0.27"/>
</linearGradient>
<linearGradient id="paint10_linear_2935_183" x1="55.8358" y1="84.8009" x2="20.9299" y2="94.4149" gradientUnits="userSpaceOnUse">
<stop stop-color="#12FF3C"/>
<stop offset="1" stop-color="#12FF3C"/>
</linearGradient>
<linearGradient id="paint11_linear_2935_183" x1="22.7755" y1="81.1191" x2="16.3568" y2="99.245" gradientUnits="userSpaceOnUse">
<stop stop-color="#6FF34D"/>
<stop offset="1" stop-color="#4BD926" stop-opacity="0.5"/>
</linearGradient>
<radialGradient id="paint12_radial_2935_183" cx="0" cy="0" r="1" gradientUnits="userSpaceOnUse" gradientTransform="translate(128.903 15.9337) rotate(126.521) scale(10.5706 4.71442)">
<stop stop-color="#0A0505"/>
<stop offset="0.302247" stop-color="#F3992F"/>
<stop offset="0.989583" stop-color="#F3992F" stop-opacity="0"/>
</radialGradient>
<radialGradient id="paint13_radial_2935_183" cx="0" cy="0" r="1" gradientUnits="userSpaceOnUse" gradientTransform="translate(134.275 38.7551) rotate(-137.954) scale(26.4651 11.8032)">
<stop offset="0.114583" stop-color="#F3992F"/>
<stop offset="1" stop-color="#F3992F" stop-opacity="0"/>
</radialGradient>
<radialGradient id="paint14_radial_2935_183" cx="0" cy="0" r="1" gradientUnits="userSpaceOnUse" gradientTransform="translate(121.69 61.1471) rotate(-100.008) scale(27.4172 12.2279)">
<stop stop-color="#F3992F"/>
<stop offset="1" stop-color="#F3992F" stop-opacity="0"/>
</radialGradient>
<radialGradient id="paint15_radial_2935_183" cx="0" cy="0" r="1" gradientUnits="userSpaceOnUse" gradientTransform="translate(134.735 36.2296) rotate(-143.444) scale(20.1217 17.3524)">
<stop offset="0.00401228" stop-color="#F3992F"/>
<stop offset="0.317708" stop-color="#F3992F"/>
<stop offset="0.713542" stop-color="#864800"/>
<stop offset="1" stop-color="#CCFFFA" stop-opacity="0"/>
</radialGradient>
<radialGradient id="paint16_radial_2935_183" cx="0" cy="0" r="1" gradientUnits="userSpaceOnUse" gradientTransform="translate(114.622 27) rotate(-82.4047) scale(26.4378 11.7911)">
<stop offset="0.154514" stop-color="#F3992F"/>
<stop offset="1" stop-color="#F3992F" stop-opacity="0"/>
</radialGradient>
<linearGradient id="paint17_linear_2935_183" x1="126.435" y1="35.0847" x2="66.9277" y2="20.3323" gradientUnits="userSpaceOnUse">
<stop stop-color="#010101" stop-opacity="0"/>
<stop stop-opacity="0.9"/>
<stop offset="0.459707" stop-color="#363636" stop-opacity="0.971584"/>
<stop offset="0.827067" stop-color="#0A0A0A" stop-opacity="0.995031"/>
<stop offset="1" stop-color="#010101"/>
<stop offset="1" stop-color="white" stop-opacity="0"/>
</linearGradient>
<radialGradient id="paint18_radial_2935_183" cx="0" cy="0" r="1" gradientUnits="userSpaceOnUse" gradientTransform="translate(70.0356 12.0763) rotate(25.9442) scale(34.1112 29.4164)">
<stop stop-color="#343434"/>
<stop offset="1" stop-color="#A4A4A4" stop-opacity="0"/>
</radialGradient>
<linearGradient id="paint19_linear_2935_183" x1="100.342" y1="26.9998" x2="150.576" y2="4.40796" gradientUnits="userSpaceOnUse">
<stop stop-color="#3D3F3E"/>
<stop offset="1" stop-color="#606261"/>
</linearGradient>
<linearGradient id="paint20_linear_2935_183" x1="61.8154" y1="51.8417" x2="116.876" y2="34.6477" gradientUnits="userSpaceOnUse">
<stop stop-color="#F3992F"/>
<stop offset="1" stop-color="#FFDAAE" stop-opacity="0.27"/>
</linearGradient>
<linearGradient id="paint21_linear_2935_183" x1="135.836" y1="20.8009" x2="100.93" y2="30.4149" gradientUnits="userSpaceOnUse">
<stop stop-color="#F3992F"/>
<stop offset="1" stop-color="#F3992F"/>
</linearGradient>
<linearGradient id="paint22_linear_2935_183" x1="101.108" y1="17.3987" x2="102.861" y2="40.5484" gradientUnits="userSpaceOnUse">
<stop stop-color="#FFA010"/>
<stop offset="1" stop-color="#FFBF73"/>
</linearGradient>
</defs>
</svg>
