<svg width="9" height="9" viewBox="0 0 9 9" fill="none" xmlns="http://www.w3.org/2000/svg">
<path d="M6.91336 1.45947H1.64844V6.21694H6.91336V1.45947Z" fill="white"/>
<path fill-rule="evenodd" clip-rule="evenodd" d="M8.5 4.25C8.5 6.59723 6.59723 8.5 4.25 8.5C1.90279 8.5 0 6.59723 0 4.25C0 1.90279 1.90279 0 4.25 0C6.59723 0 8.5 1.90279 8.5 4.25ZM3.04567 5.94128H2.22087C2.04755 5.94128 1.96194 5.94128 1.90974 5.9079C1.85336 5.87134 1.8189 5.81079 1.81473 5.74395C1.81159 5.68238 1.8544 5.60718 1.94001 5.45684L3.97656 1.86714C4.06322 1.71471 4.10707 1.63849 4.1624 1.6103C4.22191 1.58003 4.29291 1.58003 4.35242 1.6103C4.40776 1.63849 4.45161 1.71471 4.53826 1.86714L4.95694 2.59798L4.95907 2.60171C5.05267 2.76524 5.10013 2.84817 5.12085 2.93521C5.14382 3.03022 5.14382 3.13045 5.12085 3.22546C5.09997 3.31316 5.05299 3.39669 4.95798 3.56269L3.88823 5.45371L3.88546 5.45855C3.79125 5.62343 3.7435 5.707 3.67733 5.77004C3.60529 5.83897 3.51863 5.88905 3.42362 5.91729C3.33696 5.94128 3.23987 5.94128 3.04567 5.94128ZM5.12858 5.94128H6.31043C6.48479 5.94128 6.5725 5.94129 6.62474 5.90688C6.6811 5.87032 6.71658 5.80869 6.71975 5.74191C6.72275 5.68232 6.68088 5.61006 6.59882 5.46845C6.59599 5.46363 6.59316 5.45872 6.59027 5.45373L5.99827 4.441L5.99154 4.42959C5.90835 4.28892 5.86636 4.21788 5.81243 4.19042C5.75295 4.16014 5.68295 4.16014 5.62346 4.19042C5.56917 4.21861 5.52532 4.29274 5.43866 4.44204L4.84877 5.45478L4.84675 5.45826C4.7604 5.60732 4.71724 5.68181 4.72035 5.74293C4.72453 5.80977 4.75898 5.87134 4.81536 5.9079C4.86652 5.94128 4.95422 5.94128 5.12858 5.94128Z" fill="#E84142"/>
</svg>
