<?xml version="1.0" encoding="utf-8"?>
<!-- Generator: Adobe Illustrator 27.0.0, SVG Export Plug-In . SVG Version: 6.00 Build 0)  -->
<svg version="1.1" id="Layer_1" xmlns="http://www.w3.org/2000/svg" xmlns:xlink="http://www.w3.org/1999/xlink" x="0px" y="0px"
	 viewBox="0 0 180 505" style="enable-background:new 0 0 180 505;" xml:space="preserve">
<style type="text/css">
	.st0{fill:none;stroke:url(#SVGID_1_);stroke-width:4;}
</style>
<linearGradient id="SVGID_1_" gradientUnits="userSpaceOnUse" x1="6.0182" y1="252.0646" x2="159.1703" y2="253.9256" gradientTransform="matrix(1 0 0 -1 0 506)">
	<stop  offset="1.388870e-02" style="stop-color:#999999"/>
	<stop  offset="0.1701" style="stop-color:#4B4B4B"/>
	<stop  offset="0.6285" style="stop-color:#2B2B2B"/>
	<stop  offset="0.8108" style="stop-color:#393838"/>
	<stop  offset="0.9878" style="stop-color:#2D2D2D;stop-opacity:0.1"/>
</linearGradient>
<path class="st0" d="M164,253c0,66.9-9.3,127.5-24.2,171.2c-7.5,21.9-16.3,39.4-26,51.5C104,487.7,93.6,494,83,494
	s-21-6.3-30.8-18.4c-9.7-12-18.6-29.6-26-51.5C11.3,380.5,2,319.9,2,253s9.3-127.5,24.2-171.2c7.5-21.9,16.3-39.4,26-51.5
	C62,18.3,72.4,12,83,12s21,6.3,30.8,18.4c9.7,12,18.6,29.6,26,51.5C154.7,125.5,164,186.1,164,253z"/>
</svg>
