<svg width="30" height="30" viewBox="0 0 30 30" fill="none" xmlns="http://www.w3.org/2000/svg">
<ellipse cx="14.9805" cy="14.5921" rx="11.5254" ry="11.5579" fill="white"/>
<path fill-rule="evenodd" clip-rule="evenodd" d="M14.938 29.9945C6.68756 29.9945 0 23.2881 0 15.0143C0 6.74061 6.68756 0.0341797 14.938 0.0341797C23.1885 0.0341797 29.876 6.74061 29.876 15.0143C29.876 23.2881 23.1885 29.9945 14.938 29.9945ZM21.6499 13.1605C21.943 11.1981 20.452 10.143 18.4148 9.43891L19.0758 6.77993L17.4625 6.37734L16.8183 8.9661C16.3945 8.85937 15.9594 8.76012 15.5253 8.66088L16.1741 6.05527L14.5608 5.65174L13.8998 8.30978C13.5488 8.22926 13.2033 8.15062 12.8691 8.06635L12.871 8.05793L10.6452 7.50085L10.2157 9.22919C10.2157 9.22919 11.4136 9.50445 11.3884 9.5213C12.0419 9.68515 12.1595 10.1186 12.1399 10.4632L11.3874 13.492C11.4323 13.5032 11.4901 13.5201 11.5555 13.5453L11.3846 13.5032L10.3296 17.7463C10.2493 17.9448 10.0468 18.2435 9.58928 18.1302C9.60608 18.1536 8.41664 17.8372 8.41664 17.8372L7.61559 19.6891L9.71625 20.2143C10.1065 20.3126 10.4893 20.4156 10.8655 20.5121L10.198 23.201L11.8104 23.6036L12.4714 20.9446C12.9121 21.0635 13.3397 21.174 13.7579 21.2789L13.0988 23.9266L14.7121 24.3292L15.3796 21.6459C18.132 22.1683 20.2009 21.9576 21.0719 19.4616C21.774 17.4524 21.0374 16.2923 19.5893 15.5368C20.6443 15.2933 21.4379 14.5977 21.6499 13.1605ZM17.962 18.3456C17.4644 20.3557 14.0894 19.2687 12.9951 18.9963L13.8821 15.4338C14.9763 15.7081 18.4839 16.2502 17.962 18.3456ZM18.4615 13.1315C18.0068 14.96 15.1985 14.0303 14.2882 13.8028L15.0911 10.5727C16.0014 10.8002 18.9358 11.2244 18.4615 13.1315Z" fill="#E9962C"/>
</svg>
