<svg width="9" height="12" viewBox="0 0 9 12" fill="none" xmlns="http://www.w3.org/2000/svg">
<path d="M8.97721 4.81925C9.16087 3.56077 8.21319 2.8797 6.90554 2.42813L7.33163 0.718075L6.30315 0.458976L5.89175 2.12461C5.61994 2.05799 5.34078 1.99136 5.06162 1.93214L5.47301 0.259099L4.44453 0L4.02579 1.70265C3.79805 1.65083 3.57766 1.59901 3.36462 1.54719V1.53979L1.93943 1.18445L1.66762 2.29488C1.66762 2.29488 2.43163 2.47255 2.41694 2.47995C2.83568 2.58359 2.90914 2.8649 2.89445 3.08698L2.40959 5.03393C2.43898 5.04133 2.47571 5.04874 2.51979 5.07094C2.48306 5.06354 2.44633 5.05614 2.40959 5.04133L1.73373 7.76558C1.68231 7.89143 1.55007 8.0839 1.26357 8.00987C1.27091 8.02468 0.514243 7.8248 0.514243 7.8248L0 9.01666L1.34438 9.35719C1.59415 9.42381 1.83658 9.48303 2.07901 9.54966L1.65292 11.2745L2.68141 11.5336L3.1075 9.82356C3.38666 9.89759 3.66582 9.97162 3.93028 10.0382L3.51154 11.7409L4.54003 12L4.96612 10.2751C6.72923 10.6083 8.05157 10.475 8.60255 8.8686C9.05067 7.58051 8.58051 6.83282 7.65487 6.34423C8.33808 6.18877 8.84498 5.7372 8.97721 4.81925ZM6.61904 8.15052C6.30315 9.43862 4.14333 8.74275 3.44543 8.56508L4.01109 6.27761C4.70899 6.45527 6.95697 6.80321 6.61904 8.15052ZM6.94228 4.79704C6.64842 5.97409 4.85592 5.37446 4.27556 5.2264L4.7898 3.15361C5.37016 3.30167 7.24348 3.57557 6.94228 4.79704Z" fill="#F7931A"/>
</svg>
