<svg width="10" height="12" viewBox="0 0 10 12" fill="none" xmlns="http://www.w3.org/2000/svg">
<path d="M1.12557 5.88015L1.13177 8.15472L3.06446 9.292V10.6237L0.000689515 8.82675V5.21501L1.12557 5.88015ZM1.12557 3.60558V4.93104L0 4.26521V2.93975L1.12557 2.27393L2.25665 2.93975L1.12557 3.60558ZM3.87159 2.93975L4.99716 2.27393L6.12824 2.93975L4.99716 3.60558L3.87159 2.93975Z" fill="#F0B90B"/>
<path d="M1.93945 7.68326V6.35161L3.06502 7.01743V8.34289L1.93945 7.68326ZM3.87215 9.76897L4.99771 10.4348L6.12879 9.76897V11.0944L4.99771 11.7603L3.87215 11.0944V9.76897ZM7.74305 2.93975L8.86861 2.27393L9.9997 2.93975V4.26521L8.86861 4.93104V3.60558L7.74305 2.93975ZM8.86861 8.15472L8.87482 5.88015L10.0004 5.21432V8.82606L6.93661 10.623V9.29131L8.86861 8.15472Z" fill="#F0B90B"/>
<path d="M8.06111 7.68322L6.93555 8.34284V7.01739L8.06111 6.35156V7.68322Z" fill="#F0B90B"/>
<path d="M8.06149 4.07699L8.06769 5.40865L6.12948 6.54593V8.82601L5.00392 9.48564L3.87835 8.82601V6.54593L1.94014 5.40865V4.07699L3.07053 3.41116L4.99702 4.55396L6.93523 3.41116L8.06631 4.07699H8.06149ZM1.93945 1.80311L4.99771 0L8.06149 1.80311L6.93592 2.46894L4.99771 1.32614L3.06502 2.46894L1.93945 1.80311Z" fill="#F0B90B"/>
</svg>
