<svg width="35" height="32" viewBox="0 0 35 32" fill="none" xmlns="http://www.w3.org/2000/svg">
<path d="M17.259 32C16.7828 32 16.3066 31.8889 15.9099 31.6667C12.9418 30.0478 7.72001 28.3336 4.45042 27.9051L3.99014 27.8416C1.91093 27.5876 0.196777 25.6354 0.196777 23.5245V4.35133C0.196777 3.09746 0.688803 1.95469 1.5935 1.12936C2.49819 0.304026 3.6727 -0.0927696 4.9107 0.0183329C8.4025 0.288153 13.6719 2.03405 16.6558 3.90692L17.0368 4.12913C17.1479 4.19262 17.3859 4.19262 17.4812 4.145L17.7351 3.98628C20.719 2.11341 25.9884 0.335769 29.4961 0.0342049C29.5279 0.0342049 29.6548 0.0342049 29.6866 0.0342049C30.8452 -0.0768977 32.0356 0.335769 32.9244 1.1611C33.8291 1.98644 34.3211 3.1292 34.3211 4.38308V23.5403C34.3211 25.6672 32.607 27.6035 30.5119 27.8575L29.9881 27.9209C26.7185 28.3495 21.4809 30.0795 18.5763 31.6826C18.1954 31.9048 17.7351 32 17.259 32ZM4.52978 2.38323C4.02188 2.38323 3.5616 2.55782 3.19655 2.89113C2.79975 3.25618 2.57755 3.77995 2.57755 4.35133V23.5245C2.57755 24.4609 3.38701 25.3656 4.2917 25.4926L4.76785 25.5561C8.33901 26.0322 13.8148 27.8257 16.9891 29.5557C17.132 29.6192 17.3383 29.6351 17.4177 29.6034C20.592 27.8416 26.0995 26.0322 29.6866 25.5561L30.2262 25.4926C31.1309 25.3815 31.9404 24.4609 31.9404 23.5245V4.36721C31.9404 3.77995 31.7182 3.27205 31.3214 2.89113C30.9087 2.52608 30.3849 2.35149 29.7977 2.38323C29.7659 2.38323 29.639 2.38323 29.6072 2.38323C26.5757 2.65305 21.6872 4.28785 19.0207 5.95438L18.7668 6.12897C17.8938 6.66862 16.6558 6.66862 15.8146 6.14485L15.4337 5.92264C12.7196 4.2561 7.83111 2.63718 4.72024 2.38323C4.65675 2.38323 4.59326 2.38323 4.52978 2.38323Z" fill="#4D4D4D"/>
<path d="M17.2592 30.6667C16.6085 30.6667 16.0688 30.1271 16.0688 29.4763V5.66866C16.0688 5.01791 16.6085 4.47827 17.2592 4.47827C17.91 4.47827 18.4496 5.01791 18.4496 5.66866V29.4763C18.4496 30.143 17.91 30.6667 17.2592 30.6667Z" fill="#4D4D4D"/>
<path d="M10.5135 11.6206H6.94234C6.29159 11.6206 5.75195 11.0809 5.75195 10.4302C5.75195 9.77945 6.29159 9.23981 6.94234 9.23981H10.5135C11.1642 9.23981 11.7039 9.77945 11.7039 10.4302C11.7039 11.0809 11.1642 11.6206 10.5135 11.6206Z" fill="#4D4D4D"/>
<path d="M11.7039 16.3821H6.94234C6.29159 16.3821 5.75195 15.8425 5.75195 15.1917C5.75195 14.541 6.29159 14.0013 6.94234 14.0013H11.7039C12.3546 14.0013 12.8943 14.541 12.8943 15.1917C12.8943 15.8425 12.3546 16.3821 11.7039 16.3821Z" fill="#4D4D4D"/>
</svg>
