<svg width="32" height="39" viewBox="0 0 32 39" fill="none" xmlns="http://www.w3.org/2000/svg">
<path d="M21.7501 0.914062L25.0298 4.62986C25.0298 4.62986 27.909 3.83049 29.2688 5.18879C30.627 6.54708 31.7473 7.74613 31.7473 7.74613L30.868 9.90223L31.9868 13.0981C31.9868 13.0981 28.6945 25.557 28.3096 27.0792C27.5491 30.0752 27.0296 31.2321 24.8702 32.7512C22.6524 34.2998 20.413 35.8175 18.1527 37.3039C17.5128 37.7036 16.7132 38.3843 15.9934 38.3843C15.2736 38.3843 14.4756 37.7036 13.834 37.3039C11.5737 35.8176 9.33433 34.2999 7.11651 32.7512C4.95715 31.2321 4.43765 30.0752 3.67874 27.0792C3.29225 25.557 0 13.0981 0 13.0981L1.1188 9.90223L0.239408 7.74613C0.239408 7.74613 1.35977 6.54708 2.71955 5.18879C4.07776 3.83049 6.95691 4.62986 6.95691 4.62986L10.2351 0.914062H21.7517H21.7501ZM15.9934 24.233C15.7743 24.233 14.3692 24.7279 13.2425 25.3103C12.1159 25.8926 11.2991 26.3048 11.0378 26.4687C10.7765 26.6311 10.9361 26.9387 11.1739 27.1073C11.4118 27.2743 14.607 29.7458 14.9184 30.0206C15.2282 30.2938 15.6836 30.745 15.9934 30.745C16.3032 30.745 16.7601 30.2923 17.0699 30.0206C17.3798 29.7474 20.575 27.2743 20.8128 27.1073C21.0507 26.9387 21.2103 26.6311 20.949 26.4672C20.6876 26.3048 19.8708 25.8926 18.7427 25.3103C17.616 24.7279 16.2124 24.233 15.9934 24.233ZM15.9934 6.62515C15.9934 6.62515 15.3534 6.62671 14.3942 6.94676C13.435 7.26682 12.3944 7.66494 11.9156 7.66494C11.4352 7.66494 7.87699 6.98736 7.87699 6.98736C7.87699 6.98736 3.65997 12.0802 3.65997 13.1684C3.65997 14.2566 4.19042 14.5438 4.724 15.109L7.88481 18.4642C8.18524 18.7811 8.80802 19.262 8.44186 20.1285C8.07415 20.995 7.5343 22.0957 8.13517 23.2151C8.73604 24.3329 9.76565 25.0792 10.426 24.9559C11.0847 24.831 12.6354 24.0222 13.205 23.6538C13.7746 23.2838 15.5803 21.7959 15.5803 21.2276C15.5803 20.6577 13.7135 19.6351 13.3693 19.404C13.025 19.1699 11.4509 18.2721 11.418 17.9208C11.3867 17.5664 11.3993 17.4634 11.8624 16.5922C12.3272 15.7195 13.1627 14.5563 13.0235 13.782C12.8842 13.0091 11.537 12.6063 10.5746 12.2426C9.6123 11.8803 7.75963 11.1949 7.52804 11.0872C7.29646 10.9811 7.35592 10.8796 8.0585 10.814C8.75951 10.7469 10.7483 10.483 11.6449 10.7328C12.5415 10.9826 14.0734 11.362 14.1986 11.5634C14.3222 11.7664 14.4318 11.7726 14.3034 12.4674C14.1767 13.1621 13.5211 16.497 13.4569 17.0887C13.3943 17.682 13.2691 18.0723 13.9076 18.219C14.5475 18.3658 15.6241 18.6187 15.9934 18.6187C16.3627 18.6187 17.4392 18.3658 18.0792 18.219C18.7176 18.0739 18.594 17.682 18.5298 17.0903C18.4673 16.497 17.8101 13.1621 17.6833 12.4674C17.555 11.7726 17.6645 11.7648 17.7882 11.5634C17.9133 11.362 19.4452 10.9826 20.3418 10.7328C21.2384 10.483 23.2288 10.7469 23.9283 10.814C24.6308 10.8796 24.6903 10.9811 24.4587 11.0872C24.2271 11.1949 22.3745 11.8803 21.4121 12.2426C20.4498 12.6063 19.1026 13.0076 18.9633 13.782C18.8225 14.5563 19.6596 15.7195 20.1243 16.5922C20.5891 17.4634 20.6 17.5664 20.5687 17.9193C20.5374 18.2721 18.9633 19.1714 18.6175 19.4025C18.2732 19.6367 16.4065 20.6577 16.4065 21.2276C16.4065 21.7959 18.2122 23.2838 18.7818 23.6538C19.3513 24.0222 20.902 24.8325 21.5608 24.9559C22.2211 25.0792 23.2507 24.3314 23.8516 23.2151C24.4525 22.0972 23.9126 20.995 23.5465 20.1285C23.1787 19.262 23.8015 18.7811 24.1019 18.4642L27.2628 15.109C27.7963 14.5438 28.3268 14.2566 28.3268 13.1684C28.3268 12.0802 24.1098 6.9858 24.1098 6.9858C24.1098 6.9858 20.5515 7.6665 20.0727 7.6665C19.5923 7.6665 18.5518 7.26682 17.5926 6.94676C16.6334 6.62671 15.9934 6.62515 15.9934 6.62515Z" fill="white"/>
</svg>
