<svg width="90" height="48" viewBox="0 0 90 48" fill="none" xmlns="http://www.w3.org/2000/svg">
<path d="M62.4647 1.70746H7.86053C4.30564 1.70746 1.42383 4.58927 1.42383 8.14416V18.417C1.42383 21.9719 4.30564 24.8537 7.86053 24.8537H62.4647C66.0196 24.8537 68.9014 21.9719 68.9014 18.417V8.14416C68.9014 4.58927 66.0196 1.70746 62.4647 1.70746Z" fill="#E99E05"/>
<path d="M62.4237 1.6593H7.81952C4.26462 1.6593 1.38281 4.54111 1.38281 8.09601V18.3689C1.38281 21.9237 4.26462 24.8056 7.81952 24.8056H62.4237C65.9786 24.8056 68.8604 21.9237 68.8604 18.3689V8.09601C68.8604 4.54111 65.9786 1.6593 62.4237 1.6593Z" fill="#E99E05"/>
<path d="M62.3827 1.61108H7.7785C4.22361 1.61108 1.3418 4.49289 1.3418 8.04779V18.3206C1.3418 21.8755 4.22361 24.7573 7.7785 24.7573H62.3827C65.9376 24.7573 68.8194 21.8755 68.8194 18.3206V8.04779C68.8194 4.49289 65.9376 1.61108 62.3827 1.61108Z" fill="#E99E05"/>
<path d="M62.3416 1.56036H7.73749C4.18259 1.56036 1.30078 4.44218 1.30078 7.99707V18.2699C1.30078 21.8248 4.18259 24.7066 7.73749 24.7066H62.3416C65.8965 24.7066 68.7784 21.8248 68.7784 18.2699V7.99707C68.7784 4.44218 65.8965 1.56036 62.3416 1.56036Z" fill="#E99E05"/>
<path d="M62.3006 1.51215H7.69647C4.14158 1.51215 1.25977 4.39396 1.25977 7.94885V18.2217C1.25977 21.7766 4.14158 24.6584 7.69647 24.6584H62.3006C65.8555 24.6584 68.7373 21.7766 68.7373 18.2217V7.94885C68.7373 4.39396 65.8555 1.51215 62.3006 1.51215Z" fill="#E99E05"/>
<path d="M62.2616 1.46393H7.65741C4.10251 1.46393 1.2207 4.34574 1.2207 7.90063V18.1735C1.2207 21.7284 4.10251 24.6102 7.65741 24.6102H62.2616C65.8165 24.6102 68.6983 21.7284 68.6983 18.1735V7.90063C68.6983 4.34574 65.8165 1.46393 62.2616 1.46393Z" fill="#E99E05"/>
<path d="M62.2206 1.41571H7.61639C4.0615 1.41571 1.17969 4.29752 1.17969 7.85242V18.1253C1.17969 21.6802 4.0615 24.562 7.61639 24.562H62.2206C65.7754 24.562 68.6573 21.6802 68.6573 18.1253V7.85242C68.6573 4.29752 65.7754 1.41571 62.2206 1.41571Z" fill="#E99E05"/>
<path d="M62.1815 1.36749H7.57733C4.02244 1.36749 1.14062 4.2493 1.14062 7.8042V18.077C1.14062 21.6319 4.02244 24.5138 7.57733 24.5138H62.1815C65.7364 24.5138 68.6182 21.6319 68.6182 18.077V7.8042C68.6182 4.2493 65.7364 1.36749 62.1815 1.36749Z" fill="#E99E05"/>
<path d="M62.1385 1.31677H7.53436C3.97947 1.31677 1.09766 4.19858 1.09766 7.75348V18.0263C1.09766 21.5812 3.97947 24.463 7.53436 24.463H62.1385C65.6934 24.463 68.5752 21.5812 68.5752 18.0263V7.75348C68.5752 4.19858 65.6934 1.31677 62.1385 1.31677Z" fill="#E99E05"/>
<path d="M62.0995 1.26855H7.4953C3.9404 1.26855 1.05859 4.15037 1.05859 7.70526V17.9781C1.05859 21.533 3.9404 24.4148 7.4953 24.4148H62.0995C65.6544 24.4148 68.5362 21.533 68.5362 17.9781V7.70526C68.5362 4.15037 65.6544 1.26855 62.0995 1.26855Z" fill="#E99E05"/>
<path d="M62.0584 1.22034H7.45428C3.89939 1.22034 1.01758 4.10215 1.01758 7.65704V17.9299C1.01758 21.4848 3.89939 24.3666 7.45428 24.3666H62.0584C65.6133 24.3666 68.4951 21.4848 68.4951 17.9299V7.65704C68.4951 4.10215 65.6133 1.22034 62.0584 1.22034Z" fill="#E99E05"/>
<path d="M62.0174 1.17218H7.41327C3.85837 1.17218 0.976562 4.05399 0.976562 7.60889V17.8817C0.976562 21.4366 3.85837 24.3184 7.41327 24.3184H62.0174C65.5723 24.3184 68.4541 21.4366 68.4541 17.8817V7.60889C68.4541 4.05399 65.5723 1.17218 62.0174 1.17218Z" fill="#E99E05"/>
<path d="M61.9764 1.12146H7.37225C3.81736 1.12146 0.935547 4.00327 0.935547 7.55817V17.831C0.935547 21.3859 3.81736 24.2677 7.37225 24.2677H61.9764C65.5313 24.2677 68.4131 21.3859 68.4131 17.831V7.55817C68.4131 4.00327 65.5313 1.12146 61.9764 1.12146Z" fill="#E99E05"/>
<path d="M61.9354 1.07324H7.33124C3.77634 1.07324 0.894531 3.95505 0.894531 7.50995V17.7828C0.894531 21.3377 3.77634 24.2195 7.33124 24.2195H61.9354C65.4903 24.2195 68.3721 21.3377 68.3721 17.7828V7.50995C68.3721 3.95505 65.4903 1.07324 61.9354 1.07324Z" fill="#E99E05"/>
<path d="M61.8963 1.02502H7.29217C3.73728 1.02502 0.855469 3.90684 0.855469 7.46173V17.7346C0.855469 21.2895 3.73728 24.1713 7.29217 24.1713H61.8963C65.4512 24.1713 68.333 21.2895 68.333 17.7346V7.46173C68.333 3.90684 65.4512 1.02502 61.8963 1.02502Z" fill="#E99E05"/>
<path d="M61.8553 0.976746H7.25116C3.69626 0.976746 0.814453 3.85856 0.814453 7.41345V17.6863C0.814453 21.2412 3.69626 24.123 7.25116 24.123H61.8553C65.4102 24.123 68.292 21.2412 68.292 17.6863V7.41345C68.292 3.85856 65.4102 0.976746 61.8553 0.976746Z" fill="#E99E05"/>
<path d="M61.8163 0.926086H7.2121C3.6572 0.926086 0.775391 3.8079 0.775391 7.36279V17.6356C0.775391 21.1905 3.6572 24.0723 7.2121 24.0723H61.8163C65.3712 24.0723 68.253 21.1905 68.253 17.6356V7.36279C68.253 3.8079 65.3712 0.926086 61.8163 0.926086Z" fill="#E99E05"/>
<path d="M61.7713 0.877808H7.16717C3.61228 0.877808 0.730469 3.75962 0.730469 7.31451V17.5874C0.730469 21.1423 3.61228 24.0241 7.16717 24.0241H61.7713C65.3262 24.0241 68.208 21.1423 68.208 17.5874V7.31451C68.208 3.75962 65.3262 0.877808 61.7713 0.877808Z" fill="#E99E05"/>
<path d="M61.7323 0.829651H7.12811C3.57322 0.829651 0.691406 3.71146 0.691406 7.26636V17.5392C0.691406 21.0941 3.57322 23.9759 7.12811 23.9759H61.7323C65.2872 23.9759 68.169 21.0941 68.169 17.5392V7.26636C68.169 3.71146 65.2872 0.829651 61.7323 0.829651Z" fill="#E99E05"/>
<path d="M61.6893 0.781433H7.08514C3.53025 0.781433 0.648438 3.66324 0.648438 7.21814V17.491C0.648438 21.0459 3.53025 23.9277 7.08514 23.9277H61.6893C65.2442 23.9277 68.126 21.0459 68.126 17.491V7.21814C68.126 3.66324 65.2442 0.781433 61.6893 0.781433Z" fill="#E99E05"/>
<path d="M61.6502 0.730713H7.04608C3.49119 0.730713 0.609375 3.61252 0.609375 7.16742V17.4403C0.609375 20.9952 3.49119 23.877 7.04608 23.877H61.6502C65.2051 23.877 68.0869 20.9952 68.0869 17.4403V7.16742C68.0869 3.61252 65.2051 0.730713 61.6502 0.730713Z" fill="#E99E05"/>
<path d="M61.6092 0.682495H7.00506C3.45017 0.682495 0.568359 3.56431 0.568359 7.1192V17.392C0.568359 20.9469 3.45017 23.8288 7.00506 23.8288H61.6092C65.1641 23.8288 68.0459 20.9469 68.0459 17.392V7.1192C68.0459 3.56431 65.1641 0.682495 61.6092 0.682495Z" fill="#E99E05"/>
<path d="M61.5682 0.634277H6.96405C3.40916 0.634277 0.527344 3.51609 0.527344 7.07098V17.3438C0.527344 20.8987 3.40916 23.7805 6.96405 23.7805H61.5682C65.1231 23.7805 68.0049 20.8987 68.0049 17.3438V7.07098C68.0049 3.51609 65.1231 0.634277 61.5682 0.634277Z" fill="#E99E05"/>
<path d="M61.5291 0.58606H6.92499C3.37009 0.58606 0.488281 3.46787 0.488281 7.02277V17.2956C0.488281 20.8505 3.37009 23.7323 6.92499 23.7323H61.5291C65.084 23.7323 67.9659 20.8505 67.9659 17.2956V7.02277C67.9659 3.46787 65.084 0.58606 61.5291 0.58606Z" fill="#E99E05"/>
<path d="M61.4862 0.537842H6.88202C3.32712 0.537842 0.445312 3.41965 0.445312 6.97455V17.2474C0.445312 20.8023 3.32712 23.6841 6.88202 23.6841H61.4862C65.0411 23.6841 67.9229 20.8023 67.9229 17.2474V6.97455C67.9229 3.41965 65.0411 0.537842 61.4862 0.537842Z" fill="#E99E05"/>
<path d="M61.4471 0.487122H6.84295C3.28806 0.487122 0.40625 3.36893 0.40625 6.92383V17.1967C0.40625 20.7516 3.28806 23.6334 6.84295 23.6334H61.4471C65.002 23.6334 67.8838 20.7516 67.8838 17.1967V6.92383C67.8838 3.36893 65.002 0.487122 61.4471 0.487122Z" fill="#E99E05"/>
<path d="M61.4061 0.438904H6.80194C3.24704 0.438904 0.365234 3.32072 0.365234 6.87561V17.1485C0.365234 20.7034 3.24704 23.5852 6.80194 23.5852H61.4061C64.961 23.5852 67.8428 20.7034 67.8428 17.1485V6.87561C67.8428 3.32072 64.961 0.438904 61.4061 0.438904Z" fill="#E99E05"/>
<path d="M61.3651 0.390747H6.76092C3.20603 0.390747 0.324219 3.27256 0.324219 6.82745V17.1003C0.324219 20.6552 3.20603 23.537 6.76092 23.537H61.3651C64.92 23.537 67.8018 20.6552 67.8018 17.1003V6.82745C67.8018 3.27256 64.92 0.390747 61.3651 0.390747Z" fill="#E99E05"/>
<path d="M61.326 0.342529H6.72186C3.16697 0.342529 0.285156 3.22434 0.285156 6.77923V17.0521C0.285156 20.607 3.16697 23.4888 6.72186 23.4888H61.326C64.8809 23.4888 67.7627 20.607 67.7627 17.0521V6.77923C67.7627 3.22434 64.8809 0.342529 61.326 0.342529Z" fill="#E99E05"/>
<path d="M61.285 0.291809H6.68085C3.12595 0.291809 0.244141 3.17362 0.244141 6.72851V17.0014C0.244141 20.5563 3.12595 23.4381 6.68085 23.4381H61.285C64.8399 23.4381 67.7217 20.5563 67.7217 17.0014V6.72851C67.7217 3.17362 64.8399 0.291809 61.285 0.291809Z" fill="#E99E05"/>
<path d="M61.244 0.243591H6.63983C3.08494 0.243591 0.203125 3.1254 0.203125 6.6803V16.9531C0.203125 20.508 3.08494 23.3899 6.63983 23.3899H61.244C64.7989 23.3899 67.6807 20.508 67.6807 16.9531V6.6803C67.6807 3.1254 64.7989 0.243591 61.244 0.243591Z" fill="#E99E05"/>
<path d="M61.203 0.195374H6.59881C3.04392 0.195374 0.162109 3.07718 0.162109 6.63208V16.9049C0.162109 20.4598 3.04392 23.3416 6.59881 23.3416H61.203C64.7579 23.3416 67.6397 20.4598 67.6397 16.9049V6.63208C67.6397 3.07718 64.7579 0.195374 61.203 0.195374Z" fill="#E99E05"/>
<path d="M61.1639 0.147156H6.55975C3.00486 0.147156 0.123047 3.02897 0.123047 6.58386V16.8567C0.123047 20.4116 3.00486 23.2934 6.55975 23.2934H61.1639C64.7188 23.2934 67.6006 20.4116 67.6006 16.8567V6.58386C67.6006 3.02897 64.7188 0.147156 61.1639 0.147156Z" fill="#E99E05"/>
<path d="M61.1209 0.0964355H6.51678C2.96189 0.0964355 0.0800781 2.97825 0.0800781 6.53314V16.806C0.0800781 20.3609 2.96189 23.2427 6.51678 23.2427H61.1209C64.6758 23.2427 67.5576 20.3609 67.5576 16.806V6.53314C67.5576 2.97825 64.6758 0.0964355 61.1209 0.0964355Z" fill="#E99E05"/>
<path d="M61.0819 0.0482178H6.47772C2.92283 0.0482178 0.0410156 2.93003 0.0410156 6.48492V16.7578C0.0410156 20.3127 2.92283 23.1945 6.47772 23.1945H61.0819C64.6368 23.1945 67.5186 20.3127 67.5186 16.7578V6.48492C67.5186 2.93003 64.6368 0.0482178 61.0819 0.0482178Z" fill="#E99E05"/>
<path d="M61.0409 0H6.4367C2.88181 0 0 2.88181 0 6.43671V16.7096C0 20.2644 2.88181 23.1463 6.4367 23.1463H61.0409C64.5958 23.1463 67.4776 20.2644 67.4776 16.7096V6.43671C67.4776 2.88181 64.5958 0 61.0409 0Z" fill="#E99E05"/>
<path d="M83.0526 24.8538H28.4484C24.8935 24.8538 22.0117 27.7356 22.0117 31.2905V41.5633C22.0117 45.1182 24.8935 48 28.4484 48H83.0526C86.6075 48 89.4893 45.1182 89.4893 41.5633V31.2905C89.4893 27.7356 86.6075 24.8538 83.0526 24.8538Z" fill="#333333"/>
<path d="M82.9823 24.77H28.3781C24.8232 24.77 21.9414 27.6518 21.9414 31.2067V41.4796C21.9414 45.0345 24.8232 47.9163 28.3781 47.9163H82.9823C86.5372 47.9163 89.419 45.0345 89.419 41.4796V31.2067C89.419 27.6518 86.5372 24.77 82.9823 24.77Z" fill="#303030"/>
<path d="M82.91 24.6838H28.3058C24.751 24.6838 21.8691 27.5656 21.8691 31.1205V41.3933C21.8691 44.9482 24.751 47.83 28.3058 47.83H82.91C86.4649 47.83 89.3467 44.9482 89.3467 41.3933V31.1205C89.3467 27.5656 86.4649 24.6838 82.91 24.6838Z" fill="#2E2E2E"/>
<path d="M82.8397 24.5975H28.2355C24.6806 24.5975 21.7988 27.4793 21.7988 31.0342V41.307C21.7988 44.8619 24.6806 47.7437 28.2355 47.7437H82.8397C86.3946 47.7437 89.2764 44.8619 89.2764 41.307V31.0342C89.2764 27.4793 86.3946 24.5975 82.8397 24.5975Z" fill="#2B2B2B"/>
<path d="M82.7694 24.5138H28.1652C24.6103 24.5138 21.7285 27.3956 21.7285 30.9505V41.2233C21.7285 44.7782 24.6103 47.6601 28.1652 47.6601H82.7694C86.3243 47.6601 89.2061 44.7782 89.2061 41.2233V30.9505C89.2061 27.3956 86.3243 24.5138 82.7694 24.5138Z" fill="#292929"/>
<path d="M82.6971 24.4275H28.093C24.5381 24.4275 21.6562 27.3093 21.6562 30.8642V41.137C21.6562 44.6919 24.5381 47.5737 28.093 47.5737H82.6971C86.252 47.5737 89.1338 44.6919 89.1338 41.137V30.8642C89.1338 27.3093 86.252 24.4275 82.6971 24.4275Z" fill="#262626"/>
<path d="M82.6268 24.3412H28.0226C24.4677 24.3412 21.5859 27.2231 21.5859 30.778V41.0508C21.5859 44.6057 24.4677 47.4875 28.0226 47.4875H82.6268C86.1817 47.4875 89.0635 44.6057 89.0635 41.0508V30.778C89.0635 27.2231 86.1817 24.3412 82.6268 24.3412Z" fill="#242424"/>
<path d="M82.5565 24.2575H27.9523C24.3974 24.2575 21.5156 27.1393 21.5156 30.6942V40.9671C21.5156 44.522 24.3974 47.4038 27.9523 47.4038H82.5565C86.1114 47.4038 88.9932 44.522 88.9932 40.9671V30.6942C88.9932 27.1393 86.1114 24.2575 82.5565 24.2575Z" fill="#212121"/>
<path d="M82.4842 24.1713H27.8801C24.3252 24.1713 21.4434 27.0531 21.4434 30.608V40.8808C21.4434 44.4357 24.3252 47.3175 27.8801 47.3175H82.4842C86.0391 47.3175 88.9209 44.4357 88.9209 40.8808V30.608C88.9209 27.0531 86.0391 24.1713 82.4842 24.1713Z" fill="#1F1F1F"/>
<path d="M82.4139 24.085H27.8098C24.2549 24.085 21.373 26.9668 21.373 30.5217V40.7946C21.373 44.3495 24.2549 47.2313 27.8098 47.2313H82.4139C85.9688 47.2313 88.8506 44.3495 88.8506 40.7946V30.5217C88.8506 26.9668 85.9688 24.085 82.4139 24.085Z" fill="#1C1C1C"/>
<path d="M82.3436 24.0013H27.7394C24.1845 24.0013 21.3027 26.8831 21.3027 30.438V40.7108C21.3027 44.2657 24.1845 47.1475 27.7394 47.1475H82.3436C85.8985 47.1475 88.7803 44.2657 88.7803 40.7108V30.438C88.7803 26.8831 85.8985 24.0013 82.3436 24.0013Z" fill="#1A1A1A"/>
<path d="M82.2713 23.915H27.6672C24.1123 23.915 21.2305 26.7968 21.2305 30.3517V40.6246C21.2305 44.1795 24.1123 47.0613 27.6672 47.0613H82.2713C85.8262 47.0613 88.7081 44.1795 88.7081 40.6246V30.3517C88.7081 26.7968 85.8262 23.915 82.2713 23.915Z" fill="#171717"/>
<path d="M82.201 23.8287H27.5969C24.042 23.8287 21.1602 26.7105 21.1602 30.2654V40.5383C21.1602 44.0932 24.042 46.975 27.5969 46.975H82.201C85.7559 46.975 88.6377 44.0932 88.6377 40.5383V30.2654C88.6377 26.7105 85.7559 23.8287 82.201 23.8287Z" fill="#141414"/>
<path d="M82.1268 23.7451H27.5226C23.9677 23.7451 21.0859 26.6269 21.0859 30.1818V40.4546C21.0859 44.0095 23.9677 46.8913 27.5226 46.8913H82.1268C85.6817 46.8913 88.5635 44.0095 88.5635 40.4546V30.1818C88.5635 26.6269 85.6817 23.7451 82.1268 23.7451Z" fill="#121212"/>
<path d="M82.0565 23.6588H27.4523C23.8974 23.6588 21.0156 26.5406 21.0156 30.0955V40.3683C21.0156 43.9232 23.8974 46.805 27.4523 46.805H82.0565C85.6114 46.805 88.4932 43.9232 88.4932 40.3683V30.0955C88.4932 26.5406 85.6114 23.6588 82.0565 23.6588Z" fill="#0F0F0F"/>
<path d="M81.9842 23.575H27.3801C23.8252 23.575 20.9434 26.4568 20.9434 30.0117V40.2846C20.9434 43.8395 23.8252 46.7213 27.3801 46.7213H81.9842C85.5391 46.7213 88.4209 43.8395 88.4209 40.2846V30.0117C88.4209 26.4568 85.5391 23.575 81.9842 23.575Z" fill="#0D0D0D"/>
<path d="M81.9139 23.4888H27.3098C23.7549 23.4888 20.873 26.3706 20.873 29.9255V40.1983C20.873 43.7532 23.7549 46.635 27.3098 46.635H81.9139C85.4688 46.635 88.3506 43.7532 88.3506 40.1983V29.9255C88.3506 26.3706 85.4688 23.4888 81.9139 23.4888Z" fill="#0A0A0A"/>
<path d="M81.8436 23.4025H27.2394C23.6845 23.4025 20.8027 26.2843 20.8027 29.8392V40.1121C20.8027 43.667 23.6845 46.5488 27.2394 46.5488H81.8436C85.3985 46.5488 88.2803 43.667 88.2803 40.1121V29.8392C88.2803 26.2843 85.3985 23.4025 81.8436 23.4025Z" fill="#080808"/>
<path d="M81.7713 23.3188H27.1672C23.6123 23.3188 20.7305 26.2006 20.7305 29.7555V40.0283C20.7305 43.5832 23.6123 46.465 27.1672 46.465H81.7713C85.3262 46.465 88.2081 43.5832 88.2081 40.0283V29.7555C88.2081 26.2006 85.3262 23.3188 81.7713 23.3188Z" fill="#050505"/>
<path d="M81.701 23.2325H27.0969C23.542 23.2325 20.6602 26.1144 20.6602 29.6693V39.9421C20.6602 43.497 23.542 46.3788 27.0969 46.3788H81.701C85.2559 46.3788 88.1377 43.497 88.1377 39.9421V29.6693C88.1377 26.1144 85.2559 23.2325 81.701 23.2325Z" fill="#030303"/>
<path d="M81.6307 23.1462H27.0265C23.4717 23.1462 20.5898 26.028 20.5898 29.5829V39.8558C20.5898 43.4107 23.4717 46.2925 27.0265 46.2925H81.6307C85.1856 46.2925 88.0674 43.4107 88.0674 39.8558V29.5829C88.0674 26.028 85.1856 23.1462 81.6307 23.1462Z" fill="black"/>
<path d="M81.6307 23.1462H27.0265C23.4717 23.1462 20.5898 26.028 20.5898 29.5829V39.8558C20.5898 43.4107 23.4717 46.2925 27.0265 46.2925H81.6307C85.1856 46.2925 88.0674 43.4107 88.0674 39.8558V29.5829C88.0674 26.028 85.1856 23.1462 81.6307 23.1462Z" fill="#231F20"/>
<path d="M61.0409 0H6.4367C2.88181 0 0 2.88181 0 6.43671V16.7096C0 20.2644 2.88181 23.1463 6.4367 23.1463H61.0409C64.5958 23.1463 67.4776 20.2644 67.4776 16.7096V6.43671C67.4776 2.88181 64.5958 0 61.0409 0Z" fill="#FFCB0A"/>
<path d="M24.3691 41.6267V27.0027H27.2386L33.2237 36.7681V27.0027H35.9664V41.6267H33.0055L27.1118 32.0896V41.6267H24.3691Z" fill="#FFCB0A"/>
<path d="M39.0918 41.6267V27.0027H49.933V29.4764H42.0425V32.7188H49.3849V35.1824H42.0425V39.1632H50.212V41.6267H39.0918Z" fill="#FFCB0A"/>
<path d="M72.3984 36.8671L75.2705 36.588C75.4396 37.5521 75.7906 38.2608 76.3234 38.7141C76.9305 39.1919 77.6907 39.4327 78.4622 39.3915C79.4145 39.3915 80.1316 39.1903 80.6137 38.7877C80.8342 38.6237 81.0141 38.4112 81.1395 38.1666C81.2649 37.922 81.3324 37.6519 81.3368 37.377C81.3449 37.0557 81.2368 36.7422 81.0323 36.4941C80.7385 36.1947 80.3723 35.9762 79.9692 35.8598C79.631 35.7414 78.8428 35.5292 77.6046 35.223C76.0215 34.8306 74.911 34.3486 74.2734 33.7769C73.5611 33.1691 73.0955 32.322 72.9642 31.395C72.8329 30.4679 73.0449 29.5248 73.5604 28.7432C74.0062 28.0766 74.6429 27.5601 75.3872 27.2615C76.3025 26.9013 77.2809 26.7288 78.2643 26.7541C80.0978 26.7541 81.4788 27.1566 82.4074 27.9617C82.8679 28.3621 83.2367 28.8568 83.4889 29.4124C83.741 29.9679 83.8706 30.5713 83.8688 31.1814L80.9181 31.3133C80.7913 30.5606 80.5198 30.0202 80.1037 29.6921C79.6876 29.3622 79.066 29.1846 78.2338 29.1846C77.4017 29.1846 76.7116 29.3622 76.2194 29.7149C76.0716 29.8146 75.9512 29.9497 75.8692 30.108C75.7872 30.2662 75.7462 30.4425 75.75 30.6207C75.7505 30.7924 75.7903 30.9617 75.8664 31.1156C75.9424 31.2696 76.0528 31.404 76.1889 31.5087C76.561 31.8216 77.4651 32.1472 78.9011 32.4855C80.001 32.7099 81.0706 33.0634 82.0877 33.5384C82.752 33.8772 83.3109 34.3914 83.7039 35.0251C84.1097 35.7475 84.313 36.566 84.2924 37.3944C84.2719 38.2227 84.0283 39.0301 83.5872 39.7315C83.1151 40.4676 82.4251 41.0379 81.6133 41.3629C80.5978 41.7468 79.5169 41.9278 78.4317 41.8957C76.583 41.8957 75.1631 41.4686 74.1719 40.6144C73.1807 39.7603 72.5896 38.5111 72.3984 36.8671Z" fill="#FFCB0A"/>
<path fill-rule="evenodd" clip-rule="evenodd" d="M63.5445 32.7646C63.6206 32.6885 63.6231 32.6377 63.5445 32.5616C62.9 31.9189 62.2573 31.2761 61.6162 30.6334C61.5477 30.5649 61.497 30.5598 61.426 30.6334L59.4876 32.5743C59.4622 32.5997 59.4292 32.625 59.4318 32.6682C59.4343 32.7113 59.4749 32.7417 59.5079 32.7722C60.1422 33.409 60.7765 34.0407 61.4107 34.6826C61.4919 34.7613 61.5452 34.7664 61.6264 34.6826C62.2632 34.0382 62.9051 33.4014 63.5445 32.7646Z" fill="#FFCB0A"/>
<path fill-rule="evenodd" clip-rule="evenodd" d="M58.0822 38.2219L59.8887 36.418C60.0333 36.2709 60.0333 36.2709 59.8887 36.1212L56.5904 32.8229C56.4331 32.6631 56.4331 32.6631 56.5904 32.5057C57.6949 31.4029 58.8002 30.3035 59.9064 29.2075C60.0104 29.1035 60.0104 29.0426 59.9064 28.9385C59.3026 28.3372 58.7064 27.7309 58.1051 27.127C57.9579 26.9799 57.9579 26.9799 57.8133 27.127L52.4092 32.5311C52.262 32.6757 52.262 32.6783 52.4092 32.8254L56.3697 36.7859L57.826 38.2397C57.8561 38.2842 57.8997 38.3179 57.9503 38.3361C58.0086 38.3158 58.0416 38.2625 58.0822 38.2219Z" fill="#FFCB0A"/>
<path fill-rule="evenodd" clip-rule="evenodd" d="M63.1717 28.9056C63.017 29.0603 63.017 29.0603 63.1717 29.2126L66.4827 32.5235C66.6197 32.6605 66.6222 32.6631 66.4827 32.7975L65.1608 34.1194C64.4843 34.796 63.8077 35.4725 63.1311 36.1491C63.0576 36.2227 62.9992 36.2836 63.1032 36.3851C63.735 37.0117 64.3718 37.6409 64.9908 38.2701C65.0139 38.3022 65.0484 38.324 65.0873 38.331C65.1431 38.331 65.1761 38.2752 65.2116 38.2397C67.0231 36.4282 68.8355 34.6175 70.6487 32.8077C70.7501 32.7062 70.7603 32.6453 70.6487 32.5388C68.8355 30.7289 67.0248 28.9174 65.2167 27.1042C65.1152 27.0027 65.0568 27.0129 64.9629 27.1042C64.3769 27.7055 63.773 28.3144 63.1717 28.9056Z" fill="#FFCB0A"/>
<path fill-rule="evenodd" clip-rule="evenodd" d="M61.622 41.8323L63.5172 39.937C63.5807 39.8736 63.5933 39.8254 63.5172 39.7569L61.6118 37.8515C61.5408 37.7779 61.4875 37.7855 61.419 37.8515C60.7898 38.4858 60.1589 39.1184 59.5263 39.7493C59.5087 39.7608 59.4939 39.7762 59.4829 39.7941C59.4719 39.8121 59.4651 39.8323 59.4629 39.8533C59.4797 39.8783 59.4984 39.9021 59.5187 39.9243L61.4241 41.8323C61.4901 41.9084 61.5535 41.9008 61.622 41.8323Z" fill="#FFCB0A"/>
<path d="M11.3535 3.19675H17.6735C18.6064 3.17783 19.5395 3.23042 20.4644 3.35405C21.0549 3.44905 21.6177 3.67155 22.1135 4.0061C22.6122 4.35047 23.0274 4.80213 23.3288 5.32794C23.6543 5.88942 23.8218 6.52855 23.8134 7.17751C23.8141 7.90292 23.6046 8.61298 23.2101 9.22177C22.8157 9.83056 22.2532 10.312 21.5908 10.6077C22.468 10.8308 23.2484 11.3341 23.8134 12.0412C24.3337 12.7249 24.6073 13.5646 24.5897 14.4236C24.586 15.1529 24.4123 15.8713 24.0823 16.5218C23.7736 17.1737 23.3016 17.7348 22.7123 18.1506C22.0749 18.5785 21.3386 18.8362 20.5735 18.8991C20.0407 18.9583 18.7569 18.9946 16.7221 19.0082H11.3535V3.19675ZM14.5528 5.82014V9.47615H16.646C17.8892 9.47615 18.6621 9.45755 18.9649 9.42034C19.4467 9.38496 19.9017 9.18523 20.2538 8.85456C20.412 8.6914 20.5352 8.49765 20.6159 8.28519C20.6967 8.07273 20.7331 7.84603 20.7231 7.61897C20.7426 7.18536 20.5976 6.76039 20.3172 6.42906C20.0018 6.10022 19.5744 5.90191 19.1197 5.87343C18.8051 5.83791 17.8942 5.82014 16.3923 5.82014H14.5528ZM14.5528 12.1072V16.334H17.501C18.2322 16.3565 18.9641 16.3243 19.6905 16.2376C20.1379 16.166 20.5472 15.943 20.85 15.6059C21.1617 15.2302 21.3211 14.7512 21.2965 14.2637C21.3104 13.835 21.1897 13.4127 20.9515 13.056C20.707 12.7126 20.3568 12.4587 19.9544 12.333C19.5197 12.1807 18.5759 12.1055 17.123 12.1072H14.5528Z" fill="#231F20"/>
<path d="M26.4785 13.8528L29.584 13.5508C29.7717 14.5928 30.1506 15.359 30.7206 15.8495C31.2906 16.34 32.0619 16.5844 33.0345 16.5827C34.0493 16.5827 34.8384 16.3645 35.3585 15.9307C35.5965 15.7536 35.7908 15.5243 35.9263 15.2604C36.0617 14.9965 36.1348 14.705 36.1399 14.4084C36.1493 14.0614 36.0331 13.7226 35.8126 13.4544C35.4939 13.1322 35.0984 12.8965 34.6633 12.7694C34.2895 12.6392 33.4379 12.4091 32.1084 12.0793C30.3967 11.6548 29.1958 11.1338 28.5057 10.5164C28.0439 10.1258 27.674 9.63818 27.4223 9.08825C27.1706 8.53832 27.0432 7.93963 27.0494 7.33486C27.0486 6.53009 27.287 5.74324 27.7344 5.07428C28.2158 4.35374 28.9039 3.79566 29.7083 3.47335C30.6977 3.07929 31.7567 2.89026 32.8213 2.91771C34.8054 2.91771 36.2989 3.35326 37.3019 4.22434C38.3049 5.09542 38.8318 6.25574 38.8826 7.70528L35.6908 7.84736C35.5538 7.03548 35.2621 6.4494 34.8105 6.0942C34.3588 5.73901 33.689 5.56141 32.7808 5.56141C31.8725 5.56141 31.1291 5.75169 30.6039 6.13226C30.4438 6.24026 30.3134 6.38679 30.2247 6.55836C30.1361 6.72994 30.0919 6.92105 30.0965 7.11413C30.0969 7.29963 30.14 7.48254 30.2222 7.6488C30.3045 7.81506 30.4238 7.96024 30.5709 8.07317C30.9735 8.41145 31.9511 8.76411 33.5038 9.13115C35.0566 9.49819 36.205 9.87707 36.9493 10.2678C37.6669 10.6345 38.2712 11.1897 38.6973 11.8738C39.1342 12.6528 39.3532 13.5351 39.3314 14.428C39.3095 15.3209 39.0475 16.1914 38.573 16.9481C38.065 17.7496 37.3176 18.3709 36.4368 18.724C35.339 19.1404 34.1699 19.3361 32.9964 19.3C30.9988 19.3 29.4639 18.8382 28.3915 17.9147C27.3192 16.9912 26.6815 15.6372 26.4785 13.8528Z" fill="#231F20"/>
<path d="M52.1417 13.1855L55.237 14.1674C54.7617 15.8926 53.9726 17.1739 52.8698 18.0111C51.767 18.8484 50.3665 19.2712 48.6684 19.2797C46.571 19.2797 44.8457 18.5625 43.4926 17.1282C42.1395 15.6939 41.4629 13.7327 41.4629 11.2446C41.4629 8.61444 42.1395 6.57121 43.4926 5.11489C44.8457 3.65858 46.6327 2.93042 48.8536 2.93042C50.7869 2.93042 52.3573 3.50212 53.565 4.64552C54.2856 5.32209 54.8251 6.29297 55.1837 7.55815L52.025 8.31929C51.8781 7.55175 51.461 6.86225 50.8494 6.37583C50.2378 5.88941 49.4721 5.63829 48.6912 5.66799C48.151 5.65116 47.614 5.7565 47.1202 5.97615C46.6265 6.1958 46.1886 6.5241 45.8394 6.93655C45.1088 7.78227 44.7434 9.14471 44.7434 11.0239C44.7434 13.0231 45.1028 14.4465 45.8217 15.2939C46.1618 15.7052 46.5914 16.0334 47.0778 16.2532C47.5641 16.4731 48.0943 16.5788 48.6278 16.5624C49.4427 16.5766 50.2323 16.2789 50.8351 15.7303C51.4406 15.1907 51.8761 14.3424 52.1417 13.1855Z" fill="#231F20"/>
</svg>
