<svg width="21" height="21" viewBox="0 0 21 21" fill="none" xmlns="http://www.w3.org/2000/svg">
<path d="M4.36388 9.96264C4.3639 9.84543 4.38707 9.72938 4.43207 9.62115C4.47706 9.51292 4.54299 9.41464 4.62608 9.33197C4.70916 9.24929 4.80775 9.18383 4.9162 9.13936C5.02464 9.09489 5.1408 9.07228 5.25801 9.07283L6.74039 9.07767C6.97675 9.07767 7.20343 9.17157 7.37056 9.3387C7.53769 9.50583 7.63158 9.73251 7.63158 9.96886V15.5745C7.79854 15.525 8.01221 15.4722 8.24733 15.4169C8.41023 15.3786 8.55541 15.2863 8.65932 15.1552C8.76324 15.024 8.8198 14.8616 8.81984 14.6942V7.74132C8.81984 7.50494 8.91373 7.27825 9.08085 7.11109C9.24798 6.94393 9.47466 6.85 9.71103 6.84995H11.1979C11.4343 6.85 11.661 6.94393 11.8281 7.11109C11.9952 7.27825 12.0891 7.50494 12.0891 7.74132V14.1947C12.0891 14.1947 12.4611 14.0442 12.8232 13.8913C12.9578 13.8343 13.0726 13.7391 13.1533 13.6173C13.2341 13.4956 13.2772 13.3527 13.2774 13.2066V5.51325C13.2774 5.27692 13.3712 5.05027 13.5383 4.88315C13.7054 4.71602 13.932 4.62211 14.1684 4.62206H15.6537C15.8899 4.62229 16.1164 4.71628 16.2833 4.88339C16.4502 5.0505 16.544 5.27704 16.544 5.51325V11.8485C17.8318 10.9152 19.1368 9.79274 20.1725 8.44306C20.3227 8.24715 20.4221 8.01709 20.4619 7.7734C20.5016 7.52972 20.4804 7.27999 20.4001 7.0465C19.9207 5.66725 19.1587 4.40328 18.1628 3.33545C17.1668 2.26763 15.9589 1.41947 14.6164 0.845245C13.2739 0.271023 11.8262 -0.016614 10.3662 0.000741098C8.90607 0.0180962 7.46569 0.340061 6.13718 0.946032C4.80867 1.552 3.62129 2.42864 2.65102 3.51983C1.68075 4.61103 0.948958 5.89276 0.502471 7.28301C0.0559834 8.67326 -0.0953648 10.1414 0.0581101 11.5935C0.211585 13.0456 0.666504 14.4497 1.39376 15.7159C1.52046 15.9343 1.70687 16.112 1.93109 16.2282C2.1553 16.3443 2.40801 16.3941 2.65952 16.3716C2.94049 16.3468 3.29033 16.3119 3.70625 16.2631C3.88727 16.2425 4.05439 16.156 4.17579 16.0202C4.29719 15.8843 4.36438 15.7086 4.36457 15.5264V9.96264" fill="white"/>
<path d="M4.33203 18.9527C5.89767 20.0916 7.74787 20.7753 9.67794 20.928C11.608 21.0807 13.5427 20.6965 15.268 19.8179C16.9932 18.9393 18.4418 17.6006 19.4534 15.9498C20.4651 14.299 21.0003 12.4005 21 10.4644C21 10.2222 20.9887 9.98381 20.9726 9.74609C17.1381 15.4651 10.0581 18.1386 4.33203 18.9527Z" fill="#F0B90B"/>
</svg>
