<svg width="30" height="29" viewBox="0 0 30 29" fill="none" xmlns="http://www.w3.org/2000/svg">
<g clip-path="url(#clip0_1949_1899)">
<ellipse cx="15.0459" cy="14.5825" rx="11.5732" ry="11.1875" fill="white"/>
<path fill-rule="evenodd" clip-rule="evenodd" d="M15 29C6.71531 29 0 22.5085 0 14.5C0 6.49147 6.71531 0 15 0C23.2847 0 30 6.49147 30 14.5C30 22.5085 23.2847 29 15 29ZM21.7397 12.7056C22.0341 10.8061 20.5369 9.78478 18.4913 9.10328L19.155 6.52953L17.535 6.13984L16.8881 8.64563C16.4625 8.54231 16.0256 8.44625 15.5897 8.35019L16.2412 5.82809L14.6213 5.4375L13.9575 8.01034C13.605 7.93241 13.2581 7.85628 12.9225 7.77472L12.9244 7.76656L10.6894 7.22734L10.2581 8.90028C10.2581 8.90028 11.4609 9.16672 11.4356 9.18303C12.0919 9.34163 12.21 9.76122 12.1903 10.0947L11.4347 13.0264C11.4797 13.0373 11.5378 13.0536 11.6034 13.0781L11.4319 13.0373L10.3725 17.1444C10.2919 17.3366 10.0884 17.6257 9.62906 17.516C9.64594 17.5387 8.45156 17.2323 8.45156 17.2323L7.64719 19.0249L9.75656 19.5333C10.1484 19.6285 10.5328 19.7282 10.9106 19.8215L10.2403 22.4242L11.8594 22.8139L12.5231 20.2402C12.9656 20.3553 13.395 20.4622 13.815 20.5637L13.1531 23.1266L14.7731 23.5163L15.4434 20.919C18.2072 21.4247 20.2847 21.2208 21.1594 18.8047C21.8644 16.8599 21.1247 15.737 19.6706 15.0057C20.73 14.7701 21.5269 14.0967 21.7397 12.7056ZM18.0366 17.7244C17.5369 19.6702 14.1478 18.618 13.0491 18.3543L13.9397 14.906C15.0384 15.1715 18.5606 15.6963 18.0366 17.7244ZM18.5381 12.6775C18.0816 14.4474 15.2616 13.5475 14.3475 13.3273L15.1537 10.2007C16.0678 10.421 19.0144 10.8315 18.5381 12.6775Z" fill="#E9962C"/>
</g>
<defs>
<clipPath id="clip0_1949_1899">
<rect width="30" height="29" fill="white"/>
</clipPath>
</defs>
</svg>
