<svg width="31" height="31" viewBox="0 0 31 31" fill="none" xmlns="http://www.w3.org/2000/svg">
<path d="M30.9062 15.6245C30.9062 23.8746 23.9876 30.5626 15.4531 30.5626C6.9186 30.5626 0 23.8746 0 15.6245C0 7.3745 6.9186 0.686523 15.4531 0.686523C23.9876 0.686523 30.9062 7.3745 30.9062 15.6245Z" fill="#2D2D2D"/>
<path fill-rule="evenodd" clip-rule="evenodd" d="M15.0488 5.30859L24.5488 10.9327V20.6844L15.0488 26.3086L5.54883 20.6844V10.9327L15.0488 5.30859ZM7.01037 11.7847V19.8325L15.0488 24.5914L23.0873 19.8325V18.0335H21.6258V19.5168H20.1642V18.0335H18.7027V19.5168H17.2411V18.0335H15.7796V16.5502H17.2411V15.0669H15.7796V13.5837H17.2411V12.1004H18.7027V13.5837H20.1642V12.1004H21.6258V13.5837H23.0873V11.7847L15.0488 7.02581L7.01037 11.7847ZM20.1642 15.0669H18.7027V16.5502H20.1642V15.0669ZM21.6258 16.5502V15.0669H23.0873V16.5502H21.6258ZM14.8652 12.4656C14.3457 12.2021 13.7684 12.0777 13.1881 12.1043C12.6078 12.1309 12.0439 12.3075 11.5497 12.6175C11.0556 12.9274 10.6478 13.3604 10.3649 13.8753C10.082 14.3902 9.93351 14.9699 9.93344 15.5594C9.93344 15.5594 9.93344 15.5594 9.93344 15.5594V16.0578C9.93317 16.6474 10.0815 17.2276 10.3642 17.7427C10.647 18.2577 11.0549 18.6909 11.5491 19.0009C12.0432 19.3109 12.6073 19.4875 13.1877 19.5139C13.7681 19.5403 14.3455 19.4156 14.865 19.1517L15.4528 18.8535L16.1064 20.1802L15.5191 20.4782C15.519 20.4782 15.5192 20.4781 15.5191 20.4782C14.7768 20.8552 13.9515 21.0334 13.1222 20.9957C12.2929 20.9579 11.4868 20.7056 10.7806 20.2626C10.0744 19.8196 9.4916 19.2007 9.08751 18.4647C8.68348 17.7287 8.47157 16.9002 8.4719 16.0578C8.4719 16.0577 8.4719 16.0579 8.4719 16.0578V15.5594C8.47198 14.7171 8.68419 13.8887 9.08837 13.153C9.49256 12.4173 10.0753 11.7986 10.7813 11.3557C11.4873 10.9129 12.2931 10.6605 13.1222 10.6225C13.9514 10.5845 14.7763 10.7623 15.5187 11.1388L16.1064 11.437L15.4528 12.7637L14.8652 12.4656C14.8653 12.4656 14.8652 12.4655 14.8652 12.4656Z" fill="white"/>
</svg>
