<svg width="183" height="23" viewBox="0 0 183 23" fill="none" xmlns="http://www.w3.org/2000/svg">
<path d="M46.1366 17.1793C45.0785 17.7059 43.7938 17.9316 42.1311 17.9316C40.0151 17.9316 38.2769 17.3298 37.0677 16.051C35.8585 14.7722 35.2539 13.1173 35.2539 11.011C35.2539 8.75434 35.9341 6.94898 37.2944 5.59496C38.6547 4.24094 40.4685 3.48871 42.6602 3.48871C44.0205 3.48871 45.1541 3.63916 46.1366 4.01527V7.0242C45.2297 6.49764 44.0961 6.19675 42.9624 6.19675C41.6777 6.19675 40.6197 6.57286 39.7883 7.40032C38.957 8.22777 38.5792 9.35612 38.5792 10.7101C38.5792 12.0642 38.957 13.1173 39.7128 13.9447C40.4685 14.7722 41.5265 15.1483 42.8113 15.1483C44.0205 15.1483 45.1541 14.8474 46.2121 14.2456L46.1366 17.1793Z" fill="#182B40"/>
<path d="M54.8275 10.4845C54.4496 10.2588 53.9962 10.1836 53.5427 10.1836C52.8626 10.1836 52.3335 10.4093 51.9557 10.9358C51.5778 11.3872 51.4267 12.0642 51.4267 12.9669V17.7059H48.3281V7.77645H51.4267V9.65704H51.5022C51.9557 8.30302 52.8626 7.62601 54.1473 7.62601C54.4496 7.62601 54.7519 7.70123 54.9031 7.77645V10.4845H54.8275Z" fill="#182B40"/>
<path d="M66.5414 7.77646L62.4604 18.5334C61.478 21.091 60.0421 22.3698 58.0772 22.3698C57.3214 22.3698 56.7168 22.2945 56.2634 22.1441V19.6617C56.6413 19.8874 57.0947 20.0378 57.6237 20.0378C58.3795 20.0378 58.9841 19.6617 59.2863 18.9095L59.8154 17.7059L55.7344 7.77646H59.1352L61.0245 13.7943C61.1757 14.1704 61.2513 14.6218 61.3268 15.1483H61.4024C61.478 14.7722 61.5536 14.3209 61.7047 13.8695L63.5941 7.77646H66.5414Z" fill="#182B40"/>
<path d="M77.1212 8.9048C76.3654 8.00212 75.383 7.55078 74.0982 7.55078C72.7379 7.55078 71.6798 8.15257 70.9241 9.28092H70.8485V7.77645H67.75V22.2193H70.8485L70.9241 16.5023C71.5287 17.4803 72.4356 17.9316 73.7203 18.0068C75.0807 18.0068 76.1387 17.4803 76.97 16.5023C77.8013 15.5244 78.1792 14.1704 78.1792 12.5155C78.1792 11.0111 77.8013 9.80748 77.1212 8.9048ZM74.4005 14.7722C73.9471 15.2988 73.418 15.5997 72.7379 15.5997C72.1333 15.5997 71.6798 15.374 71.302 14.9227C70.9241 14.5465 70.773 13.9448 70.773 13.2677V12.4403C70.773 11.6881 70.9997 11.0863 71.4531 10.4845C71.831 10.0331 72.36 9.80748 72.9646 9.80748C74.3249 9.80748 75.0051 10.7102 75.0051 12.4403C75.0051 13.4934 74.7784 14.2457 74.4005 14.7722Z" fill="#182B40"/>
<path d="M86.1897 17.5555C85.7363 17.7811 85.0561 17.9316 84.1492 17.9316C81.9576 17.9316 80.8996 16.8032 80.8996 14.5465V9.95792H79.3125V7.70122H80.8996V5.59497L83.9981 4.69229V7.70122H86.2653V9.95792H83.9981V13.9448C83.9981 14.9979 84.376 15.5244 85.2073 15.5244C85.5096 15.5244 85.8874 15.4492 86.1897 15.2235V17.5555Z" fill="#182B40"/>
<path d="M96.6948 8.9048C95.7123 7.9269 94.4276 7.47556 92.7649 7.47556C91.1023 7.47556 89.742 8.00212 88.7595 8.9048C87.7771 9.80748 87.248 11.0863 87.248 12.7412C87.248 14.3209 87.7015 15.5244 88.6839 16.5023C89.6664 17.4802 90.9512 17.9316 92.6138 17.9316C94.2764 17.9316 95.6368 17.4802 96.6948 16.5023C97.6772 15.5244 98.1307 14.2456 98.1307 12.5907C98.1307 11.0863 97.6017 9.80748 96.6948 8.9048ZM92.7649 15.5997C91.1779 15.5997 90.4221 14.6218 90.4221 12.7412C90.4221 11.8385 90.6489 11.1615 91.0267 10.6349C91.4046 10.1084 91.9336 9.8827 92.6894 9.8827C94.2008 9.8827 94.9566 10.7854 94.9566 12.666C94.9566 14.6218 94.2764 15.5997 92.7649 15.5997Z" fill="#182B40"/>
<path d="M110.676 17.7811C109.618 18.3077 108.333 18.5334 106.67 18.5334C104.554 18.5334 102.816 17.9316 101.607 16.6528C100.398 15.374 99.793 13.7191 99.793 11.6128C99.793 9.35614 100.473 7.55079 101.833 6.19677C103.194 4.84275 105.008 4.09052 107.199 4.09052C108.56 4.09052 109.693 4.24096 110.676 4.61708V7.62601C109.769 7.09945 108.635 6.79855 107.502 6.79855C106.217 6.79855 105.159 7.17467 104.327 8.00213C103.496 8.82958 103.118 9.95793 103.118 11.3119C103.118 12.666 103.496 13.7191 104.252 14.5465C105.008 15.374 106.066 15.7501 107.35 15.7501C108.56 15.7501 109.693 15.4492 110.751 14.8474V17.7811H110.676Z" fill="#00FFA8"/>
<path d="M121.634 9.5066C120.652 8.5287 119.367 8.07736 117.704 8.07736C116.042 8.07736 114.681 8.60392 113.699 9.5066C112.717 10.4093 112.188 11.6881 112.188 13.343C112.188 14.9227 112.641 16.2015 113.623 17.1042C114.606 18.0821 115.891 18.5334 117.553 18.5334C119.216 18.5334 120.576 18.0821 121.634 17.1042C122.617 16.1263 123.07 14.8475 123.07 13.1925C123.07 11.6881 122.541 10.4093 121.634 9.5066ZM117.704 16.2015C116.117 16.2015 115.362 15.2236 115.362 13.343C115.362 12.4403 115.588 11.7633 115.966 11.2367C116.344 10.7102 116.873 10.4845 117.629 10.4845C119.14 10.4845 119.82 11.3872 119.896 13.2678C119.896 15.2236 119.216 16.2015 117.704 16.2015Z" fill="#00FFA8"/>
<path d="M140.83 18.3077H137.731V12.666C137.731 11.2367 137.202 10.4845 136.144 10.4845C135.615 10.4845 135.237 10.7102 134.935 11.1615C134.632 11.6129 134.481 12.1394 134.481 12.8164V18.383H131.383V12.666C131.383 11.2367 130.854 10.5597 129.796 10.5597C129.267 10.5597 128.813 10.7854 128.511 11.1615C128.209 11.6129 128.058 12.1394 128.058 12.8164V18.3077H124.959V8.37826H128.058V9.95795H128.133C128.435 9.43138 128.889 8.98004 129.493 8.67915C130.098 8.37826 130.703 8.15259 131.383 8.15259C132.819 8.15259 133.726 8.75437 134.255 10.0332C135.01 8.8296 136.144 8.15259 137.58 8.15259C139.771 8.15259 140.83 9.50661 140.83 12.1394V18.3077Z" fill="#00FFA8"/>
<path d="M152.619 9.50661C151.863 8.60393 150.881 8.15259 149.596 8.15259C148.236 8.15259 147.178 8.75437 146.422 9.88272H146.347V8.37826H143.248V22.8211H146.347L146.422 17.1042C147.027 18.0821 148.009 18.5334 149.218 18.6086C150.579 18.6086 151.637 18.0821 152.468 17.1042C153.299 16.1263 153.677 14.7722 153.677 13.1173C153.677 11.6129 153.299 10.4093 152.619 9.50661ZM149.974 15.374C149.596 15.9006 148.992 16.2015 148.311 16.2015C147.707 16.2015 147.253 15.9758 146.876 15.5245C146.498 15.1484 146.347 14.5466 146.347 13.8696V13.0421C146.347 12.2899 146.649 11.5376 147.027 11.0863C147.405 10.635 147.934 10.4093 148.538 10.4093C149.899 10.4093 150.579 11.312 150.579 13.0421C150.579 14.0952 150.352 14.8475 149.974 15.374Z" fill="#00FFA8"/>
<path d="M159.496 8.07736C158.891 8.07736 158.211 8.15258 157.455 8.30303C156.699 8.45348 156.17 8.67915 155.717 8.90482V11.2367C156.775 10.5597 157.908 10.1836 159.118 10.1836C160.327 10.1836 160.931 10.7854 160.931 11.8385L158.211 12.2146C155.868 12.5155 154.734 13.5687 154.734 15.5245C154.734 16.4271 155.037 17.1794 155.566 17.7059C156.095 18.2325 156.85 18.5334 157.833 18.5334C159.118 18.5334 160.1 18.0068 160.78 16.8785H160.856V18.3077H163.803V12.2899C163.803 9.5066 162.367 8.07736 159.496 8.07736ZM160.931 14.2457C160.931 14.8475 160.78 15.2988 160.402 15.6749C160.025 16.051 159.571 16.2767 158.967 16.2767C158.589 16.2767 158.211 16.2015 157.984 15.9758C157.757 15.7501 157.606 15.5245 157.606 15.1483C157.606 14.3961 158.135 13.9448 159.118 13.7943L160.931 13.5687V14.2457Z" fill="#00FFA8"/>
<path d="M172.798 11.0863C172.42 10.8606 171.967 10.7854 171.513 10.7854C170.833 10.7854 170.304 11.011 169.926 11.5376C169.548 12.0642 169.397 12.666 169.397 13.5686V18.3077H166.299V8.37823H169.397V10.2588H169.473C169.926 8.90479 170.833 8.22778 172.118 8.22778C172.42 8.22778 172.723 8.30301 172.874 8.37823L172.798 11.0863Z" fill="#00FFA8"/>
<path d="M183 12.8917C183 11.3872 182.622 10.1836 181.791 9.35616C180.96 8.5287 179.826 8.07736 178.39 8.07736C176.954 8.07736 175.821 8.5287 174.838 9.5066C173.856 10.4845 173.402 11.7633 173.402 13.4182C173.402 15.0731 173.856 16.2767 174.763 17.1794C175.67 18.0821 176.954 18.5334 178.541 18.5334C180.053 18.5334 181.262 18.3077 182.169 17.7812V15.5997C181.338 16.1263 180.431 16.3519 179.297 16.3519C177.559 16.3519 176.652 15.5997 176.576 14.1704H183V12.8917ZM176.576 12.2899C176.652 11.6881 176.879 11.1615 177.257 10.7854C177.634 10.4093 178.012 10.1836 178.541 10.1836C179.675 10.1836 180.28 10.8606 180.28 12.2899H176.576Z" fill="#00FFA8"/>
<path d="M10.541 16.5776V14.02L13.2617 11.312V16.5776" fill="#182B40"/>
<path d="M14.5449 16.5776V12.9668L15.8297 13.9447L17.4167 12.5907V16.5776" fill="#182B40"/>
<path d="M18.5508 16.5776H21.6493V8.90479L18.5508 11.688" fill="#182B40"/>
<path d="M10.3897 12.5907L9.78516 11.8385L13.2616 8.52867L15.7555 10.8606L20.2144 6.87376L19.4586 5.97108L22.5572 5.29407L21.9526 8.303L21.0457 7.70121L15.6799 12.8164L13.2616 10.5597L13.0348 10.334C13.0348 10.334 10.692 12.7412 10.5409 12.6659" fill="#00FFA8"/>
<path fill-rule="evenodd" clip-rule="evenodd" d="M24.6735 3.71439C22.0284 2.88694 18.4764 2.81171 14.8489 3.78962L14.0176 0.855908C18.1741 -0.272441 22.2551 -0.272441 25.5804 0.780685C28.9056 1.75859 31.6263 3.86484 32.4576 7.02422C33.2889 10.1836 32.0797 13.343 29.737 15.9006C27.3942 18.4582 23.8422 20.5644 19.6856 21.6928L18.9299 18.759C22.633 17.7811 25.656 15.9758 27.5453 13.8695C29.4347 11.7633 30.1148 9.65703 29.5858 7.77645C28.9812 6.04631 27.3186 4.54185 24.6735 3.71439Z" fill="#00FFA8"/>
<path fill-rule="evenodd" clip-rule="evenodd" d="M5.25013 9.05525C3.36078 11.1615 2.68062 13.2678 3.20963 15.1483C3.73865 16.9537 5.40128 18.4582 8.04637 19.2856C10.6915 20.1131 14.2434 20.1883 17.871 19.2104L18.7023 22.1441C14.5457 23.2724 10.4647 23.2724 7.13948 22.2193C3.81423 21.2414 1.09356 19.1352 0.262251 15.9758C-0.569062 12.8164 0.64012 9.65703 2.98291 7.09944C5.3257 4.54185 8.87768 2.4356 13.0342 1.30725L13.79 4.24096C10.1624 5.14364 7.13948 6.949 5.25013 9.05525Z" fill="#182B40"/>
</svg>
