<svg width="121" height="34" viewBox="0 0 121 34" fill="none" xmlns="http://www.w3.org/2000/svg">
<path d="M46.7562 13.1438C46.4187 11.7936 45.5536 10.8231 43.8447 10.8231C41.3341 10.8231 40.3004 13.0383 40.3004 15.2747C40.3004 17.511 41.3552 19.7262 43.8447 19.7262C45.6591 19.7262 46.6507 18.376 46.8195 16.6671H48.8238C48.655 19.4731 46.6718 21.3929 43.8447 21.3929C40.3426 21.3929 38.2539 18.6081 38.2539 15.2747C38.2539 11.9412 40.3426 9.15637 43.8447 9.15637C46.4819 9.17747 48.5495 10.6332 48.8027 13.1438H46.7562ZM50.0474 16.8781C50.0474 14.2831 51.6086 12.4265 54.3091 12.4265C57.0096 12.4265 58.5708 14.2831 58.5708 16.8781C58.5708 19.4731 57.0096 21.3507 54.3091 21.3507C51.6086 21.3507 50.0474 19.4731 50.0474 16.8781ZM56.7142 16.8781C56.7142 15.4223 55.9758 13.9033 54.3091 13.9033C52.6424 13.9033 51.904 15.4223 51.904 16.8781C51.904 18.3338 52.6424 19.8739 54.3091 19.8739C55.9758 19.8739 56.7142 18.3549 56.7142 16.8781ZM60.1742 9.43064H62.0308V11.2028H60.1742V9.43064ZM60.1742 12.6586H62.0308V21.1187H60.1742V12.6586ZM64.0773 12.6586H65.8495V13.9033L65.8917 13.9455C66.4402 13.0172 67.4318 12.4265 68.5288 12.4476C70.3643 12.4476 71.5247 13.4392 71.5247 15.3169V21.1187H69.6681V15.8021C69.6259 14.4729 69.1196 13.9033 68.0225 13.9033C66.7778 13.9033 65.976 14.8738 65.976 16.1186V21.1187H64.1195V12.6586H64.0773ZM83.93 21.1187H82.622L82.3055 19.7473C81.2085 20.9921 80.2169 21.3929 78.7822 21.3929C75.2801 21.3929 73.1914 18.6081 73.1914 15.2747C73.1914 11.9412 75.2801 9.15637 78.7822 9.15637C81.335 9.15637 83.487 10.5066 83.7824 13.1438H81.7781C81.5882 11.6037 80.238 10.8231 78.7611 10.8231C76.2505 10.8231 75.2168 13.0383 75.2168 15.2747C75.2168 17.511 76.2716 19.7262 78.7611 19.7262C80.8498 19.7684 82.0102 18.5026 82.0313 16.5194H78.9299V14.9582H83.9089L83.93 21.1187ZM87.3478 17.3633C87.3478 18.6925 88.0652 19.8739 89.6264 19.8739C90.7023 19.8739 91.3564 19.4098 91.6939 18.4604H93.4661C93.0653 20.317 91.4829 21.3507 89.6264 21.3507C86.9681 21.3507 85.4913 19.4942 85.4913 16.8992C85.4913 14.494 87.0736 12.4265 89.5842 12.4265C92.2425 12.4265 93.8881 14.8316 93.5716 17.3633H87.3478ZM91.6939 16.1397C91.6306 14.9582 90.8289 13.9033 89.5631 13.9033C88.2761 13.9033 87.39 14.8738 87.3267 16.1397H91.6939ZM100.703 15.4856C100.555 14.4518 99.7954 13.9033 98.7616 13.9033C97.7911 13.9033 96.4409 14.4097 96.4409 16.9836C96.4409 18.3971 97.0527 19.8739 98.6772 19.8739C99.7532 19.8739 100.513 19.1566 100.681 17.9329H102.538C102.2 20.1271 100.85 21.3296 98.6561 21.3296C95.9978 21.3296 94.5421 19.452 94.5421 16.9625C94.5421 14.4097 95.9345 12.4054 98.7194 12.4054C100.681 12.4054 102.348 13.397 102.538 15.4645H100.703V15.4856ZM104.141 9.43064H105.998V16.0764L109.374 12.6586H111.673L108.424 15.7599L111.969 21.1187H109.69L107.095 17.0047L105.977 18.0806V21.1187H104.12V9.43064H104.141ZM112.475 16.8781C112.475 14.2831 114.036 12.4265 116.737 12.4265C119.458 12.4265 120.998 14.2831 120.998 16.8781C120.998 19.4731 119.437 21.3507 116.737 21.3507C114.036 21.3507 112.475 19.4731 112.475 16.8781ZM119.163 16.8781C119.163 15.4223 118.424 13.9033 116.758 13.9033C115.091 13.9033 114.353 15.4223 114.353 16.8781C114.353 18.3338 115.091 19.8739 116.758 19.8739C118.424 19.8739 119.163 18.3549 119.163 16.8781Z" fill="white"/>
<path d="M33.4572 16.6671C33.4783 23.4394 29.4487 29.5577 23.2038 32.1738C16.9589 34.7899 9.76468 33.3974 4.95445 28.6294C0.144211 23.8613 -1.31152 16.6671 1.24128 10.4011C3.79408 4.13516 9.89126 0.0422398 16.6425 4.47141e-05C25.9043 -0.0210528 33.415 7.42637 33.4572 16.6671Z" fill="#8DC63F"/>
<path d="M32.213 16.6671C32.2341 22.9331 28.4998 28.5872 22.7191 31.0134C16.9384 33.4396 10.2927 32.1316 5.84109 27.7433C1.38951 23.3339 0.0392692 16.6882 2.40219 10.9075C4.76511 5.10565 10.3982 1.32919 16.643 1.287C25.2086 1.2448 32.1708 8.12259 32.213 16.6671Z" fill="#F9E988"/>
<path d="M17.0215 2.27856C18.0131 2.10978 19.0047 2.10978 19.9962 2.27856C20.9878 2.42625 21.9583 2.76381 22.8444 3.22795C23.7305 3.71319 24.49 4.36722 25.2495 4.97905C26.009 5.59087 26.7685 6.2238 27.4859 6.92002C28.2243 7.59514 28.8572 8.37575 29.3846 9.21965C29.9332 10.0635 30.3762 10.9707 30.7138 11.899C31.3678 13.7978 31.5788 15.8443 31.2623 17.7852H31.1568C30.8404 15.8443 30.3973 14.0088 29.7011 12.2577C29.3846 11.3716 28.9838 10.5066 28.5618 9.68379C28.0977 8.86099 27.6124 8.03818 27.0639 7.27867C26.5154 6.49807 25.8191 5.80185 25.0385 5.23222C24.2579 4.66259 23.3507 4.30393 22.4857 3.96637C21.6207 3.62881 20.7346 3.27015 19.8275 2.99588C18.9203 2.74271 17.992 2.53173 17.0215 2.34186V2.27856Z" fill="white"/>
<path d="M24.5751 11.2028C23.457 10.8864 22.2966 10.4222 21.1151 9.95808C21.0518 9.66271 20.7776 9.30405 20.2501 8.83991C19.4906 8.16478 18.0349 8.18589 16.7901 8.48125C15.4188 8.16479 14.0475 8.0382 12.7394 8.35467C2.04298 11.3083 8.09797 18.4815 4.17383 25.7179C4.72236 26.8994 10.7563 33.8194 19.4695 31.9628C19.4695 31.9628 16.4948 24.8107 23.2249 21.3718C28.6891 18.587 32.6133 13.397 24.5751 11.2028Z" fill="#8BC53F"/>
<path d="M16.7891 8.48127C17.5697 8.54456 20.3967 9.45175 21.1141 9.95809C20.5022 8.207 18.4769 7.97493 16.7891 8.48127Z" fill="#009345"/>
<path d="M25.9049 15.9076C25.9049 16.4772 25.2087 16.7726 24.8078 16.3717C24.407 15.9709 24.6813 15.2746 25.2509 15.2535C25.6096 15.2746 25.9049 15.5489 25.9049 15.9076ZM17.5292 12.9328C17.5292 14.1354 16.7908 15.2324 15.6726 15.6966C14.5545 16.1607 13.2675 15.9076 12.4025 15.0426C11.5375 14.1776 11.2843 12.8906 11.7485 11.7724C12.2126 10.6543 13.3097 9.91586 14.5123 9.91586C15.314 9.91586 16.0735 10.2323 16.622 10.7809C17.2127 11.3716 17.5292 12.1311 17.5292 12.9328Z" fill="white"/>
<path d="M16.6441 12.9539C16.6441 13.7978 16.1378 14.5784 15.3361 14.8949C14.5555 15.2114 13.6483 15.0426 13.0364 14.4308C12.4246 13.8189 12.2558 12.9328 12.5723 12.1311C12.8888 11.3505 13.6694 10.8231 14.5133 10.8231C15.6947 10.8442 16.6441 11.7936 16.6441 12.9539Z" fill="#58595B"/>
<path d="M28.3313 17.2368C25.9051 18.9457 23.1413 20.2326 19.2383 20.2326C17.4028 20.2326 17.0441 18.2916 15.8205 19.241C15.1875 19.7263 12.9934 20.8233 11.2423 20.76C9.49121 20.6757 6.66415 19.6419 5.88354 15.9287C5.56708 19.663 5.41939 22.4057 4.00586 25.5492C6.79073 30.0219 13.4365 33.4608 19.4703 31.9839C18.8163 27.448 22.7827 23.0175 24.9979 20.76C25.8629 19.8739 27.4874 18.4815 28.3313 17.2368Z" fill="#8BC53F"/>
<path d="M28.2247 17.3422C27.4652 18.0384 26.5791 18.5447 25.6719 18.9878C24.7436 19.4308 23.7942 19.7684 22.8026 20.0427C21.811 20.2958 20.7772 20.4857 19.7435 20.4013C18.6886 20.3169 17.6337 19.9583 16.9375 19.1777L16.9797 19.1355C17.8236 19.684 18.8152 19.8739 19.7857 19.9161C20.7772 19.9372 21.7688 19.8739 22.7393 19.684C23.7098 19.473 24.6803 19.1777 25.6086 18.7979C26.5369 18.4182 27.4441 17.9751 28.2458 17.3422H28.2247Z" fill="#58595B"/>
</svg>
