<svg width="40" height="39" viewBox="0 0 40 39" fill="none" xmlns="http://www.w3.org/2000/svg">
<path d="M19.649 0C15.7628 0 11.9639 1.12559 8.73261 3.23444C5.50135 5.34329 2.98289 8.34068 1.4957 11.8476C0.00851364 15.3545 -0.380602 19.2133 0.377559 22.9362C1.13572 26.6591 3.00711 30.0788 5.75507 32.7629C8.50303 35.4469 12.0041 37.2748 15.8157 38.0153C19.6272 38.7559 23.578 38.3758 27.1684 36.9232C30.7587 35.4706 33.8275 33.0107 35.9866 29.8546C38.1456 26.6985 39.298 22.9879 39.298 19.192C39.2932 14.1034 37.2215 9.22461 33.5376 5.62642C29.8538 2.02823 24.8588 0.00470514 19.649 0ZM19.649 4.2649C22.1113 4.26739 24.5365 4.85025 26.7189 5.96399C28.9012 7.07773 30.7761 8.68944 32.1843 10.6622H19.649C18.1162 10.6667 16.6113 11.0626 15.2836 11.8108C13.9559 12.5589 12.8517 13.6333 12.0805 14.9271L8.55096 8.93852C9.97635 7.46096 11.6963 6.28406 13.605 5.48029C15.5136 4.67652 17.5705 4.2629 19.649 4.2649ZM24.0155 19.192C24.0155 20.0356 23.7594 20.8601 23.2796 21.5615C22.7998 22.2629 22.1178 22.8095 21.32 23.1323C20.5221 23.4551 19.6442 23.5396 18.7972 23.375C17.9502 23.2104 17.1721 22.8042 16.5615 22.2078C15.9508 21.6113 15.5349 20.8514 15.3665 20.0241C15.198 19.1968 15.2845 18.3393 15.6149 17.5599C15.9454 16.7806 16.5051 16.1145 17.2231 15.6459C17.9412 15.1773 18.7854 14.9271 19.649 14.9271C20.8056 14.9318 21.9134 15.3827 22.7313 16.1815C23.5491 16.9803 24.0107 18.0624 24.0155 19.192ZM4.36645 19.192C4.36672 16.9984 4.86375 14.832 5.82194 12.848L12.0805 23.4569C12.0987 23.4747 12.1169 23.4925 12.1169 23.5103C12.889 24.7914 13.9898 25.8538 15.3108 26.5923C16.6317 27.3309 18.127 27.7202 19.649 27.7218L16.1013 33.7105C12.7622 32.9256 9.78992 31.0676 7.66179 28.4346C5.53366 25.8017 4.3731 22.5466 4.36645 19.192ZM20.9408 34.0659L27.2175 23.4569C27.2225 23.4304 27.2351 23.4057 27.2539 23.3859C28.0022 22.0942 28.3909 20.6335 28.3813 19.1494C28.3717 17.6653 27.9642 16.2095 27.1993 14.9271H34.2948C34.72 16.3106 34.9345 17.7476 34.9316 19.192C34.9274 22.9314 33.4882 26.5334 30.8981 29.287C28.308 32.0406 24.7551 33.7458 20.9408 34.0659Z" fill="white"/>
</svg>
