<?xml version="1.0" encoding="utf-8"?>
<!-- Generator: Adobe Illustrator 27.0.0, SVG Export Plug-In . SVG Version: 6.00 Build 0)  -->
<svg version="1.1" id="Layer_1" xmlns="http://www.w3.org/2000/svg" xmlns:xlink="http://www.w3.org/1999/xlink" x="0px" y="0px"
	 viewBox="0 0 549 1464" style="enable-background:new 0 0 549 1464;" xml:space="preserve">
<style type="text/css">
	.st0{fill:none;stroke:url(#SVGID_1_);stroke-width:4;}
	.st1{fill:url(#SVGID_00000147197115184837303710000016226733378764605068_);fill-opacity:0.28;}
	.st2{fill:url(#SVGID_00000174577641992174494020000011922448003665202109_);}
	.st3{fill:none;stroke:url(#SVGID_00000145761461442515267320000001958838791535222954_);stroke-width:6;}
	.st4{fill:url(#SVGID_00000160889282044849406320000010220678838855850368_);fill-opacity:0.28;}
	.st5{fill:url(#SVGID_00000149358065518941126360000006182904320977980343_);}
	.st6{fill:none;stroke:url(#SVGID_00000104678359638941730940000017253901684861576325_);stroke-width:6;}
</style>
<linearGradient id="SVGID_1_" gradientUnits="userSpaceOnUse" x1="17.5002" y1="728.2473" x2="462.8491" y2="733.6803" gradientTransform="matrix(1 0 0 -1 0 1464)">
	<stop  offset="1.388870e-02" style="stop-color:#999999"/>
	<stop  offset="0.1701" style="stop-color:#4B4B4B"/>
	<stop  offset="0.6285" style="stop-color:#2B2B2B"/>
	<stop  offset="0.8108" style="stop-color:#393838"/>
	<stop  offset="0.9878" style="stop-color:#2D2D2D;stop-opacity:0.1"/>
</linearGradient>
<path class="st0" d="M480.7,733c0,194.3-27,370-70.6,497.2c-21.8,63.6-47.7,114.9-76.4,150.3c-28.7,35.4-59.9,54.6-92.4,54.6
	s-63.7-19.2-92.4-54.6c-28.7-35.4-54.6-86.7-76.4-150.3C29,1103.1,2,927.3,2,733s27-370,70.6-497.2c21.8-63.6,47.7-114.9,76.4-150.3
	C177.6,50.2,208.9,31,241.4,31s63.7,19.2,92.4,54.6c28.7,35.4,54.6,86.7,76.4,150.3C453.7,363,480.7,538.8,480.7,733z"/>
<g>
	
		<radialGradient id="SVGID_00000158022148376412204070000017524328810568955024_" cx="-692.4078" cy="1276.1653" r="0.9992" gradientTransform="matrix(-59.1945 59.1945 59.1945 59.1945 -116407.2891 -33641.8867)" gradientUnits="userSpaceOnUse">
		<stop  offset="0.1069" style="stop-color:#6A6A6A"/>
		<stop  offset="0.539" style="stop-color:#6A6A6A;stop-opacity:0"/>
	</radialGradient>
	
		<circle style="fill:url(#SVGID_00000158022148376412204070000017524328810568955024_);fill-opacity:0.28;" cx="121.3" cy="913.3" r="53.3"/>
</g>
<radialGradient id="SVGID_00000065044553827065554840000015796327563427946928_" cx="-689.8475" cy="1289.2866" r="1.0009" gradientTransform="matrix(2.426295e-15 39.6244 39.6244 -2.426295e-15 -50965.3281 28248.6758)" gradientUnits="userSpaceOnUse">
	<stop  offset="0.1998" style="stop-color:#FFFFFF"/>
	<stop  offset="0.2462" style="stop-color:#6A6A6A;stop-opacity:0.2637"/>
	<stop  offset="0.4059" style="stop-color:#6A6A6A;stop-opacity:0"/>
</radialGradient>
<path style="fill:url(#SVGID_00000065044553827065554840000015796327563427946928_);" d="M177.9,913.9c0,30.9-25.1,56-56,56
	c-30.9,0-56-25.1-56-56c0-30.9,25.1-56,56-56C152.8,857.9,177.9,883,177.9,913.9z"/>
<g>
	
		<radialGradient id="SVGID_00000012434223506359938440000018378002225421838229_" cx="-705.569" cy="1345.3843" r="1" gradientTransform="matrix(5.715684e-16 9.3344 9.3344 -5.715684e-16 -12436.4971 7500.165)" gradientUnits="userSpaceOnUse">
		<stop  offset="0.5972" style="stop-color:#757575;stop-opacity:0"/>
		<stop  offset="1" style="stop-color:#9A9A9A"/>
	</radialGradient>
	
		<ellipse transform="matrix(0.9951 -9.853768e-02 9.853768e-02 0.9951 -89.4588 16.4578)" style="fill:none;stroke:url(#SVGID_00000012434223506359938440000018378002225421838229_);stroke-width:6;" cx="121.9" cy="913.9" rx="6.5" ry="6.5"/>
</g>
<g>
	
		<radialGradient id="SVGID_00000129893634982181847290000018271264795403450283_" cx="-692.4078" cy="1276.1653" r="0.9992" gradientTransform="matrix(-59.1945 59.1945 59.1945 59.1945 -116121.2891 -34080.8867)" gradientUnits="userSpaceOnUse">
		<stop  offset="0.1069" style="stop-color:#6A6A6A"/>
		<stop  offset="0.539" style="stop-color:#6A6A6A;stop-opacity:0"/>
	</radialGradient>
	
		<circle style="fill:url(#SVGID_00000129893634982181847290000018271264795403450283_);fill-opacity:0.28;" cx="407.3" cy="474.3" r="53.3"/>
</g>
<radialGradient id="SVGID_00000130632372215922291630000013539491550430251187_" cx="-689.8475" cy="1289.2866" r="1.0009" gradientTransform="matrix(2.426295e-15 39.6244 39.6244 -2.426295e-15 -50679.3281 27809.6758)" gradientUnits="userSpaceOnUse">
	<stop  offset="0.1998" style="stop-color:#FFFFFF"/>
	<stop  offset="0.2462" style="stop-color:#6A6A6A;stop-opacity:0.2637"/>
	<stop  offset="0.4059" style="stop-color:#6A6A6A;stop-opacity:0"/>
</radialGradient>
<path style="fill:url(#SVGID_00000130632372215922291630000013539491550430251187_);" d="M463.9,474.9c0,30.9-25.1,56-56,56
	s-56-25.1-56-56s25.1-56,56-56S463.9,444,463.9,474.9z"/>
<g>
	
		<radialGradient id="SVGID_00000142875065907085964870000008941399915005112452_" cx="-705.569" cy="1345.3843" r="1" gradientTransform="matrix(5.715684e-16 9.3344 9.3344 -5.715684e-16 -12150.4971 7061.165)" gradientUnits="userSpaceOnUse">
		<stop  offset="0.5972" style="stop-color:#757575;stop-opacity:0"/>
		<stop  offset="1" style="stop-color:#9A9A9A"/>
	</radialGradient>
	
		<circle style="fill:none;stroke:url(#SVGID_00000142875065907085964870000008941399915005112452_);stroke-width:6;" cx="407.9" cy="474.9" r="6.5"/>
</g>
</svg>
