<?xml version="1.0" encoding="utf-8"?>
<!-- Generator: Adobe Illustrator 27.0.0, SVG Export Plug-In . SVG Version: 6.00 Build 0)  -->
<svg version="1.1" id="Layer_1" xmlns="http://www.w3.org/2000/svg" xmlns:xlink="http://www.w3.org/1999/xlink" x="0px" y="0px"
	 viewBox="0 0 583 1459" style="enable-background:new 0 0 583 1459;" xml:space="preserve">
<style type="text/css">
	.st0{fill:none;stroke:url(#SVGID_1_);stroke-width:4;}
	.st1{fill:url(#SVGID_00000109721471885708593390000000209634969705788338_);fill-opacity:0.11;}
	.st2{fill:url(#SVGID_00000138550613487046728590000015644868672576371379_);}
	.st3{fill:url(#SVGID_00000057114490665570271030000003263405959236626075_);fill-opacity:0.11;}
	.st4{fill:url(#SVGID_00000149371866470994155060000017175618193377498242_);}
</style>
<linearGradient id="SVGID_1_" gradientUnits="userSpaceOnUse" x1="36.5518" y1="742.0975" x2="483.2112" y2="747.5535" gradientTransform="matrix(1 0 0 -1 0 1460)">
	<stop  offset="0" style="stop-color:#2AFF50"/>
	<stop  offset="0.1701" style="stop-color:#0032E6"/>
	<stop  offset="0.6285" style="stop-color:#F91690"/>
	<stop  offset="0.8108" style="stop-color:#446AEF"/>
	<stop  offset="0.9878" style="stop-color:#446AEF;stop-opacity:0.1"/>
</linearGradient>
<path class="st0" d="M501.1,715.2c0,194.6-27.1,370.6-70.8,498c-21.9,63.7-47.8,115.1-76.6,150.5c-28.8,35.4-60.1,54.7-92.7,54.7
	s-63.9-19.2-92.7-54.7c-28.8-35.4-54.7-86.8-76.6-150.5C48.1,1085.8,21,909.7,21,715.2s27.1-370.6,70.8-498
	c21.9-63.7,47.8-115.1,76.6-150.5C197.2,31.2,228.5,12,261.1,12s63.9,19.2,92.7,54.7c28.8,35.4,54.7,86.8,76.6,150.5
	C474.1,344.5,501.1,520.6,501.1,715.2z"/>
<g>
	
		<radialGradient id="SVGID_00000136401403729413479470000014109470162916915129_" cx="-673.4583" cy="1273.0419" r="0.9992" gradientTransform="matrix(-78.5963 78.5963 78.5963 78.5963 -152740.2188 -45990.0664)" gradientUnits="userSpaceOnUse">
		<stop  offset="0.3586" style="stop-color:#12FF3C"/>
		<stop  offset="0.4518" style="stop-color:#12FF3C;stop-opacity:0"/>
	</radialGradient>
	
		<circle style="fill:url(#SVGID_00000136401403729413479470000014109470162916915129_);fill-opacity:0.11;" cx="247.6" cy="1135" r="70.7"/>
</g>
<radialGradient id="SVGID_00000122703158038760838480000014480541553945483651_" cx="-678.7053" cy="1275.9623" r="1.0009" gradientTransform="matrix(-40.0809 40.0809 40.0809 40.0809 -78097.6484 -22803.3711)" gradientUnits="userSpaceOnUse">
	<stop  offset="0.1415" style="stop-color:#FFFFFF"/>
	<stop  offset="0.2255" style="stop-color:#12FF3C;stop-opacity:0.14"/>
	<stop  offset="0.481" style="stop-color:#040C06;stop-opacity:0"/>
</radialGradient>
<path style="fill:url(#SVGID_00000122703158038760838480000014480541553945483651_);" d="M303.9,1191.9c-31.3,31.3-82,31.3-113.2,0
	c-31.3-31.3-31.3-82,0-113.2c31.3-31.3,82-31.3,113.2,0C335.1,1109.9,335.1,1160.6,303.9,1191.9z"/>
<g>
	
		<radialGradient id="SVGID_00000015322694118507623900000014302190127185464225_" cx="-671.988" cy="1272.2228" r="0.9992" gradientTransform="matrix(-107.5714 107.5714 107.5714 107.5714 -208712.1562 -64229.4492)" gradientUnits="userSpaceOnUse">
		<stop  offset="0.3586" style="stop-color:#12FF3C"/>
		<stop  offset="0.4518" style="stop-color:#12FF3C;stop-opacity:0"/>
	</radialGradient>
	
		<circle style="fill:url(#SVGID_00000015322694118507623900000014302190127185464225_);fill-opacity:0.11;" cx="429.4" cy="338.7" r="96.8"/>
</g>
<radialGradient id="SVGID_00000086652946195710725020000012849678352753146038_" cx="-675.8223" cy="1274.3562" r="1.0009" gradientTransform="matrix(-54.8568 54.8568 54.8568 54.8568 -106551.6484 -32494.6797)" gradientUnits="userSpaceOnUse">
	<stop  offset="0.1845" style="stop-color:#FFFFFF"/>
	<stop  offset="0.2255" style="stop-color:#12FF3C;stop-opacity:0.14"/>
	<stop  offset="0.481" style="stop-color:#040C06;stop-opacity:0"/>
</radialGradient>
<path style="fill:url(#SVGID_00000086652946195710725020000012849678352753146038_);" d="M506.5,416.5c-42.8,42.8-112.2,42.8-155,0
	s-42.8-112.2,0-155s112.2-42.8,155,0S549.3,373.7,506.5,416.5z"/>
</svg>
