<?xml version="1.0" encoding="utf-8"?>
<!-- Generator: Adobe Illustrator 27.0.0, SVG Export Plug-In . SVG Version: 6.00 Build 0)  -->
<svg version="1.1" id="Layer_1" xmlns="http://www.w3.org/2000/svg" xmlns:xlink="http://www.w3.org/1999/xlink" x="0px" y="0px"
	 viewBox="0 0 522 1228" style="enable-background:new 0 0 522 1228;" xml:space="preserve">
<style type="text/css">
	.st0{fill:none;stroke:url(#SVGID_1_);stroke-width:4;}
	.st1{fill:url(#SVGID_00000020376510649958943100000012556680657631509909_);fill-opacity:0.21;}
	.st2{fill:url(#SVGID_00000132773958039743154830000000433478116820594578_);}
	.st3{fill:none;stroke:url(#SVGID_00000158739456148790611180000011157635454751257747_);stroke-width:6;}
	.st4{fill:url(#SVGID_00000079462613410857865300000009889790711784547995_);fill-opacity:0.21;}
	.st5{fill:url(#SVGID_00000126283771108757368150000015513487589936429452_);}
	.st6{fill:none;stroke:url(#SVGID_00000087401298798400806120000013903018852986652854_);stroke-width:6;}
	.st7{fill:url(#SVGID_00000124125680719162770380000003409118192489088642_);fill-opacity:0.21;}
	.st8{fill:url(#SVGID_00000026150097150395404480000005357989693221987718_);}
	.st9{fill:none;stroke:url(#SVGID_00000022554160652590034480000012211859014018235274_);stroke-width:6;}
	.st10{fill:url(#SVGID_00000123419744330179384700000009574336994975740302_);fill-opacity:0.11;}
	.st11{fill:url(#SVGID_00000176032247935535681400000002933384917538982532_);}
</style>
<linearGradient id="SVGID_1_" gradientUnits="userSpaceOnUse" x1="74.953" y1="610.8693" x2="419.521" y2="618.8033" gradientTransform="matrix(1 0 0 -1 0 1228)">
	<stop  offset="0" style="stop-color:#2AFF50"/>
	<stop  offset="0.2691" style="stop-color:#0032E6"/>
	<stop  offset="0.6962" style="stop-color:#446AEF"/>
	<stop  offset="0.9878" style="stop-color:#446AEF;stop-opacity:0.1"/>
</linearGradient>
<path class="st0" d="M435.6,613.6c0,169.3-23.5,322.5-61.3,433.2c-18.9,55.4-41.5,100.1-66.3,130.9c-24.9,30.8-52,47.5-80.1,47.5
	c-28.1,0-55.2-16.7-80.1-47.5c-24.9-30.8-47.4-75.5-66.3-130.9c-37.9-110.8-61.3-264-61.3-433.2c0-169.3,23.5-322.5,61.3-433.2
	c18.9-55.4,41.5-100.1,66.3-130.9C172.7,18.7,199.7,2,227.9,2C256,2,283,18.7,308,49.5c24.9,30.8,47.4,75.5,66.3,130.9
	C412.2,291.2,435.6,444.3,435.6,613.6z"/>
<g>
	
		<radialGradient id="SVGID_00000137116410778582392430000011992483603526006965_" cx="-708.2325" cy="1162.2719" r="0.9992" gradientTransform="matrix(-37.7231 37.7231 37.7231 37.7231 -70417.5391 -16695.7656)" gradientUnits="userSpaceOnUse">
		<stop  offset="0.2407" style="stop-color:#446AEF"/>
		<stop  offset="0.5035" style="stop-color:#446AEF;stop-opacity:0"/>
	</radialGradient>
	
		<circle style="fill:url(#SVGID_00000137116410778582392430000011992483603526006965_);fill-opacity:0.21;" cx="143.7" cy="432" r="33.9"/>
</g>
<radialGradient id="SVGID_00000023273976599139703990000017588274287749691809_" cx="-730.4525" cy="1180.2289" r="1.0009" gradientTransform="matrix(-11.895 11.895 11.895 11.895 -22584.2988 -4918.2515)" gradientUnits="userSpaceOnUse">
	<stop  offset="0.3256" style="stop-color:#FFFFFF"/>
	<stop  offset="0.4439" style="stop-color:#2C53DC;stop-opacity:0.2637"/>
	<stop  offset="1" style="stop-color:#152661;stop-opacity:0"/>
</radialGradient>
<path style="fill:url(#SVGID_00000023273976599139703990000017588274287749691809_);" d="M160.1,448.7c-9.3,9.3-24.3,9.3-33.6,0
	s-9.3-24.3,0-33.6c9.3-9.3,24.3-9.3,33.6,0C169.4,424.3,169.4,439.4,160.1,448.7z"/>
<g>
	
		<radialGradient id="SVGID_00000121273344092399830690000007743117154200605625_" cx="-707.259" cy="1241.3352" r="1" gradientTransform="matrix(4.893811e-16 7.9922 7.9922 -4.893811e-16 -9777.4707 6084.5786)" gradientUnits="userSpaceOnUse">
		<stop  offset="0.5972" style="stop-color:#446AEF;stop-opacity:0"/>
		<stop  offset="1" style="stop-color:#446AEF"/>
	</radialGradient>
	
		<circle style="fill:none;stroke:url(#SVGID_00000121273344092399830690000007743117154200605625_);stroke-width:6;" cx="143.5" cy="431.9" r="4"/>
</g>
<g>
	
		<radialGradient id="SVGID_00000002355885897808258560000004484322987803581627_" cx="-704.2172" cy="1159.0264" r="0.9992" gradientTransform="matrix(-62.086 62.086 62.086 62.086 -115265.2578 -27631.2617)" gradientUnits="userSpaceOnUse">
		<stop  offset="0.2407" style="stop-color:#446AEF"/>
		<stop  offset="0.5035" style="stop-color:#446AEF;stop-opacity:0"/>
	</radialGradient>
	
		<circle style="fill:url(#SVGID_00000002355885897808258560000004484322987803581627_);fill-opacity:0.21;" cx="416" cy="606" r="55.9"/>
</g>
<radialGradient id="SVGID_00000119802687875317950380000006657428975654465408_" cx="-717.7188" cy="1169.9363" r="1.0009" gradientTransform="matrix(-19.5772 19.5772 19.5772 19.5772 -36539.6641 -8247.4219)" gradientUnits="userSpaceOnUse">
	<stop  offset="0.3256" style="stop-color:#FFFFFF"/>
	<stop  offset="0.4439" style="stop-color:#2C53DC;stop-opacity:0.2637"/>
	<stop  offset="1" style="stop-color:#152661;stop-opacity:0"/>
</radialGradient>
<path style="fill:url(#SVGID_00000119802687875317950380000006657428975654465408_);" d="M443.1,633.4c-15.3,15.3-40,15.3-55.3,0
	c-15.3-15.3-15.3-40,0-55.3c15.3-15.3,40-15.3,55.3,0S458.3,618.1,443.1,633.4z"/>
<g>
	
		<radialGradient id="SVGID_00000101092442758422443720000015745561661787636150_" cx="-703.6257" cy="1207.0645" r="1" gradientTransform="matrix(8.054380e-16 13.1538 13.1538 -8.054380e-16 -15461.6914 9861.3906)" gradientUnits="userSpaceOnUse">
		<stop  offset="0.5972" style="stop-color:#446AEF;stop-opacity:0"/>
		<stop  offset="1" style="stop-color:#446AEF"/>
	</radialGradient>
	
		<circle style="fill:none;stroke:url(#SVGID_00000101092442758422443720000015745561661787636150_);stroke-width:6;" cx="415.8" cy="605.8" r="8.4"/>
</g>
<g>
	
		<radialGradient id="SVGID_00000180336893621454072900000009712711775306970812_" cx="-703.6781" cy="1158.5906" r="0.9992" gradientTransform="matrix(-67.9802 67.9802 67.9802 67.9802 -126474.8672 -30209.5352)" gradientUnits="userSpaceOnUse">
		<stop  offset="0.2407" style="stop-color:#446AEF"/>
		<stop  offset="0.5035" style="stop-color:#446AEF;stop-opacity:0"/>
	</radialGradient>
	
		<circle style="fill:url(#SVGID_00000180336893621454072900000009712711775306970812_);fill-opacity:0.21;" cx="122.5" cy="715.5" r="61.2"/>
</g>
<radialGradient id="SVGID_00000027593124790851745290000001512611528567638697_" cx="-716.0092" cy="1168.5544" r="1.0009" gradientTransform="matrix(-21.4358 21.4358 21.4358 21.4358 -40275.2773 -8985.4443)" gradientUnits="userSpaceOnUse">
	<stop  offset="0.3256" style="stop-color:#FFFFFF"/>
	<stop  offset="0.4439" style="stop-color:#2C53DC;stop-opacity:0.2637"/>
	<stop  offset="1" style="stop-color:#152661;stop-opacity:0"/>
</radialGradient>
<path style="fill:url(#SVGID_00000027593124790851745290000001512611528567638697_);" d="M152.1,745.5c-16.7,16.7-43.8,16.7-60.6,0
	c-16.7-16.7-16.7-43.8,0-60.6c16.7-16.7,43.8-16.7,60.6,0C168.9,701.7,168.9,728.8,152.1,745.5z"/>
<g>
	
		<radialGradient id="SVGID_00000001656171933128084060000004861915094961658541_" cx="-703.1379" cy="1202.4635" r="1" gradientTransform="matrix(8.819050e-16 14.4026 14.4026 -8.819050e-16 -17196.3242 10842.5557)" gradientUnits="userSpaceOnUse">
		<stop  offset="0.5972" style="stop-color:#446AEF;stop-opacity:0"/>
		<stop  offset="1" style="stop-color:#446AEF"/>
	</radialGradient>
	
		<circle style="fill:none;stroke:url(#SVGID_00000001656171933128084060000004861915094961658541_);stroke-width:6;" cx="122.3" cy="715.3" r="9.5"/>
</g>
<g>
	
		<radialGradient id="SVGID_00000163046905377516340350000005256116851326410639_" cx="-703.7936" cy="1158.684" r="0.9992" gradientTransform="matrix(-66.6248 66.6248 66.6248 66.6248 -123755.9453 -29446.9316)" gradientUnits="userSpaceOnUse">
		<stop  offset="0.3586" style="stop-color:#12FF3C"/>
		<stop  offset="0.4518" style="stop-color:#12FF3C;stop-opacity:0"/>
	</radialGradient>
	
		<circle style="fill:url(#SVGID_00000163046905377516340350000005256116851326410639_);fill-opacity:0.11;" cx="331.3" cy="860" r="59.9"/>
</g>
<radialGradient id="SVGID_00000080191812083144949050000006431531367443027612_" cx="-709.363" cy="1163.1824" r="1.0009" gradientTransform="matrix(-33.9758 33.9758 33.9758 33.9758 -63290.3047 -14558.6445)" gradientUnits="userSpaceOnUse">
	<stop  offset="0.1415" style="stop-color:#FFFFFF"/>
	<stop  offset="0.2255" style="stop-color:#12FF3C;stop-opacity:0.14"/>
	<stop  offset="0.481" style="stop-color:#040C06;stop-opacity:0"/>
</radialGradient>
<path style="fill:url(#SVGID_00000080191812083144949050000006431531367443027612_);" d="M379,908.2c-26.5,26.5-69.5,26.5-96,0
	s-26.5-69.5,0-96s69.5-26.5,96,0S405.5,881.7,379,908.2z"/>
</svg>
