<?xml version="1.0" encoding="utf-8"?>
<!-- Generator: Adobe Illustrator 27.0.0, SVG Export Plug-In . SVG Version: 6.00 Build 0)  -->
<svg version="1.1" id="Layer_1" xmlns="http://www.w3.org/2000/svg" xmlns:xlink="http://www.w3.org/1999/xlink" x="0px" y="0px"
	 viewBox="0 0 727 1767" style="enable-background:new 0 0 727 1767;" xml:space="preserve">
<style type="text/css">
	.st0{fill:none;stroke:url(#SVGID_1_);stroke-width:4;}
	.st1{fill:url(#SVGID_00000052793445408067823620000014058303497657293955_);fill-opacity:0.28;}
	.st2{fill:url(#SVGID_00000080171515365672686170000014439897630815161744_);}
	.st3{fill:none;stroke:url(#SVGID_00000084512433559122281130000010775452129125123260_);stroke-width:6;}
	.st4{fill:url(#SVGID_00000055697164546408496110000017061427762500012688_);fill-opacity:0.28;}
	.st5{fill:url(#SVGID_00000031905225036911060870000006179758897860356002_);}
</style>
<linearGradient id="SVGID_1_" gradientUnits="userSpaceOnUse" x1="111.6157" y1="879.3885" x2="647.5477" y2="885.9035" gradientTransform="matrix(1 0 0 -1 0 1768)">
	<stop  offset="1.388870e-02" style="stop-color:#999999"/>
	<stop  offset="0.1701" style="stop-color:#4B4B4B"/>
	<stop  offset="0.6285" style="stop-color:#2B2B2B"/>
	<stop  offset="0.8108" style="stop-color:#393838"/>
	<stop  offset="0.9878" style="stop-color:#2D2D2D;stop-opacity:0.1"/>
</linearGradient>
<path class="st0" d="M669.4,885.3c0,234.7-32.5,447-85,600.6c-26.2,76.8-57.4,138.8-92,181.6c-34.6,42.8-72.3,66.1-111.5,66.1
	c-39.2,0-76.9-23.3-111.5-66.1c-34.5-42.8-65.7-104.8-92-181.6c-52.5-153.6-85-366-85-600.6c0-234.7,32.5-447,85-600.6
	c26.2-76.8,57.4-138.8,92-181.6C304.1,60.3,341.8,37,381,37c39.2,0,76.9,23.3,111.5,66.1c34.5,42.8,65.7,104.8,92,181.6
	C637,438.3,669.4,650.7,669.4,885.3z"/>
<g>
	
		<radialGradient id="SVGID_00000034090423661181623200000016081977795539011206_" cx="-602.5848" cy="1425.7664" r="0.9992" gradientTransform="matrix(-71.3761 71.3761 71.3761 71.3761 -144523.9062 -57374.6367)" gradientUnits="userSpaceOnUse">
		<stop  offset="0.1069" style="stop-color:#6A6A6A"/>
		<stop  offset="0.539" style="stop-color:#6A6A6A;stop-opacity:0"/>
	</radialGradient>
	
		<circle style="fill:url(#SVGID_00000034090423661181623200000016081977795539011206_);fill-opacity:0.28;" cx="251.8" cy="1380.8" r="64.2"/>
</g>
<radialGradient id="SVGID_00000092442620882735675200000007218762825009583005_" cx="-603.2018" cy="1436.4736" r="1.0009" gradientTransform="matrix(2.925595e-15 47.7786 47.7786 -2.925595e-15 -68380.1953 30201.6348)" gradientUnits="userSpaceOnUse">
	<stop  offset="0.1998" style="stop-color:#FFFFFF"/>
	<stop  offset="0.2462" style="stop-color:#6A6A6A;stop-opacity:0.2637"/>
	<stop  offset="0.4059" style="stop-color:#6A6A6A;stop-opacity:0"/>
</radialGradient>
<path style="fill:url(#SVGID_00000092442620882735675200000007218762825009583005_);" d="M320,1381.5c0,37.3-30.2,67.5-67.5,67.5
	s-67.5-30.2-67.5-67.5s30.2-67.5,67.5-67.5S320,1344.2,320,1381.5z"/>
<g>
	
		<radialGradient id="SVGID_00000074428283406722210940000004680639081271437455_" cx="-626.5634" cy="1476.9529" r="1" gradientTransform="matrix(6.891884e-16 11.2553 11.2553 -6.891884e-16 -16371.0469 8433.8984)" gradientUnits="userSpaceOnUse">
		<stop  offset="0.5972" style="stop-color:#757575;stop-opacity:0"/>
		<stop  offset="1" style="stop-color:#9A9A9A"/>
	</radialGradient>
	
		<circle style="fill:none;stroke:url(#SVGID_00000074428283406722210940000004680639081271437455_);stroke-width:6;" cx="252.5" cy="1381.5" r="8.5"/>
</g>
<g>
	
		<radialGradient id="SVGID_00000132782942664350706180000017406309841687759749_" cx="-601.3878" cy="1425.4454" r="0.9992" gradientTransform="matrix(-87.2343 87.2343 87.2343 87.2343 -176229.4688 -71433.1328)" gradientUnits="userSpaceOnUse">
		<stop  offset="0.1069" style="stop-color:#6A6A6A"/>
		<stop  offset="0.539" style="stop-color:#6A6A6A;stop-opacity:0"/>
	</radialGradient>
	
		<circle style="fill:url(#SVGID_00000132782942664350706180000017406309841687759749_);fill-opacity:0.28;" cx="580" cy="453" r="78.5"/>
</g>
<radialGradient id="SVGID_00000011017076397338863100000002182611865998824086_" cx="-601.8929" cy="1434.2058" r="1.0009" gradientTransform="matrix(3.575620e-15 58.3943 58.3943 -3.575620e-15 -83168.6172 35600.9453)" gradientUnits="userSpaceOnUse">
	<stop  offset="0.1437" style="stop-color:#FFFFFF"/>
	<stop  offset="0.1808" style="stop-color:#6A6A6A;stop-opacity:0.2637"/>
	<stop  offset="0.4059" style="stop-color:#6A6A6A;stop-opacity:0"/>
</radialGradient>
<path style="fill:url(#SVGID_00000011017076397338863100000002182611865998824086_);" d="M663.3,453.8c0,45.6-36.9,82.5-82.5,82.5
	c-45.6,0-82.5-36.9-82.5-82.5s36.9-82.5,82.5-82.5C626.4,371.3,663.3,408.3,663.3,453.8z"/>
</svg>
