<?xml version="1.0" encoding="utf-8"?>
<!-- Generator: Adobe Illustrator 27.0.0, SVG Export Plug-In . SVG Version: 6.00 Build 0)  -->
<svg version="1.1" id="Layer_1" xmlns="http://www.w3.org/2000/svg" xmlns:xlink="http://www.w3.org/1999/xlink" x="0px" y="0px"
	 viewBox="0 0 704 1801" style="enable-background:new 0 0 704 1801;" xml:space="preserve">
<style type="text/css">
	.st0{fill:none;stroke:url(#SVGID_1_);stroke-width:4;}
	.st1{fill:url(#SVGID_00000134232914468110046980000007865391951171799951_);}
	.st2{fill:url(#SVGID_00000023245038878324912760000007923826272069159865_);}
</style>
<linearGradient id="SVGID_1_" gradientUnits="userSpaceOnUse" x1="21.3297" y1="873.0158" x2="564.127" y2="879.6459" gradientTransform="matrix(1 0 0 -1 0 1802)">
	<stop  offset="0" style="stop-color:#2AFF50"/>
	<stop  offset="0.1701" style="stop-color:#0032E6"/>
	<stop  offset="0.6285" style="stop-color:#F91690"/>
	<stop  offset="0.8108" style="stop-color:#446AEF"/>
	<stop  offset="0.9878" style="stop-color:#446AEF;stop-opacity:0.1"/>
</linearGradient>
<path class="st0" d="M586.3,925.7c0,236.5-32.9,450.5-86.1,605.3c-26.6,77.4-58.2,139.9-93.2,183.1c-35,43.1-73.2,66.6-113,66.6
	s-77.9-23.5-112.9-66.6c-35-43.1-66.6-105.6-93.2-183.1C34.9,1376.2,2,1162.1,2,925.7s32.9-450.5,86.1-605.3
	c26.6-77.4,58.2-139.9,93.2-183c35-43.1,73.2-66.6,112.9-66.6s77.9,23.5,113,66.6c35,43.1,66.6,105.6,93.2,183
	C553.4,475.1,586.3,689.2,586.3,925.7z"/>
<radialGradient id="SVGID_00000145018907260984192270000007997333872561907600_" cx="-613.624" cy="1437.061" r="1.0009" gradientTransform="matrix(-91.6641 0 0 91.6641 -55815.7891 -131238.4062)" gradientUnits="userSpaceOnUse">
	<stop  offset="8.541090e-02" style="stop-color:#FFFFFF"/>
	<stop  offset="0.1378" style="stop-color:#2C53DC;stop-opacity:0.2637"/>
	<stop  offset="0.6642" style="stop-color:#152661;stop-opacity:0"/>
</radialGradient>
<path style="fill:url(#SVGID_00000145018907260984192270000007997333872561907600_);" d="M431.5,618C360,618,302,560,302,488.5
	S360,359,431.5,359S561,417,561,488.5S503,618,431.5,618z"/>
<radialGradient id="SVGID_00000078746459585713150880000016150604942176887467_" cx="-617.272" cy="1434.8915" r="1.0009" gradientTransform="matrix(-59.1039 0 0 59.1039 -36249.6836 -83663.1797)" gradientUnits="userSpaceOnUse">
	<stop  offset="8.541090e-02" style="stop-color:#FFFFFF"/>
	<stop  offset="0.1378" style="stop-color:#2C53DC;stop-opacity:0.2637"/>
	<stop  offset="0.6642" style="stop-color:#152661;stop-opacity:0"/>
</radialGradient>
<path style="fill:url(#SVGID_00000078746459585713150880000016150604942176887467_);" d="M233.5,1228c-46.1,0-83.5-37.4-83.5-83.5
	s37.4-83.5,83.5-83.5s83.5,37.4,83.5,83.5S279.6,1228,233.5,1228z"/>
</svg>
