<?xml version="1.0" encoding="utf-8"?>
<!-- Generator: Adobe Illustrator 27.0.0, SVG Export Plug-In . SVG Version: 6.00 Build 0)  -->
<svg version="1.1" id="Layer_1" xmlns="http://www.w3.org/2000/svg" xmlns:xlink="http://www.w3.org/1999/xlink" x="0px" y="0px"
	 viewBox="0 0 486 1259" style="enable-background:new 0 0 486 1259;" xml:space="preserve">
<style type="text/css">
	.st0{fill:none;stroke:url(#SVGID_1_);stroke-width:4;}
	.st1{fill:url(#SVGID_00000047772497164624600180000003887763416502946231_);fill-opacity:0.28;}
	.st2{fill:url(#SVGID_00000068650813094762364210000017506471137542024361_);}
	.st3{fill:none;stroke:url(#SVGID_00000072249577273621021420000018359292694241032124_);stroke-width:6;}
	.st4{fill:url(#SVGID_00000163779487580401430040000013001021179158850461_);fill-opacity:0.28;}
	.st5{fill:url(#SVGID_00000173880755318244224000000008975982633599266986_);}
	.st6{fill:none;stroke:url(#SVGID_00000092436268607438209950000007007019129340474277_);stroke-width:6;}
</style>
<linearGradient id="SVGID_1_" gradientUnits="userSpaceOnUse" x1="49.1122" y1="626.9089" x2="433.688" y2="631.6179" gradientTransform="matrix(1 0 0 -1 0 1260)">
	<stop  offset="1.388870e-02" style="stop-color:#999999"/>
	<stop  offset="0.1701" style="stop-color:#4B4B4B"/>
	<stop  offset="0.6285" style="stop-color:#2B2B2B"/>
	<stop  offset="0.8108" style="stop-color:#393838"/>
	<stop  offset="0.9878" style="stop-color:#2D2D2D;stop-opacity:0.1"/>
</linearGradient>
<path class="st0" d="M448.8,630.7c0,167.1-23.3,318.3-60.9,427.7c-18.8,54.7-41.2,98.8-65.9,129.2c-24.7,30.4-51.6,46.9-79.6,46.9
	c-27.9,0-54.8-16.5-79.6-46.9c-24.7-30.4-47.1-74.5-65.9-129.2C59.3,949.1,36,797.8,36,630.7S59.3,312.4,96.9,203
	c18.8-54.7,41.2-98.8,65.9-129.2c24.7-30.4,51.6-46.9,79.6-46.9c27.9,0,54.8,16.4,79.6,46.9c24.7,30.4,47.1,74.5,65.9,129.2
	C425.5,312.4,448.8,463.6,448.8,630.7z"/>
<g>
	
		<radialGradient id="SVGID_00000044162680820433347110000001840126399118749093_" cx="-722.808" cy="1175.2887" r="0.9992" gradientTransform="matrix(-59.1945 59.1945 59.1945 59.1945 -112247.4844 -26090.0234)" gradientUnits="userSpaceOnUse">
		<stop  offset="0.1069" style="stop-color:#6A6A6A"/>
		<stop  offset="0.539" style="stop-color:#6A6A6A;stop-opacity:0"/>
	</radialGradient>
	
		<circle style="fill:url(#SVGID_00000044162680820433347110000001840126399118749093_);fill-opacity:0.28;" cx="109.3" cy="694.3" r="53.3"/>
</g>
<radialGradient id="SVGID_00000032625417423451528870000005621355530796209595_" cx="-718.2733" cy="1188.069" r="1.0009" gradientTransform="matrix(2.426295e-15 39.6244 39.6244 -2.426295e-15 -46966.6406 29156.0332)" gradientUnits="userSpaceOnUse">
	<stop  offset="0.1998" style="stop-color:#FFFFFF"/>
	<stop  offset="0.2462" style="stop-color:#6A6A6A;stop-opacity:0.2637"/>
	<stop  offset="0.4059" style="stop-color:#6A6A6A;stop-opacity:0"/>
</radialGradient>
<path style="fill:url(#SVGID_00000032625417423451528870000005621355530796209595_);" d="M165.9,694.9c0,30.9-25.1,56-56,56
	c-30.9,0-56-25.1-56-56c0-30.9,25.1-56,56-56C140.8,638.9,165.9,664,165.9,694.9z"/>
<g>
	
		<radialGradient id="SVGID_00000172399601303264103640000003706431734135268499_" cx="-725.6417" cy="1246.7053" r="1" gradientTransform="matrix(5.715684e-16 9.3344 9.3344 -5.715684e-16 -11527.3867 7468.5317)" gradientUnits="userSpaceOnUse">
		<stop  offset="0.5972" style="stop-color:#757575;stop-opacity:0"/>
		<stop  offset="1" style="stop-color:#9A9A9A"/>
	</radialGradient>
	
		<circle style="fill:none;stroke:url(#SVGID_00000172399601303264103640000003706431734135268499_);stroke-width:6;" cx="109.9" cy="694.9" r="6.5"/>
</g>
<g>
	
		<radialGradient id="SVGID_00000032625396463784847180000002470171148583891329_" cx="-722.808" cy="1175.2887" r="0.9992" gradientTransform="matrix(-59.1945 59.1945 59.1945 59.1945 -111994.4844 -26436.0234)" gradientUnits="userSpaceOnUse">
		<stop  offset="0.1069" style="stop-color:#6A6A6A"/>
		<stop  offset="0.539" style="stop-color:#6A6A6A;stop-opacity:0"/>
	</radialGradient>
	
		<circle style="fill:url(#SVGID_00000032625396463784847180000002470171148583891329_);fill-opacity:0.28;" cx="362.3" cy="348.3" r="53.3"/>
</g>
<radialGradient id="SVGID_00000029021477302208449260000007315865973786274195_" cx="-718.2733" cy="1188.069" r="1.0009" gradientTransform="matrix(2.426295e-15 39.6244 39.6244 -2.426295e-15 -46713.6406 28810.0332)" gradientUnits="userSpaceOnUse">
	<stop  offset="0.1998" style="stop-color:#FFFFFF"/>
	<stop  offset="0.2462" style="stop-color:#6A6A6A;stop-opacity:0.2637"/>
	<stop  offset="0.4059" style="stop-color:#6A6A6A;stop-opacity:0"/>
</radialGradient>
<path style="fill:url(#SVGID_00000029021477302208449260000007315865973786274195_);" d="M418.9,348.9c0,30.9-25.1,56-56,56
	s-56-25.1-56-56s25.1-56,56-56S418.9,318,418.9,348.9z"/>
<g>
	
		<radialGradient id="SVGID_00000162333052984409662630000010225460671262236858_" cx="-725.6417" cy="1246.7053" r="1" gradientTransform="matrix(5.715684e-16 9.3344 9.3344 -5.715684e-16 -11274.3867 7122.5317)" gradientUnits="userSpaceOnUse">
		<stop  offset="0.5972" style="stop-color:#757575;stop-opacity:0"/>
		<stop  offset="1" style="stop-color:#9A9A9A"/>
	</radialGradient>
	
		<circle style="fill:none;stroke:url(#SVGID_00000162333052984409662630000010225460671262236858_);stroke-width:6;" cx="362.9" cy="348.9" r="6.5"/>
</g>
</svg>
