<?xml version="1.0" encoding="utf-8"?>
<!-- Generator: Adobe Illustrator 27.0.0, SVG Export Plug-In . SVG Version: 6.00 Build 0)  -->
<svg version="1.1" id="Layer_1" xmlns="http://www.w3.org/2000/svg" xmlns:xlink="http://www.w3.org/1999/xlink" x="0px" y="0px"
	 viewBox="0 0 700 1996" style="enable-background:new 0 0 700 1996;" xml:space="preserve">
<style type="text/css">
	.st0{fill:none;stroke:url(#SVGID_1_);stroke-width:4;}
	
		.st1{opacity:0.56;fill:url(#SVGID_00000117670316957804191790000007424361382466888106_);fill-opacity:0.22;enable-background:new    ;}
	
		.st2{opacity:0.56;fill:url(#SVGID_00000041284957023551081710000002511797694322238107_);fill-opacity:0.22;enable-background:new    ;}
	.st3{fill:url(#SVGID_00000058558932651151779330000005701425965078506404_);fill-opacity:0.51;}
	.st4{fill:url(#SVGID_00000137108974058952533280000004300622413796850304_);}
	.st5{fill:none;stroke:url(#SVGID_00000065796861985991539490000006343266617379987089_);stroke-width:6;}
	.st6{fill:url(#SVGID_00000026127768981454547120000005095949617889811636_);fill-opacity:0.11;}
	.st7{fill:url(#SVGID_00000165232442987624818880000012559224162538275986_);}
	.st8{fill:url(#SVGID_00000146490372605942648250000002746989207623679108_);fill-opacity:0.11;}
	.st9{fill:url(#SVGID_00000131338648954473282050000008161353490863577738_);}
</style>
<linearGradient id="SVGID_1_" gradientUnits="userSpaceOnUse" x1="73.5647" y1="940.122" x2="673.2428" y2="947.472" gradientTransform="matrix(1 0 0 -1 0 1996)">
	<stop  offset="0" style="stop-color:#2AFF50"/>
	<stop  offset="0.1701" style="stop-color:#0032E6"/>
	<stop  offset="0.6285" style="stop-color:#F91690"/>
	<stop  offset="0.8108" style="stop-color:#446AEF"/>
	<stop  offset="0.9878" style="stop-color:#446AEF;stop-opacity:0.1"/>
</linearGradient>
<path class="st0" d="M698,1052.2c0,260.5-36.4,496.2-95.1,666.7c-29.4,85.3-64.3,154.2-103,201.7c-38.7,47.5-80.9,73.4-125,73.4
	c-44,0-86.3-25.9-125-73.4c-38.7-47.5-73.6-116.4-103-201.7C88.4,1548.4,52,1312.7,52,1052.2c0-260.5,36.4-496.2,95.1-666.7
	c29.4-85.3,64.3-154.1,103-201.7c38.7-47.5,80.9-73.4,125-73.4c44,0,86.3,25.9,125,73.4c38.7,47.5,73.6,116.4,103,201.7
	C661.6,556,698,791.7,698,1052.2z"/>
<g>
	
		<radialGradient id="SVGID_00000166642331833092247750000001682955340984575113_" cx="-613.1001" cy="1543.4941" r="1" gradientTransform="matrix(-130.1183 130.1183 13.7418 13.7418 -100600.1641 59447.2656)" gradientUnits="userSpaceOnUse">
		<stop  offset="0.1441" style="stop-color:#263228;stop-opacity:0"/>
		<stop  offset="0.8125" style="stop-color:#12FF3C"/>
	</radialGradient>
	
		<path style="opacity:0.56;fill:url(#SVGID_00000166642331833092247750000001682955340984575113_);fill-opacity:0.22;enable-background:new    ;" d="
		M515.9,752.1c7.6,7.6-44.5,72-116.4,143.9s-136.3,124-143.9,116.4c-7.6-7.6,44.5-72,116.4-143.9S508.3,744.5,515.9,752.1z"/>
	
		<radialGradient id="SVGID_00000132780849704941212920000000899700339083877025_" cx="-609.5803" cy="1499.177" r="1" gradientTransform="matrix(-130.1183 -130.1183 -13.7418 13.7418 -58330.2617 -99035.9062)" gradientUnits="userSpaceOnUse">
		<stop  offset="0.1441" style="stop-color:#263228;stop-opacity:0"/>
		<stop  offset="0.8125" style="stop-color:#12FF3C"/>
	</radialGradient>
	
		<path style="opacity:0.56;fill:url(#SVGID_00000132780849704941212920000000899700339083877025_);fill-opacity:0.22;enable-background:new    ;" d="
		M515.9,1013.2c-7.6,7.6-72-44.5-143.9-116.4s-124-136.3-116.4-143.9c7.6-7.6,72,44.5,143.9,116.4S523.5,1005.6,515.9,1013.2z"/>
</g>
<g>
	
		<radialGradient id="SVGID_00000036243221900104718900000010995519917829134754_" cx="-613.1249" cy="1538.5848" r="0.9992" gradientTransform="matrix(-129.3369 129.3369 129.3369 129.3369 -277909.4688 -118814.1172)" gradientUnits="userSpaceOnUse">
		<stop  offset="8.680340e-03" style="stop-color:#42AD55"/>
		<stop  offset="0.3056" style="stop-color:#42AD55;stop-opacity:0"/>
	</radialGradient>
	
		<circle style="fill:url(#SVGID_00000036243221900104718900000010995519917829134754_);fill-opacity:0.51;" cx="386" cy="882" r="116.4"/>
</g>
<g>
	
		<radialGradient id="SVGID_00000031888130805561822510000002655027198285670065_" cx="-614.4146" cy="1538.7654" r="1.0009" gradientTransform="matrix(-98.5657 98.5657 98.5657 98.5657 -211844.2656 -90227.8125)" gradientUnits="userSpaceOnUse">
		<stop  offset="0.1704" style="stop-color:#FFFFFF"/>
		<stop  offset="0.1948" style="stop-color:#42AD55;stop-opacity:0.2637"/>
		<stop  offset="0.2691" style="stop-color:#1C0E1D;stop-opacity:0"/>
	</radialGradient>
	<path shape-rendering="crispEdges" style="fill:url(#SVGID_00000031888130805561822510000002655027198285670065_);" d="
		M524.8,1020.8c-76.9,76.9-201.6,76.9-278.5,0c-76.9-76.9-76.9-201.6,0-278.5s201.6-76.9,278.5,0S601.7,943.8,524.8,1020.8z"/>
</g>
<g>
	
		<radialGradient id="SVGID_00000117643655560574789360000012598730382869661333_" cx="-624.3319" cy="1558.3868" r="1" gradientTransform="matrix(1.829151e-15 29.8723 29.8723 -1.829151e-15 -46167.5977 19532.7832)" gradientUnits="userSpaceOnUse">
		<stop  offset="0.5972" style="stop-color:#12FF3C;stop-opacity:0"/>
		<stop  offset="1" style="stop-color:#12FF3C"/>
	</radialGradient>
	
		<circle style="fill:none;stroke:url(#SVGID_00000117643655560574789360000012598730382869661333_);stroke-width:6;" cx="385" cy="882" r="23"/>
</g>
<g>
	
		<radialGradient id="SVGID_00000116199638133273911060000004787061455219156375_" cx="-615.7878" cy="1538.9617" r="0.9992" gradientTransform="matrix(-78.5963 78.5963 78.5963 78.5963 -169162.8438 -71006.0625)" gradientUnits="userSpaceOnUse">
		<stop  offset="0.3586" style="stop-color:#12FF3C"/>
		<stop  offset="0.4518" style="stop-color:#12FF3C;stop-opacity:0"/>
	</radialGradient>
	
		<circle style="fill:url(#SVGID_00000116199638133273911060000004787061455219156375_);fill-opacity:0.11;" cx="192.6" cy="1552" r="70.7"/>
</g>
<radialGradient id="SVGID_00000034086828144916830430000014411748264597934775_" cx="-622.3126" cy="1539.8831" r="1.0009" gradientTransform="matrix(-40.0809 40.0809 40.0809 40.0809 -86470.5625 -35224.8359)" gradientUnits="userSpaceOnUse">
	<stop  offset="0.1415" style="stop-color:#FFFFFF"/>
	<stop  offset="0.2255" style="stop-color:#12FF3C;stop-opacity:0.14"/>
	<stop  offset="0.481" style="stop-color:#040C06;stop-opacity:0"/>
</radialGradient>
<path style="fill:url(#SVGID_00000034086828144916830430000014411748264597934775_);" d="M248.9,1608.9c-31.3,31.3-82,31.3-113.2,0
	c-31.3-31.3-31.3-82,0-113.2c31.3-31.3,82-31.3,113.2,0C280.1,1526.9,280.1,1577.6,248.9,1608.9z"/>
<g>
	
		<radialGradient id="SVGID_00000025408825969366799890000008158581210618082239_" cx="-615.7878" cy="1538.9617" r="0.9992" gradientTransform="matrix(-78.5963 78.5963 78.5963 78.5963 -169227.8438 -71521.0625)" gradientUnits="userSpaceOnUse">
		<stop  offset="0.3586" style="stop-color:#12FF3C"/>
		<stop  offset="0.4518" style="stop-color:#12FF3C;stop-opacity:0"/>
	</radialGradient>
	
		<circle style="fill:url(#SVGID_00000025408825969366799890000008158581210618082239_);fill-opacity:0.11;" cx="127.6" cy="1037" r="70.7"/>
</g>
<radialGradient id="SVGID_00000172437984600073741810000016766431190898752917_" cx="-622.3125" cy="1539.8831" r="1.0009" gradientTransform="matrix(-40.0809 40.0809 40.0809 40.0809 -86535.5625 -35739.8359)" gradientUnits="userSpaceOnUse">
	<stop  offset="0.1415" style="stop-color:#FFFFFF"/>
	<stop  offset="0.2255" style="stop-color:#12FF3C;stop-opacity:0.14"/>
	<stop  offset="0.481" style="stop-color:#040C06;stop-opacity:0"/>
</radialGradient>
<path style="fill:url(#SVGID_00000172437984600073741810000016766431190898752917_);" d="M183.9,1093.9c-31.3,31.3-82,31.3-113.2,0
	c-31.3-31.3-31.3-82,0-113.2c31.3-31.3,82-31.3,113.2,0C215.1,1011.9,215.1,1062.6,183.9,1093.9z"/>
</svg>
