<svg width="168" height="29" viewBox="0 0 168 29" fill="none" xmlns="http://www.w3.org/2000/svg">
<path fill-rule="evenodd" clip-rule="evenodd" d="M24.7 17.2C24.2 17.5 23.6 17.6 23.2 17.3C22.6 17 22.3 16.2 22.3 15.2V12C22.3 10.5 21.7 9.4 20.7 9.1C19 8.6 17.7 10.7 17.2 11.5L14.2 16.4V10.4C14.2 9 13.7 8.2 12.9 8C12.3 7.8 11.5 7.9 10.7 9.1L4 19.9C3.1 18.2 2.6 16.3 2.6 14.3C2.6 7.8 7.8 2.5 14.2 2.5C20.6 2.5 25.8 7.9 25.8 14.4C25.9 15.7 25.5 16.7 24.7 17.2ZM28.4 14.4C28.4 6.4 22 0 14.2 0C6.4 0 0 6.5 0 14.4C0 22.3 6.4 28.8 14.2 28.8C17.8 28.8 21.2 27.4 23.9 24.9C24.4 24.4 24.5 23.6 24 23C23.5 22.5 22.7 22.4 22.2 22.9C20.1 24.9 17.2 26.1 14.3 26.1C10.9 26.1 7.8 24.6 5.6 22.2L11.7 12.4V16.9C11.7 19.1 12.5 19.8 13.2 20C13.9 20.2 15 20.1 16.1 18.2L19.4 12.8C19.5 12.6 19.6 12.5 19.7 12.3V15C19.7 17 20.5 18.6 21.9 19.4C23.2 20.1 24.8 20.1 26.1 19.2C27.7 18.5 28.5 16.6 28.4 14.4ZM48.2 9.5C48.5 9.7 48.8 10.2 48.8 10.6C48.8 11.3 48.2 11.8 47.6 11.8C47.4 11.8 47.3 11.8 47.1 11.7C46.3 11.1 45.4 10.8 44.4 10.8C42 10.8 40.4 12.7 40.4 15.1C40.4 17.5 42 19.4 44.4 19.4C45.6 19.4 46.6 18.9 47.4 18.2C47.6 18.1 47.9 18 48.1 18C48.7 18 49.2 18.5 49.2 19.2C49.2 19.6 48.9 20 48.6 20.2C47.5 21.2 45.9 21.8 44.3 21.8C40.7 21.8 37.7 18.8 37.7 15.1C37.7 11.4 40.7 8.4 44.3 8.4C45.9 8.3 47.2 8.7 48.2 9.5ZM54.9 12.3C57.4 12.3 59.5 14.4 59.5 17C59.5 19.6 57.4 21.8 54.9 21.8C52.3 21.8 50.1 19.6 50.1 17C50.1 14.4 52.3 12.3 54.9 12.3ZM54.9 19.4C56 19.4 56.9 18.4 56.9 17C56.9 15.6 56 14.7 54.9 14.7C53.7 14.7 52.7 15.6 52.7 17C52.7 18.4 53.7 19.4 54.9 19.4ZM61 20.3V13.7C61 13 61.6 12.4 62.3 12.4C63 12.4 63.6 13 63.6 13.7V20.3C63.6 21 63 21.6 62.3 21.6C61.6 21.6 61 21 61 20.3ZM60.8 9.9C60.8 9 61.5 8.4 62.3 8.4C63.1 8.4 63.8 9.1 63.8 9.9C63.8 10.7 63.1 11.4 62.3 11.4C61.5 11.4 60.8 10.7 60.8 9.9ZM68.5 16.7V20.3C68.5 21 67.9 21.6 67.2 21.6C66.5 21.6 65.9 21 65.9 20.3V13.4C65.9 12.8 66.4 12.4 66.9 12.4C67.4 12.4 67.9 12.9 67.9 13.4C68.9 12.4 69.9 12.3 70.7 12.3C73.3 12.3 74.4 14.2 74.4 16.4V20.3C74.4 21 73.8 21.6 73.1 21.6C72.4 21.6 71.8 21 71.8 20.3V16.7C71.8 15.6 71.7 14.6 70 14.6C69 14.6 68.5 15.6 68.5 16.7ZM82.9 18.1C82.6 18.1 82.4 18 82.2 17.8L79.2 14.5V20.3C79.2 21 78.6 21.6 77.9 21.6C77.2 21.6 76.6 21 76.6 20.3V8.8C76.7 8.6 76.9 8.5 77.1 8.5C77.3 8.5 77.5 8.7 77.6 8.8L82.4 14.2C82.5 14.4 82.7 14.5 82.8 14.5C82.9 14.5 83.1 14.4 83.2 14.2L88 8.8C88.1 8.7 88.3 8.5 88.5 8.5C88.7 8.5 88.9 8.6 89 8.8V20.3C89 21 88.4 21.6 87.7 21.6C87 21.6 86.4 21 86.4 20.3V14.5L83.4 17.8C83.3 17.9 83.1 18.1 82.9 18.1ZM95.2 19.4C96.4 19.4 97.3 18.4 97.3 17C97.3 15.6 96.3 14.7 95.2 14.7C94.1 14.7 93.2 15.6 93.2 17C93.2 18.3 94.1 19.4 95.2 19.4ZM98 20.6V20.3C97.5 21.3 95.9 21.7 94.9 21.7C92.5 21.7 90.7 19.5 90.7 16.9C90.7 14.3 92.5 12.2 95 12.2C95.4 12.2 96.9 12.3 98 13.6V13.3C98 12.7 98.4 12.3 99 12.3C99.5 12.3 100 12.8 100 13.3V20.5C100 21.1 99.5 21.5 99 21.5C98.4 21.6 98 21.2 98 20.6ZM107.1 14.6H106.8C105.2 14.7 104.9 15.6 104.9 16.7V20.3C104.9 21 104.3 21.6 103.6 21.6C102.9 21.6 102.3 21 102.3 20.3V13.4C102.3 12.8 102.8 12.4 103.3 12.4C103.8 12.4 104.3 12.9 104.3 13.4C105.3 12.5 106 12.3 106.8 12.3H107.1C107.7 12.3 108.3 12.8 108.3 13.5C108.2 14.1 107.7 14.6 107.1 14.6ZM117 19.7C117.1 19.9 117.2 20.1 117.2 20.3C117.2 21 116.6 21.6 115.9 21.6C115.4 21.6 115.1 21.3 114.8 20.9L111.8 17.5V20.3C111.8 21 111.2 21.6 110.5 21.6C109.8 21.6 109.2 21 109.2 20.3V9.8C109.2 9.1 109.8 8.5 110.5 8.5C111.2 8.5 111.8 9.1 111.8 9.8V16.4L114.8 13.1C115.1 12.8 115.5 12.4 115.9 12.4C116.5 12.4 117.1 13 117.1 13.7C117.1 13.9 117.1 14.1 116.9 14.3L114.6 16.9L117 19.7ZM122 14.7C121.3 14.7 120.2 15.1 120.2 16.2H123.9C123.9 15 122.7 14.7 122 14.7ZM125.4 17.8H120.2C120.2 19.3 121.7 19.6 122.3 19.6C122.8 19.6 123.5 19.5 124 19.3C124.2 19.2 124.4 19.1 124.7 19.1C125.3 19.1 125.7 19.6 125.7 20.2C125.7 20.6 125.4 20.9 125.1 21.1C124.3 21.7 123.3 21.8 122.3 21.8C119.7 21.8 117.5 20.4 117.5 17.1C117.5 14.5 118.8 12.3 121.9 12.3C124.4 12.3 126.3 13.9 126.3 16.8C126.4 17.3 126 17.8 125.4 17.8ZM132.6 21.7H131.9C129.9 21.7 128.8 20.8 128.8 17.8V14.6H128.1C127.5 14.6 126.9 14 126.9 13.4C126.9 12.7 127.4 12.2 128.1 12.2H128.8V9.8C128.8 9.1 129.4 8.5 130.1 8.5C130.8 8.5 131.4 9.1 131.4 9.8V12.2H132.5C133.1 12.2 133.7 12.7 133.7 13.4C133.7 14 133.2 14.6 132.5 14.6H131.4V17.3C131.4 19.1 131.5 19.4 132.3 19.4H132.7C133.3 19.4 133.8 19.9 133.8 20.6C133.7 21.2 133.2 21.7 132.6 21.7ZM145 9.5C145.3 9.7 145.6 10.2 145.6 10.6C145.6 11.3 145 11.8 144.4 11.8C144.2 11.8 144.1 11.8 143.9 11.7C143.1 11.1 142.2 10.8 141.2 10.8C138.8 10.8 137.2 12.7 137.2 15.1C137.2 17.5 138.8 19.4 141.2 19.4C142.4 19.4 143.4 18.9 144.2 18.2C144.4 18.1 144.7 18 144.9 18C145.5 18 146 18.5 146 19.2C146 19.6 145.7 20 145.4 20.2C144.3 21.2 142.7 21.8 141.1 21.8C137.5 21.8 134.5 18.8 134.5 15.1C134.5 11.4 137.5 8.4 141.1 8.4C142.7 8.3 144 8.7 145 9.5ZM151.6 19.4C152.8 19.4 153.7 18.4 153.7 17C153.7 15.6 152.7 14.7 151.6 14.7C150.5 14.7 149.6 15.6 149.6 17C149.5 18.3 150.4 19.4 151.6 19.4ZM154.3 20.6V20.3C153.8 21.3 152.2 21.7 151.2 21.7C148.8 21.7 147 19.5 147 16.9C147 14.3 148.8 12.2 151.3 12.2C151.7 12.2 153.2 12.3 154.3 13.6V13.3C154.3 12.7 154.7 12.3 155.3 12.3C155.8 12.3 156.3 12.8 156.3 13.3V20.5C156.3 21.1 155.8 21.5 155.3 21.5C154.7 21.6 154.3 21.2 154.3 20.6ZM163.4 19.4C164.5 19.4 165.4 18.3 165.4 17C165.4 15.6 164.5 14.7 163.4 14.7C162.3 14.7 161.3 15.6 161.3 17C161.2 18.4 162.2 19.4 163.4 19.4ZM161.2 21V24.3C161.2 25 160.6 25.6 159.9 25.6C159.2 25.6 158.6 25 158.6 24.3V13.4C158.6 12.8 159.1 12.4 159.6 12.4C160.1 12.4 160.6 12.9 160.6 13.5C161.6 12.5 162.7 12.3 163.6 12.3C166.1 12.3 167.9 14.4 167.9 17C167.9 19.6 166.1 21.8 163.7 21.8C163 21.7 161.9 21.5 161.2 21Z" fill="#0846BA"/>
</svg>
