<svg width="180" height="43" viewBox="0 0 180 43" fill="none" xmlns="http://www.w3.org/2000/svg">
<path d="M26.0415 30.5582L18.5669 33.8173V33.4884C17.1318 33.8472 15.5173 34.0565 14.0224 34.1462C6.96633 34.0864 1.40523 30.3788 1.31553 26.0134V24.3987C3.61771 27.7476 8.34166 30.02 14.0224 29.9303C15.9359 30.02 17.9092 29.721 19.5536 29.2725L20.2113 27.6579C18.2679 28.2559 16.1153 28.6446 14.0224 28.6446C6.96633 28.6446 1.40523 24.9668 1.31553 20.5117V19.1961C3.61771 22.3057 8.34166 24.5482 14.0224 24.3987C16.5936 24.5482 19.0752 24.01 21.198 23.0831L21.5269 21.4685C19.4639 22.5449 16.8029 23.1728 14.0523 23.0831C6.99623 23.1728 1.43512 19.4951 1.34543 14.9503V13.6347C3.64761 16.8041 8.37156 19.0765 14.0523 19.1662C17.2813 19.0765 20.3309 18.2094 22.8424 16.8938L23.1713 14.9503C20.899 16.6247 17.5803 17.731 14.0523 17.8805C6.99623 17.731 1.43512 14.0234 1.34543 9.41873C1.40523 5.02339 6.99623 1.34567 14.0523 1.28587C18.238 1.34567 22.1547 2.81078 24.4569 5.2028L24.6961 5.5915H26.3405L26.1013 5.2028C23.7992 2.06327 19.1649 0.000155875 14.0523 0.000155875C6.21887 -0.0297444 0 4.24599 0 9.38883V9.71773V26.3124C0.269086 31.3356 6.33847 35.4319 13.9925 35.4319C19.0453 35.4618 23.6198 33.4585 26.0415 30.5582Z" fill="white"/>
<path d="M22.9913 42.01L25.6224 30.8273L18.0581 34.1163L22.6624 14.741H13.8125L16.1147 5.20282H44.3687L42.0665 14.741H32.8578L30.8845 20.0034L41.0799 15.7277L22.9913 42.01ZM27.5957 28.5549L26.2801 35.1329L37.1333 18.7177L28.2534 22.6646L32.2 13.4553H41.0799L42.7243 6.54833H17.0714L15.427 13.4553H24.3069L20.0314 31.8439L27.5957 28.5549Z" fill="#FABF2C"/>
<path d="M63.1137 11.6314C63.1436 12.6779 62.8147 13.4852 62.157 14.0832C61.4992 14.6812 60.6023 14.9802 59.4362 14.9802C58.2702 14.9802 57.3134 14.5915 56.5959 13.844C55.8783 13.0965 55.5195 12.1098 55.5195 10.9137V8.97023C55.5195 7.77422 55.8783 6.78751 56.566 6.04001C57.2835 5.2925 58.2104 4.9038 59.3465 4.9038C60.5425 4.9038 61.4693 5.2028 62.157 5.77091C62.8446 6.36891 63.1735 7.17621 63.1436 8.22272V8.25262H61.2301C61.2301 7.62472 61.0806 7.14632 60.7817 6.84732C60.4827 6.54832 60.0043 6.39882 59.3764 6.39882C58.7785 6.39882 58.33 6.63802 58.0011 7.11642C57.6722 7.59482 57.4928 8.19283 57.4928 8.94034V10.9137C57.4928 11.6612 57.6722 12.2892 58.0011 12.7676C58.3599 13.246 58.8383 13.4852 59.4661 13.4852C60.0641 13.4852 60.4827 13.3357 60.7817 13.0367C61.0806 12.7377 61.2301 12.2593 61.2301 11.6314H63.1137ZM73.937 10.824C73.937 12.0201 73.5483 13.0367 72.8008 13.8141C72.0534 14.5915 71.0667 14.9802 69.8409 14.9802C68.615 14.9802 67.6583 14.5915 66.8809 13.8141C66.1335 13.0367 65.7448 12.0201 65.7448 10.824V9.05993C65.7448 7.86392 66.1335 6.87722 66.8809 6.06991C67.6284 5.2925 68.615 4.8739 69.811 4.8739C71.0368 4.8739 72.0235 5.2626 72.7709 6.06991C73.5483 6.84732 73.9071 7.86392 73.9071 9.05993V10.824H73.937ZM71.9637 9.03003C71.9637 8.25263 71.7843 7.65463 71.3956 7.14632C71.0069 6.66792 70.4986 6.39882 69.811 6.39882C69.1532 6.39882 68.615 6.63802 68.2563 7.14632C67.8975 7.62472 67.6882 8.25263 67.6882 9.03003V10.7941C67.6882 11.5716 67.8676 12.1995 68.2563 12.7078C68.615 13.1862 69.1532 13.4553 69.811 13.4553C70.4986 13.4553 71.0069 13.2161 71.3956 12.7078C71.7843 12.2294 71.9637 11.5716 71.9637 10.7941V9.03003ZM79.0197 14.8307H77.0464V5.0234H79.0197V14.8307ZM90.3512 14.8307H88.3779L84.4313 8.22272H84.4014V14.8307H82.4281V5.0234H84.4014L88.348 11.6314H88.3779V5.0234H90.3512V14.8307ZM100.248 6.54832H97.4371V14.8307H95.4638V6.54832H92.7132V5.0234H100.248V6.54832ZM108.38 10.525H104.732V13.3357H109.068V14.8307H102.789V5.0234H109.068V6.54832H104.762V9.00013H108.41V10.525H108.38ZM113.851 13.3357H118.246V14.8307H111.878V5.0234H113.851V13.3357ZM126.618 10.525H122.97V13.3357H127.306V14.8307H121.027V5.0234H127.306V6.54832H123V9.00013H126.648V10.525H126.618ZM137.651 13.5151C137.352 13.9038 136.903 14.2626 136.275 14.5616C135.677 14.8606 134.9 15.0101 133.943 15.0101C132.747 15.0101 131.79 14.6513 131.043 13.9038C130.296 13.1563 129.907 12.1995 129.907 11.0034V8.94034C129.907 7.74433 130.266 6.78751 131.013 6.04001C131.731 5.2925 132.687 4.9038 133.824 4.9038C135.019 4.9038 135.946 5.2028 136.574 5.77091C137.202 6.33901 137.531 7.08652 137.501 8.04333V8.07322H135.647C135.647 7.56492 135.498 7.14632 135.199 6.84732C134.9 6.54832 134.451 6.39882 133.883 6.39882C133.285 6.39882 132.807 6.63801 132.418 7.08652C132.06 7.56492 131.88 8.16293 131.88 8.88053V10.9436C131.88 11.6912 132.06 12.2892 132.448 12.7676C132.837 13.246 133.345 13.4553 133.973 13.4553C134.451 13.4553 134.81 13.3955 135.079 13.3058C135.348 13.2161 135.558 13.0965 135.707 12.947V11.0334H133.824V9.65794H137.68V13.5151H137.651ZM142.733 10.9137V14.8307H140.76V5.0234H144.168C145.275 5.0234 146.172 5.29251 146.799 5.80081C147.427 6.30911 147.756 7.02671 147.756 7.92372C147.756 8.43202 147.637 8.85063 147.368 9.23934C147.098 9.59814 146.71 9.89714 146.201 10.1363C146.77 10.3157 147.188 10.5848 147.457 11.0034C147.696 11.3922 147.846 11.9005 147.846 12.4985V13.2161C147.846 13.4852 147.876 13.7842 147.965 14.0832C148.025 14.3822 148.175 14.5915 148.354 14.741V14.8905H146.321C146.142 14.741 146.022 14.5018 145.962 14.1729C145.902 13.844 145.873 13.5151 145.873 13.2161V12.5284C145.873 12.05 145.753 11.6613 145.484 11.3921C145.215 11.123 144.826 10.9735 144.348 10.9735H142.733V10.9137ZM142.733 9.41873H144.138C144.677 9.41873 145.095 9.29914 145.364 9.05993C145.633 8.82073 145.783 8.49183 145.783 8.01343C145.783 7.56492 145.633 7.20612 145.364 6.93702C145.095 6.66791 144.707 6.54832 144.168 6.54832H142.733V9.41873ZM156.098 12.7377H152.929L152.271 14.8606H150.208L153.527 5.0533H155.53L158.819 14.8606H156.756L156.098 12.7377ZM153.407 11.1829H155.619L154.543 7.71442H154.513L153.407 11.1829ZM163.184 11.2725V14.8307H161.21V5.0234H164.978C166.114 5.0234 166.981 5.3224 167.639 5.89051C168.296 6.45861 168.595 7.23602 168.595 8.16293C168.595 9.08983 168.267 9.86724 167.639 10.4353C166.981 11.0035 166.114 11.3025 164.978 11.3025H163.184V11.2725ZM163.184 9.77754H164.978C165.516 9.77754 165.934 9.62804 166.233 9.32903C166.503 9.03003 166.652 8.64133 166.652 8.19283C166.652 7.71443 166.503 7.32572 166.233 7.02671C165.964 6.72771 165.546 6.57821 164.978 6.57821H163.184V9.77754ZM179.389 14.8307H177.415V10.7642H173.409V14.8307H171.436V5.0234H173.409V9.23934H177.415V5.0234H179.389V14.8307Z" fill="white"/>
<path d="M59.1082 30.8572H57.8824V24.3988H55.6699V23.3523H61.3207V24.3988H59.1082V30.8572ZM67.3303 30.8572H66.1045V27.3589C66.1045 26.9104 66.0148 26.5815 65.8354 26.3722C65.656 26.1629 65.3869 26.0433 64.9982 26.0433C64.49 26.0433 64.1312 26.1928 63.892 26.4918C63.6528 26.7908 63.5332 27.2991 63.5332 28.0167V30.8273H62.3373V22.844H63.5332V24.8772C63.5332 25.2061 63.5033 25.535 63.4734 25.9237H63.5631C63.7126 25.6546 63.9518 25.4453 64.2508 25.2958C64.5498 25.1463 64.8786 25.0566 65.2673 25.0566C66.6426 25.0566 67.3303 25.7443 67.3303 27.1496V30.8572ZM71.4862 30.9469C70.5892 30.9469 69.9016 30.6779 69.4232 30.1695C68.9149 29.6612 68.6757 28.9436 68.6757 28.0466C68.6757 27.1197 68.9149 26.4021 69.3634 25.8639C69.8119 25.3257 70.4696 25.0566 71.2769 25.0566C72.0244 25.0566 72.6223 25.2958 73.0409 25.7443C73.4894 26.1928 73.6987 26.8207 73.6987 27.628V28.2858H69.9016C69.9315 28.824 70.081 29.2725 70.3501 29.5416C70.6191 29.8406 71.0377 29.9901 71.546 29.9901C71.8749 29.9901 72.2038 29.9602 72.4728 29.9004C72.7718 29.8406 73.0708 29.721 73.3997 29.5715V30.5582C73.1007 30.7077 72.8017 30.7974 72.5027 30.8572C72.2337 30.917 71.8749 30.9469 71.4862 30.9469ZM71.2769 25.9835C70.8882 25.9835 70.5892 26.1031 70.3501 26.3423C70.1109 26.5815 69.9913 26.9403 69.9315 27.4187H72.5027C72.5027 26.9403 72.3831 26.5815 72.1739 26.3423C71.9646 26.1031 71.6656 25.9835 71.2769 25.9835ZM80.6351 26.0732H79.2598V30.8572H78.034V26.0732H77.1071V25.5051L78.034 25.1463V24.7875C78.034 24.1297 78.1834 23.6214 78.5123 23.2925C78.8412 22.9636 79.3196 22.8141 79.9475 22.8141C80.366 22.8141 80.7846 22.8739 81.2032 23.0234L80.8743 23.9503C80.5753 23.8606 80.3062 23.8008 80.0072 23.8008C79.7382 23.8008 79.5289 23.8905 79.4093 24.04C79.2897 24.2194 79.2299 24.4586 79.2299 24.7875V25.1463H80.6052V26.0732H80.6351ZM85.6282 30.8572L85.4488 30.1097H85.389C85.2096 30.3788 84.9704 30.5881 84.6714 30.7376C84.3724 30.8872 84.0136 30.9768 83.625 30.9768C82.9373 30.9768 82.429 30.7975 82.0702 30.4685C81.7115 30.1396 81.562 29.6014 81.562 28.9137V25.1762H82.7878V28.6745C82.7878 29.123 82.8775 29.422 83.0569 29.6612C83.2363 29.8705 83.5054 29.9901 83.894 29.9901C84.4023 29.9901 84.7611 29.8406 85.0003 29.5416C85.2395 29.2426 85.3591 28.7343 85.3591 28.0167V25.1762H86.5849V30.8572H85.6282ZM90.4119 29.9602C90.7109 29.9602 91.0099 29.9004 91.3089 29.8107V30.7077C91.1893 30.7675 91.0099 30.8273 90.8006 30.8572C90.5913 30.8871 90.382 30.9171 90.1428 30.9171C89.0067 30.9171 88.4386 30.319 88.4386 29.123V26.0732H87.6612V25.535L88.4984 25.0865L88.917 23.8905H89.6644V25.1463H91.279V26.0732H89.6644V29.123C89.6644 29.422 89.7242 29.6313 89.8737 29.7808C89.9634 29.9004 90.1727 29.9602 90.4119 29.9602ZM96.4215 30.8572L96.2421 30.1097H96.1823C96.0029 30.3788 95.7637 30.5881 95.4647 30.7376C95.1658 30.8872 94.807 30.9768 94.4183 30.9768C93.7306 30.9768 93.2224 30.7975 92.8636 30.4685C92.5347 30.1396 92.3553 29.6014 92.3553 28.9137V25.1762H93.5811V28.6745C93.5811 29.123 93.6708 29.422 93.8502 29.6612C94.0296 29.8705 94.2987 29.9901 94.6874 29.9901C95.1957 29.9901 95.5544 29.8406 95.7936 29.5416C96.0328 29.2426 96.1524 28.7343 96.1524 28.0167V25.1762H97.3782V30.8572H96.4215ZM101.983 25.0566C102.222 25.0566 102.431 25.0865 102.581 25.1164L102.461 26.2526C102.282 26.2227 102.102 26.1928 101.923 26.1928C101.444 26.1928 101.056 26.3423 100.757 26.6712C100.458 27.0001 100.308 27.3888 100.308 27.8971V30.8572H99.1123V25.1762H100.069L100.219 26.1629H100.278C100.458 25.834 100.727 25.5649 101.026 25.3556C101.295 25.1762 101.624 25.0566 101.983 25.0566ZM105.899 30.9469C105.002 30.9469 104.315 30.6779 103.836 30.1695C103.328 29.6612 103.089 28.9436 103.089 28.0466C103.089 27.1197 103.328 26.4021 103.777 25.8639C104.225 25.3257 104.883 25.0566 105.69 25.0566C106.437 25.0566 107.035 25.2958 107.454 25.7443C107.902 26.1928 108.112 26.8207 108.112 27.628V28.2858H104.315C104.345 28.824 104.494 29.2725 104.763 29.5416C105.032 29.8406 105.451 29.9901 105.959 29.9901C106.288 29.9901 106.617 29.9602 106.886 29.9004C107.185 29.8406 107.484 29.721 107.813 29.5715V30.5582C107.514 30.7077 107.215 30.7974 106.916 30.8572C106.617 30.917 106.288 30.9469 105.899 30.9469ZM105.69 25.9835C105.301 25.9835 105.002 26.1031 104.763 26.3423C104.524 26.5815 104.404 26.9403 104.345 27.4187H106.916C106.916 26.9403 106.796 26.5815 106.587 26.3423C106.348 26.1031 106.049 25.9835 105.69 25.9835ZM117.231 27.9868C117.231 28.9137 116.992 29.6313 116.513 30.1695C116.035 30.6779 115.377 30.9469 114.54 30.9469C114.002 30.9469 113.553 30.8273 113.135 30.5881C112.716 30.3489 112.417 29.9901 112.208 29.5416C111.999 29.0931 111.879 28.5848 111.879 27.9868C111.879 27.0599 112.118 26.3423 112.597 25.834C113.075 25.3257 113.733 25.0566 114.6 25.0566C115.407 25.0566 116.065 25.3257 116.543 25.8639C117.022 26.4021 117.231 27.0898 117.231 27.9868ZM113.105 27.9868C113.105 29.3024 113.583 29.9602 114.57 29.9602C115.527 29.9602 116.005 29.3024 116.005 27.9868C116.005 26.7011 115.527 26.0433 114.57 26.0433C114.062 26.0433 113.703 26.2227 113.464 26.5516C113.224 26.8805 113.105 27.3589 113.105 27.9868ZM121.476 26.0732H120.101V30.8572H118.875V26.0732H117.948V25.5051L118.875 25.1463V24.7875C118.875 24.1297 119.025 23.6214 119.354 23.2925C119.682 22.9636 120.161 22.8141 120.789 22.8141C121.207 22.8141 121.626 22.8739 122.044 23.0234L121.716 23.9503C121.417 23.8606 121.147 23.8008 120.849 23.8008C120.579 23.8008 120.37 23.8905 120.251 24.04C120.131 24.1895 120.071 24.4586 120.071 24.7875V25.1463H121.446V26.0732H121.476ZM129.968 30.8572H128.742V27.3589C128.742 26.9104 128.652 26.6114 128.503 26.3722C128.353 26.1629 128.084 26.0433 127.725 26.0433C127.247 26.0433 126.918 26.1928 126.709 26.4918C126.499 26.7908 126.38 27.2991 126.38 28.0167V30.8572H125.184V25.1762H126.141L126.32 25.9237H126.38C126.529 25.6546 126.768 25.4453 127.067 25.2958C127.366 25.1463 127.695 25.0865 128.054 25.0865C128.921 25.0865 129.519 25.3855 129.788 25.9835H129.878C130.057 25.7144 130.296 25.4752 130.595 25.3257C130.894 25.1762 131.253 25.0865 131.642 25.0865C132.33 25.0865 132.808 25.2659 133.137 25.5948C133.436 25.9237 133.615 26.4619 133.615 27.1496V30.8572H132.419V27.3589C132.419 26.9104 132.33 26.6114 132.18 26.3722C132.001 26.1629 131.761 26.0433 131.403 26.0433C130.924 26.0433 130.595 26.1928 130.386 26.4918C130.177 26.7908 130.057 27.2393 130.057 27.8373V30.8572H129.968ZM140.253 27.9868C140.253 28.9137 140.013 29.6313 139.535 30.1695C139.057 30.6779 138.399 30.9469 137.562 30.9469C137.024 30.9469 136.575 30.8273 136.157 30.5881C135.738 30.3489 135.439 29.9901 135.23 29.5416C135.02 29.0931 134.901 28.5848 134.901 27.9868C134.901 27.0599 135.14 26.3423 135.618 25.834C136.097 25.3257 136.754 25.0566 137.622 25.0566C138.429 25.0566 139.087 25.3257 139.565 25.8639C140.013 26.4021 140.253 27.0898 140.253 27.9868ZM136.127 27.9868C136.127 29.3024 136.605 29.9602 137.592 29.9602C138.548 29.9602 139.027 29.3024 139.027 27.9868C139.027 26.7011 138.548 26.0433 137.592 26.0433C137.083 26.0433 136.725 26.2227 136.485 26.5516C136.246 26.8805 136.127 27.3589 136.127 27.9868ZM146.651 30.8572H145.425V27.3589C145.425 26.9104 145.335 26.5815 145.156 26.3722C144.977 26.1629 144.707 26.0433 144.319 26.0433C143.811 26.0433 143.422 26.1928 143.213 26.4918C143.003 26.7908 142.854 27.2991 142.854 28.0167V30.8572H141.658V25.1762H142.615L142.794 25.9237H142.854C143.033 25.6546 143.272 25.4453 143.571 25.2958C143.87 25.1463 144.229 25.0865 144.618 25.0865C145.993 25.0865 146.651 25.7742 146.651 27.1795V30.8572ZM150.807 30.9469C149.91 30.9469 149.222 30.6779 148.744 30.1695C148.235 29.6612 147.996 28.9436 147.996 28.0466C147.996 27.1197 148.235 26.4021 148.684 25.8639C149.132 25.3257 149.79 25.0566 150.597 25.0566C151.345 25.0566 151.943 25.2958 152.361 25.7443C152.81 26.1928 153.019 26.8207 153.019 27.628V28.2858H149.222C149.252 28.824 149.402 29.2725 149.671 29.5416C149.94 29.8406 150.358 29.9901 150.867 29.9901C151.195 29.9901 151.524 29.9602 151.793 29.9004C152.062 29.8406 152.391 29.721 152.72 29.5715V30.5582C152.421 30.7077 152.122 30.7974 151.823 30.8572C151.524 30.917 151.195 30.9469 150.807 30.9469ZM150.568 25.9835C150.179 25.9835 149.88 26.1031 149.641 26.3423C149.402 26.5815 149.282 26.9403 149.222 27.4187H151.793C151.793 26.9403 151.674 26.5815 151.465 26.3423C151.255 26.1031 150.956 25.9835 150.568 25.9835ZM153.318 25.1762H154.634L155.8 28.4054C155.979 28.8539 156.099 29.3024 156.159 29.6911H156.188C156.218 29.5117 156.278 29.2725 156.368 29.0034C156.458 28.7343 156.876 27.4486 157.683 25.1762H158.999L156.577 31.6048C156.129 32.7709 155.411 33.3689 154.365 33.3689C154.096 33.3689 153.826 33.339 153.587 33.2792V32.3224C153.767 32.3523 153.976 32.3822 154.215 32.3822C154.783 32.3822 155.202 32.0533 155.441 31.3656L155.65 30.8273L153.318 25.1762Z" fill="white"/>
</svg>
