<svg width="36" height="37" viewBox="0 0 36 37" fill="none" xmlns="http://www.w3.org/2000/svg">
<path d="M17.6966 20.3548C17.477 20.3548 17.2574 20.3041 17.0547 20.1858L2.13913 11.5541C1.54791 11.1994 1.32832 10.4223 1.68305 9.81422C2.03778 9.20612 2.81481 9.00341 3.42291 9.35814L17.6966 17.6183L31.8857 9.40882C32.4939 9.05409 33.2709 9.27368 33.6256 9.8649C33.9803 10.473 33.7607 11.25 33.1695 11.6048L18.3553 20.1858C18.1358 20.2872 17.9162 20.3548 17.6966 20.3548Z" fill="#4D4D4D"/>
<path d="M17.6966 35.6587C17.004 35.6587 16.4297 35.0844 16.4297 34.3919V19.0709C16.4297 18.3783 17.004 17.804 17.6966 17.804C18.3891 17.804 18.9635 18.3783 18.9635 19.0709V34.3919C18.9635 35.0844 18.3891 35.6587 17.6966 35.6587Z" fill="#4D4D4D"/>
<path d="M17.6968 36.3176C16.2103 36.3176 14.7407 35.9966 13.5752 35.3547L4.55488 30.3378C2.10556 28.9865 0.196777 25.7263 0.196777 22.9223V13.3784C0.196777 10.5743 2.10556 7.33108 4.55488 5.96284L13.5752 0.962838C15.8893 -0.320946 19.5042 -0.320946 21.8184 0.962838L30.8387 5.97973C33.288 7.33108 35.1968 10.5912 35.1968 13.3953V22.9392C35.1968 25.7432 33.288 28.9865 30.8387 30.3547L21.8184 35.3547C20.6529 35.9966 19.1833 36.3176 17.6968 36.3176ZM17.6968 2.53378C16.6326 2.53378 15.5853 2.75338 14.8083 3.17568L5.78799 8.19257C4.16637 9.08784 2.73056 11.5203 2.73056 13.3784V22.9223C2.73056 24.7804 4.16637 27.2128 5.78799 28.125L14.8083 33.1419C16.3454 34.0034 19.0481 34.0034 20.5853 33.1419L29.6056 28.125C31.2272 27.2128 32.663 24.7973 32.663 22.9223V13.3784C32.663 11.5203 31.2272 9.08784 29.6056 8.17568L20.5853 3.15878C19.8083 2.75338 18.761 2.53378 17.6968 2.53378Z" fill="#4D4D4D"/>
</svg>
