<svg width="31" height="31" viewBox="0 0 31 31" fill="none" xmlns="http://www.w3.org/2000/svg">
<path d="M30.9062 15.0944C30.9062 23.3677 23.9876 30.0746 15.4531 30.0746C6.9186 30.0746 0 23.3677 0 15.0944C0 6.8211 6.9186 0.114258 15.4531 0.114258C23.9876 0.114258 30.9062 6.8211 30.9062 15.0944Z" fill="white"/>
<path d="M22.636 7.42378C21.1933 6.74991 19.6669 6.2711 18.0973 6C17.9018 6.35284 17.6734 6.8274 17.5159 7.20494C15.8236 6.95093 14.1469 6.95093 12.4857 7.20494C12.3283 6.82749 12.0947 6.35284 11.8974 6C10.3263 6.27122 8.79862 6.75126 7.35516 7.4273C4.48279 11.7602 3.70411 15.9854 4.09341 20.1508C5.99856 21.571 7.84484 22.4337 9.66001 22.9983C10.1111 22.379 10.5099 21.7234 10.8522 21.0382C10.2005 20.7905 9.5722 20.4853 8.97483 20.1261C9.13203 20.0098 9.28554 19.8886 9.43511 19.7626C13.055 21.4528 16.9882 21.4528 20.5649 19.7626C20.7151 19.8877 20.8685 20.0089 21.0251 20.1261C20.4267 20.4862 19.7973 20.7921 19.1442 21.04C19.4885 21.728 19.8866 22.3842 20.3364 23C22.1533 22.4355 24.0013 21.5728 25.9065 20.1508C26.3633 15.3221 25.1262 11.1356 22.636 7.42369V7.42378ZM11.3454 17.5892C10.2587 17.5892 9.36756 16.5765 9.36756 15.3433C9.36756 14.1101 10.2397 13.0957 11.3454 13.0957C12.4512 13.0957 13.3423 14.1083 13.3233 15.3433C13.325 16.5765 12.4512 17.5892 11.3454 17.5892ZM18.6545 17.5892C17.5678 17.5892 16.6767 16.5765 16.6767 15.3433C16.6767 14.1101 17.5488 13.0957 18.6545 13.0957C19.7602 13.0957 20.6513 14.1083 20.6323 15.3433C20.6323 16.5765 19.7602 17.5892 18.6545 17.5892Z" fill="#5865F2"/>
</svg>
