<svg width="9" height="9" viewBox="0 0 9 9" fill="none" xmlns="http://www.w3.org/2000/svg">
<g clip-path="url(#clip0_2828_1221)">
<path d="M4.11009 0.0863437C4.32909 -0.0287813 4.66172 -0.0287813 4.88072 0.0863437L7.11272 1.25934C7.24434 1.32834 7.31672 1.43184 7.32984 1.53834H7.33172V7.43409C7.32909 7.55034 7.25597 7.66547 7.11272 7.74084L4.88072 8.91384C4.66172 9.02897 4.32909 9.02897 4.11009 8.91384L1.87809 7.74084C1.73559 7.66584 1.66697 7.54959 1.66359 7.43409C1.66326 7.42447 1.66326 7.41484 1.66359 7.40522V1.57622C1.66339 1.56985 1.66339 1.56347 1.66359 1.55709V1.53834H1.66472C1.67447 1.43034 1.74347 1.32984 1.87847 1.25934L4.11009 0.0863437ZM6.98034 4.82747L4.88034 5.93109C4.66172 6.04584 4.32909 6.04584 4.11009 5.93109L2.01497 4.83009V7.42247L4.11009 8.51747C4.22859 8.58047 4.35122 8.64197 4.47159 8.64984L4.49559 8.65059C4.62047 8.65059 4.74197 8.58759 4.86534 8.52797L6.98034 7.41309V4.82747ZM1.30059 7.30622C1.30059 7.53159 1.32684 7.68009 1.37934 7.78472C1.42284 7.87172 1.48809 7.93772 1.60697 8.01834L1.61372 8.02322C1.64333 8.04294 1.67334 8.06207 1.70372 8.08059L1.74497 8.10572L1.87172 8.18184L1.68984 8.48072L1.54809 8.39559L1.52409 8.38097C1.48802 8.35894 1.45238 8.33618 1.41722 8.31272C1.07822 8.08547 0.951844 7.83759 0.949219 7.32159V7.30584L1.30059 7.30622ZM4.31934 3.24722C4.30388 3.25244 4.28884 3.25883 4.27434 3.26634L2.04234 4.43934C2.04008 4.44056 2.03783 4.44181 2.03559 4.44309L2.03372 4.44422L2.03747 4.44609L2.04234 4.44872L4.27434 5.62172C4.28894 5.62938 4.30411 5.63589 4.31972 5.64122L4.31934 3.24722ZM4.67109 3.24722V5.64122C4.6867 5.6359 4.70187 5.62938 4.71647 5.62172L6.94847 4.44872C6.95073 4.4475 6.95298 4.44625 6.95522 4.44497L6.95709 4.44422L6.95334 4.44234L6.94847 4.43934L4.71647 3.26634C4.70186 3.25881 4.68669 3.25242 4.67109 3.24722ZM6.98034 1.95647L4.97784 3.00872L6.98034 4.06097V1.95647ZM2.01497 1.95872V4.05872L4.01259 3.00872L2.01497 1.95872ZM4.71647 0.395344C4.60022 0.334219 4.39022 0.334219 4.27434 0.395344L2.04234 1.56834C2.04007 1.56956 2.03782 1.57081 2.03559 1.57209L2.03372 1.57322L2.03747 1.57509L2.04234 1.57772L4.27434 2.75072C4.39059 2.81184 4.60059 2.81184 4.71647 2.75072L6.94847 1.57772C6.95074 1.5765 6.95299 1.57525 6.95522 1.57397L6.95709 1.57322L6.95334 1.57097L6.94847 1.56834L4.71647 0.395344ZM7.31034 0.523969L7.45209 0.609094L7.47609 0.624094C7.51734 0.649219 7.55109 0.670594 7.58297 0.691969C7.92197 0.919594 8.04834 1.16747 8.05097 1.68309V1.69884H7.69959C7.69959 1.47309 7.67334 1.32459 7.62084 1.21997C7.57734 1.13334 7.51209 1.06697 7.39322 0.986344L7.38647 0.981844C7.35684 0.962135 7.32684 0.943007 7.29647 0.924469L7.25522 0.899344L7.12847 0.823219L7.31034 0.523969Z" fill="white"/>
</g>
<defs>
<clipPath id="clip0_2828_1221">
<rect width="9" height="9" fill="white"/>
</clipPath>
</defs>
</svg>
