<svg width="36" height="38" viewBox="0 0 36 38" fill="none" xmlns="http://www.w3.org/2000/svg">
<path d="M9.00002 9.88504C9.01784 9.88504 9.01784 9.88504 9.00002 9.88504V9.88504ZM34.714 13.1762C33.9477 11.3183 32.3618 9.31882 31.1322 8.68183C32.1301 10.6459 32.7182 12.61 32.9498 14.0609V14.0963C30.9362 9.10649 27.5148 7.08935 24.7171 2.70118C24.5745 2.48885 24.4142 2.25882 24.2894 2.0288C24.2181 1.90494 24.1647 1.78108 24.0934 1.65722C23.9865 1.4272 23.8796 1.19717 23.8261 0.949451C23.8261 0.931757 23.8083 0.914062 23.7905 0.914062H23.737C19.781 3.21431 18.1238 7.26629 17.7139 9.83196C16.4843 9.90273 15.2726 10.2035 14.1678 10.7344C13.9539 10.8228 13.8648 11.0706 13.9361 11.2829C14.0252 11.5306 14.3103 11.6545 14.542 11.5483C15.5043 11.0882 16.5734 10.8228 17.6426 10.7521H17.7317C17.8743 10.7344 18.0347 10.7344 18.1772 10.7344C19.0682 10.7167 19.9057 10.8405 20.7433 11.0882L20.8502 11.1236C21.0284 11.159 21.1531 11.2298 21.2957 11.2298C21.3848 11.3006 21.4917 11.336 21.5808 11.3714L21.8303 11.4775C21.955 11.5306 22.0798 11.5837 22.1867 11.6368C22.2401 11.6722 22.2936 11.6899 22.3471 11.7252C22.4718 11.796 22.6322 11.8491 22.7034 11.9199C22.7747 11.9553 22.846 12.0083 22.9173 12.0437C24.2181 12.84 25.3051 13.937 26.0358 15.2464C25.0913 14.5917 23.3806 13.937 21.7412 14.2201C28.1563 17.4228 26.4278 28.3755 17.5357 27.9509C16.7516 27.9332 15.9676 27.7739 15.2191 27.5085C15.0409 27.4554 14.8627 27.3846 14.7024 27.2962C14.6133 27.2608 14.4885 27.2077 14.3994 27.1546C12.2076 26.0399 10.4078 23.9343 10.1583 21.3686C10.1583 21.3686 11.0493 18.3075 16.0923 18.3075C16.6447 18.3075 18.1772 16.7858 18.2307 16.3611C18.2307 16.2019 15.13 14.981 13.9183 13.7955C13.259 13.1585 12.956 12.8577 12.6887 12.6276C12.5462 12.5038 12.3858 12.3976 12.2254 12.2915C11.8159 10.8774 11.7974 9.37995 12.1719 7.95637C10.3365 8.788 8.91092 10.0974 7.87738 11.2298C7.16458 10.3451 7.21804 7.42554 7.25368 6.80624C7.23586 6.80624 6.71909 7.08935 6.66563 7.12474C6.04194 7.56709 5.45388 8.06253 4.91929 8.57567C4.2956 9.23035 3.74318 9.88504 3.24423 10.5928C2.1394 12.203 1.24841 14.0432 0.856376 15.9719C0.856376 15.9896 0.678178 16.6973 0.553439 17.5997L0.49998 18.0067C0.464341 18.3075 0.428701 18.5729 0.357422 19.033V19.7584C0.357422 29.5433 8.37633 37.4704 18.1772 37.4704C27.0337 37.4704 34.3576 31.1181 35.7832 22.7311C35.8188 22.5364 35.8366 22.3064 35.8723 22.0764C36.2287 19.033 35.8366 15.848 34.714 13.1762Z" fill="white"/>
</svg>
