<svg width="35" height="34" viewBox="0 0 35 34" fill="none" xmlns="http://www.w3.org/2000/svg">
<path d="M25.157 34H9.34302C2.36907 34 0.25 31.8809 0.25 24.907V9.09302C0.25 2.11907 2.36907 0 9.34302 0H11.7151C14.4826 0 15.3523 0.901395 16.4593 2.37209L18.8314 5.53488C19.3533 6.2307 19.4323 6.32558 20.4128 6.32558H25.157C32.1309 6.32558 34.25 8.44465 34.25 15.4186V24.907C34.25 31.8809 32.1309 34 25.157 34ZM9.34302 2.37209C3.68163 2.37209 2.62209 3.44744 2.62209 9.09302V24.907C2.62209 30.5526 3.68163 31.6279 9.34302 31.6279H25.157C30.8184 31.6279 31.8779 30.5526 31.8779 24.907V15.4186C31.8779 9.77302 30.8184 8.69767 25.157 8.69767H20.4128C18.3886 8.69767 17.7244 8.00186 16.9337 6.95814L14.5616 3.79535C13.7393 2.70419 13.4863 2.37209 11.7151 2.37209H9.34302Z" fill="#4D4D4D"/>
<path d="M29.9016 9.2986C29.2532 9.2986 28.7155 8.76093 28.7155 8.11256V5.93023C28.7155 3.43163 27.656 2.37209 25.1574 2.37209H10.9248C10.2764 2.37209 9.73877 1.83442 9.73877 1.18605C9.73877 0.537674 10.2764 0 10.9248 0H25.1574C28.9844 0 31.0876 2.10326 31.0876 5.93023V8.11256C31.0876 8.76093 30.5499 9.2986 29.9016 9.2986Z" fill="#4D4D4D"/>
</svg>
