<svg width="870" height="776" viewBox="0 0 870 776" fill="none" xmlns="http://www.w3.org/2000/svg">
<path d="M620.007 698.001L675.627 665.899L620.007 633.797L564.386 665.899L620.007 698.001ZM672.78 665.899L619.963 696.381L567.145 665.899L620.007 635.417L672.78 665.899Z" fill="#414141"/>
<path d="M241.618 698L297.238 665.898L241.618 633.796L185.998 665.898L241.618 698ZM294.435 665.898L241.618 696.38L188.8 665.898L241.618 635.416L294.435 665.898Z" fill="#414141"/>
<path d="M620.007 479.592L675.627 447.489L620.007 415.387L564.386 447.489L620.007 479.592ZM672.78 447.489L620.007 477.971L567.189 447.489L620.007 416.964L672.78 447.489Z" fill="#414141"/>
<path d="M606.213 424.541L606.914 423.315L477.323 348.468C451.703 333.665 409.965 333.665 384.345 348.468L358.944 363.14L359.644 364.366L385.046 349.695C410.316 335.111 451.396 335.111 476.622 349.695L606.213 424.541Z" fill="#414141"/>
<path d="M310.194 391.283L310.895 392.497L255.407 424.534L254.707 423.32L310.194 391.283Z" fill="#414141"/>
<path d="M337.524 407.109L338.225 408.323L282.737 440.359L282.037 439.146L337.524 407.109Z" fill="#414141"/>
<path d="M578.885 440.307L579.586 439.08L449.995 364.234C439.44 358.146 422.228 358.146 411.674 364.234L386.272 378.905L386.973 380.131L412.374 365.46C422.535 359.591 439.09 359.591 449.294 365.46L578.885 440.307Z" fill="#414141"/>
<path d="M592.543 432.424L593.244 431.198L463.653 356.395C445.565 345.928 416.091 345.928 398.004 356.395L372.602 371.067L373.303 372.293L398.704 357.622C416.398 347.373 445.259 347.373 462.952 357.622L592.543 432.424Z" fill="#414141"/>
<path d="M323.891 399.205L324.592 400.418L269.105 432.455L268.404 431.241L323.891 399.205Z" fill="#414141"/>
<path d="M227.866 642.994L228.566 641.768L98.9754 566.921C94.2016 564.162 91.5301 560.527 91.5301 556.673C91.5301 552.819 94.1579 549.184 98.9754 546.425L124.377 531.753L123.676 530.527L98.2746 545.198C93.0191 548.22 90.1286 552.293 90.1286 556.673C90.1286 561.052 93.0191 565.125 98.2746 568.147L227.866 642.994Z" fill="#414141"/>
<path d="M227.899 470.414L228.6 471.628L173.112 503.664L172.412 502.451L227.899 470.414Z" fill="#414141"/>
<path d="M200.524 454.613L201.225 455.826L145.737 487.863L145.037 486.649L200.524 454.613Z" fill="#414141"/>
<path d="M200.53 658.761L201.23 657.535L71.6394 582.688C59.5518 575.725 52.8949 566.484 52.8949 556.63C52.8949 546.819 59.5518 537.579 71.6394 530.615L97.0408 515.944L96.3401 514.717L70.9387 529.389C58.4131 536.615 51.4934 546.294 51.4934 556.63C51.4934 566.965 58.4131 576.644 70.9387 583.87L200.53 658.761Z" fill="#414141"/>
<path d="M214.194 462.502L214.895 463.716L159.407 495.752L158.707 494.539L214.194 462.502Z" fill="#414141"/>
<path d="M214.196 650.876L214.896 649.65L85.3054 574.803C76.8528 569.942 72.2105 563.46 72.2105 556.672C72.2105 549.84 76.8528 543.402 85.3054 538.54L110.707 523.869L110.006 522.643L84.6047 537.314C75.7142 542.438 70.8091 549.314 70.8091 556.672C70.8091 564.029 75.7142 570.905 84.6047 576.029L214.196 650.876Z" fill="#414141"/>
<path d="M430.808 776C447.626 776 464.487 772.277 477.319 764.876L502.721 750.204L502.02 748.978L476.619 763.649C451.348 778.233 410.268 778.233 385.042 763.649L255.451 688.803L254.75 690.029L384.341 764.876C397.13 772.277 413.991 776 430.808 776Z" fill="#414141"/>
<path d="M606.217 688.821L606.918 690.035L551.431 722.071L550.73 720.857L606.217 688.821Z" fill="#414141"/>
<path d="M578.864 673.056L579.564 674.27L524.077 706.306L523.377 705.093L578.864 673.056Z" fill="#414141"/>
<path d="M430.81 753.665C437.729 753.665 444.693 752.132 449.948 749.11L475.35 734.439L474.649 733.212L449.247 747.884C439.087 753.752 422.532 753.752 412.328 747.884L282.737 673.037L282.036 674.263L411.627 749.11C416.926 752.132 423.89 753.665 430.81 753.665Z" fill="#414141"/>
<path d="M430.814 764.832C442.683 764.832 454.595 762.205 463.661 756.993L489.062 742.321L488.362 741.095L462.96 755.767C445.267 765.971 416.406 765.971 398.712 755.767L269.121 680.92L268.42 682.146L397.968 756.993C407.033 762.205 418.946 764.832 430.814 764.832Z" fill="#414141"/>
<path d="M592.541 680.945L593.242 682.158L537.755 714.195L537.054 712.981L592.541 680.945Z" fill="#414141"/>
<path d="M715.909 625.524L716.609 626.738L661.122 658.774L660.422 657.561L715.909 625.524Z" fill="#414141"/>
<path d="M765.278 598.63L790.68 583.959C803.205 576.732 810.125 567.054 810.125 556.718C810.125 546.382 803.205 536.703 790.68 529.477L661.089 454.63L660.388 455.857L790.023 530.659C802.11 537.623 808.767 546.864 808.767 556.674C808.767 566.484 802.11 575.725 790.023 582.732L764.621 597.404L765.278 598.63Z" fill="#414141"/>
<path d="M737.951 582.818L763.352 568.147C768.608 565.125 771.498 561.052 771.498 556.672C771.498 552.293 768.608 548.22 763.352 545.198L633.761 470.351L633.06 471.577L762.651 546.424C767.425 549.183 770.097 552.818 770.097 556.672C770.097 560.526 767.469 564.161 762.651 566.92L737.25 581.592L737.951 582.818Z" fill="#414141"/>
<path d="M688.541 609.723L689.242 610.937L633.755 642.973L633.054 641.759L688.541 609.723Z" fill="#414141"/>
<path d="M702.231 617.643L702.932 618.856L647.445 650.893L646.744 649.679L702.231 617.643Z" fill="#414141"/>
<path d="M751.619 590.744L777.021 576.073C785.911 570.949 790.816 564.073 790.816 556.715C790.816 549.357 785.911 542.481 777.021 537.357L647.43 462.511L646.729 463.737L776.32 538.54C784.773 543.401 789.415 549.883 789.415 556.671C789.415 563.503 784.773 569.941 776.32 574.803L750.919 589.474L751.619 590.744Z" fill="#414141"/>
<path d="M631.789 643.344C630.87 642.818 630.87 641.986 631.789 641.461C632.709 640.935 634.198 640.935 635.074 641.461C635.994 641.986 635.994 642.818 635.074 643.344C634.154 643.869 632.665 643.869 631.789 643.344Z" fill="#12FF3C"/>
<path d="M662.406 657.228C663.326 657.753 663.326 658.585 662.406 659.111C661.486 659.636 660.041 659.636 659.121 659.111C658.202 658.585 658.202 657.753 659.121 657.228C660.041 656.702 661.486 656.702 662.406 657.228Z" fill="#12FF3C"/>
<path d="M648.736 649.3C649.656 649.825 649.656 650.658 648.736 651.183C647.816 651.709 646.371 651.709 645.451 651.183C644.532 650.658 644.532 649.825 645.451 649.3C646.327 648.774 647.816 648.774 648.736 649.3Z" fill="#12FF3C"/>
<path d="M580.853 672.732C581.773 673.257 581.773 674.089 580.853 674.615C579.933 675.14 578.444 675.14 577.569 674.615C576.649 674.089 576.649 673.257 577.569 672.732C578.488 672.206 579.933 672.206 580.853 672.732Z" fill="#12FF3C"/>
<path d="M608.181 688.497C609.101 689.022 609.101 689.854 608.181 690.38C607.262 690.905 605.816 690.905 604.897 690.38C603.977 689.854 603.977 689.022 604.897 688.497C605.816 687.971 607.305 687.971 608.181 688.497Z" fill="#12FF3C"/>
<path d="M594.519 680.614C595.439 681.14 595.439 681.972 594.519 682.498C593.599 683.023 592.154 683.023 591.235 682.498C590.315 681.972 590.315 681.14 591.235 680.614C592.154 680.089 593.643 680.089 594.519 680.614Z" fill="#12FF3C"/>
<path d="M241.618 479.592L297.238 447.49L241.618 415.388L185.998 447.49L241.618 479.592ZM294.435 447.49L241.618 477.972L188.8 447.49L241.618 416.965L294.435 447.49Z" fill="#414141"/>
<path d="M253.436 424.892C252.516 424.367 252.516 423.534 253.436 423.009C254.355 422.483 255.801 422.483 256.72 423.009C257.64 423.534 257.64 424.367 256.72 424.892C255.801 425.418 254.312 425.418 253.436 424.892Z" fill="#12FF3C"/>
<path d="M284.05 438.776C284.97 439.301 284.97 440.133 284.05 440.659C283.131 441.184 281.642 441.184 280.766 440.659C279.846 440.133 279.846 439.301 280.766 438.776C281.685 438.25 283.131 438.25 284.05 438.776Z" fill="#12FF3C"/>
<path d="M270.39 430.892C271.31 431.418 271.31 432.25 270.39 432.775C269.471 433.301 268.025 433.301 267.106 432.775C266.186 432.25 266.186 431.418 267.106 430.892C267.982 430.367 269.471 430.323 270.39 430.892Z" fill="#12FF3C"/>
<path d="M202.507 454.278C203.427 454.803 203.427 455.636 202.507 456.161C201.588 456.687 200.143 456.687 199.223 456.161C198.303 455.636 198.303 454.803 199.223 454.278C200.143 453.752 201.588 453.752 202.507 454.278Z" fill="#12FF3C"/>
<path d="M229.836 470.045C230.755 470.571 230.755 471.403 229.836 471.928C228.916 472.454 227.471 472.454 226.551 471.928C225.631 471.403 225.631 470.571 226.551 470.045C227.471 469.519 228.96 469.519 229.836 470.045Z" fill="#12FF3C"/>
<path d="M216.168 462.162C217.087 462.688 217.087 463.52 216.168 464.045C215.248 464.571 213.803 464.571 212.883 464.045C211.963 463.52 211.963 462.688 212.883 462.162C213.803 461.637 215.292 461.637 216.168 462.162Z" fill="#12FF3C"/>
<path d="M348.569 417.841L404.189 385.738L348.569 353.636L292.949 385.738L348.569 417.841ZM401.387 385.738L348.569 416.22L295.752 385.738L348.569 355.257L401.387 385.738Z" fill="#414141"/>
<path d="M360.348 363.141C359.428 362.615 359.428 361.783 360.348 361.257C361.268 360.732 362.757 360.732 363.632 361.257C364.552 361.783 364.552 362.615 363.632 363.141C362.757 363.666 361.268 363.666 360.348 363.141Z" fill="#12FF3C"/>
<path d="M391.004 377.022C391.923 377.548 391.923 378.38 391.004 378.905C390.084 379.431 388.639 379.431 387.719 378.905C386.799 378.38 386.799 377.548 387.719 377.022C388.595 376.497 390.084 376.497 391.004 377.022Z" fill="#12FF3C"/>
<path d="M377.295 369.14C378.214 369.666 378.214 370.498 377.295 371.023C376.375 371.549 374.93 371.549 374.01 371.023C373.09 370.498 373.09 369.666 374.01 369.14C374.93 368.615 376.419 368.615 377.295 369.14Z" fill="#12FF3C"/>
<path d="M309.457 392.527C310.376 393.053 310.376 393.885 309.457 394.41C308.537 394.936 307.092 394.936 306.172 394.41C305.252 393.885 305.252 393.053 306.172 392.527C307.048 392.001 308.537 392.001 309.457 392.527Z" fill="#12FF3C"/>
<path d="M336.789 408.336C337.708 408.862 337.708 409.694 336.789 410.219C335.869 410.745 334.424 410.745 333.504 410.219C332.584 409.694 332.584 408.862 333.504 408.336C334.38 407.811 335.869 407.811 336.789 408.336Z" fill="#12FF3C"/>
<path d="M323.121 400.41C324.04 400.935 324.04 401.767 323.121 402.293C322.201 402.819 320.756 402.819 319.836 402.293C318.916 401.767 318.916 400.935 319.836 400.41C320.712 399.884 322.201 399.884 323.121 400.41Z" fill="#12FF3C"/>
<path d="M134.706 541.3L190.326 509.198L134.706 477.096L79.0854 509.198L134.706 541.3ZM187.523 509.198L134.706 539.68L81.8884 509.198L134.706 478.717L187.523 509.198Z" fill="#414141"/>
<path d="M146.49 486.6C145.571 486.075 145.571 485.242 146.49 484.717C147.41 484.191 148.855 484.191 149.775 484.717C150.695 485.242 150.695 486.075 149.775 486.6C148.899 487.126 147.41 487.126 146.49 486.6Z" fill="#12FF3C"/>
<path d="M177.146 500.484C178.066 501.009 178.066 501.841 177.146 502.367C176.226 502.892 174.781 502.892 173.861 502.367C172.942 501.841 172.942 501.009 173.861 500.484C174.737 499.958 176.226 499.958 177.146 500.484Z" fill="#12FF3C"/>
<path d="M163.437 492.6C164.357 493.125 164.357 493.957 163.437 494.483C162.517 495.009 161.072 495.009 160.153 494.483C159.233 493.957 159.233 493.125 160.153 492.6C161.072 492.074 162.561 492.074 163.437 492.6Z" fill="#12FF3C"/>
<path d="M95.6012 515.986C96.5209 516.512 96.5209 517.344 95.6012 517.87C94.6815 518.395 93.2363 518.395 92.3166 517.87C91.3969 517.344 91.3969 516.512 92.3166 515.986C93.1925 515.461 94.6815 515.461 95.6012 515.986Z" fill="#12FF3C"/>
<path d="M122.927 531.798C123.847 532.324 123.847 533.156 122.927 533.681C122.008 534.207 120.562 534.207 119.643 533.681C118.723 533.156 118.723 532.324 119.643 531.798C120.519 531.272 122.008 531.272 122.927 531.798Z" fill="#12FF3C"/>
<path d="M109.261 523.914C110.181 524.439 110.181 525.271 109.261 525.797C108.342 526.322 106.896 526.322 105.977 525.797C105.057 525.271 105.057 524.439 105.977 523.914C106.853 523.388 108.342 523.388 109.261 523.914Z" fill="#12FF3C"/>
<path d="M726.905 636.293L782.525 604.191L726.905 572.088L671.285 604.191L726.905 636.293ZM779.722 604.191L726.905 634.672L674.088 604.191L726.905 573.709L779.722 604.191Z" fill="#414141"/>
<path d="M738.686 581.592C737.766 581.066 737.766 580.234 738.686 579.709C739.605 579.183 741.051 579.183 741.97 579.709C742.89 580.234 742.89 581.066 741.97 581.592C741.094 582.117 739.605 582.117 738.686 581.592Z" fill="#12FF3C"/>
<path d="M769.345 595.474C770.265 596 770.265 596.832 769.345 597.357C768.426 597.883 766.98 597.883 766.061 597.357C765.141 596.832 765.141 596 766.061 595.474C766.937 594.949 768.426 594.949 769.345 595.474Z" fill="#12FF3C"/>
<path d="M755.64 587.592C756.56 588.117 756.56 588.95 755.64 589.475C754.721 590.001 753.275 590.001 752.356 589.475C751.436 588.95 751.436 588.117 752.356 587.592C753.275 587.066 754.764 587.066 755.64 587.592Z" fill="#12FF3C"/>
<path d="M687.797 610.979C688.716 611.505 688.716 612.337 687.797 612.862C686.877 613.388 685.388 613.388 684.512 612.862C683.592 612.337 683.592 611.505 684.512 610.979C685.388 610.454 686.877 610.454 687.797 610.979Z" fill="#12FF3C"/>
<path d="M715.127 626.788C716.046 627.314 716.046 628.146 715.127 628.671C714.207 629.197 712.762 629.197 711.842 628.671C710.922 628.146 710.922 627.314 711.842 626.788C712.718 626.263 714.207 626.263 715.127 626.788Z" fill="#12FF3C"/>
<path d="M701.461 618.862C702.38 619.387 702.38 620.22 701.461 620.745C700.541 621.271 699.096 621.271 698.176 620.745C697.256 620.22 697.256 619.387 698.176 618.862C699.052 618.336 700.541 618.336 701.461 618.862Z" fill="#12FF3C"/>
<path d="M513.055 759.751L568.676 727.649L513.055 695.547L457.435 727.649L513.055 759.751ZM565.873 727.649L513.055 758.131L460.238 727.649L513.055 697.167L565.873 727.649Z" fill="#414141"/>
<path d="M524.84 705.052C523.92 704.526 523.92 703.694 524.84 703.169C525.76 702.643 527.249 702.643 528.125 703.169C529.044 703.694 529.044 704.526 528.125 705.052C527.249 705.577 525.76 705.577 524.84 705.052Z" fill="#12FF3C"/>
<path d="M555.494 718.934C556.414 719.46 556.414 720.292 555.494 720.817C554.574 721.343 553.129 721.343 552.209 720.817C551.289 720.292 551.289 719.46 552.209 718.934C553.085 718.409 554.574 718.409 555.494 718.934Z" fill="#12FF3C"/>
<path d="M541.787 711.05C542.706 711.576 542.706 712.408 541.787 712.934C540.867 713.459 539.422 713.459 538.502 712.934C537.582 712.408 537.582 711.576 538.502 711.05C539.422 710.525 540.911 710.525 541.787 711.05Z" fill="#12FF3C"/>
<path d="M473.949 734.438C474.869 734.964 474.869 735.796 473.949 736.321C473.029 736.847 471.584 736.847 470.664 736.321C469.745 735.796 469.745 734.964 470.664 734.438C471.54 733.913 473.029 733.913 473.949 734.438Z" fill="#12FF3C"/>
<path d="M501.275 750.248C502.195 750.773 502.195 751.605 501.275 752.131C500.355 752.656 498.91 752.656 497.99 752.131C497.071 751.605 497.071 750.773 497.99 750.248C498.866 749.722 500.355 749.722 501.275 750.248Z" fill="#12FF3C"/>
<path d="M487.609 742.364C488.529 742.89 488.529 743.722 487.609 744.248C486.689 744.773 485.244 744.773 484.324 744.248C483.405 743.722 483.405 742.89 484.324 742.364C485.2 741.839 486.689 741.839 487.609 742.364Z" fill="#12FF3C"/>
<path d="M280.768 672.732C281.687 672.206 283.133 672.206 284.052 672.732C284.972 673.257 284.972 674.089 284.052 674.615C283.133 675.14 281.687 675.14 280.768 674.615C279.848 674.089 279.848 673.257 280.768 672.732Z" fill="#12FF3C"/>
<path d="M256.722 690.425C255.803 690.95 254.314 690.95 253.438 690.425C252.518 689.899 252.518 689.067 253.438 688.542C254.357 688.016 255.803 688.016 256.722 688.542C257.642 689.023 257.642 689.899 256.722 690.425Z" fill="#12FF3C"/>
<path d="M270.392 682.498C269.473 683.023 268.027 683.023 267.108 682.498C266.188 681.972 266.188 681.14 267.108 680.614C268.027 680.089 269.473 680.089 270.392 680.614C271.312 681.14 271.312 681.972 270.392 682.498Z" fill="#12FF3C"/>
<path d="M229.832 643.344C228.912 643.869 227.467 643.869 226.547 643.344C225.627 642.818 225.627 641.986 226.547 641.461C227.467 640.935 228.956 640.935 229.832 641.461C230.751 641.942 230.751 642.818 229.832 643.344Z" fill="#12FF3C"/>
<path d="M202.507 659.111C201.588 659.636 200.143 659.636 199.223 659.111C198.303 658.585 198.303 657.753 199.223 657.228C200.143 656.702 201.588 656.702 202.507 657.228C203.427 657.753 203.427 658.585 202.507 659.111Z" fill="#12FF3C"/>
<path d="M216.17 651.228C215.25 651.754 213.805 651.754 212.885 651.228C211.965 650.703 211.965 649.87 212.885 649.345C213.805 648.819 215.25 648.819 216.17 649.345C217.089 649.827 217.089 650.703 216.17 651.228Z" fill="#12FF3C"/>
<path d="M659.121 454.278C660.041 453.753 661.486 453.753 662.406 454.278C663.326 454.804 663.326 455.636 662.406 456.162C661.486 456.687 660.041 456.687 659.121 456.162C658.202 455.636 658.202 454.804 659.121 454.278Z" fill="#12FF3C"/>
<path d="M635.074 471.972C634.154 472.497 632.665 472.497 631.789 471.972C630.87 471.446 630.87 470.614 631.789 470.088C632.709 469.563 634.198 469.563 635.074 470.088C635.994 470.57 635.994 471.446 635.074 471.972Z" fill="#12FF3C"/>
<path d="M648.736 464.088C647.816 464.614 646.327 464.614 645.451 464.088C644.532 463.563 644.532 462.731 645.451 462.205C646.371 461.68 647.816 461.68 648.736 462.205C649.656 462.687 649.656 463.563 648.736 464.088Z" fill="#12FF3C"/>
<path d="M608.181 424.892C607.262 425.418 605.773 425.418 604.897 424.892C603.977 424.367 603.977 423.534 604.897 423.009C605.816 422.483 607.262 422.483 608.181 423.009C609.101 423.491 609.101 424.367 608.181 424.892Z" fill="#12FF3C"/>
<path d="M580.856 440.658C579.936 441.183 578.447 441.183 577.571 440.658C576.651 440.132 576.651 439.3 577.571 438.775C578.491 438.249 579.98 438.249 580.856 438.775C581.732 439.3 581.776 440.132 580.856 440.658Z" fill="#12FF3C"/>
<path d="M594.519 432.775C593.599 433.3 592.11 433.3 591.235 432.775C590.315 432.249 590.315 431.417 591.235 430.892C592.154 430.366 593.599 430.366 594.519 430.892C595.439 431.417 595.439 432.249 594.519 432.775Z" fill="#12FF3C"/>
<path d="M203.844 404.365L239.097 383.628L274.349 403.328L239.097 424.065L203.844 404.365Z" fill="url(#paint0_linear_2612_21761)"/>
<path d="M213.248 403.976L238.975 388.898L264.703 403.222L238.975 418.301L213.248 403.976Z" fill="url(#paint1_radial_2612_21761)"/>
<path d="M203.844 404.366V445.84L239.097 466.577V424.066L203.844 404.366Z" fill="url(#paint2_linear_2612_21761)"/>
<path d="M239.096 424.065L274.349 403.328V445.009L239.096 466.576V424.065Z" fill="url(#paint3_linear_2612_21761)"/>
<path opacity="0.16" fill-rule="evenodd" clip-rule="evenodd" d="M238.973 424.733L204.058 405.437L105.9 245.56H381.552L273.89 404.518L238.973 424.733Z" fill="url(#paint4_linear_2612_21761)" fill-opacity="0.84"/>
<path d="M430.387 451.191L634.801 569.536L634.801 347.191L430.387 228.846L430.387 451.191Z" fill="url(#paint5_linear_2612_21761)"/>
<path d="M593.174 406.066L628.427 385.329L663.68 405.029L628.427 425.766L593.174 406.066Z" fill="url(#paint6_linear_2612_21761)"/>
<path d="M602.578 405.677L628.306 390.599L654.033 404.923L628.306 420.001L602.578 405.677Z" fill="url(#paint7_radial_2612_21761)"/>
<path d="M593.174 406.066V447.54L628.427 468.277V425.767L593.174 406.066Z" fill="url(#paint8_linear_2612_21761)"/>
<path d="M628.426 425.765L663.679 405.028V446.71L628.426 468.276V425.765Z" fill="url(#paint9_linear_2612_21761)"/>
<path opacity="0.16" fill-rule="evenodd" clip-rule="evenodd" d="M628.303 426.433L593.388 407.138L495.23 247.26H770.882L663.22 406.219L628.303 426.433Z" fill="url(#paint10_linear_2612_21761)" fill-opacity="0.84"/>
<path d="M430.387 450.904L225.973 569.248L225.973 346.903L430.387 228.559L430.387 450.904Z" fill="url(#paint11_linear_2612_21761)"/>
<circle cx="290.097" cy="161.136" r="37.9857" fill="url(#paint12_radial_2612_21761)"/>
<circle cx="290.516" cy="161.554" r="33.0591" stroke="#0E0E0E" stroke-linejoin="bevel" stroke-dasharray="1 1"/>
<path d="M299.691 145.691H280.496V149.475H292.846L280.496 157.175V157.697V161.455V176.58H283.844V166.897L296.285 176.58H299.698V174.316V157.697H286.797L299.691 149.423V145.691ZM296.285 161.455L296.291 171.55L283.844 161.468V161.455H296.285Z" fill="white"/>
<circle cx="514.768" cy="239.592" r="20.9843" transform="rotate(-17.5546 514.768 239.592)" fill="url(#paint13_radial_2612_21761)"/>
<circle cx="515.056" cy="239.743" r="18.4866" transform="rotate(-17.5546 515.056 239.743)" stroke="#0E0E0E" stroke-linejoin="bevel" stroke-dasharray="1 1"/>
<path d="M517.247 229.859L507.137 233.057L507.767 235.05L514.272 232.993L509.05 239.106L509.137 239.381L509.763 241.36L512.284 249.327L514.047 248.769L512.434 243.669L520.599 246.696L522.397 246.127L522.02 244.935L519.251 236.181L512.456 238.331L517.869 231.825L517.247 229.859ZM518.079 238.73L519.765 244.045L511.529 240.809L511.527 240.802L518.079 238.73Z" fill="white"/>
<path d="M225.973 346.9L430.387 465.245L430.387 687.59L225.973 569.245L225.973 346.9Z" fill="url(#paint14_linear_2612_21761)"/>
<path d="M430.387 465.244L634.801 346.899L634.801 569.245L430.387 687.589L430.387 465.244Z" fill="url(#paint15_linear_2612_21761)"/>
<path fill-rule="evenodd" clip-rule="evenodd" d="M634.801 368.417L634.801 361.244L430.387 479.589L430.387 486.762L634.801 368.417ZM634.801 375.589L430.387 493.934L430.387 501.106L634.801 382.762L634.801 375.589ZM430.387 515.451L430.387 508.279L634.801 389.934L634.801 397.106L430.387 515.451ZM430.387 522.624L430.387 529.796L634.801 411.451L634.801 404.279L430.387 522.624ZM430.387 544.141L430.387 536.969L634.801 418.624L634.801 425.796L430.387 544.141ZM430.387 551.313L430.387 558.486L634.801 440.141L634.801 432.969L430.387 551.313ZM430.387 572.831L430.387 565.658L634.801 447.313L634.801 454.486L430.387 572.831ZM430.387 580.003L430.387 587.175L634.801 468.831L634.801 461.658L430.387 580.003ZM430.387 601.52L430.387 594.348L634.801 476.003L634.801 483.175L430.387 601.52ZM430.387 608.693L430.387 615.865L634.801 497.52L634.801 490.348L430.387 608.693ZM430.387 630.21L430.387 623.038L634.801 504.693L634.801 511.865L430.387 630.21ZM430.387 637.382L430.387 644.555L634.801 526.21L634.801 519.038L430.387 637.382ZM430.387 658.9L430.387 651.727L634.801 533.382L634.801 540.555L430.387 658.9ZM430.387 666.072L430.387 673.245L634.801 554.9L634.801 547.727L430.387 666.072ZM430.387 687.589L430.387 680.417L634.801 562.072L634.801 569.245L430.387 687.589ZM634.801 346.899L634.801 354.072L430.387 472.417L430.387 465.244L634.801 346.899Z" fill="url(#paint16_linear_2612_21761)"/>
<path d="M480.967 684.886L516.22 664.149L551.473 683.85L516.22 704.587L480.967 684.886Z" fill="url(#paint17_linear_2612_21761)"/>
<path d="M490.371 684.498L516.099 669.419L541.826 683.744L516.099 698.822L490.371 684.498Z" fill="url(#paint18_radial_2612_21761)"/>
<path d="M480.967 684.888V726.362L516.22 747.099V704.588L480.967 684.888Z" fill="url(#paint19_linear_2612_21761)"/>
<path d="M516.219 704.587L551.472 683.85V725.531L516.219 747.098V704.587Z" fill="url(#paint20_linear_2612_21761)"/>
<path opacity="0.16" fill-rule="evenodd" clip-rule="evenodd" d="M516.096 705.254L481.181 685.959L383.023 526.081H658.675L551.013 685.04L516.096 705.254Z" fill="url(#paint21_linear_2612_21761)" fill-opacity="0.84"/>
<path d="M586.375 625.382L621.628 604.646L656.881 624.346L621.628 645.083L586.375 625.382Z" fill="url(#paint22_linear_2612_21761)"/>
<path d="M595.779 624.994L621.507 609.916L647.234 624.24L621.507 639.318L595.779 624.994Z" fill="url(#paint23_radial_2612_21761)"/>
<path d="M586.375 625.384V666.858L621.628 687.595V645.084L586.375 625.384Z" fill="url(#paint24_linear_2612_21761)"/>
<path d="M621.627 645.083L656.88 624.346V666.028L621.627 687.594V645.083Z" fill="url(#paint25_linear_2612_21761)"/>
<path opacity="0.16" fill-rule="evenodd" clip-rule="evenodd" d="M621.505 645.75L586.589 626.455L488.432 466.577H764.083L656.421 625.536L621.505 645.75Z" fill="url(#paint26_linear_2612_21761)" fill-opacity="0.84"/>
<path d="M691.783 567.578L727.036 546.841L762.289 566.541L727.036 587.278L691.783 567.578Z" fill="url(#paint27_linear_2612_21761)"/>
<path d="M701.188 567.19L726.915 552.111L752.642 566.436L726.915 581.514L701.188 567.19Z" fill="url(#paint28_radial_2612_21761)"/>
<path d="M691.783 567.58V609.054L727.036 629.791V587.28L691.783 567.58Z" fill="url(#paint29_linear_2612_21761)"/>
<path d="M727.035 587.279L762.288 566.542V608.223L727.035 629.79V587.279Z" fill="url(#paint30_linear_2612_21761)"/>
<path opacity="0.16" fill-rule="evenodd" clip-rule="evenodd" d="M726.913 587.946L691.997 568.651L593.84 408.773H869.491L761.829 567.732L726.913 587.946Z" fill="url(#paint31_linear_2612_21761)" fill-opacity="0.84"/>
<path d="M205.541 625.382L240.794 604.646L276.047 624.346L240.794 645.083L205.541 625.382Z" fill="url(#paint32_linear_2612_21761)"/>
<path d="M214.943 624.994L240.671 609.916L266.398 624.24L240.671 639.318L214.943 624.994Z" fill="url(#paint33_radial_2612_21761)"/>
<path d="M205.541 625.384V666.858L240.794 687.595V645.084L205.541 625.384Z" fill="url(#paint34_linear_2612_21761)"/>
<path d="M240.793 645.083L276.046 624.346V666.028L240.793 687.594V645.083Z" fill="url(#paint35_linear_2612_21761)"/>
<path opacity="0.16" fill-rule="evenodd" clip-rule="evenodd" d="M240.671 645.75L205.755 626.455L107.598 466.577H383.249L275.587 625.536L240.671 645.75Z" fill="url(#paint36_linear_2612_21761)" fill-opacity="0.84"/>
<path d="M98.4375 467.269L133.69 446.532L168.943 466.232L133.69 486.969L98.4375 467.269Z" fill="url(#paint37_linear_2612_21761)"/>
<path d="M107.842 466.881L133.569 451.802L159.297 466.127L133.569 481.205L107.842 466.881Z" fill="url(#paint38_radial_2612_21761)"/>
<path d="M98.4375 467.271V508.744L133.69 529.481V486.971L98.4375 467.271Z" fill="url(#paint39_linear_2612_21761)"/>
<path d="M133.689 486.97L168.942 466.233V507.914L133.689 529.481V486.97Z" fill="url(#paint40_linear_2612_21761)"/>
<path opacity="0.16" fill-rule="evenodd" clip-rule="evenodd" d="M133.567 487.637L98.6518 468.342L0.494141 308.464H276.145L168.483 467.423L133.567 487.637Z" fill="url(#paint41_linear_2612_21761)" fill-opacity="0.84"/>
<circle cx="497.224" cy="123.446" r="34.5" transform="rotate(-12.3896 497.224 123.446)" fill="url(#paint42_linear_2612_21761)"/>
<path d="M502.719 107.876L485.691 111.617L486.429 114.974L497.384 112.567L487.929 121.804L488.031 122.267L488.763 125.601L491.711 139.018L494.681 138.366L492.794 129.776L505.717 135.942L508.744 135.276L508.303 133.268L505.064 118.525L493.621 121.039L503.446 111.187L502.719 107.876ZM502.769 122.524L504.742 131.478L491.736 124.96L491.733 124.949L502.769 122.524Z" fill="#12FF3C"/>
<path d="M225.758 348.295L431.474 466.454L633.79 347.445" stroke="url(#paint43_radial_2612_21761)" stroke-width="2"/>
<g opacity="0.5">
<path d="M223.359 347.325L429.075 468.885V0.498047H86.498L223.359 347.325Z" fill="url(#paint44_linear_2612_21761)" fill-opacity="0.84"/>
<path d="M634.791 347.325L429.075 468.885V0.498047H771.651L634.791 347.325Z" fill="url(#paint45_linear_2612_21761)" fill-opacity="0.84"/>
</g>
<circle cx="506.928" cy="321.86" r="35.1823" transform="rotate(21.7027 506.928 321.86)" fill="url(#paint46_linear_2612_21761)"/>
<path d="M520.475 311.856L503.957 305.282L502.661 308.538L513.288 312.768L500.024 315.164L499.845 315.613L498.558 318.848L493.377 331.863L496.259 333.01L499.575 324.677L506.964 337.271L509.901 338.44L510.677 336.492L516.369 322.19L505.267 317.772L519.197 315.068L520.475 311.856ZM512.145 324.255L508.693 332.944L501.434 320.006L501.439 319.994L512.145 324.255Z" fill="#12FF3C"/>
<circle cx="397.564" cy="353.609" r="62.0548" transform="rotate(-14.6703 397.564 353.609)" fill="url(#paint47_radial_2612_21761)"/>
<circle cx="398.399" cy="354.096" r="53.6899" transform="rotate(-14.6703 398.399 354.096)" stroke="#0E0E0E" stroke-linejoin="bevel" stroke-dasharray="1 1"/>
<path d="M406.337 325.232L376.002 333.173L377.568 339.154L397.085 334.045L380.753 351.322L380.969 352.147L382.524 358.087L388.782 381.99L394.073 380.605L390.067 365.302L413.734 375.458L419.128 374.046L418.191 370.468L411.315 344.203L390.928 349.54L407.882 331.13L406.337 325.232ZM407.476 351.555L411.663 367.505L387.821 356.723L387.815 356.702L407.476 351.555Z" fill="white"/>
<circle cx="425.277" cy="201.11" r="26.7147" transform="rotate(18.3156 425.277 201.11)" fill="url(#paint48_linear_2612_21761)"/>
<path d="M435.097 192.919L422.281 188.677L421.445 191.204L429.69 193.933L419.743 196.344L419.628 196.693L418.797 199.202L415.454 209.3L417.69 210.04L419.83 203.575L425.996 212.79L428.274 213.544L428.775 212.032L432.448 200.936L423.835 198.085L434.272 195.411L435.097 192.919ZM429.339 202.691L427.112 209.432L421.03 199.951L421.033 199.942L429.339 202.691Z" fill="white"/>
<circle cx="473.761" cy="416.206" r="15.3018" transform="rotate(18.3156 473.761 416.206)" fill="url(#paint49_linear_2612_21761)"/>
<path d="M479.388 411.515L472.047 409.085L471.568 410.532L476.291 412.096L470.593 413.477L470.527 413.676L470.051 415.114L468.137 420.898L469.417 421.322L470.643 417.619L474.175 422.897L475.48 423.329L475.766 422.463L477.87 416.107L472.937 414.474L478.915 412.942L479.388 411.515ZM476.089 417.112L474.814 420.973L471.33 415.543L471.332 415.538L476.089 417.112Z" fill="white"/>
<circle cx="325.268" cy="272.814" r="24.7638" transform="rotate(6.0981 325.268 272.814)" fill="url(#paint50_linear_2612_21761)"/>
<path d="M332.552 263.466L320.109 262.137L319.847 264.59L327.853 265.445L319.314 269.581L319.278 269.919L319.018 272.356L317.97 282.16L320.141 282.392L320.811 276.115L328.205 283.254L330.417 283.49L330.574 282.022L331.725 271.249L323.363 270.356L332.294 265.885L332.552 263.466ZM329.252 273.449L328.558 279.993L321.187 272.596L321.188 272.588L329.252 273.449Z" fill="#12FF3C"/>
<defs>
<linearGradient id="paint0_linear_2612_21761" x1="280.901" y1="387.426" x2="260.935" y2="426.175" gradientUnits="userSpaceOnUse">
<stop stop-color="#2C2C2C"/>
<stop offset="0.758014" stop-color="#151515"/>
</linearGradient>
<radialGradient id="paint1_radial_2612_21761" cx="0" cy="0" r="1" gradientUnits="userSpaceOnUse" gradientTransform="translate(226.527 389.846) rotate(66.3706) scale(31.0583 48.4714)">
<stop stop-color="#12FF3C"/>
<stop offset="1" stop-color="#064511"/>
</radialGradient>
<linearGradient id="paint2_linear_2612_21761" x1="221.47" y1="404.366" x2="235.016" y2="464.738" gradientUnits="userSpaceOnUse">
<stop stop-color="#3D3D3D"/>
<stop offset="0.951389" stop-color="#151515"/>
</linearGradient>
<linearGradient id="paint3_linear_2612_21761" x1="277.624" y1="409.269" x2="243.265" y2="430.586" gradientUnits="userSpaceOnUse">
<stop stop-color="#2C2C2C"/>
<stop offset="0.758014" stop-color="#151515"/>
</linearGradient>
<linearGradient id="paint4_linear_2612_21761" x1="247.146" y1="446.195" x2="247.146" y2="277.102" gradientUnits="userSpaceOnUse">
<stop offset="0.0295137" stop-color="#E7FFEB" stop-opacity="0"/>
<stop offset="0.612847" stop-color="#F0FFF3" stop-opacity="0.23"/>
<stop offset="1" stop-color="#D9D9D9" stop-opacity="0"/>
<stop offset="1" stop-color="#DDFFE3"/>
</linearGradient>
<linearGradient id="paint5_linear_2612_21761" x1="511.23" y1="258.355" x2="328.272" y2="390.11" gradientUnits="userSpaceOnUse">
<stop offset="0.0564335" stop-color="#313131"/>
<stop offset="0.473121"/>
</linearGradient>
<linearGradient id="paint6_linear_2612_21761" x1="670.231" y1="389.127" x2="650.265" y2="427.875" gradientUnits="userSpaceOnUse">
<stop stop-color="#2C2C2C"/>
<stop offset="0.758014" stop-color="#151515"/>
</linearGradient>
<radialGradient id="paint7_radial_2612_21761" cx="0" cy="0" r="1" gradientUnits="userSpaceOnUse" gradientTransform="translate(615.857 391.547) rotate(66.3706) scale(31.0583 48.4714)">
<stop stop-color="#12FF3C"/>
<stop offset="1" stop-color="#064511"/>
</radialGradient>
<linearGradient id="paint8_linear_2612_21761" x1="610.8" y1="406.066" x2="624.346" y2="466.439" gradientUnits="userSpaceOnUse">
<stop stop-color="#3D3D3D"/>
<stop offset="0.951389" stop-color="#151515"/>
</linearGradient>
<linearGradient id="paint9_linear_2612_21761" x1="666.954" y1="410.969" x2="632.596" y2="432.286" gradientUnits="userSpaceOnUse">
<stop stop-color="#2C2C2C"/>
<stop offset="0.758014" stop-color="#151515"/>
</linearGradient>
<linearGradient id="paint10_linear_2612_21761" x1="636.476" y1="447.895" x2="636.476" y2="278.803" gradientUnits="userSpaceOnUse">
<stop offset="0.0295137" stop-color="#E7FFEB" stop-opacity="0"/>
<stop offset="0.612847" stop-color="#F0FFF3" stop-opacity="0.23"/>
<stop offset="1" stop-color="#D9D9D9" stop-opacity="0"/>
<stop offset="1" stop-color="#DDFFE3"/>
</linearGradient>
<linearGradient id="paint11_linear_2612_21761" x1="349.543" y1="258.067" x2="492.019" y2="426.967" gradientUnits="userSpaceOnUse">
<stop offset="0.0564335" stop-color="#606060"/>
<stop offset="0.473121" stop-color="#1A1A1A"/>
<stop offset="0.935764" stop-color="#121312"/>
</linearGradient>
<radialGradient id="paint12_radial_2612_21761" cx="0" cy="0" r="1" gradientUnits="userSpaceOnUse" gradientTransform="translate(310.968 133.169) rotate(140.484) scale(74.1303 81.1678)">
<stop stop-color="#12FF3C"/>
<stop offset="0.515991" stop-color="#0058BF"/>
<stop offset="0.959922" stop-color="#F91690"/>
</radialGradient>
<radialGradient id="paint13_radial_2612_21761" cx="0" cy="0" r="1" gradientUnits="userSpaceOnUse" gradientTransform="translate(526.298 224.142) rotate(140.484) scale(40.9516 44.8394)">
<stop stop-color="#12FF3C"/>
<stop offset="0.515991" stop-color="#0058BF"/>
<stop offset="0.959922" stop-color="#F91690"/>
</radialGradient>
<linearGradient id="paint14_linear_2612_21761" x1="242.474" y1="286.939" x2="466.101" y2="628.065" gradientUnits="userSpaceOnUse">
<stop stop-color="#131313"/>
<stop offset="0.799458" stop-color="#111111"/>
</linearGradient>
<linearGradient id="paint15_linear_2612_21761" x1="653.794" y1="356.849" x2="555.004" y2="562.535" gradientUnits="userSpaceOnUse">
<stop stop-color="#1C1C1C"/>
<stop offset="0.81688" stop-color="#151515"/>
</linearGradient>
<linearGradient id="paint16_linear_2612_21761" x1="653.794" y1="356.849" x2="555.004" y2="562.535" gradientUnits="userSpaceOnUse">
<stop stop-color="#1C1C1C"/>
<stop offset="0.81688" stop-color="#151515"/>
</linearGradient>
<linearGradient id="paint17_linear_2612_21761" x1="558.024" y1="667.948" x2="538.058" y2="706.696" gradientUnits="userSpaceOnUse">
<stop stop-color="#2C2C2C"/>
<stop offset="0.758014" stop-color="#151515"/>
</linearGradient>
<radialGradient id="paint18_radial_2612_21761" cx="0" cy="0" r="1" gradientUnits="userSpaceOnUse" gradientTransform="translate(503.65 670.368) rotate(66.3706) scale(31.0583 48.4714)">
<stop stop-color="#12FF3C"/>
<stop offset="1" stop-color="#064511"/>
</radialGradient>
<linearGradient id="paint19_linear_2612_21761" x1="498.593" y1="684.888" x2="512.139" y2="745.26" gradientUnits="userSpaceOnUse">
<stop stop-color="#3D3D3D"/>
<stop offset="0.951389" stop-color="#151515"/>
</linearGradient>
<linearGradient id="paint20_linear_2612_21761" x1="554.747" y1="689.791" x2="520.389" y2="711.108" gradientUnits="userSpaceOnUse">
<stop stop-color="#2C2C2C"/>
<stop offset="0.758014" stop-color="#151515"/>
</linearGradient>
<linearGradient id="paint21_linear_2612_21761" x1="524.269" y1="726.716" x2="524.269" y2="557.623" gradientUnits="userSpaceOnUse">
<stop offset="0.0295137" stop-color="#E7FFEB" stop-opacity="0"/>
<stop offset="0.612847" stop-color="#F0FFF3" stop-opacity="0.23"/>
<stop offset="1" stop-color="#D9D9D9" stop-opacity="0"/>
<stop offset="1" stop-color="#DDFFE3"/>
</linearGradient>
<linearGradient id="paint22_linear_2612_21761" x1="663.432" y1="608.444" x2="643.467" y2="647.192" gradientUnits="userSpaceOnUse">
<stop stop-color="#2C2C2C"/>
<stop offset="0.758014" stop-color="#151515"/>
</linearGradient>
<radialGradient id="paint23_radial_2612_21761" cx="0" cy="0" r="1" gradientUnits="userSpaceOnUse" gradientTransform="translate(609.058 610.864) rotate(66.3706) scale(31.0583 48.4714)">
<stop stop-color="#12FF3C"/>
<stop offset="1" stop-color="#064511"/>
</radialGradient>
<linearGradient id="paint24_linear_2612_21761" x1="604.001" y1="625.384" x2="617.547" y2="685.756" gradientUnits="userSpaceOnUse">
<stop stop-color="#3D3D3D"/>
<stop offset="0.951389" stop-color="#151515"/>
</linearGradient>
<linearGradient id="paint25_linear_2612_21761" x1="660.155" y1="630.287" x2="625.797" y2="651.604" gradientUnits="userSpaceOnUse">
<stop stop-color="#2C2C2C"/>
<stop offset="0.758014" stop-color="#151515"/>
</linearGradient>
<linearGradient id="paint26_linear_2612_21761" x1="629.677" y1="667.212" x2="629.677" y2="498.119" gradientUnits="userSpaceOnUse">
<stop offset="0.0295137" stop-color="#E7FFEB" stop-opacity="0"/>
<stop offset="0.612847" stop-color="#F0FFF3" stop-opacity="0.23"/>
<stop offset="1" stop-color="#D9D9D9" stop-opacity="0"/>
<stop offset="1" stop-color="#DDFFE3"/>
</linearGradient>
<linearGradient id="paint27_linear_2612_21761" x1="768.84" y1="550.64" x2="748.875" y2="589.388" gradientUnits="userSpaceOnUse">
<stop stop-color="#2C2C2C"/>
<stop offset="0.758014" stop-color="#151515"/>
</linearGradient>
<radialGradient id="paint28_radial_2612_21761" cx="0" cy="0" r="1" gradientUnits="userSpaceOnUse" gradientTransform="translate(714.466 553.06) rotate(66.3706) scale(31.0583 48.4714)">
<stop stop-color="#12FF3C"/>
<stop offset="1" stop-color="#064511"/>
</radialGradient>
<linearGradient id="paint29_linear_2612_21761" x1="709.41" y1="567.58" x2="722.956" y2="627.952" gradientUnits="userSpaceOnUse">
<stop stop-color="#3D3D3D"/>
<stop offset="0.951389" stop-color="#151515"/>
</linearGradient>
<linearGradient id="paint30_linear_2612_21761" x1="765.564" y1="572.483" x2="731.205" y2="593.799" gradientUnits="userSpaceOnUse">
<stop stop-color="#2C2C2C"/>
<stop offset="0.758014" stop-color="#151515"/>
</linearGradient>
<linearGradient id="paint31_linear_2612_21761" x1="735.085" y1="609.408" x2="735.085" y2="440.315" gradientUnits="userSpaceOnUse">
<stop offset="0.0295137" stop-color="#E7FFEB" stop-opacity="0"/>
<stop offset="0.612847" stop-color="#F0FFF3" stop-opacity="0.23"/>
<stop offset="1" stop-color="#D9D9D9" stop-opacity="0"/>
<stop offset="1" stop-color="#DDFFE3"/>
</linearGradient>
<linearGradient id="paint32_linear_2612_21761" x1="282.598" y1="608.444" x2="262.633" y2="647.192" gradientUnits="userSpaceOnUse">
<stop stop-color="#2C2C2C"/>
<stop offset="0.758014" stop-color="#151515"/>
</linearGradient>
<radialGradient id="paint33_radial_2612_21761" cx="0" cy="0" r="1" gradientUnits="userSpaceOnUse" gradientTransform="translate(228.222 610.864) rotate(66.3706) scale(31.0583 48.4714)">
<stop stop-color="#12FF3C"/>
<stop offset="1" stop-color="#064511"/>
</radialGradient>
<linearGradient id="paint34_linear_2612_21761" x1="223.167" y1="625.384" x2="236.713" y2="685.756" gradientUnits="userSpaceOnUse">
<stop stop-color="#3D3D3D"/>
<stop offset="0.951389" stop-color="#151515"/>
</linearGradient>
<linearGradient id="paint35_linear_2612_21761" x1="279.321" y1="630.287" x2="244.963" y2="651.604" gradientUnits="userSpaceOnUse">
<stop stop-color="#2C2C2C"/>
<stop offset="0.758014" stop-color="#151515"/>
</linearGradient>
<linearGradient id="paint36_linear_2612_21761" x1="248.843" y1="667.212" x2="248.843" y2="498.119" gradientUnits="userSpaceOnUse">
<stop offset="0.0295137" stop-color="#E7FFEB" stop-opacity="0"/>
<stop offset="0.612847" stop-color="#F0FFF3" stop-opacity="0.23"/>
<stop offset="1" stop-color="#D9D9D9" stop-opacity="0"/>
<stop offset="1" stop-color="#DDFFE3"/>
</linearGradient>
<linearGradient id="paint37_linear_2612_21761" x1="175.494" y1="450.33" x2="155.529" y2="489.079" gradientUnits="userSpaceOnUse">
<stop stop-color="#2C2C2C"/>
<stop offset="0.758014" stop-color="#151515"/>
</linearGradient>
<radialGradient id="paint38_radial_2612_21761" cx="0" cy="0" r="1" gradientUnits="userSpaceOnUse" gradientTransform="translate(121.12 452.751) rotate(66.3706) scale(31.0583 48.4714)">
<stop stop-color="#12FF3C"/>
<stop offset="1" stop-color="#064511"/>
</radialGradient>
<linearGradient id="paint39_linear_2612_21761" x1="116.064" y1="467.271" x2="129.61" y2="527.643" gradientUnits="userSpaceOnUse">
<stop stop-color="#3D3D3D"/>
<stop offset="0.951389" stop-color="#151515"/>
</linearGradient>
<linearGradient id="paint40_linear_2612_21761" x1="172.218" y1="472.174" x2="137.859" y2="493.49" gradientUnits="userSpaceOnUse">
<stop stop-color="#2C2C2C"/>
<stop offset="0.758014" stop-color="#151515"/>
</linearGradient>
<linearGradient id="paint41_linear_2612_21761" x1="141.74" y1="509.099" x2="141.74" y2="340.006" gradientUnits="userSpaceOnUse">
<stop offset="0.0295137" stop-color="#E7FFEB" stop-opacity="0"/>
<stop offset="0.612847" stop-color="#F0FFF3" stop-opacity="0.23"/>
<stop offset="1" stop-color="#D9D9D9" stop-opacity="0"/>
<stop offset="1" stop-color="#DDFFE3"/>
</linearGradient>
<linearGradient id="paint42_linear_2612_21761" x1="497.224" y1="88.9456" x2="506.024" y2="158.158" gradientUnits="userSpaceOnUse">
<stop stop-color="#3D3D3D"/>
<stop offset="0.951389" stop-color="#151515"/>
</linearGradient>
<radialGradient id="paint43_radial_2612_21761" cx="0" cy="0" r="1" gradientUnits="userSpaceOnUse" gradientTransform="translate(430.624 490.256) rotate(-90) scale(153.755 527.784)">
<stop stop-color="#12FF3C"/>
<stop offset="0.894097" stop-color="#12FF3C" stop-opacity="0.34"/>
<stop offset="1" stop-color="#12FF3C" stop-opacity="0"/>
</radialGradient>
<linearGradient id="paint44_linear_2612_21761" x1="437.575" y1="524.989" x2="437.575" y2="82.9545" gradientUnits="userSpaceOnUse">
<stop offset="0.342014" stop-color="#339D46" stop-opacity="0.37"/>
<stop offset="0.612847" stop-color="#35FF59" stop-opacity="0.23"/>
<stop offset="1" stop-color="#D9D9D9" stop-opacity="0"/>
<stop offset="1" stop-color="#D7FFDE"/>
</linearGradient>
<linearGradient id="paint45_linear_2612_21761" x1="437.575" y1="524.989" x2="437.575" y2="82.9545" gradientUnits="userSpaceOnUse">
<stop offset="0.342014" stop-color="#339D46" stop-opacity="0.37"/>
<stop offset="0.612847" stop-color="#35FF59" stop-opacity="0.23"/>
<stop offset="1" stop-color="#D9D9D9" stop-opacity="0"/>
<stop offset="1" stop-color="#D7FFDE"/>
</linearGradient>
<linearGradient id="paint46_linear_2612_21761" x1="506.928" y1="286.678" x2="515.902" y2="357.259" gradientUnits="userSpaceOnUse">
<stop stop-color="#3D3D3D"/>
<stop offset="0.951389" stop-color="#151515"/>
</linearGradient>
<radialGradient id="paint47_radial_2612_21761" cx="0" cy="0" r="1" gradientUnits="userSpaceOnUse" gradientTransform="translate(431.66 307.921) rotate(140.484) scale(121.102 132.599)">
<stop stop-color="#12FF3C"/>
<stop offset="0.515991" stop-color="#0058BF"/>
<stop offset="0.959922" stop-color="#F91690"/>
</radialGradient>
<linearGradient id="paint48_linear_2612_21761" x1="401.473" y1="161.038" x2="452.362" y2="167.923" gradientUnits="userSpaceOnUse">
<stop stop-color="#12FF3C"/>
<stop offset="1" stop-color="#007C16"/>
</linearGradient>
<linearGradient id="paint49_linear_2612_21761" x1="460.127" y1="393.254" x2="489.275" y2="397.197" gradientUnits="userSpaceOnUse">
<stop stop-color="#12FF3C"/>
<stop offset="1" stop-color="#007C16"/>
</linearGradient>
<linearGradient id="paint50_linear_2612_21761" x1="325.268" y1="248.05" x2="331.585" y2="297.73" gradientUnits="userSpaceOnUse">
<stop stop-color="#3D3D3D"/>
<stop offset="0.951389" stop-color="#151515"/>
</linearGradient>
</defs>
</svg>
