<svg xmlns="http://www.w3.org/2000/svg" fill="none" viewBox="0 0 38 38">
<path fill-rule="evenodd" clip-rule="evenodd" d="M3.26035 3.26035C5.61894 0.901751 9.14833 0 13.6977 0H24.3023C28.8517 0 32.3811 0.901751 34.7397 3.26035C37.0983 5.61894 38 9.14833 38 13.6977V24.3023C38 28.8517 37.0983 32.3811 34.7397 34.7397C32.3811 37.0983 28.8517 38 24.3023 38H13.6977C9.14833 38 5.61894 37.0983 3.26035 34.7397C0.901751 32.3811 0 28.8517 0 24.3023V13.6977C0 9.14833 0.901751 5.61894 3.26035 3.26035ZM5.135 5.135C3.51685 6.75315 2.65116 9.40981 2.65116 13.6977V24.3023C2.65116 28.5902 3.51685 31.2468 5.135 32.865C6.75315 34.4831 9.40981 35.3488 13.6977 35.3488H24.3023C28.5902 35.3488 31.2468 34.4831 32.865 32.865C34.4831 31.2468 35.3488 28.5902 35.3488 24.3023V13.6977C35.3488 9.40981 34.4831 6.75315 32.865 5.135C31.2468 3.51685 28.5902 2.65116 24.3023 2.65116H13.6977C9.40981 2.65116 6.75315 3.51685 5.135 5.135Z" fill="url(#paint0_linear_81_341)"/>
<path fill-rule="evenodd" clip-rule="evenodd" d="M7.01633 7.0162C8.23632 5.79621 9.95862 5.30237 11.9304 5.30237H26.0699C28.0417 5.30237 29.764 5.79621 30.984 7.0162C32.204 8.2362 32.6978 9.9585 32.6978 11.9303V14.5814H26.5116C25.7795 14.5814 25.186 15.1749 25.186 15.907C25.186 16.6391 25.7795 17.2326 26.5116 17.2326H32.6978V19.8837H26.5116C25.7795 19.8837 25.186 20.4771 25.186 21.2092C25.186 21.9413 25.7795 22.5348 26.5116 22.5348H32.6978V26.0698C32.6978 28.0416 32.204 29.7639 30.984 30.9839C29.764 32.2039 28.0417 32.6977 26.0699 32.6977H11.9304C9.95862 32.6977 8.23632 32.2039 7.01633 30.9839C5.88835 29.8559 5.38112 28.2985 5.31102 26.5116H9.70162C13.1273 26.5116 15.9068 23.3448 15.9068 19.4418C15.9068 15.5389 13.1273 12.3721 9.70162 12.3721H5.30249V11.9303C5.30249 9.9585 5.79633 8.2362 7.01633 7.0162ZM9.70162 23.2486H5.30249V15.635H9.70162C11.5456 15.635 13.0428 17.341 13.0428 19.4418C13.0428 21.5427 11.5456 23.2486 9.70162 23.2486ZM8.83716 18C8.28487 18 7.83716 18.4477 7.83716 19C7.83716 19.5523 8.28487 20 8.83716 20H9.0139C9.56619 20 10.0139 19.5523 10.0139 19C10.0139 18.4477 9.56619 18 9.0139 18H8.83716Z" fill="url(#paint1_linear_81_341)"/>
<defs>
<linearGradient id="paint0_linear_81_341" x1="29" y1="-2" x2="5.5" y2="41" gradientUnits="userSpaceOnUse">
<stop stop-color="#00FF2D"/>
<stop offset="0.453348" stop-color="#446AEF"/>
<stop offset="0.967014" stop-color="#6D1454"/>
</linearGradient>
<linearGradient id="paint1_linear_81_341" x1="26.2095" y1="3.8605" x2="9.2676" y2="34.8605" gradientUnits="userSpaceOnUse">
<stop stop-color="#00FF2D"/>
<stop offset="0.453348" stop-color="#446AEF"/>
<stop offset="0.967014" stop-color="#6D1454"/>
</linearGradient>
</defs>
</svg>