<svg width="31" height="31" viewBox="0 0 31 31" fill="none" xmlns="http://www.w3.org/2000/svg">
<path d="M30.9062 15.1345C30.9062 23.4078 23.9876 30.1146 15.4531 30.1146C6.9186 30.1146 0 23.4078 0 15.1345C0 6.86114 6.9186 0.154297 15.4531 0.154297C23.9876 0.154297 30.9062 6.86114 30.9062 15.1345Z" fill="#2D2D2D"/>
<path fill-rule="evenodd" clip-rule="evenodd" d="M15.3939 0.154297C7.18226 0.154297 0.53125 6.79047 0.53125 14.9837C0.53125 21.5458 4.78567 27.0883 10.6936 29.0532C11.4367 29.1829 11.7154 28.738 11.7154 28.3488C11.7154 27.9966 11.6968 26.8288 11.6968 25.5868C7.96255 26.2726 6.99648 24.6785 6.69923 23.8443C6.53203 23.418 5.80747 22.1019 5.17581 21.7497C4.65562 21.4716 3.91249 20.7858 5.15723 20.7672C6.32766 20.7487 7.16369 21.8424 7.44236 22.2872C8.77999 24.5302 10.9165 23.8999 11.7711 23.5107C11.9011 22.5468 12.2913 21.898 12.7186 21.5272C9.41165 21.1565 5.9561 19.8775 5.9561 14.2052C5.9561 12.5925 6.53203 11.2578 7.47952 10.2198C7.33089 9.84904 6.8107 8.32903 7.62814 6.28998C7.62814 6.28998 8.87288 5.90071 11.7154 7.81C12.9044 7.47633 14.1677 7.3095 15.431 7.3095C16.6943 7.3095 17.9577 7.47633 19.1467 7.81C21.9891 5.88217 23.2339 6.28998 23.2339 6.28998C24.0513 8.32903 23.5311 9.84904 23.3825 10.2198C24.33 11.2578 24.9059 12.574 24.9059 14.2052C24.9059 19.896 21.4318 21.1565 18.1249 21.5272C18.6636 21.9906 19.1281 22.8804 19.1281 24.2707C19.1281 26.2541 19.1095 27.8483 19.1095 28.3488C19.1095 28.738 19.3882 29.2015 20.1313 29.0532C23.0818 28.0593 25.6456 26.1672 27.4619 23.6433C29.2782 21.1195 30.2556 18.0909 30.2565 14.9837C30.2565 6.79047 23.6054 0.154297 15.3939 0.154297Z" fill="white"/>
</svg>
