<svg width="31" height="31" viewBox="0 0 31 31" fill="none" xmlns="http://www.w3.org/2000/svg">
<path d="M30.9062 15.2603C30.9062 23.5103 23.9876 30.1983 15.4531 30.1983C6.9186 30.1983 0 23.5103 0 15.2603C0 7.01024 6.9186 0.322266 15.4531 0.322266C23.9876 0.322266 30.9062 7.01024 30.9062 15.2603Z" fill="#2D2D2D"/>
<path d="M6.18557 14.103L6.16561 14.0448L6.38517 13.7825L6.50493 13.7048H10.3373L10.3672 13.7825L10.1876 14.035L10.0778 14.0933L6.18557 14.103ZM4.57877 15.0548L4.54883 15.0063L4.76839 14.7246L4.88815 14.6663H9.7784L9.8283 14.7537L9.74846 14.9868L9.64866 15.0548H4.57877ZM7.1736 16.0163L7.13368 15.958L7.29336 15.6861L7.39316 15.6278H9.53888L9.60874 15.6958L9.58878 15.9386L9.50894 16.0163H7.1736ZM18.3014 13.9185L16.525 14.375C16.3353 14.4138 16.3254 14.4235 16.1856 14.2681C16.026 14.0933 15.9162 13.9865 15.6866 13.8797C15.0279 13.5494 14.3593 13.6466 13.7505 14.0253C13.0319 14.4915 12.6427 15.1617 12.6527 16.0163C12.6627 16.8516 13.2515 17.5411 14.0998 17.6674C14.8283 17.7548 15.4371 17.5023 15.9261 16.9681L16.2156 16.5893H14.1497C13.9301 16.5893 13.8802 16.4534 13.9501 16.2785L14.499 15.1325C14.5289 15.0742 14.6088 14.9674 14.7685 14.9674H18.2016C18.3513 14.4818 18.6108 14.035 18.9501 13.598C19.7286 12.5977 20.6767 12.0732 21.9442 11.8401C23.012 11.6653 24.0699 11.7721 25.008 12.3937C25.8464 12.957 26.3753 13.7145 26.5051 14.7149C26.6947 16.1232 26.2655 17.2692 25.2675 18.2598C24.5589 18.9591 23.6907 19.3961 22.7026 19.6098L21.8444 19.6875C20.8663 19.6681 19.9781 19.3961 19.2296 18.7648C18.7106 18.3278 18.3513 17.8033 18.1717 17.1818C18.022 17.4149 17.9022 17.6382 17.7325 17.8616C16.9641 18.8523 15.9561 19.4641 14.6786 19.6098C13.6307 19.7652 12.6527 19.5612 11.7944 18.9397C11.006 18.3569 10.5369 17.58 10.4371 16.6185C10.2974 15.4822 10.6367 14.4624 11.3453 13.5689C12.1038 12.5977 13.1118 11.9858 14.3493 11.7624C15.3473 11.5876 16.3154 11.7041 17.1836 12.2674C17.7525 12.6365 18.1517 13.1415 18.4212 13.7437C18.4611 13.8311 18.4212 13.8894 18.3014 13.9185ZM24.3993 15.4724L24.3693 15.1228C24.1797 14.0933 23.2016 13.5106 22.1837 13.734C21.1757 13.9476 20.517 14.5595 20.3074 15.5404C20.1178 16.3562 20.517 17.1818 21.2855 17.512C21.8743 17.7645 22.4731 17.7257 23.042 17.4537C23.8803 17.0361 24.3494 16.366 24.3993 15.4724Z" fill="#6AD7E4"/>
</svg>
