<svg width="31" height="31" viewBox="0 0 31 31" fill="none" xmlns="http://www.w3.org/2000/svg">
<path d="M30.9062 15.6245C30.9062 23.8746 23.9876 30.5626 15.4531 30.5626C6.9186 30.5626 0 23.8746 0 15.6245C0 7.3745 6.9186 0.686523 15.4531 0.686523C23.9876 0.686523 30.9062 7.3745 30.9062 15.6245Z" fill="white"/>
<path d="M12.011 19.6141C12.011 19.6141 11.0763 20.158 12.6762 20.342C14.6145 20.5632 15.6051 20.5316 17.7412 20.127C17.7412 20.127 18.3028 20.4793 19.087 20.7845C14.2987 22.8379 8.24993 20.6656 12.011 19.6141ZM11.4259 16.9346C11.4259 16.9346 10.3775 17.7111 11.9786 17.8767C14.0492 18.0905 15.6843 18.108 18.5138 17.5628C18.5138 17.5628 18.9051 17.9598 19.5205 18.1769C13.731 19.8708 7.28265 18.3105 11.4259 16.9346Z" fill="#5382A1"/>
<path d="M16.338 12.3891C17.5179 13.7482 16.0281 14.9713 16.0281 14.9713C16.0281 14.9713 19.0239 13.4239 17.648 11.4861C16.363 9.67915 15.3776 8.78119 20.7123 5.68555C20.7123 5.68555 12.3385 7.77808 16.338 12.389" fill="#E76F00"/>
<path d="M22.6723 21.5951C22.6723 21.5951 23.364 22.1653 21.9104 22.6065C19.1465 23.4443 10.4067 23.6973 7.97883 22.6399C7.10609 22.26 8.74278 21.7328 9.25758 21.6222C9.79448 21.5057 10.1014 21.5274 10.1014 21.5274C9.13074 20.8432 3.82776 22.8707 7.40772 23.4513C17.1707 25.0355 25.2046 22.738 22.6723 21.5951ZM12.4411 14.1573C12.4411 14.1573 7.99554 15.2139 10.8669 15.5975C12.0792 15.7599 14.496 15.7232 16.7472 15.5344C18.587 15.3792 20.4344 15.049 20.4344 15.049C20.4344 15.049 19.7856 15.327 19.3163 15.6476C14.8019 16.8356 6.08073 16.283 8.59143 15.0678C10.7147 14.0408 12.4412 14.1573 12.4412 14.1573M20.416 18.6175C25.0053 16.2315 22.8834 13.9385 21.4024 14.2475C21.0393 14.323 20.8775 14.3885 20.8775 14.3885C20.8775 14.3885 21.0123 14.1773 21.2696 14.0859C24.1995 13.0552 26.4529 17.1257 20.3238 18.7377C20.3238 18.7378 20.3949 18.6743 20.416 18.6175Z" fill="#5382A1"/>
<path d="M17.6484 0.686594C17.6484 0.686594 20.19 3.23052 15.2378 7.14213C11.2668 10.28 14.3323 12.0691 15.2362 14.1133C12.9182 12.0207 11.2171 10.1786 12.3584 8.46419C14.0334 5.94741 18.6738 4.72725 17.6484 0.686523" fill="#E76F00"/>
<path d="M12.9035 25.0858C17.3085 25.368 24.0729 24.9293 24.2331 22.8438C24.2331 22.8438 23.9252 23.6344 20.5926 24.2623C16.8328 24.9702 12.1957 24.8875 9.44531 24.4338C9.44538 24.4338 10.0083 24.9001 12.9035 25.0858" fill="#5382A1"/>
</svg>
