<svg width="31" height="31" viewBox="0 0 31 31" fill="none" xmlns="http://www.w3.org/2000/svg">
<path d="M30.9062 15.0544C30.9062 23.3277 23.9876 30.0345 15.4531 30.0345C6.9186 30.0345 0 23.3277 0 15.0544C0 6.78106 6.9186 0.0742188 15.4531 0.0742188C23.9876 0.0742188 30.9062 6.78106 30.9062 15.0544Z" fill="#2D2D2D"/>
<path d="M22.1416 10.7388L23.4367 9.61843V9.37305H18.9514L15.7548 16.571L12.1188 9.37305H7.41587V9.61843L8.92859 11.2658C9.07648 11.3875 9.15254 11.5663 9.13352 11.7451V18.2183C9.18 18.4523 9.09761 18.6901 8.91591 18.8594L7.21094 20.7293V20.9709H12.0406V20.7255L10.3378 18.8613C10.2465 18.7779 10.1779 18.6767 10.1372 18.5655C10.0966 18.4543 10.0849 18.3361 10.1033 18.2203V12.6201L14.3435 20.9747H14.8358L18.4824 12.6201V19.276C18.4824 19.451 18.4824 19.4871 18.3556 19.6032L17.0436 20.7502V20.9956H23.4071V20.7502L22.1416 19.6298C22.0317 19.5537 21.9747 19.4263 21.9979 19.3026V11.066C21.987 11.0049 21.9946 10.9422 22.0199 10.8847C22.0451 10.8271 22.0872 10.7767 22.1416 10.7388Z" fill="white"/>
</svg>
