<svg width="35" height="14" viewBox="0 0 35 14" fill="none" xmlns="http://www.w3.org/2000/svg">
<path fill-rule="evenodd" clip-rule="evenodd" d="M10.7059 1.36041H2.29412C1.44945 1.36041 0.764706 2.04515 0.764706 2.88982V11.3016C0.764706 12.1463 1.44945 12.831 2.29412 12.831H10.7059C11.5506 12.831 12.2353 12.1463 12.2353 11.3016V8.24236H12.2344V5.94824H12.2353V2.88982C12.2353 2.04515 11.5506 1.36041 10.7059 1.36041ZM13 5.94824V2.88982C13 1.62281 11.9729 0.595703 10.7059 0.595703H2.29412C1.02711 0.595703 0 1.62281 0 2.88982V11.3016C0 12.5686 1.02711 13.5957 2.29412 13.5957H10.7059C11.9729 13.5957 13 12.5686 13 11.3016V8.24236H21.4102V11.3016C21.4102 12.5686 22.4373 13.5957 23.7043 13.5957H32.116C33.383 13.5957 34.4102 12.5686 34.4102 11.3016V2.88982C34.4102 1.62281 33.383 0.595703 32.116 0.595703H23.7043C22.4373 0.595703 21.4102 1.62281 21.4102 2.88982V5.94824H13ZM2.29492 3.65435C2.29492 3.23202 2.63729 2.88965 3.05963 2.88965H9.94198C10.3643 2.88965 10.7067 3.23202 10.7067 3.65435V10.5367C10.7067 10.959 10.3643 11.3014 9.94198 11.3014H3.05963C2.63729 11.3014 2.29492 10.959 2.29492 10.5367V3.65435ZM23.7043 1.5957H32.116C32.8308 1.5957 33.4102 2.1751 33.4102 2.88982V11.3016C33.4102 12.0163 32.8308 12.5957 32.116 12.5957H23.7043C22.9896 12.5957 22.4102 12.0163 22.4102 11.3016V2.88982C22.4102 2.1751 22.9896 1.5957 23.7043 1.5957ZM23.7051 3.88965C23.7051 3.33736 24.1528 2.88965 24.7051 2.88965H31.1168C31.6691 2.88965 32.1168 3.33736 32.1168 3.88965V10.3014C32.1168 10.8537 31.6691 11.3014 31.1168 11.3014H24.7051C24.1528 11.3014 23.7051 10.8537 23.7051 10.3014V3.88965Z" fill="url(#paint0_linear_2363_939)"/>
<defs>
<linearGradient id="paint0_linear_2363_939" x1="-1.7735e-06" y1="-0.737629" x2="8.84321" y2="21.6479" gradientUnits="userSpaceOnUse">
<stop offset="0.135059" stop-color="#3CFF5E"/>
<stop offset="0.487847" stop-color="#0058BF"/>
<stop offset="1" stop-color="#F91690"/>
</linearGradient>
</defs>
</svg>
