<svg width="363" height="363" viewBox="0 0 363 363" fill="none" xmlns="http://www.w3.org/2000/svg">
<g filter="url(#filter0_f_996_2)">
<ellipse cx="169.788" cy="161.544" rx="63.929" ry="33.7781" fill="#151515"/>
</g>
<g opacity="0.5" filter="url(#filter1_f_996_2)">
<circle cx="135.579" cy="128.657" r="25.8467" fill="#3E3E3E"/>
</g>
<g filter="url(#filter2_f_996_2)">
<circle cx="176.434" cy="124.488" r="43.3557" fill="#313131"/>
</g>
<g opacity="0.7" filter="url(#filter3_i_996_2)">
<circle cx="176.434" cy="169.558" r="66.7011" fill="#C4C4C4" fill-opacity="0.01"/>
</g>
<g filter="url(#filter4_f_996_2)">
<circle cx="176.434" cy="169.558" r="63.7011" stroke="url(#paint0_linear_996_2)" stroke-width="6"/>
<circle cx="176.434" cy="169.558" r="63.7011" stroke="black" stroke-opacity="0.2" stroke-width="6"/>
</g>
<circle cx="176.434" cy="169.558" r="66.2011" stroke="url(#paint1_linear_996_2)"/>
<g opacity="0.7" filter="url(#filter5_f_996_2)">
<ellipse cx="153.73" cy="140.136" rx="9.15968" ry="15.3286" transform="rotate(45 153.73 140.136)" fill="white" fill-opacity="0.52"/>
</g>
<g filter="url(#filter6_f_996_2)">
<path d="M159.759 105.773C138.19 111.4 120.927 127.686 113.934 148.667H113.902V146.248C121.446 125.978 138.564 110.366 159.759 104.911V105.773Z" fill="url(#paint2_linear_996_2)"/>
</g>
<g filter="url(#filter7_f_996_2)">
<ellipse cx="132.314" cy="120.369" rx="10.0052" ry="2.50129" transform="rotate(-40.3806 132.314 120.369)" fill="#1D1D1D"/>
</g>
<g opacity="0.7" filter="url(#filter8_f_996_2)">
<ellipse cx="132.754" cy="123.191" rx="22.5546" ry="5.63864" transform="rotate(-40.3806 132.754 123.191)" fill="#6C6C6C"/>
</g>
<g filter="url(#filter9_f_996_2)">
<ellipse cx="132.316" cy="120.369" rx="7.85526" ry="3.79239" transform="rotate(-40.3806 132.316 120.369)" fill="white"/>
</g>
<path opacity="0.0344828" d="M135.131 143.224C135.571 142.699 136.255 142.347 137.221 142.203C138.19 142.057 139.412 142.126 140.87 142.418C143.784 143 147.535 144.449 151.876 146.658C160.551 151.071 171.48 158.463 182.598 167.792C193.716 177.121 202.894 186.601 208.746 194.377C211.675 198.269 213.754 201.712 214.833 204.48C215.373 205.865 215.653 207.057 215.679 208.037C215.704 209.013 215.476 209.747 215.035 210.272C214.595 210.797 213.911 211.149 212.946 211.294C211.976 211.439 210.754 211.37 209.296 211.079C206.382 210.496 202.631 209.047 198.29 206.839C189.615 202.426 178.686 195.034 167.568 185.704C156.45 176.375 147.272 166.895 141.42 159.119C138.491 155.227 136.413 151.785 135.333 149.016C134.793 147.631 134.513 146.44 134.488 145.46C134.462 144.484 134.69 143.749 135.131 143.224Z" stroke="url(#paint3_linear_996_2)"/>
<path opacity="0.0689655" d="M138.205 139.45C138.69 138.965 139.402 138.674 140.376 138.614C141.355 138.554 142.566 138.729 143.993 139.146C146.845 139.98 150.456 141.751 154.588 144.33C162.845 149.482 173.088 157.798 183.351 168.061C193.614 178.324 201.93 188.567 207.082 196.824C209.661 200.956 211.431 204.567 212.266 207.419C212.683 208.846 212.858 210.057 212.798 211.036C212.738 212.01 212.447 212.722 211.962 213.207C211.478 213.691 210.766 213.982 209.791 214.042C208.813 214.103 207.601 213.927 206.175 213.51C203.323 212.676 199.712 210.905 195.58 208.327C187.323 203.175 177.079 194.858 166.817 184.595C156.554 174.332 148.237 164.089 143.085 155.832C140.507 151.7 138.736 148.089 137.902 145.237C137.485 143.811 137.309 142.599 137.37 141.621C137.43 140.646 137.72 139.934 138.205 139.45Z" stroke="url(#paint4_linear_996_2)"/>
<path opacity="0.103448" d="M141.559 135.955C142.085 135.515 142.819 135.287 143.795 135.312C144.775 135.337 145.967 135.618 147.351 136.157C150.12 137.237 153.563 139.316 157.454 142.244C165.231 148.097 174.71 157.274 184.04 168.393C193.369 179.511 200.761 190.44 205.174 199.115C207.382 203.456 208.832 207.207 209.414 210.121C209.705 211.578 209.775 212.8 209.629 213.77C209.484 214.736 209.133 215.419 208.608 215.86C208.082 216.301 207.348 216.528 206.372 216.503C205.392 216.478 204.2 216.198 202.816 215.658C200.047 214.578 196.604 212.499 192.713 209.571C184.936 203.719 175.457 194.541 166.127 183.423C156.798 172.305 149.406 161.375 144.993 152.701C142.785 148.36 141.335 144.608 140.753 141.694C140.462 140.237 140.393 139.015 140.538 138.045C140.683 137.08 141.034 136.396 141.559 135.955Z" stroke="url(#paint5_linear_996_2)"/>
<path opacity="0.137931" d="M145.17 132.765C145.731 132.372 146.483 132.209 147.453 132.319C148.427 132.43 149.59 132.813 150.922 133.471C153.586 134.788 156.835 137.159 160.456 140.416C167.693 146.923 176.337 156.892 184.661 168.781C192.986 180.67 199.397 192.202 203.038 201.229C204.859 205.745 205.976 209.609 206.302 212.563C206.466 214.04 206.428 215.263 206.198 216.217C205.97 217.166 205.56 217.816 204.999 218.21C204.437 218.603 203.686 218.765 202.716 218.655C201.741 218.545 200.579 218.162 199.246 217.503C196.582 216.186 193.334 213.816 189.712 210.559C182.476 204.051 173.832 194.082 165.507 182.193C157.182 170.304 150.771 158.772 147.131 149.746C145.309 145.229 144.192 141.366 143.866 138.412C143.703 136.935 143.741 135.711 143.97 134.758C144.198 133.809 144.608 133.158 145.17 132.765Z" stroke="url(#paint6_linear_996_2)"/>
<path opacity="0.172414" d="M149.007 129.9C149.601 129.557 150.364 129.461 151.321 129.655C152.282 129.85 153.406 130.333 154.676 131.105C157.215 132.649 160.245 135.294 163.569 138.854C170.211 145.968 177.953 156.652 185.21 169.221C192.466 181.791 197.848 193.838 200.688 203.147C202.109 207.805 202.885 211.751 202.952 214.722C202.986 216.208 202.842 217.423 202.53 218.353C202.22 219.279 201.755 219.891 201.162 220.234C200.568 220.577 199.805 220.673 198.848 220.479C197.887 220.284 196.763 219.801 195.493 219.029C192.954 217.485 189.924 214.84 186.6 211.28C179.958 204.166 172.216 193.482 164.959 180.913C157.703 168.344 152.321 156.297 149.481 146.988C148.06 142.329 147.284 138.383 147.216 135.412C147.183 133.926 147.327 132.711 147.638 131.781C147.949 130.855 148.414 130.243 149.007 129.9Z" stroke="url(#paint7_linear_996_2)"/>
<path opacity="0.206897" d="M153.042 127.379C153.664 127.089 154.432 127.059 155.368 127.336C156.308 127.614 157.387 128.193 158.585 129.073C160.98 130.833 163.767 133.732 166.768 137.568C172.765 145.233 179.546 156.552 185.68 169.706C191.813 182.859 196.125 195.33 198.142 204.851C199.152 209.615 199.581 213.614 199.389 216.58C199.294 218.063 199.044 219.261 198.653 220.16C198.263 221.055 197.746 221.625 197.125 221.914C196.504 222.204 195.735 222.234 194.799 221.957C193.859 221.679 192.78 221.1 191.583 220.22C189.188 218.46 186.4 215.562 183.399 211.725C177.403 204.06 170.621 192.741 164.488 179.588C158.354 166.434 154.042 153.964 152.025 144.442C151.015 139.678 150.586 135.679 150.778 132.713C150.874 131.23 151.123 130.032 151.515 129.133C151.905 128.238 152.421 127.668 153.042 127.379Z" stroke="url(#paint8_linear_996_2)"/>
<path opacity="0.241379" d="M157.246 125.217C157.89 124.983 158.658 125.02 159.567 125.378C160.479 125.737 161.503 126.407 162.62 127.388C164.852 129.35 167.376 132.481 170.032 136.564C175.337 144.723 181.106 156.589 186.07 170.228C191.034 183.866 194.243 196.664 195.423 206.325C196.013 211.16 196.092 215.18 195.643 218.118C195.418 219.587 195.065 220.759 194.597 221.621C194.13 222.478 193.566 223.001 192.922 223.235C192.278 223.47 191.51 223.432 190.601 223.075C189.689 222.716 188.665 222.045 187.548 221.064C185.316 219.103 182.792 215.972 180.137 211.889C174.831 203.73 169.062 191.863 164.098 178.225C159.134 164.587 155.925 151.788 154.746 142.127C154.155 137.293 154.076 133.272 154.525 130.334C154.75 128.865 155.103 127.693 155.572 126.832C156.038 125.974 156.602 125.452 157.246 125.217Z" stroke="url(#paint9_linear_996_2)"/>
<path opacity="0.275862" d="M161.585 123.429C162.247 123.252 163.009 123.356 163.883 123.791C164.761 124.228 165.722 124.986 166.749 126.06C168.802 128.209 171.044 131.548 173.333 135.846C177.907 144.437 182.62 156.761 186.377 170.78C190.133 184.799 192.214 197.829 192.547 207.556C192.714 212.423 192.442 216.435 191.739 219.323C191.387 220.767 190.933 221.903 190.391 222.721C189.852 223.535 189.244 224.006 188.582 224.183C187.92 224.361 187.158 224.256 186.284 223.821C185.407 223.384 184.445 222.627 183.418 221.552C181.365 219.403 179.124 216.065 176.834 211.766C172.26 203.175 167.547 190.851 163.791 176.832C160.034 162.813 157.954 149.784 157.62 140.057C157.453 135.189 157.725 131.177 158.429 128.289C158.781 126.846 159.234 125.709 159.776 124.891C160.315 124.078 160.923 123.606 161.585 123.429Z" stroke="url(#paint10_linear_996_2)"/>
<path opacity="0.310345" d="M166.027 122.024C166.702 121.905 167.452 122.075 168.285 122.585C169.121 123.097 170.013 123.935 170.942 125.095C172.8 127.414 174.742 130.936 176.648 135.418C180.456 144.374 184.077 157.062 186.597 171.355C189.118 185.649 190.055 198.81 189.539 208.529C189.281 213.392 188.661 217.366 187.708 220.181C187.232 221.588 186.68 222.681 186.07 223.448C185.461 224.212 184.815 224.628 184.14 224.748C183.465 224.867 182.715 224.696 181.882 224.187C181.046 223.675 180.154 222.836 179.225 221.676C177.367 219.357 175.425 215.835 173.519 211.353C169.711 202.397 166.09 189.709 163.57 175.416C161.05 161.123 160.112 147.961 160.628 138.243C160.886 133.379 161.506 129.406 162.459 126.591C162.935 125.183 163.487 124.09 164.098 123.323C164.706 122.559 165.352 122.143 166.027 122.024Z" stroke="url(#paint11_linear_996_2)"/>
<path opacity="0.344828" d="M170.54 121.01C171.223 120.95 171.955 121.185 172.74 121.765C173.528 122.348 174.344 123.261 175.168 124.497C176.817 126.97 178.445 130.647 179.953 135.278C182.966 144.533 185.467 157.488 186.732 171.946C187.997 186.405 187.784 199.598 186.423 209.235C185.742 214.057 184.778 217.961 183.583 220.683C182.986 222.043 182.342 223.084 181.666 223.795C180.994 224.503 180.314 224.861 179.631 224.921C178.948 224.981 178.216 224.746 177.431 224.166C176.642 223.583 175.827 222.67 175.002 221.433C173.353 218.961 171.726 215.283 170.218 210.652C167.204 201.398 164.703 188.443 163.438 173.984C162.173 159.526 162.387 146.333 163.747 136.696C164.428 131.873 165.393 127.969 166.587 125.248C167.184 123.887 167.829 122.847 168.504 122.136C169.177 121.428 169.857 121.069 170.54 121.01Z" stroke="url(#paint12_linear_996_2)"/>
<path opacity="0.37931" d="M175.082 120.391C175.768 120.391 176.476 120.688 177.208 121.335C177.943 121.984 178.675 122.965 179.389 124.268C180.816 126.875 182.117 130.68 183.216 135.425C185.411 144.907 186.773 158.031 186.773 172.545C186.773 187.058 185.411 200.182 183.216 209.664C182.117 214.409 180.816 218.214 179.389 220.821C178.675 222.125 177.943 223.105 177.208 223.755C176.476 224.401 175.768 224.699 175.082 224.699C174.397 224.699 173.688 224.401 172.956 223.755C172.221 223.105 171.489 222.125 170.775 220.821C169.348 218.214 168.047 214.409 166.949 209.664C164.753 200.182 163.391 187.058 163.391 172.545C163.391 158.031 164.753 144.907 166.949 135.425C168.047 130.68 169.348 126.875 170.775 124.268C171.489 122.965 172.221 121.984 172.956 121.335C173.688 120.688 174.397 120.391 175.082 120.391Z" stroke="url(#paint13_linear_996_2)"/>
<path opacity="0.413793" d="M179.629 120.168C180.312 120.228 180.992 120.587 181.665 121.294C182.34 122.005 182.984 123.046 183.582 124.407C184.776 127.128 185.741 131.032 186.421 135.855C187.782 145.492 187.996 158.685 186.731 173.143C185.466 187.602 182.965 200.557 179.951 209.811C178.443 214.442 176.815 218.119 175.167 220.592C174.342 221.829 173.527 222.741 172.738 223.324C171.953 223.905 171.221 224.14 170.538 224.08C169.855 224.02 169.175 223.662 168.503 222.954C167.827 222.243 167.183 221.202 166.586 219.841C165.391 217.12 164.427 213.216 163.746 208.393C162.385 198.756 162.172 185.564 163.437 171.105C164.702 156.647 167.203 143.691 170.216 134.437C171.724 129.806 173.352 126.129 175.001 123.656C175.825 122.42 176.641 121.507 177.429 120.924C178.214 120.343 178.946 120.109 179.629 120.168Z" stroke="url(#paint14_linear_996_2)"/>
<path opacity="0.448276" d="M184.14 120.342C184.815 120.461 185.461 120.877 186.069 121.641C186.68 122.408 187.231 123.501 187.708 124.909C188.66 127.724 189.281 131.697 189.539 136.561C190.054 146.28 189.117 159.441 186.597 173.734C184.077 188.027 180.456 200.715 176.647 209.672C174.741 214.154 172.799 217.675 170.941 219.995C170.012 221.155 169.12 221.993 168.284 222.505C167.451 223.015 166.702 223.185 166.027 223.066C165.352 222.947 164.705 222.53 164.097 221.767C163.486 221 162.935 219.907 162.459 218.499C161.506 215.684 160.885 211.711 160.627 206.847C160.112 197.128 161.049 183.967 163.569 169.674C166.09 155.38 169.71 142.693 173.519 133.736C175.425 129.254 177.367 125.733 179.225 123.413C180.154 122.253 181.046 121.415 181.882 120.903C182.715 120.393 183.464 120.223 184.14 120.342Z" stroke="url(#paint15_linear_996_2)"/>
<path opacity="0.482759" d="M188.58 120.906C189.242 121.084 189.85 121.555 190.389 122.369C190.931 123.186 191.385 124.323 191.737 125.767C192.44 128.654 192.712 132.666 192.545 137.534C192.212 147.261 190.131 160.29 186.375 174.309C182.618 188.328 177.905 200.653 173.331 209.243C171.042 213.542 168.8 216.881 166.747 219.029C165.72 220.104 164.759 220.861 163.881 221.298C163.007 221.734 162.245 221.838 161.583 221.66C160.921 221.483 160.313 221.012 159.774 220.198C159.232 219.381 158.779 218.244 158.427 216.8C157.723 213.913 157.451 209.9 157.618 205.033C157.952 195.306 160.032 182.277 163.789 168.257C167.545 154.238 172.258 141.914 176.832 133.324C179.122 129.025 181.363 125.686 183.416 123.537C184.443 122.463 185.405 121.705 186.282 121.268C187.156 120.833 187.918 120.729 188.58 120.906Z" stroke="url(#paint16_linear_996_2)"/>
<path opacity="0.517241" d="M192.922 121.854C193.566 122.089 194.13 122.611 194.597 123.469C195.065 124.33 195.418 125.502 195.643 126.971C196.092 129.909 196.013 133.93 195.423 138.764C194.243 148.425 191.034 161.223 186.07 174.862C181.106 188.5 175.337 200.367 170.032 208.526C167.376 212.609 164.852 215.739 162.62 217.701C161.503 218.682 160.479 219.353 159.567 219.712C158.658 220.069 157.89 220.106 157.246 219.872C156.602 219.638 156.038 219.115 155.572 218.257C155.103 217.396 154.75 216.224 154.526 214.755C154.076 211.817 154.155 207.796 154.746 202.962C155.926 193.301 159.134 180.503 164.098 166.864C169.062 153.226 174.831 141.359 180.137 133.2C182.792 129.117 185.316 125.987 187.548 124.025C188.665 123.044 189.689 122.373 190.601 122.014C191.51 121.657 192.278 121.62 192.922 121.854Z" stroke="url(#paint17_linear_996_2)"/>
<path opacity="0.551724" d="M197.124 123.175C197.746 123.465 198.262 124.034 198.652 124.929C199.043 125.828 199.293 127.026 199.389 128.51C199.58 131.475 199.151 135.474 198.142 140.238C196.124 149.76 191.813 162.23 185.679 175.384C179.545 188.537 172.764 199.856 166.767 207.522C163.766 211.358 160.979 214.256 158.584 216.016C157.386 216.896 156.308 217.475 155.368 217.753C154.431 218.03 153.663 218 153.042 217.71C152.42 217.421 151.904 216.851 151.514 215.956C151.123 215.057 150.873 213.859 150.777 212.376C150.586 209.41 151.015 205.411 152.024 200.647C154.042 191.126 158.353 178.655 164.487 165.502C170.621 152.348 177.402 141.029 183.399 133.364C186.4 129.528 189.187 126.629 191.582 124.869C192.78 123.989 193.858 123.41 194.799 123.132C195.735 122.855 196.503 122.885 197.124 123.175Z" stroke="url(#paint18_linear_996_2)"/>
<path opacity="0.586207" d="M201.16 124.856C201.753 125.198 202.218 125.811 202.528 126.736C202.84 127.666 202.984 128.882 202.95 130.367C202.883 133.338 202.107 137.284 200.686 141.943C197.846 151.252 192.464 163.299 185.207 175.868C177.951 188.437 170.209 199.122 163.567 206.235C160.243 209.795 157.213 212.44 154.674 213.984C153.404 214.757 152.28 215.239 151.319 215.434C150.362 215.629 149.599 215.532 149.005 215.189C148.412 214.847 147.947 214.234 147.636 213.308C147.325 212.379 147.181 211.163 147.214 209.677C147.282 206.706 148.058 202.76 149.479 198.102C152.319 188.793 157.701 176.746 164.957 164.177C172.214 151.607 179.956 140.923 186.598 133.809C189.922 130.249 192.951 127.605 195.491 126.06C196.761 125.288 197.885 124.805 198.846 124.61C199.803 124.416 200.566 124.513 201.16 124.856Z" stroke="url(#paint19_linear_996_2)"/>
<path opacity="0.62069" d="M204.997 126.88C205.558 127.273 205.968 127.924 206.197 128.873C206.426 129.826 206.464 131.05 206.3 132.527C205.974 135.481 204.857 139.344 203.036 143.861C199.396 152.887 192.984 164.419 184.659 176.308C176.335 188.197 167.691 198.166 160.454 204.674C156.833 207.93 153.584 210.301 150.92 211.618C149.588 212.277 148.425 212.66 147.451 212.77C146.481 212.88 145.729 212.718 145.168 212.324C144.606 211.931 144.197 211.281 143.968 210.331C143.739 209.378 143.701 208.155 143.864 206.677C144.191 203.724 145.307 199.86 147.129 195.343C150.769 186.317 157.181 174.785 165.505 162.896C173.83 151.007 182.474 141.038 189.711 134.53C193.332 131.274 196.58 128.903 199.245 127.586C200.577 126.928 201.739 126.545 202.714 126.434C203.684 126.324 204.435 126.487 204.997 126.88Z" stroke="url(#paint20_linear_996_2)"/>
<path opacity="0.655172" d="M208.607 129.229C209.132 129.669 209.484 130.353 209.629 131.319C209.774 132.288 209.705 133.51 209.414 134.968C208.831 137.882 207.382 141.633 205.174 145.974C200.761 154.649 193.368 165.578 184.039 176.696C174.71 187.814 165.23 196.992 157.454 202.844C153.562 205.773 150.12 207.852 147.351 208.931C145.966 209.471 144.775 209.752 143.795 209.777C142.819 209.802 142.084 209.574 141.559 209.134C141.034 208.693 140.682 208.009 140.538 207.044C140.392 206.074 140.461 204.852 140.752 203.395C141.335 200.48 142.784 196.729 144.993 192.388C149.406 183.714 156.798 172.784 166.127 161.666C175.456 150.548 184.936 141.37 192.712 135.518C196.604 132.589 200.046 130.511 202.815 129.431C204.2 128.891 205.391 128.611 206.372 128.586C207.348 128.561 208.082 128.788 208.607 129.229Z" stroke="url(#paint21_linear_996_2)"/>
<path opacity="0.689655" d="M211.964 131.883C212.449 132.367 212.739 133.079 212.799 134.054C212.86 135.032 212.684 136.244 212.267 137.67C211.433 140.523 209.662 144.133 207.084 148.265C201.932 156.522 193.615 166.766 183.352 177.028C173.09 187.291 162.846 195.608 154.589 200.76C150.457 203.338 146.846 205.109 143.994 205.943C142.568 206.36 141.356 206.536 140.378 206.475C139.403 206.415 138.691 206.125 138.207 205.64C137.722 205.155 137.431 204.443 137.371 203.469C137.311 202.49 137.486 201.279 137.903 199.852C138.738 197 140.508 193.389 143.087 189.257C148.239 181 156.555 170.757 166.818 160.494C177.081 150.231 187.324 141.915 195.581 136.763C199.713 134.184 203.324 132.414 206.176 131.579C207.603 131.162 208.814 130.987 209.793 131.047C210.767 131.107 211.479 131.398 211.964 131.883Z" stroke="url(#paint22_linear_996_2)"/>
<path opacity="0.724138" d="M215.037 134.817C215.477 135.342 215.705 136.076 215.68 137.052C215.654 138.032 215.374 139.224 214.834 140.608C213.755 143.377 211.676 146.82 208.747 150.711C202.895 158.488 193.717 167.967 182.599 177.297C171.481 186.626 160.552 194.018 151.877 198.431C147.536 200.639 143.785 202.089 140.871 202.671C139.413 202.963 138.191 203.032 137.222 202.886C136.256 202.741 135.572 202.39 135.132 201.865C134.691 201.34 134.464 200.605 134.489 199.629C134.514 198.649 134.794 197.457 135.334 196.073C136.414 193.304 138.492 189.861 141.421 185.97C147.273 178.193 156.451 168.714 167.569 159.384C178.687 150.055 189.616 142.663 198.291 138.25C202.632 136.042 206.383 134.592 209.297 134.01C210.755 133.719 211.977 133.65 212.947 133.795C213.912 133.94 214.596 134.291 215.037 134.817Z" stroke="url(#paint23_linear_996_2)"/>
<path opacity="0.758621" d="M217.806 138.006C218.199 138.567 218.362 139.319 218.251 140.289C218.141 141.263 217.758 142.426 217.099 143.758C215.783 146.422 213.412 149.67 210.155 153.292C203.647 160.529 193.678 169.172 181.789 177.497C169.9 185.822 158.368 192.233 149.342 195.874C144.825 197.695 140.962 198.812 138.008 199.138C136.531 199.301 135.308 199.264 134.354 199.034C133.405 198.806 132.754 198.396 132.361 197.835C131.968 197.273 131.805 196.522 131.916 195.551C132.026 194.577 132.409 193.415 133.068 192.082C134.384 189.418 136.755 186.17 140.012 182.548C146.52 175.312 156.489 166.668 168.378 158.343C180.267 150.018 191.799 143.607 200.825 139.967C205.342 138.145 209.205 137.028 212.159 136.702C213.636 136.539 214.859 136.577 215.813 136.806C216.762 137.034 217.413 137.444 217.806 138.006Z" stroke="url(#paint24_linear_996_2)"/>
<path opacity="0.793103" d="M220.251 141.423C220.594 142.017 220.69 142.779 220.496 143.736C220.301 144.697 219.818 145.822 219.046 147.092C217.502 149.631 214.857 152.66 211.297 155.984C204.184 162.626 193.499 170.368 180.93 177.625C168.361 184.882 156.314 190.264 147.005 193.104C142.346 194.525 138.4 195.3 135.429 195.368C133.943 195.402 132.728 195.258 131.798 194.946C130.872 194.636 130.26 194.171 129.917 193.577C129.575 192.983 129.478 192.221 129.672 191.264C129.867 190.303 130.35 189.178 131.122 187.908C132.666 185.369 135.311 182.34 138.871 179.016C145.985 172.374 156.669 164.632 169.239 157.375C181.808 150.118 193.855 144.736 203.164 141.896C207.822 140.475 211.768 139.7 214.739 139.632C216.225 139.598 217.441 139.742 218.37 140.054C219.296 140.364 219.908 140.829 220.251 141.423Z" stroke="url(#paint25_linear_996_2)"/>
<path opacity="0.827586" d="M222.352 145.038C222.642 145.659 222.671 146.428 222.394 147.364C222.116 148.304 221.537 149.383 220.658 150.58C218.898 152.975 215.999 155.763 212.163 158.764C204.498 164.76 193.179 171.542 180.025 177.675C166.871 183.809 154.401 188.121 144.88 190.138C140.115 191.148 136.117 191.577 133.151 191.385C131.668 191.289 130.47 191.04 129.571 190.648C128.676 190.259 128.106 189.742 127.816 189.121C127.527 188.5 127.497 187.731 127.774 186.795C128.052 185.855 128.631 184.776 129.511 183.579C131.27 181.184 134.169 178.396 138.005 175.395C145.671 169.398 156.989 162.617 170.143 156.483C183.297 150.35 195.767 146.038 205.288 144.021C210.053 143.011 214.052 142.582 217.017 142.774C218.5 142.87 219.699 143.119 220.598 143.511C221.493 143.9 222.062 144.417 222.352 145.038Z" stroke="url(#paint26_linear_996_2)"/>
<path opacity="0.862069" d="M224.091 148.821C224.325 149.466 224.288 150.234 223.931 151.142C223.572 152.055 222.901 153.078 221.92 154.195C219.958 156.427 216.828 158.951 212.745 161.607C204.586 166.913 192.719 172.682 179.081 177.646C165.442 182.61 152.644 185.818 142.983 186.998C138.149 187.588 134.128 187.667 131.19 187.218C129.721 186.993 128.549 186.64 127.688 186.172C126.83 185.705 126.308 185.141 126.073 184.497C125.839 183.853 125.876 183.085 126.233 182.176C126.592 181.264 127.263 180.24 128.244 179.124C130.206 176.891 133.336 174.367 137.419 171.712C145.579 166.406 157.445 160.637 171.083 155.673C184.722 150.709 197.52 147.501 207.181 146.321C212.016 145.73 216.036 145.651 218.974 146.101C220.443 146.325 221.615 146.678 222.476 147.147C223.334 147.613 223.857 148.177 224.091 148.821Z" stroke="url(#paint27_linear_996_2)"/>
<path opacity="0.896552" d="M225.461 152.74C225.638 153.403 225.534 154.164 225.099 155.038C224.662 155.916 223.904 156.877 222.83 157.904C220.681 159.957 217.342 162.199 213.043 164.488C204.453 169.063 192.129 173.775 178.11 177.532C164.091 181.288 151.061 183.369 141.334 183.702C136.467 183.869 132.455 183.598 129.567 182.894C128.123 182.542 126.987 182.088 126.169 181.546C125.355 181.007 124.884 180.4 124.707 179.737C124.529 179.075 124.634 178.314 125.069 177.44C125.506 176.562 126.263 175.6 127.338 174.574C129.486 172.521 132.825 170.279 137.124 167.99C145.715 163.415 158.039 158.702 172.058 154.946C186.077 151.189 199.106 149.109 208.833 148.775C213.701 148.608 217.713 148.88 220.6 149.584C222.044 149.936 223.181 150.39 223.998 150.931C224.812 151.471 225.283 152.078 225.461 152.74Z" stroke="url(#paint28_linear_996_2)"/>
<path opacity="0.931035" d="M226.446 156.762C226.566 157.437 226.395 158.187 225.886 159.02C225.374 159.856 224.535 160.748 223.375 161.677C221.056 163.535 217.534 165.477 213.052 167.383C204.096 171.191 191.408 174.812 177.115 177.332C162.822 179.852 149.66 180.79 139.942 180.274C135.078 180.016 131.105 179.396 128.29 178.443C126.882 177.967 125.789 177.415 125.022 176.805C124.258 176.196 123.842 175.55 123.723 174.875C123.604 174.2 123.774 173.45 124.284 172.617C124.795 171.781 125.634 170.889 126.794 169.96C129.113 168.102 132.635 166.16 137.117 164.254C146.073 160.446 158.761 156.825 173.054 154.305C187.348 151.784 200.509 150.847 210.228 151.363C215.091 151.621 219.065 152.241 221.88 153.194C223.287 153.67 224.38 154.222 225.147 154.832C225.911 155.441 226.327 156.087 226.446 156.762Z" stroke="url(#paint29_linear_996_2)"/>
<path opacity="0.965517" d="M227.039 160.853C227.098 161.536 226.863 162.268 226.283 163.053C225.7 163.841 224.787 164.657 223.551 165.481C221.078 167.13 217.401 168.758 212.77 170.266C203.515 173.279 190.56 175.78 176.102 177.045C161.643 178.31 148.451 178.097 138.814 176.736C133.991 176.055 130.087 175.091 127.366 173.896C126.005 173.299 124.964 172.655 124.253 171.979C123.545 171.307 123.187 170.627 123.127 169.944C123.067 169.261 123.302 168.529 123.883 167.744C124.465 166.955 125.378 166.14 126.615 165.315C129.087 163.666 132.765 162.039 137.396 160.531C146.65 157.517 159.605 155.016 174.064 153.751C188.522 152.486 201.715 152.7 211.352 154.06C216.175 154.741 220.079 155.706 222.8 156.9C224.161 157.497 225.202 158.142 225.912 158.817C226.62 159.49 226.979 160.17 227.039 160.853Z" stroke="url(#paint30_linear_996_2)"/>
<path d="M227.238 164.978C227.238 165.663 226.94 166.372 226.294 167.103C225.644 167.838 224.664 168.571 223.36 169.284C220.753 170.711 216.948 172.012 212.203 173.111C202.722 175.306 189.598 176.669 175.084 176.669C160.57 176.669 147.446 175.306 137.965 173.111C133.22 172.012 129.414 170.711 126.808 169.284C125.504 168.571 124.523 167.838 123.874 167.103C123.228 166.372 122.93 165.663 122.93 164.978C122.93 164.292 123.228 163.583 123.874 162.852C124.523 162.117 125.504 161.384 126.808 160.671C129.414 159.244 133.22 157.943 137.965 156.844C147.446 154.649 160.57 153.286 175.084 153.286C189.598 153.286 202.722 154.649 212.203 156.844C216.948 157.943 220.753 159.244 223.36 160.671C224.664 161.384 225.644 162.117 226.294 162.852C226.94 163.583 227.238 164.292 227.238 164.978Z" stroke="url(#paint31_linear_996_2)"/>
<g filter="url(#filter10_f_996_2)">
<circle cx="175.956" cy="171.797" r="21.4814" fill="url(#paint32_radial_996_2)" fill-opacity="0.54"/>
</g>
<circle opacity="0.64" cx="176.5" cy="169.5" r="65.5" fill="#1B1B1B"/>
<g filter="url(#filter11_f_996_2)">
<path d="M182.792 206.015C114.631 225.9 57.5124 234.068 55.1252 224.403L90.6176 214.129C91.2989 216.875 131.212 207.619 179.718 193.496C228.223 179.372 267.044 165.679 266.42 162.982L301.963 152.649C304.243 162.325 250.959 186.238 182.792 206.015Z" fill="url(#paint33_radial_996_2)" fill-opacity="0.3"/>
</g>
<g opacity="0.97" filter="url(#filter12_f_996_2)">
<path d="M232.102 147.476C275.2 137.514 306.156 134.844 308.373 141.992C311.36 151.995 257.102 177.46 187.018 198.825C116.947 220.301 57.6993 229.491 54.6011 219.5C52.4878 212.685 77.1205 198.716 115.235 183.707M238.234 159.128C258.311 154.012 271.339 151.57 271.831 153.153C272.653 155.942 232.891 170.629 183.024 185.884C133.157 201.139 91.9768 211.239 91.0934 208.401C90.634 206.925 101.166 202.245 118.403 195.954" stroke="url(#paint34_linear_996_2)" stroke-width="4"/>
</g>
<path d="M187.018 198.825C116.947 220.301 57.6993 229.491 54.6011 219.5C52.5576 212.911 75.5213 199.632 111.5 185.192L115.5 197.022C99.9922 202.772 90.6604 207.01 91.0934 208.401C91.9768 211.239 133.157 201.139 183.024 185.884C232.891 170.629 272.653 155.942 271.831 153.153C271.374 151.685 260.14 153.678 242.5 158.054L239 145.921C278.471 137.253 306.277 135.232 308.373 141.992C311.36 151.995 257.102 177.46 187.018 198.825Z" fill="url(#paint35_radial_996_2)"/>
<defs>
<filter id="filter0_f_996_2" x="76.8594" y="98.7656" width="185.857" height="125.556" filterUnits="userSpaceOnUse" color-interpolation-filters="sRGB">
<feFlood flood-opacity="0" result="BackgroundImageFix"/>
<feBlend mode="normal" in="SourceGraphic" in2="BackgroundImageFix" result="shape"/>
<feGaussianBlur stdDeviation="14.5" result="effect1_foregroundBlur_996_2"/>
</filter>
<filter id="filter1_f_996_2" x="29.7324" y="22.8101" width="211.693" height="211.693" filterUnits="userSpaceOnUse" color-interpolation-filters="sRGB">
<feFlood flood-opacity="0" result="BackgroundImageFix"/>
<feBlend mode="normal" in="SourceGraphic" in2="BackgroundImageFix" result="shape"/>
<feGaussianBlur stdDeviation="40" result="effect1_foregroundBlur_996_2"/>
</filter>
<filter id="filter2_f_996_2" x="118.078" y="66.1321" width="116.711" height="116.711" filterUnits="userSpaceOnUse" color-interpolation-filters="sRGB">
<feFlood flood-opacity="0" result="BackgroundImageFix"/>
<feBlend mode="normal" in="SourceGraphic" in2="BackgroundImageFix" result="shape"/>
<feGaussianBlur stdDeviation="7.5" result="effect1_foregroundBlur_996_2"/>
</filter>
<filter id="filter3_i_996_2" x="85.7324" y="78.8572" width="157.402" height="157.402" filterUnits="userSpaceOnUse" color-interpolation-filters="sRGB">
<feFlood flood-opacity="0" result="BackgroundImageFix"/>
<feBlend mode="normal" in="SourceGraphic" in2="BackgroundImageFix" result="shape"/>
<feColorMatrix in="SourceAlpha" type="matrix" values="0 0 0 0 0 0 0 0 0 0 0 0 0 0 0 0 0 0 127 0" result="hardAlpha"/>
<feOffset dx="-24" dy="-24"/>
<feGaussianBlur stdDeviation="27"/>
<feComposite in2="hardAlpha" operator="arithmetic" k2="-1" k3="1"/>
<feColorMatrix type="matrix" values="0 0 0 0 0 0 0 0 0 0 0 0 0 0 0 0 0 0 1 0"/>
<feBlend mode="normal" in2="shape" result="effect1_innerShadow_996_2"/>
</filter>
<filter id="filter4_f_996_2" x="102.732" y="95.8572" width="147.402" height="147.402" filterUnits="userSpaceOnUse" color-interpolation-filters="sRGB">
<feFlood flood-opacity="0" result="BackgroundImageFix"/>
<feBlend mode="normal" in="SourceGraphic" in2="BackgroundImageFix" result="shape"/>
<feGaussianBlur stdDeviation="3.5" result="effect1_foregroundBlur_996_2"/>
</filter>
<filter id="filter5_f_996_2" x="117.102" y="103.508" width="73.2559" height="73.2571" filterUnits="userSpaceOnUse" color-interpolation-filters="sRGB">
<feFlood flood-opacity="0" result="BackgroundImageFix"/>
<feBlend mode="normal" in="SourceGraphic" in2="BackgroundImageFix" result="shape"/>
<feGaussianBlur stdDeviation="12" result="effect1_foregroundBlur_996_2"/>
</filter>
<filter id="filter6_f_996_2" x="101.902" y="92.9111" width="69.8574" height="67.7556" filterUnits="userSpaceOnUse" color-interpolation-filters="sRGB">
<feFlood flood-opacity="0" result="BackgroundImageFix"/>
<feBlend mode="normal" in="SourceGraphic" in2="BackgroundImageFix" result="shape"/>
<feGaussianBlur stdDeviation="6" result="effect1_foregroundBlur_996_2"/>
</filter>
<filter id="filter7_f_996_2" x="103.521" y="92.6108" width="57.5859" height="55.5159" filterUnits="userSpaceOnUse" color-interpolation-filters="sRGB">
<feFlood flood-opacity="0" result="BackgroundImageFix"/>
<feBlend mode="normal" in="SourceGraphic" in2="BackgroundImageFix" result="shape"/>
<feGaussianBlur stdDeviation="10.5" result="effect1_foregroundBlur_996_2"/>
</filter>
<filter id="filter8_f_996_2" x="83.1855" y="75.957" width="99.1367" height="94.4688" filterUnits="userSpaceOnUse" color-interpolation-filters="sRGB">
<feFlood flood-opacity="0" result="BackgroundImageFix"/>
<feBlend mode="normal" in="SourceGraphic" in2="BackgroundImageFix" result="shape"/>
<feGaussianBlur stdDeviation="16" result="effect1_foregroundBlur_996_2"/>
</filter>
<filter id="filter9_f_996_2" x="109.846" y="98.5156" width="44.9395" height="43.7058" filterUnits="userSpaceOnUse" color-interpolation-filters="sRGB">
<feFlood flood-opacity="0" result="BackgroundImageFix"/>
<feBlend mode="normal" in="SourceGraphic" in2="BackgroundImageFix" result="shape"/>
<feGaussianBlur stdDeviation="8" result="effect1_foregroundBlur_996_2"/>
</filter>
<filter id="filter10_f_996_2" x="122.475" y="118.315" width="106.963" height="106.963" filterUnits="userSpaceOnUse" color-interpolation-filters="sRGB">
<feFlood flood-opacity="0" result="BackgroundImageFix"/>
<feBlend mode="normal" in="SourceGraphic" in2="BackgroundImageFix" result="shape"/>
<feGaussianBlur stdDeviation="16" result="effect1_foregroundBlur_996_2"/>
</filter>
<filter id="filter11_f_996_2" x="48.125" y="145.649" width="260.908" height="89.8137" filterUnits="userSpaceOnUse" color-interpolation-filters="sRGB">
<feFlood flood-opacity="0" result="BackgroundImageFix"/>
<feBlend mode="normal" in="SourceGraphic" in2="BackgroundImageFix" result="shape"/>
<feGaussianBlur stdDeviation="3.5" result="effect1_foregroundBlur_996_2"/>
</filter>
<filter id="filter12_f_996_2" x="37.4746" y="120.958" width="288.018" height="119.577" filterUnits="userSpaceOnUse" color-interpolation-filters="sRGB">
<feFlood flood-opacity="0" result="BackgroundImageFix"/>
<feBlend mode="normal" in="SourceGraphic" in2="BackgroundImageFix" result="shape"/>
<feGaussianBlur stdDeviation="7.5" result="effect1_foregroundBlur_996_2"/>
</filter>
<linearGradient id="paint0_linear_996_2" x1="128.409" y1="121.533" x2="224.458" y2="217.583" gradientUnits="userSpaceOnUse">
<stop stop-color="#2C2C2C"/>
<stop offset="0.255208"/>
<stop offset="0.670139" stop-color="#181818"/>
<stop offset="1" stop-color="#333333"/>
</linearGradient>
<linearGradient id="paint1_linear_996_2" x1="109.732" y1="102.857" x2="243.135" y2="236.259" gradientUnits="userSpaceOnUse">
<stop stop-color="#818181"/>
<stop offset="1" stop-color="#030303" stop-opacity="0.25"/>
</linearGradient>
<linearGradient id="paint2_linear_996_2" x1="136.831" y1="104.911" x2="111.811" y2="144.606" gradientUnits="userSpaceOnUse">
<stop stop-color="white" stop-opacity="0"/>
<stop offset="0.440972" stop-color="white"/>
<stop offset="0.75868" stop-color="white" stop-opacity="0"/>
</linearGradient>
<linearGradient id="paint3_linear_996_2" x1="167.247" y1="186.087" x2="182.92" y2="167.409" gradientUnits="userSpaceOnUse">
<stop stop-color="white" stop-opacity="0"/>
<stop offset="0.305555" stop-color="#00B320"/>
<stop offset="0.800347" stop-color="#0058BF"/>
<stop offset="1" stop-color="white" stop-opacity="0"/>
</linearGradient>
<linearGradient id="paint4_linear_996_2" x1="166.463" y1="184.949" x2="183.704" y2="167.708" gradientUnits="userSpaceOnUse">
<stop stop-color="white" stop-opacity="0"/>
<stop offset="0.305555" stop-color="#00B320"/>
<stop offset="0.800347" stop-color="#0058BF"/>
<stop offset="1" stop-color="white" stop-opacity="0"/>
</linearGradient>
<linearGradient id="paint5_linear_996_2" x1="165.744" y1="183.744" x2="184.423" y2="168.071" gradientUnits="userSpaceOnUse">
<stop stop-color="white" stop-opacity="0"/>
<stop offset="0.305555" stop-color="#00B320"/>
<stop offset="0.800347" stop-color="#0058BF"/>
<stop offset="1" stop-color="white" stop-opacity="0"/>
</linearGradient>
<linearGradient id="paint6_linear_996_2" x1="165.098" y1="182.48" x2="185.071" y2="168.495" gradientUnits="userSpaceOnUse">
<stop stop-color="white" stop-opacity="0"/>
<stop offset="0.305555" stop-color="#00B320"/>
<stop offset="0.800347" stop-color="#0058BF"/>
<stop offset="1" stop-color="white" stop-opacity="0"/>
</linearGradient>
<linearGradient id="paint7_linear_996_2" x1="164.526" y1="181.163" x2="185.643" y2="168.971" gradientUnits="userSpaceOnUse">
<stop stop-color="white" stop-opacity="0"/>
<stop offset="0.305555" stop-color="#00B320"/>
<stop offset="0.800347" stop-color="#0058BF"/>
<stop offset="1" stop-color="white" stop-opacity="0"/>
</linearGradient>
<linearGradient id="paint8_linear_996_2" x1="164.034" y1="179.799" x2="186.133" y2="169.494" gradientUnits="userSpaceOnUse">
<stop stop-color="white" stop-opacity="0"/>
<stop offset="0.305555" stop-color="#00B320"/>
<stop offset="0.800347" stop-color="#0058BF"/>
<stop offset="1" stop-color="white" stop-opacity="0"/>
</linearGradient>
<linearGradient id="paint9_linear_996_2" x1="163.628" y1="178.396" x2="186.54" y2="170.057" gradientUnits="userSpaceOnUse">
<stop stop-color="white" stop-opacity="0"/>
<stop offset="0.305555" stop-color="#00B320"/>
<stop offset="0.800347" stop-color="#0058BF"/>
<stop offset="1" stop-color="white" stop-opacity="0"/>
</linearGradient>
<linearGradient id="paint10_linear_996_2" x1="163.308" y1="176.961" x2="186.86" y2="170.651" gradientUnits="userSpaceOnUse">
<stop stop-color="white" stop-opacity="0"/>
<stop offset="0.305555" stop-color="#00B320"/>
<stop offset="0.800347" stop-color="#0058BF"/>
<stop offset="1" stop-color="white" stop-opacity="0"/>
</linearGradient>
<linearGradient id="paint11_linear_996_2" x1="163.077" y1="175.503" x2="187.09" y2="171.269" gradientUnits="userSpaceOnUse">
<stop stop-color="white" stop-opacity="0"/>
<stop offset="0.305555" stop-color="#00B320"/>
<stop offset="0.800347" stop-color="#0058BF"/>
<stop offset="1" stop-color="white" stop-opacity="0"/>
</linearGradient>
<linearGradient id="paint12_linear_996_2" x1="162.94" y1="174.028" x2="187.23" y2="171.903" gradientUnits="userSpaceOnUse">
<stop stop-color="white" stop-opacity="0"/>
<stop offset="0.305555" stop-color="#00B320"/>
<stop offset="0.800347" stop-color="#0058BF"/>
<stop offset="1" stop-color="white" stop-opacity="0"/>
</linearGradient>
<linearGradient id="paint13_linear_996_2" x1="162.891" y1="172.545" x2="187.273" y2="172.545" gradientUnits="userSpaceOnUse">
<stop stop-color="white" stop-opacity="0"/>
<stop offset="0.305555" stop-color="#00B320"/>
<stop offset="0.800347" stop-color="#0058BF"/>
<stop offset="1" stop-color="white" stop-opacity="0"/>
</linearGradient>
<linearGradient id="paint14_linear_996_2" x1="162.939" y1="171.062" x2="187.229" y2="173.187" gradientUnits="userSpaceOnUse">
<stop stop-color="white" stop-opacity="0"/>
<stop offset="0.305555" stop-color="#00B320"/>
<stop offset="0.800347" stop-color="#0058BF"/>
<stop offset="1" stop-color="white" stop-opacity="0"/>
</linearGradient>
<linearGradient id="paint15_linear_996_2" x1="163.077" y1="169.587" x2="187.089" y2="173.821" gradientUnits="userSpaceOnUse">
<stop stop-color="white" stop-opacity="0"/>
<stop offset="0.305555" stop-color="#00B320"/>
<stop offset="0.800347" stop-color="#0058BF"/>
<stop offset="1" stop-color="white" stop-opacity="0"/>
</linearGradient>
<linearGradient id="paint16_linear_996_2" x1="163.306" y1="168.128" x2="186.858" y2="174.439" gradientUnits="userSpaceOnUse">
<stop stop-color="white" stop-opacity="0"/>
<stop offset="0.305555" stop-color="#00B320"/>
<stop offset="0.800347" stop-color="#0058BF"/>
<stop offset="1" stop-color="white" stop-opacity="0"/>
</linearGradient>
<linearGradient id="paint17_linear_996_2" x1="163.628" y1="166.693" x2="186.54" y2="175.033" gradientUnits="userSpaceOnUse">
<stop stop-color="white" stop-opacity="0"/>
<stop offset="0.305555" stop-color="#00B320"/>
<stop offset="0.800347" stop-color="#0058BF"/>
<stop offset="1" stop-color="white" stop-opacity="0"/>
</linearGradient>
<linearGradient id="paint18_linear_996_2" x1="164.034" y1="165.29" x2="186.132" y2="175.595" gradientUnits="userSpaceOnUse">
<stop stop-color="white" stop-opacity="0"/>
<stop offset="0.305555" stop-color="#00B320"/>
<stop offset="0.800347" stop-color="#0058BF"/>
<stop offset="1" stop-color="white" stop-opacity="0"/>
</linearGradient>
<linearGradient id="paint19_linear_996_2" x1="164.524" y1="163.927" x2="185.64" y2="176.118" gradientUnits="userSpaceOnUse">
<stop stop-color="white" stop-opacity="0"/>
<stop offset="0.305555" stop-color="#00B320"/>
<stop offset="0.800347" stop-color="#0058BF"/>
<stop offset="1" stop-color="white" stop-opacity="0"/>
</linearGradient>
<linearGradient id="paint20_linear_996_2" x1="165.096" y1="162.609" x2="185.069" y2="176.595" gradientUnits="userSpaceOnUse">
<stop stop-color="white" stop-opacity="0"/>
<stop offset="0.305555" stop-color="#00B320"/>
<stop offset="0.800347" stop-color="#0058BF"/>
<stop offset="1" stop-color="white" stop-opacity="0"/>
</linearGradient>
<linearGradient id="paint21_linear_996_2" x1="165.744" y1="161.345" x2="184.422" y2="177.018" gradientUnits="userSpaceOnUse">
<stop stop-color="white" stop-opacity="0"/>
<stop offset="0.305555" stop-color="#00B320"/>
<stop offset="0.800347" stop-color="#0058BF"/>
<stop offset="1" stop-color="white" stop-opacity="0"/>
</linearGradient>
<linearGradient id="paint22_linear_996_2" x1="166.465" y1="160.141" x2="183.706" y2="177.382" gradientUnits="userSpaceOnUse">
<stop stop-color="white" stop-opacity="0"/>
<stop offset="0.305555" stop-color="#00B320"/>
<stop offset="0.800347" stop-color="#0058BF"/>
<stop offset="1" stop-color="white" stop-opacity="0"/>
</linearGradient>
<linearGradient id="paint23_linear_996_2" x1="167.248" y1="159.001" x2="182.921" y2="177.68" gradientUnits="userSpaceOnUse">
<stop stop-color="white" stop-opacity="0"/>
<stop offset="0.305555" stop-color="#00B320"/>
<stop offset="0.800347" stop-color="#0058BF"/>
<stop offset="1" stop-color="white" stop-opacity="0"/>
</linearGradient>
<linearGradient id="paint24_linear_996_2" x1="168.091" y1="157.934" x2="182.076" y2="177.907" gradientUnits="userSpaceOnUse">
<stop stop-color="white" stop-opacity="0"/>
<stop offset="0.305555" stop-color="#00B320"/>
<stop offset="0.800347" stop-color="#0058BF"/>
<stop offset="1" stop-color="white" stop-opacity="0"/>
</linearGradient>
<linearGradient id="paint25_linear_996_2" x1="168.989" y1="156.942" x2="181.18" y2="178.058" gradientUnits="userSpaceOnUse">
<stop stop-color="white" stop-opacity="0"/>
<stop offset="0.305555" stop-color="#00B320"/>
<stop offset="0.800347" stop-color="#0058BF"/>
<stop offset="1" stop-color="white" stop-opacity="0"/>
</linearGradient>
<linearGradient id="paint26_linear_996_2" x1="169.932" y1="156.03" x2="180.236" y2="178.129" gradientUnits="userSpaceOnUse">
<stop stop-color="white" stop-opacity="0"/>
<stop offset="0.305555" stop-color="#00B320"/>
<stop offset="0.800347" stop-color="#0058BF"/>
<stop offset="1" stop-color="white" stop-opacity="0"/>
</linearGradient>
<linearGradient id="paint27_linear_996_2" x1="170.912" y1="155.203" x2="179.252" y2="178.115" gradientUnits="userSpaceOnUse">
<stop stop-color="white" stop-opacity="0"/>
<stop offset="0.305555" stop-color="#00B320"/>
<stop offset="0.800347" stop-color="#0058BF"/>
<stop offset="1" stop-color="white" stop-opacity="0"/>
</linearGradient>
<linearGradient id="paint28_linear_996_2" x1="171.928" y1="154.463" x2="178.239" y2="178.015" gradientUnits="userSpaceOnUse">
<stop stop-color="white" stop-opacity="0"/>
<stop offset="0.305555" stop-color="#00B320"/>
<stop offset="0.800347" stop-color="#0058BF"/>
<stop offset="1" stop-color="white" stop-opacity="0"/>
</linearGradient>
<linearGradient id="paint29_linear_996_2" x1="172.968" y1="153.812" x2="177.202" y2="177.825" gradientUnits="userSpaceOnUse">
<stop stop-color="white" stop-opacity="0"/>
<stop offset="0.305555" stop-color="#00B320"/>
<stop offset="0.800347" stop-color="#0058BF"/>
<stop offset="1" stop-color="white" stop-opacity="0"/>
</linearGradient>
<linearGradient id="paint30_linear_996_2" x1="174.02" y1="153.253" x2="176.145" y2="177.543" gradientUnits="userSpaceOnUse">
<stop stop-color="white" stop-opacity="0"/>
<stop offset="0.305555" stop-color="#00B320"/>
<stop offset="0.800347" stop-color="#0058BF"/>
<stop offset="1" stop-color="white" stop-opacity="0"/>
</linearGradient>
<linearGradient id="paint31_linear_996_2" x1="175.084" y1="152.786" x2="175.084" y2="177.169" gradientUnits="userSpaceOnUse">
<stop stop-color="white" stop-opacity="0"/>
<stop offset="0.305555" stop-color="#00B320"/>
<stop offset="0.800347" stop-color="#0058BF"/>
<stop offset="1" stop-color="white" stop-opacity="0"/>
</linearGradient>
<radialGradient id="paint32_radial_996_2" cx="0" cy="0" r="1" gradientUnits="userSpaceOnUse" gradientTransform="translate(177.49 170.262) rotate(21.4956) scale(28.4743)">
<stop stop-opacity="0"/>
<stop offset="0.520247"/>
<stop offset="1" stop-opacity="0"/>
</radialGradient>
<radialGradient id="paint33_radial_996_2" cx="0" cy="0" r="1" gradientUnits="userSpaceOnUse" gradientTransform="translate(179.997 165.205) rotate(72.401) scale(163.811 240.503)">
<stop offset="0.138889" stop-color="#086BFF"/>
<stop offset="0.544146" stop-color="#0BFD2D"/>
<stop offset="1" stop-color="#525252"/>
</radialGradient>
<linearGradient id="paint34_linear_996_2" x1="66.3871" y1="217.251" x2="312.465" y2="140.71" gradientUnits="userSpaceOnUse">
<stop stop-color="#0BFD2D"/>
<stop offset="0.612847" stop-color="#086BFF"/>
<stop offset="0.961805" stop-color="#067C17"/>
</linearGradient>
<radialGradient id="paint35_radial_996_2" cx="0" cy="0" r="1" gradientUnits="userSpaceOnUse" gradientTransform="translate(181.557 156.55) rotate(69.1184) scale(172.595 247.757)">
<stop offset="0.0373922" stop-color="#086BFF" stop-opacity="0"/>
<stop offset="0.138889" stop-color="#086BFF"/>
<stop offset="0.544146" stop-color="#0BFD2D"/>
<stop offset="1" stop-color="#525252"/>
</radialGradient>
</defs>
</svg>
