<svg width="32" height="33" viewBox="0 0 32 33" fill="none" xmlns="http://www.w3.org/2000/svg">
<path d="M22.732 32.1737H15.2497C14.6362 32.1737 14.1274 31.6649 14.1274 31.0514C14.1274 30.4378 14.6362 29.929 15.2497 29.929H22.732C27.0118 29.929 29.0919 27.849 29.0919 23.5691V8.6046C29.0919 4.32475 27.0118 2.24468 22.732 2.24468H10.7604C6.48051 2.24468 4.40044 4.32475 4.40044 8.6046V19.0798C4.40044 19.6933 3.89165 20.2021 3.2781 20.2021C2.66456 20.2021 2.15576 19.6933 2.15576 19.0798V8.6046C2.15576 3.14255 5.29831 0 10.7604 0H22.732C28.194 0 31.3366 3.14255 31.3366 8.6046V23.5691C31.3366 29.0312 28.194 32.1737 22.732 32.1737Z" fill="#4D4D4D"/>
<path d="M26.4729 11.9716H23.48C21.2054 11.9716 19.3647 10.131 19.3647 7.85639V4.86349C19.3647 4.24994 19.8735 3.74115 20.4871 3.74115C21.1006 3.74115 21.6094 4.24994 21.6094 4.86349V7.85639C21.6094 8.88895 22.4474 9.72696 23.48 9.72696H26.4729C27.0864 9.72696 27.5952 10.2358 27.5952 10.8493C27.5952 11.4628 27.0864 11.9716 26.4729 11.9716Z" fill="#4D4D4D"/>
<path d="M4.77459 30.6772C4.49026 30.6772 4.20594 30.5725 3.98147 30.3481L0.988564 27.3552C0.554593 26.9212 0.554593 26.2028 0.988564 25.7688L3.98147 22.7759C4.41544 22.3419 5.13373 22.3419 5.56771 22.7759C6.00168 23.2099 6.00168 23.9283 5.56771 24.3622L3.36792 26.562L5.56771 28.7617C6.00168 29.1957 6.00168 29.9141 5.56771 30.3481C5.34324 30.5725 5.05891 30.6772 4.77459 30.6772Z" fill="#4D4D4D"/>
<path d="M9.2641 30.6772C8.97978 30.6772 8.69545 30.5725 8.47099 30.3481C8.03702 29.9141 8.03702 29.1957 8.47099 28.7617L10.6708 26.562L8.47099 24.3622C8.03702 23.9283 8.03702 23.2099 8.47099 22.7759C8.90496 22.3419 9.62325 22.3419 10.0572 22.7759L13.0501 25.7688C13.4841 26.2028 13.4841 26.9212 13.0501 27.3552L10.0572 30.3481C9.83275 30.5725 9.54843 30.6772 9.2641 30.6772Z" fill="#4D4D4D"/>
</svg>
