<svg width="67" height="67" viewBox="0 0 67 67" fill="none" xmlns="http://www.w3.org/2000/svg">
<path fill-rule="evenodd" clip-rule="evenodd" d="M12.1349 10.5169C11.0562 5.12362 15.3709 0 20.7641 0C25.6181 0 29.6631 4.04496 29.6631 8.89892V19.6855C31.0114 19.6855 32.09 19.6855 33.4384 19.6855C34.517 19.6855 35.8653 19.6855 36.944 19.6855V8.89892C36.944 4.04496 40.989 0 45.8429 0C51.2362 0 55.5508 5.12362 54.4722 10.5169L52.0452 23.1911C60.1351 26.6968 66.3374 32.899 66.3374 40.7193V45.3036C66.3374 51.7755 62.0228 57.1688 56.0902 60.6744C50.1575 64.4497 42.0676 66.6071 33.1687 66.6071C24.2698 66.6071 16.1799 64.4497 10.2472 60.6744C4.31463 57.1688 0 51.7755 0 45.3036V40.7193C0 32.899 6.20227 26.6968 14.2922 23.1911L12.1349 10.5169ZM49.0789 25.0788L51.7755 10.2472C52.5845 6.47194 49.6182 2.9663 45.8429 2.9663C42.3373 2.9663 39.6406 5.66295 39.6406 9.16859V22.9215C38.8316 22.9215 37.753 22.6518 36.944 22.6518C35.8653 22.6518 34.517 22.6518 33.4384 22.6518C32.09 22.6518 31.0114 22.6518 29.6631 22.9215C28.8541 22.9215 27.7754 23.1911 26.9664 23.1911V9.43825C26.9664 5.93261 24.2698 3.23597 20.7641 3.23597C16.9888 3.23597 14.0225 6.74161 14.8315 10.5169L17.5282 25.6181C8.89892 28.8541 2.96631 34.7867 2.96631 41.5283V46.1126C2.96631 56.3598 16.4495 64.7194 33.1687 64.7194C49.8879 64.7194 63.3711 56.3598 63.3711 46.1126V41.5283C63.6408 34.2474 57.7081 28.3147 49.0789 25.0788Z" fill="#633001"/>
<path d="M63.6392 45.5736C63.6392 55.8208 50.1559 64.1804 33.4368 64.1804C16.7176 64.1804 3.23438 55.8208 3.23438 45.5736V40.9893H63.9088V45.5736H63.6392Z" fill="#FEDC90"/>
<path fill-rule="evenodd" clip-rule="evenodd" d="M14.8337 9.97722C14.0247 6.20193 16.991 2.69629 20.7663 2.69629C24.272 2.69629 26.9686 5.39293 26.9686 8.89856V22.9211C29.1259 22.6514 31.2832 22.3818 33.4405 22.3818C35.5979 22.3818 37.7552 22.6514 39.6428 22.6514V8.89856C39.6428 5.39293 42.3395 2.69629 45.8451 2.69629C49.6204 2.69629 52.5867 6.20193 51.7777 9.97722L49.0811 24.8088C57.98 28.0447 63.9126 33.9773 63.9126 40.7189C63.9126 50.9662 50.4294 59.3258 33.7102 59.3258C16.991 59.3258 3.50781 50.9662 3.50781 40.7189C3.50781 33.9773 9.44043 28.0447 18.0697 24.8088L14.8337 9.97722Z" fill="#D1884F"/>
<path d="M25.0794 39.6402C25.0794 42.3369 23.4614 44.7638 21.8434 44.7638C20.2254 44.7638 18.6074 42.6065 18.6074 39.6402C18.6074 36.9436 20.2254 34.5166 21.8434 34.5166C23.4614 34.5166 25.0794 36.6739 25.0794 39.6402Z" fill="#633001"/>
<path d="M48.2708 39.6402C48.2708 42.3369 46.6528 44.7638 45.0348 44.7638C43.1472 44.7638 41.7988 42.6065 41.7988 39.6402C41.7988 36.9436 43.4168 34.5166 45.0348 34.5166C46.6528 34.5166 48.2708 36.6739 48.2708 39.6402Z" fill="#633001"/>
</svg>
