<svg width="23" height="23" viewBox="0 0 23 23" fill="none" xmlns="http://www.w3.org/2000/svg">
<path fill-rule="evenodd" clip-rule="evenodd" d="M4.13565 3.59375C3.77287 1.725 5.22397 0 7.11041 0C8.77918 0 10.1577 1.36562 10.1577 3.01875V6.75625C10.5931 6.75625 11.0284 6.68438 11.4637 6.68438C11.8991 6.68438 12.2618 6.68437 12.6972 6.75625V3.01875C12.6972 1.36562 14.0757 0 15.7445 0C17.6309 0 19.082 1.725 18.7918 3.59375L17.9937 7.97813C20.8233 9.2 23 11.3562 23 14.0156V15.6687C23 17.8969 21.5489 19.7656 19.4448 20.9875C17.3407 22.2812 14.5836 23 11.4637 23C8.34385 23 5.58675 22.2812 3.48265 20.9875C1.4511 19.7656 0 17.8969 0 15.6687V14.0156C0 11.3562 2.1041 9.2 4.93375 7.97813L4.13565 3.59375ZM16.9054 8.55312L17.8486 3.37812C18.0662 2.08437 17.123 0.8625 15.7445 0.8625C14.5836 0.8625 13.6404 1.79687 13.6404 2.94687V7.69062C13.3502 7.61875 12.9874 7.61875 12.6972 7.61875C12.2618 7.61875 11.8991 7.54688 11.4637 7.54688C11.0284 7.54688 10.5931 7.54688 10.1577 7.61875C9.86751 7.61875 9.50473 7.69062 9.21451 7.69062V3.01875C9.21451 1.86875 8.27129 0.934375 7.11041 0.934375C5.80442 0.934375 4.78864 2.15625 5.07886 3.45L6.02208 8.625C2.97476 9.775 0.943218 11.7875 0.943218 14.0875V15.7406C0.943218 19.2625 5.65931 22.1375 11.4637 22.1375C17.2681 22.1375 21.9842 19.2625 21.9842 15.7406V14.0875C22.0568 11.7156 20.0252 9.70312 16.9054 8.55312Z" fill="#633001"/>
<path d="M22.0566 15.6687C22.0566 19.1906 17.3405 22.0656 11.5361 22.0656C5.73171 22.0656 1.01562 19.1906 1.01562 15.6687V14.0156H22.1292V15.6687H22.0566Z" fill="#FEDC90"/>
<path fill-rule="evenodd" clip-rule="evenodd" d="M5.07872 3.4502C4.7885 2.15645 5.80427 0.93457 7.11026 0.93457C8.27115 0.93457 9.21436 1.86895 9.21436 3.01894V7.76269C9.93992 7.69082 10.6655 7.61895 11.4636 7.61895C12.1891 7.61895 12.9147 7.69082 13.6402 7.76269V3.01894C13.6402 1.86895 14.5834 0.93457 15.7443 0.93457C17.0503 0.93457 18.0661 2.15645 17.8484 3.4502L16.9052 8.62519C19.9525 9.77519 22.0566 11.7877 22.0566 14.0877C22.0566 17.6096 17.3405 20.4846 11.5361 20.4846C5.73171 20.4846 1.01562 17.6096 1.01562 14.0877C1.01562 11.7877 3.04717 9.77519 6.09449 8.62519L5.07872 3.4502Z" fill="#D1884F"/>
<path d="M8.56102 13.5844C8.56102 14.5187 8.05314 15.3094 7.40014 15.3094C6.74714 15.3094 6.23926 14.5187 6.23926 13.5844C6.23926 12.65 6.74714 11.8594 7.40014 11.8594C8.05314 11.8594 8.56102 12.65 8.56102 13.5844Z" fill="#633001"/>
<path d="M16.6147 13.5844C16.6147 14.5187 16.1068 15.3094 15.4539 15.3094C14.8009 15.3094 14.293 14.5187 14.293 13.5844C14.293 12.65 14.8009 11.8594 15.4539 11.8594C16.1068 11.8594 16.6147 12.65 16.6147 13.5844Z" fill="#633001"/>
</svg>
