<svg width="9" height="8" viewBox="0 0 9 8" fill="none" xmlns="http://www.w3.org/2000/svg">
<path d="M6.68214 5.634L8.81689 4.39695C8.93006 4.33124 9 4.20936 9 4.07858V1.60447C9 1.47368 8.93006 1.35182 8.81689 1.28611L6.68214 0.0490446C6.56897 -0.016667 6.42848 -0.0160286 6.31595 0.0490446L4.18117 1.28611C4.06803 1.35182 3.99809 1.47368 3.99809 1.60447V6.02573L2.50095 6.89276L1.00381 6.02573V4.29106L2.50095 3.42403L3.48825 3.99628V2.83259L2.68403 2.36622C2.62872 2.33433 2.56518 2.3171 2.50095 2.3171C2.43673 2.3171 2.37319 2.33433 2.31787 2.36622L0.183091 3.60328C0.0699315 3.669 0 3.79087 0 3.92165V6.39578C0 6.52657 0.0699315 6.6484 0.183091 6.71412L2.31787 7.9512C2.43101 8.01627 2.57089 8.01627 2.68403 7.9512L4.81881 6.71412C4.93198 6.6484 5.00189 6.52657 5.00189 6.39578V1.97386L5.02859 1.95855L6.49842 1.10683L7.99556 1.97386V3.70856L6.49842 4.57559L5.51237 4.00457V5.16829L6.3153 5.63339C6.42848 5.69845 6.56897 5.69845 6.68149 5.63339L6.68214 5.634Z" fill="url(#paint0_linear_2828_1181)"/>
<defs>
<linearGradient id="paint0_linear_2828_1181" x1="-0.0292441" y1="6.63819" x2="8.62892" y2="1.63054" gradientUnits="userSpaceOnUse">
<stop stop-color="#A726C1"/>
<stop offset="0.88" stop-color="#803BDF"/>
<stop offset="1" stop-color="#7B3FE4"/>
</linearGradient>
</defs>
</svg>
