<svg width="31" height="31" viewBox="0 0 31 31" fill="none" xmlns="http://www.w3.org/2000/svg">
<path d="M30.9062 15.6255C30.9062 23.8756 23.9876 30.5635 15.4531 30.5635C6.9186 30.5635 0 23.8756 0 15.6255C0 7.37548 6.9186 0.6875 15.4531 0.6875C23.9876 0.6875 30.9062 7.37548 30.9062 15.6255Z" fill="#2D2D2D"/>
<path d="M15.8603 7.90591C11.4375 7.90591 11.7172 9.8183 11.7172 9.8183V11.8054H15.9232V12.4284H10.0421C10.0421 12.4284 7.21094 12.0795 7.21094 16.5677C7.21094 21.0559 9.71075 20.8734 9.71075 20.8734H11.1541V18.7797C11.1541 18.7797 11.0731 16.2799 13.5835 16.2799H17.7957C17.7957 16.2799 20.1454 16.3173 20.1454 14.005V10.2107C20.1454 10.2107 20.5017 7.89844 15.8833 7.89844L15.8603 7.90591ZM13.5355 9.23711C13.6851 9.23334 13.8323 9.27399 13.9588 9.35393C14.0852 9.43387 14.1851 9.5495 14.2458 9.68621C14.3065 9.82291 14.3253 9.97455 14.2998 10.1219C14.2743 10.2693 14.2057 10.4058 14.1026 10.5142C13.9995 10.6226 13.8666 10.698 13.7207 10.7309C13.5748 10.7637 13.4224 10.7526 13.2828 10.6988C13.1432 10.6451 13.0227 10.5511 12.9365 10.4289C12.8503 10.3066 12.8023 10.1616 12.7986 10.012V9.99957C12.7986 9.79901 12.8783 9.60666 13.0201 9.46483C13.1619 9.32301 13.3543 9.24334 13.5548 9.24334L13.5355 9.23711Z" fill="url(#paint0_linear_2538_191)"/>
<path d="M15.9827 25.2293C20.4055 25.2293 20.1258 23.3107 20.1258 23.3107V21.3297H15.9204V20.7068H21.8196C21.8196 20.7068 24.6508 21.0233 24.6508 16.5612C24.6508 12.0992 22.151 12.2556 22.151 12.2556H20.6889V14.3218C20.6889 14.3218 20.7699 16.8216 18.2595 16.8216H14.0454C14.0454 16.8216 11.6939 16.7861 11.6939 19.0984V22.9182C11.6939 22.9182 11.3376 25.2305 15.9559 25.2305H15.9809L15.9827 25.2293ZM18.3075 23.8918C18.158 23.8956 18.0107 23.855 17.8843 23.775C17.7578 23.6951 17.658 23.5794 17.5973 23.4427C17.5366 23.306 17.5178 23.1544 17.5432 23.007C17.5687 22.8596 17.6373 22.7231 17.7404 22.6147C17.8435 22.5063 17.9764 22.4309 18.1223 22.3981C18.2682 22.3652 18.4206 22.3764 18.5602 22.4301C18.6998 22.4839 18.8203 22.5778 18.9065 22.7001C18.9927 22.8223 19.0407 22.9674 19.0444 23.1169V23.1356C19.0444 23.3362 18.9647 23.5285 18.8229 23.6703C18.6811 23.8122 18.4887 23.8918 18.2882 23.8918H18.3069H18.3075Z" fill="url(#paint1_linear_2538_191)"/>
<defs>
<linearGradient id="paint0_linear_2538_191" x1="8.93468" y1="9.60208" x2="17.2113" y2="17.86" gradientUnits="userSpaceOnUse">
<stop stop-color="#387EB8"/>
<stop offset="1" stop-color="#366994"/>
</linearGradient>
<linearGradient id="paint1_linear_2538_191" x1="13.829" y1="14.9812" x2="23.2851" y2="23.2366" gradientUnits="userSpaceOnUse">
<stop stop-color="#FFE052"/>
<stop offset="1" stop-color="#FFC331"/>
</linearGradient>
</defs>
</svg>
