<svg width="87" height="87" viewBox="0 0 87 87" fill="none" xmlns="http://www.w3.org/2000/svg">
<mask id="mask0_2828_215" style="mask-type:luminance" maskUnits="userSpaceOnUse" x="0" y="0" width="87" height="87">
<path d="M0 0H87V87H0V0Z" fill="white"/>
</mask>
<g mask="url(#mask0_2828_215)">
<path d="M41.1496 2.82751C48.8182 2.37315 56.609 4.13519 63.3124 7.89532C68.7825 10.9378 73.529 15.2641 77.0781 20.4198C80.0899 24.7949 82.2425 29.7626 83.3434 34.9602C84.4922 40.338 84.5391 45.949 83.486 51.3464C82.1689 58.172 79.0341 64.6277 74.5234 69.9133C70.3781 74.7812 65.0789 78.6625 59.174 81.1189C50.6162 84.7108 40.8174 85.2199 31.9238 82.5745C26.5076 80.9789 21.439 78.2251 17.1391 74.5668C11.9082 70.1354 7.81768 64.3647 5.39525 57.9499C2.14099 49.4297 1.89669 39.8092 4.67094 31.1242C6.6825 24.7983 10.2777 18.9848 15.0345 14.3544C19.7153 9.77278 25.5159 6.33895 31.794 4.46845C34.834 3.5553 37.9815 3.00685 41.1496 2.82751Z" fill="white"/>
<path d="M18.4213 40.5513C18.5823 41.2952 18.6794 42.0506 18.8398 42.7957C18.938 43.2523 19.0873 43.1413 19.3215 42.9447C19.7701 42.5678 20.201 42.1683 20.7066 41.8643C20.8483 41.8925 20.9214 42.0058 20.9997 42.108C22.3204 43.8327 24.0768 44.889 26.1464 45.4647C27.081 45.7247 28.0305 45.9036 29.0668 46.007C28.7422 45.6184 28.4807 45.2616 28.2995 44.8531C27.9691 44.1087 28.0848 43.443 28.6423 42.8547C29.3228 42.1366 30.2215 41.8396 31.1334 41.6019C33.0448 41.1037 34.9922 41.0542 36.9545 41.1932C38.5359 41.3053 40.0904 41.5621 41.6144 41.9878C42.8855 42.343 44.1336 42.7678 45.2605 43.4812C45.4188 43.6081 45.5276 43.7827 45.6798 43.9157C47.1292 45.4707 47.9742 47.3088 48.0318 49.4318C48.0714 50.8981 47.6656 52.2983 46.9307 53.5864C45.6055 55.9097 43.6723 57.5957 41.3668 58.8884C38.9954 60.2181 36.4493 61.0038 33.7501 61.2967C28.9666 61.8157 24.5346 60.7784 20.4583 58.2394C17.0693 56.1286 14.4661 53.2421 12.3415 49.896C11.3369 48.3136 10.4987 46.6437 9.7295 44.9372C9.63542 44.7285 9.61338 44.4957 9.51745 44.3235C9.57846 44.5268 9.69052 44.756 9.46826 44.9731C9.40029 44.1087 9.47743 43.2452 9.52267 42.3849C9.64737 40.0083 9.99583 37.6619 10.6227 35.3625C11.8446 30.8807 13.8746 26.8054 16.763 23.1607C20.5306 18.4065 25.2328 14.9026 30.862 12.6551C33.8628 11.457 36.9786 10.7256 40.2032 10.4285C45.2575 9.96287 50.1547 10.6287 54.9303 12.3245C54.204 13.7028 50.0561 17.3957 46.8343 19.5334C46.7475 18.5831 46.5202 17.6833 46.203 16.8059C46.1864 16.5722 46.3958 16.4991 46.526 16.3872C47.1959 15.8114 47.8693 15.2396 48.5477 14.6737C48.6144 14.6181 48.6843 14.5653 48.7432 14.5015C48.8198 14.4187 48.9484 14.3508 48.9218 14.2226C48.8928 14.0833 48.7424 14.0891 48.6351 14.0721C48.3208 14.0221 48.0093 13.947 47.6872 13.9532C47.246 13.9003 46.8111 13.8013 46.365 13.7927C46.023 13.7721 45.6867 13.6851 45.341 13.7129C45.1669 13.7009 44.9908 13.7154 44.8187 13.6756C44.5288 13.5838 44.2313 13.6244 43.9359 13.626C43.76 13.6229 43.5839 13.6126 43.4078 13.6284C42.9026 13.6569 42.3949 13.5727 41.8917 13.6673C41.7688 13.6951 41.6446 13.7078 41.5188 13.7048C41.373 13.7072 41.2272 13.7115 41.0813 13.7093C40.8905 13.6987 40.7006 13.6989 40.5166 13.763C39.9838 13.8113 39.4504 13.8537 38.9236 13.9508C38.2888 14.0849 37.6372 14.1176 37.0064 14.2739C36.4272 14.4246 35.8319 14.511 35.264 14.7075C34.5087 14.9157 33.7625 15.1536 33.019 15.4001C31.936 15.8307 30.8366 16.2237 29.8057 16.7761C27.4537 17.9038 25.3137 19.3539 23.3482 21.0613C21.5389 22.633 19.924 24.3864 18.5214 26.3322C17.8201 27.3046 17.1816 28.3165 16.6033 29.3667C16.2359 30.0507 15.8814 30.741 15.5622 31.449C15.3266 31.9953 15.0495 32.5239 14.8688 33.0934C14.6375 33.6623 14.4463 34.245 14.2638 34.8308C14.0455 35.4178 13.9187 36.031 13.7475 36.6314C13.6737 36.8666 13.6276 37.1088 13.5703 37.3483C13.4971 37.6372 13.4527 37.9316 13.3999 38.2245C13.3096 38.7172 13.2271 39.211 13.1564 39.7069C13.059 40.2165 13.0145 40.7322 12.9745 41.2485C12.889 41.5899 12.9516 41.9437 12.8892 42.2869C12.7936 42.7151 12.8566 43.1511 12.8286 43.5819C12.816 43.8845 12.8105 44.1881 12.818 44.4914C12.821 44.6162 12.7616 44.79 12.8925 44.8505C13.0426 44.9196 13.1507 44.7612 13.2589 44.6729C13.6279 44.3714 13.9881 44.0589 14.3491 43.7482C15.5638 42.7024 16.7934 41.6743 18.0127 40.6339C18.1182 40.544 18.2328 40.3099 18.4213 40.5513Z" fill="#4189C9"/>
<path d="M45.2521 43.5906C43.8178 42.7385 42.249 42.2422 40.6393 41.8606C38.5152 41.3572 36.3569 41.1589 34.1804 41.2681C32.6471 41.345 31.1278 41.5581 29.7166 42.2316C29.5473 42.3123 29.3834 42.4081 29.2275 42.5127C28.0851 43.2792 27.9116 44.2996 28.7377 45.4034C28.9086 45.6315 29.0989 45.8452 29.3291 46.1249C28.5878 46.1278 27.931 45.9863 27.2763 45.8564C25.5235 45.5089 23.8759 44.9004 22.4634 43.7726C21.7833 43.2299 21.1615 42.6209 20.707 41.8644C20.8926 41.5625 21.2029 41.4208 21.4932 41.2533C22.0526 41.0187 22.5597 40.6834 23.1129 40.4308C25.6035 39.2934 28.2065 38.5955 30.9308 38.3409C32.0123 38.2398 33.0948 38.137 34.1822 38.1774C37.4012 38.2971 40.5449 38.8603 43.6183 39.8176C44.4061 40.0629 45.1863 40.3333 46.0067 40.6107C46.0055 40.3829 45.874 40.2411 45.7863 40.0914C45.4563 39.5276 45.0783 38.9976 44.6544 38.4985C44.501 38.318 44.286 38.1589 44.2905 37.8797C44.7231 37.9784 45.1562 38.0752 45.588 38.1772C45.7003 38.2038 45.8392 38.2735 45.9137 38.1784C46.0122 38.0527 45.8638 37.9437 45.8 37.8487C45.1626 36.8993 44.3694 36.0896 43.5179 35.3335C43.9689 35.072 44.433 35.2854 44.8724 35.3414C49.3818 35.9164 53.49 37.5234 57.0737 40.3347C61.8182 44.0567 64.8842 48.8649 66.1763 54.7781C66.6099 56.7625 66.7144 58.7793 66.5683 60.7881C66.3142 64.2812 65.2165 67.504 63.152 70.3671C63.0168 70.5547 62.8328 70.7049 62.7329 70.9192C62.2641 71.6161 61.5778 72.0889 60.9429 72.6038C57.5145 75.3841 53.5175 76.8325 49.2101 77.5084C45.8453 78.0361 42.4638 78.1136 39.0818 77.6865C33.7121 77.0082 28.7836 75.1431 24.305 72.1028C23.2293 71.3726 22.1747 70.6114 21.2302 69.7108C21.1943 69.6699 21.1962 69.6308 21.2354 69.5933C21.4379 69.5134 21.5654 69.6593 21.6984 69.7599C23.9695 71.4766 26.4931 72.6722 29.2343 73.4206C30.1442 73.6692 31.0734 73.821 32.0029 73.9709C32.2137 74.048 32.4382 74.0121 32.6541 74.0476C32.6986 74.053 32.7421 74.063 32.7852 74.0748C34.9015 74.3251 37.0043 74.1782 39.0909 73.8098C43.678 73 47.7522 71.0784 51.2419 67.9931C53.6202 65.8903 55.4978 63.407 56.4908 60.3428C57.4788 57.2938 57.3433 54.2983 55.9488 51.3544C55.6626 52.6754 54.9697 53.7674 54.1031 54.763C53.2245 55.7414 52.2184 56.5636 51.0792 57.2211C50.9471 57.2974 50.8009 57.4422 50.649 57.3257C50.518 57.2251 50.5963 57.0508 50.6367 56.918C50.9153 56 51.098 55.0629 51.2104 54.1114C51.6155 50.1074 50.0705 46.9923 46.8836 44.6286C46.3653 44.244 45.8187 43.9008 45.2521 43.5906Z" fill="#262F71"/>
<path d="M32.0244 74.0554C30.8429 73.9527 29.6947 73.6851 28.5614 73.3481C26.4136 72.7097 24.4191 71.7443 22.5445 70.5221C22.0993 70.2318 21.7243 69.8426 21.2408 69.6076C20.9635 69.5674 20.8475 69.2964 20.6252 69.1776C15.9411 65.0135 12.7418 59.8998 10.9011 53.9259C10.0033 51.0119 9.53081 48.0245 9.46875 44.9737C9.48035 44.7452 9.49184 44.5171 9.50993 44.1615C9.73683 44.6672 9.91431 45.0685 10.0964 45.4678C11.782 49.1632 13.939 52.5351 16.9103 55.3419C20.0706 58.3272 23.7426 60.3161 28.0655 61.0189C33.1362 61.8435 37.8808 60.9596 42.2429 58.2274C44.4183 56.8649 46.2037 55.1021 47.2295 52.7004C48.4735 49.7875 48.0052 47.0811 46.1107 44.5865C45.9447 44.368 45.7682 44.1576 45.5965 43.9434C45.8221 43.7507 45.9414 43.9733 46.0693 44.0809C47.2065 45.0363 48.0778 46.1921 48.69 47.5487C49.2767 48.8487 49.5831 50.2209 49.6009 51.6311C49.6189 53.0577 49.3228 54.4478 48.679 55.7921C48.8519 55.7995 48.9516 55.7157 49.0543 55.6555C49.6546 55.3035 50.2266 54.9129 50.7543 54.4553C50.9186 54.3131 51.0638 54.0979 51.3348 54.1304C51.1911 55.1942 50.9753 56.2433 50.6285 57.3492C51.3841 56.9284 52.02 56.4955 52.632 56.0183C53.1348 55.6261 53.5401 55.1336 54.0332 54.7345C54.2432 54.8242 54.2431 55.0324 54.2916 55.2077C55.0945 58.1041 54.5134 60.8088 53.0829 63.3625C51.348 66.4599 48.7961 68.7653 45.8198 70.6307C43.4042 72.1445 40.799 73.205 38.016 73.8259C36.2674 74.2163 34.5012 74.3199 32.7184 74.1388L32.7187 74.139C32.4982 74.0195 32.2464 74.1617 32.0244 74.0554Z" fill="#161F42"/>
<path d="M75.8832 52.5566C75.7236 49.2098 74.9214 46.0208 73.4739 43.0034C72.5354 41.0467 71.3527 39.2473 69.9459 37.582C68.6806 36.0841 67.2284 34.8059 65.7045 33.5936C65.8475 33.4529 66.0247 33.4798 66.1961 33.5007C68.3319 33.7597 70.4164 34.2361 72.4363 34.9828C72.9397 35.1689 73.4255 35.3932 73.8895 35.6623C74.0639 35.7328 74.2089 35.854 74.3719 35.945C74.4119 35.9674 74.4338 36.0247 74.4931 36.0122C74.4581 35.9635 74.4401 35.912 74.4677 35.8532C73.0951 34.0642 71.435 32.5725 69.6922 31.1551C67.6086 29.4605 65.349 28.0525 62.9442 26.8749C59.5813 25.2283 56.0421 24.1538 52.3219 23.6911C51.9932 23.6502 51.6548 23.6951 51.3349 23.5785C51.307 23.3589 51.4913 23.286 51.6186 23.1797C53.7842 21.375 55.526 19.2349 56.7553 16.69C57.1274 15.9195 57.4385 15.1244 57.6997 14.3089C57.7731 14.0796 57.8167 13.8249 58.0459 13.6772C60.0291 14.6051 61.8712 15.7646 63.6267 17.0677C65.3297 18.3319 66.8847 19.7647 68.3082 21.3293C71.2496 24.5617 73.4982 28.2262 75.02 32.3306C76.3341 35.8749 77.0321 39.5323 77.1163 43.3138C77.1866 46.4762 76.8502 49.5858 76.0389 52.6435C75.9409 52.6971 75.9195 52.6132 75.8832 52.5566Z" fill="#4189C9"/>
<path d="M62.7325 70.9189C62.7291 70.5777 63.0047 70.386 63.1722 70.1471C64.7574 67.8835 65.7231 65.3767 66.2244 62.6672C66.5349 60.9881 66.5612 59.294 66.4507 57.613C66.2802 55.0208 65.6179 52.529 64.5733 50.1402C63.8045 48.3823 62.8534 46.7346 61.7047 45.2016C60.4862 43.5757 59.0746 42.136 57.5094 40.8379C55.0725 38.8168 52.3276 37.3757 49.3212 36.4222C47.7249 35.9159 46.0933 35.5633 44.4202 35.4138C44.1196 35.3869 43.8227 35.3151 43.5175 35.3333C42.4591 34.5529 41.3843 33.7985 40.1777 33.2532C40.1804 33.214 40.1832 33.1749 40.186 33.1357C40.6203 33.1357 41.0547 33.1424 41.4889 33.1346C47.5705 33.0256 53.1758 34.5164 58.0726 38.2204C63.1491 42.0605 66.3208 47.1333 67.5086 53.3947C68.522 58.7364 67.736 63.7818 64.776 68.4104C64.1937 69.3212 63.5549 70.1979 62.7325 70.9189Z" fill="#161F42"/>
<path d="M58.0457 13.6772C57.4371 15.5401 56.672 17.3278 55.5782 18.9663C54.4681 20.6292 53.1276 22.0768 51.5858 23.3434C51.4973 23.4161 51.4181 23.5 51.3347 23.5786C50.8031 23.849 50.3661 24.257 49.8734 24.5848C48.0722 25.7837 46.1508 26.7465 44.1447 27.547C44.0952 27.5666 44.0407 27.573 43.9949 27.584C43.9072 27.4538 44.0108 27.4064 44.0648 27.3551C45.204 26.2711 45.9098 24.9287 46.3803 23.4507C46.4475 23.2399 46.533 23.1121 46.7478 23.0272C50.2869 21.6261 53.1113 19.298 55.4239 16.3109C55.6342 16.0392 55.8401 15.764 56.0997 15.4229C55.3832 15.408 54.8351 15.7688 54.2295 15.8655C54.1154 15.8722 53.9667 15.9675 53.9398 15.752C56.1384 13.148 57.7801 10.2372 58.7927 6.97658C58.8569 6.76964 58.7924 6.48567 59.0802 6.38162C59.1033 6.39658 59.1131 6.41375 59.1097 6.43336C59.106 6.45389 59.1009 6.46421 59.0944 6.46421C59.0509 8.7682 58.7532 11.0357 58.1254 13.2564C58.0868 13.3932 58.0718 13.5368 58.0457 13.6772Z" fill="#161F42"/>
<path d="M44.2915 37.8792C45.0042 38.6797 45.6428 39.5335 46.1547 40.4776C46.204 40.5688 46.3329 40.6715 46.2183 40.7796C46.1316 40.8613 46.0306 40.7609 45.9393 40.727C43.5797 39.8488 41.161 39.1762 38.6816 38.7497C37.4346 38.5354 36.1691 38.4407 34.9023 38.3495C33.7541 38.2669 32.6173 38.308 31.4865 38.3986C28.886 38.6069 26.355 39.1633 23.9484 40.2038C23.2061 40.5247 22.4472 40.8128 21.7577 41.2465C21.679 41.2961 21.5845 41.3777 21.4941 41.2528C23.5936 39.7597 25.8982 38.6919 28.3608 37.9571C31.7424 36.948 35.197 36.7006 38.7022 36.9763C40.491 37.1172 42.2583 37.392 44.0086 37.7819C44.1053 37.8035 44.1973 37.8462 44.2915 37.8792Z" fill="#161F42"/>
<path d="M43.4217 13.5008C43.5957 13.5005 43.7697 13.5002 43.9437 13.5C44.2245 13.6212 44.5326 13.4676 44.8139 13.5856C44.9876 13.586 45.1612 13.5864 45.3348 13.5868C45.3785 13.8393 45.1713 13.9451 45.0274 14.0665C42.617 16.1028 40.2244 18.16 37.8122 20.1942C37.0155 20.866 36.2256 21.5461 35.4298 22.2189C35.3207 22.3111 35.1996 22.3977 35.1569 22.5472C34.1144 22.9375 33.1434 23.4291 32.3783 24.2796C32.0148 24.6836 31.7774 25.1503 31.5142 25.6092C30.7986 26.0768 30.1967 26.6837 29.5464 27.2302C27.8329 28.6703 26.1414 30.1366 24.4236 31.5716C24.2792 31.6922 24.1832 31.8618 24.0151 31.9556C23.7199 31.5147 23.7838 31.0326 23.8535 30.5496C24.0697 30.195 24.4105 29.9651 24.7173 29.7049C26.3832 28.2923 28.043 26.8724 29.7096 25.4606C31.3323 24.0859 32.949 22.7041 34.5707 21.3283C36.4351 19.7468 38.2971 18.1625 40.1582 16.577C41.1933 15.695 42.2228 14.8062 43.2731 13.9425C43.4325 13.8114 43.544 13.7068 43.4217 13.5008Z" fill="#5C94CE"/>
<path d="M73.9512 35.7759C71.907 34.783 69.7439 34.1775 67.5088 33.8146C66.9113 33.7176 66.3146 33.5986 65.7051 33.5935C64.9253 33.1008 64.1612 32.5812 63.3629 32.1205C60.7558 30.6159 57.9663 29.61 54.9901 29.1337C54.9406 29.1258 54.8945 29.0973 54.7988 29.0594C55.6868 28.8972 58.7066 29.3502 60.7983 29.9257C62.7255 30.4558 64.5791 31.173 66.421 32.1344C66.2326 31.5716 65.8894 31.1912 65.6796 30.741C65.6593 30.6206 65.4911 30.5156 65.6035 30.3883C65.7238 30.252 65.8434 30.3973 65.9496 30.4454C66.251 30.5826 66.5394 30.7476 66.8424 30.8829C69.3832 32.1957 71.7563 33.7626 73.9647 35.5791C74.0868 35.7422 74.0868 35.7422 73.9512 35.7759Z" fill="#161F42"/>
<path d="M43.4217 13.5009C43.4758 13.6276 43.6446 13.5349 43.7252 13.6774C43.2398 14.0979 42.7547 14.5248 42.2624 14.9432C41.3726 15.6994 40.4788 16.4505 39.5865 17.2035C38.3196 18.2727 37.0498 19.3384 35.7867 20.412C34.9074 21.1591 34.0412 21.9216 33.1621 22.6689C32.0966 23.5744 31.0214 24.4682 29.9549 25.3723C29.1077 26.0904 28.2695 26.8189 27.4235 27.5383C26.5342 28.2948 25.6405 29.0461 24.7482 29.7992C24.4507 30.0503 24.1518 30.2997 23.8535 30.5498C23.9384 30.1726 24.0235 29.7953 24.1084 29.4181C23.9637 29.0481 24.2652 28.8811 24.4709 28.7098C25.2829 28.0331 26.0813 27.3404 26.887 26.6565C28.7637 25.064 30.6375 23.4684 32.5127 21.8744C34.1231 20.5055 35.7367 19.1403 37.345 17.769C38.8432 16.4918 40.3524 15.2272 41.8362 13.9329C41.9499 13.8337 42.1666 13.7162 41.8536 13.5853C42.3678 13.3982 42.8999 13.5463 43.4217 13.5009Z" fill="#6497D0"/>
<path d="M41.8524 13.5854C41.9738 13.6068 42.1072 13.5424 42.2348 13.6416C41.9274 14.095 41.4755 14.3908 41.0783 14.7371C39.9391 15.7302 38.7829 16.704 37.6285 17.6797C36.5733 18.5715 35.5073 19.4506 34.4543 20.345C33.3897 21.2492 32.3397 22.1707 31.2752 23.0749C30.2221 23.9694 29.1542 24.8464 28.1013 25.7407C27.0366 26.6451 25.9813 27.5601 24.9242 28.4731C24.6062 28.7477 24.1862 28.9364 24.1072 29.4184C23.5456 29.4822 23.2489 29.9559 22.8378 30.2489C22.1889 30.7112 21.6958 31.3471 21.0972 31.8673C20.4954 32.2945 19.9641 32.8069 19.4029 33.2823C17.7345 34.6963 16.0743 36.1197 14.3996 37.5262C14.1668 37.7217 13.962 37.9511 13.7014 38.1131C13.5842 38.1859 13.4803 38.3208 13.3166 38.2071C13.3128 37.9045 13.3615 37.6124 13.4918 37.3367C14.3256 36.8041 15.0188 36.0991 15.7718 35.4681C17.8465 33.73 19.903 31.97 21.9638 30.2155C24.0136 28.4704 26.059 26.7202 28.1109 24.9778C30.1186 23.2729 32.129 21.5708 34.1359 19.8647C36.1867 18.1214 38.2471 16.389 40.282 14.6268C40.6866 14.2763 41.1129 13.9509 41.5062 13.5869C41.6215 13.5865 41.737 13.5859 41.8524 13.5854Z" fill="#689AD1"/>
<path d="M46.3794 13.6731C46.8512 13.6669 47.3075 13.788 47.7714 13.847C47.8973 14.1242 47.6592 14.2326 47.5121 14.3613C46.9323 14.8681 46.3259 15.3441 45.7612 15.8688C45.7003 15.7883 45.6355 15.7106 45.5794 15.6269C45.4508 15.4348 45.3603 15.4863 45.2771 15.6648C44.5925 17.1331 43.4154 18.1536 42.1335 19.0637C40.6929 20.0863 39.1407 20.9151 37.5079 21.5913C37.4204 21.4243 37.4126 21.4166 37.5625 21.2618C37.8751 20.9389 38.2327 20.6657 38.5742 20.3754C41.0439 18.2758 43.5212 16.1851 45.9759 14.068C46.1189 13.9447 46.2418 13.8016 46.3794 13.6731Z" fill="#4E8FCC"/>
<path d="M46.3785 13.6735C46.3622 13.8238 46.2942 13.9366 46.1747 14.0376C44.582 15.3854 42.9924 16.7369 41.4041 18.0899C40.1882 19.1258 38.9723 20.1621 37.766 21.2091C37.6568 21.3038 37.4524 21.371 37.5071 21.5916C36.7452 21.9637 35.9551 22.2662 35.1562 22.5474C34.8863 22.4736 35.1096 22.3772 35.1603 22.3323C35.6344 21.9126 36.1144 21.4994 36.5967 21.0892C37.4842 20.3347 38.3741 19.5828 39.2638 18.8308C40.1425 18.0882 41.0249 17.3499 41.901 16.6042C42.7776 15.8581 43.654 15.1114 44.5188 14.3518C44.7981 14.1065 45.1406 13.9249 45.3339 13.5871C45.6887 13.5369 46.0292 13.657 46.3785 13.6735Z" fill="#5591CD"/>
<path d="M40.2059 24.1247C41.125 23.6704 42.0848 23.2887 42.8863 22.6244C43.0529 22.618 43.0346 22.7136 42.9948 22.821C42.255 25.8861 39.9297 27.8986 36.7868 28.1923C36.1815 28.2489 35.5765 28.3182 34.9668 28.2605C35.045 28.0367 35.2578 28.0557 35.4302 28.0088C36.1125 27.8233 36.7892 27.624 37.4212 27.2976C38.6071 26.6851 39.4749 25.7811 39.9688 24.5314C40.0269 24.3843 40.0802 24.2331 40.2059 24.1247Z" fill="#161F42"/>
<path d="M40.2077 24.1249C39.8295 25.5861 38.8978 26.5972 37.6112 27.3207C36.7842 27.7856 35.8691 28.001 34.969 28.2607C34.7484 27.6114 34.9878 27.0635 35.3773 26.5706C35.8343 25.9928 36.4567 25.6324 37.1183 25.3302C38.1256 24.8701 39.1592 24.4788 40.2077 24.1249Z" fill="#418AC9"/>
<path d="M13.3162 38.2072C13.832 38.0163 14.1642 37.5794 14.5697 37.2467C15.8795 36.1722 17.1659 35.0691 18.4567 33.9715C19.1353 33.3944 19.8041 32.8059 20.4772 32.2224C20.6606 32.0635 20.83 31.8809 21.0966 31.8674C20.398 32.739 19.7352 33.6346 19.2398 34.6423C17.9064 35.772 16.5734 36.9022 15.2452 38.0382C14.6304 38.564 14.0027 39.0748 13.3974 39.6119C13.3044 39.6945 13.1997 39.7984 13.0566 39.6863C13.09 39.1839 13.1641 38.6887 13.3162 38.2072Z" fill="#6497D0"/>
<path d="M18.4207 40.5513C18.0097 40.5826 17.8242 40.9507 17.5525 41.1701C16.4096 42.0925 15.296 43.0513 14.1838 44.0109C13.8128 44.3309 13.4529 44.6629 13.0602 44.9576C12.8011 45.1522 12.7034 45.0771 12.7071 44.7739C12.7115 44.412 12.7082 44.0499 12.7082 43.6878C13.1105 43.2536 13.5911 42.9081 14.0397 42.5276C15.3364 41.4282 16.619 40.312 17.9319 39.2317C18.0449 39.1387 18.1395 38.9691 18.3339 39.079C18.3628 39.5697 18.3918 40.0605 18.4207 40.5513Z" fill="#468CCA"/>
<path d="M24.0137 31.9555C24.0156 31.7921 24.1257 31.6912 24.2353 31.5986C25.2792 30.717 26.3282 29.8412 27.3709 28.9582C28.2276 28.2328 29.0788 27.5011 29.9305 26.77C30.3782 26.3855 30.8225 25.9971 31.267 25.6089C31.3519 25.5347 31.4307 25.4795 31.5127 25.6093C31.4168 26.0048 31.3021 26.3971 31.3137 26.8106C30.8456 27.3243 30.2824 27.7305 29.7573 28.1793C28.1353 29.5656 26.515 30.9543 24.8816 32.3274C24.8156 32.383 24.7637 32.4539 24.7096 32.5215C24.3712 32.4636 24.1552 32.2553 24.0137 31.9555Z" fill="#5591CD"/>
<path d="M13.0576 39.6862C13.4325 39.5708 13.652 39.2441 13.9337 39.0112C15.4615 37.7479 16.9657 36.4561 18.4782 35.1743C18.7157 34.973 18.8832 34.6713 19.2407 34.6422C18.9581 35.3234 18.7369 36.0253 18.5419 36.7358C18.2704 36.7082 18.1321 36.9261 17.9656 37.0691C16.3904 38.4234 14.8007 39.7602 13.2183 41.1058C13.1232 41.1867 13.0391 41.3045 12.8836 41.2522C12.8687 40.7222 12.9124 40.1986 13.0576 39.6862Z" fill="#5C94CE"/>
<path d="M24.7087 32.5217C24.6008 32.3269 24.7847 32.2636 24.8797 32.1824C26.21 31.0443 27.5445 29.9112 28.8799 28.7791C29.6352 28.1386 30.3932 27.5013 31.1527 26.866C31.1931 26.8321 31.2589 26.8285 31.3129 26.8109C31.3142 27.1669 31.3656 27.5155 31.4726 27.8555C31.0173 28.3842 30.4438 28.7799 29.9202 29.2312C28.749 30.2409 27.569 31.2406 26.3877 32.2385C26.312 32.3025 26.2259 32.3641 26.2093 32.4751C25.7143 32.6578 25.2158 32.7314 24.7087 32.5217Z" fill="#4E8FCC"/>
<path d="M18.3349 39.0792C17.8463 39.3593 17.4562 39.7658 17.0268 40.1196C15.8953 41.0519 14.7803 42.0045 13.6696 42.9615C13.3636 43.2251 13.0862 43.5207 12.709 43.688C12.7553 43.2251 12.6125 42.7506 12.7957 42.2962C14.5104 40.8315 16.229 39.3713 17.9522 37.9165C18.0705 37.8166 18.1915 37.6952 18.3748 37.773C18.3615 38.2084 18.3482 38.6438 18.3349 39.0792Z" fill="#4E8FCC"/>
<path d="M18.3753 37.7727C17.8239 38.0691 17.3985 38.5276 16.9226 38.9188C15.8003 39.8413 14.7022 40.7935 13.5906 41.729C13.3415 41.9385 13.1678 42.2573 12.7961 42.2959C12.8403 41.9492 12.7029 41.5873 12.8831 41.2519C13.9679 40.3268 15.0514 39.3998 16.138 38.4768C16.8734 37.8522 17.6153 37.2352 18.3498 36.6096C18.5847 36.4097 18.5204 36.6292 18.5415 36.7356L18.3753 37.7727Z" fill="#5591CD"/>
<path d="M26.2101 32.4751C26.0501 32.3616 26.1617 32.2733 26.2464 32.2021C27.2695 31.3436 28.2979 30.4914 29.3199 29.6314C29.9577 29.0946 30.5872 28.5483 31.2188 28.0042C31.2956 27.9381 31.3618 27.8597 31.4734 27.8555L31.7346 28.3768C31.5342 28.6856 31.2123 28.8787 30.9866 29.1634C29.7303 30.5507 28.3239 31.7326 26.5447 32.4016C26.4389 32.4413 26.3219 32.4513 26.2101 32.4751Z" fill="#488DCA"/>
<path d="M45.7598 15.8687C45.9166 15.3754 46.4291 15.2343 46.7318 14.8866C47.0543 14.5161 47.582 14.351 47.7699 13.8469C48.148 13.8449 48.5099 13.9463 48.8774 14.0151C49.1952 14.0747 49.2088 14.2124 48.9896 14.4082C48.5162 14.8309 48.0392 15.2501 47.5581 15.664C47.1105 16.049 46.6554 16.4254 46.2036 16.8057L45.7598 15.8687Z" fill="#468CCA"/>
<path d="M24.287 35.7059C24.3637 35.8986 24.1329 35.9956 24.1597 36.1727C24.0389 35.644 23.752 35.4383 23.2215 35.544C22.6395 35.6598 22.1611 35.9685 21.7556 36.397C21.6471 36.5116 21.5281 36.6163 21.414 36.7256C21.3181 36.606 21.4159 36.5095 21.4518 36.4053C21.6878 35.6511 22.1935 35.1131 22.8352 34.6861C22.9798 34.5898 23.1356 34.512 23.3064 34.4711C24.0516 34.2931 24.4595 34.6574 24.357 35.4128C24.3435 35.5115 24.3317 35.6134 24.287 35.7059Z" fill="#428AC9"/>
<path d="M24.2882 35.7062C24.291 35.5912 24.2947 35.4762 24.2966 35.3611C24.3092 34.6025 23.879 34.3137 23.1745 34.6359C22.3622 35.0076 21.8502 35.6704 21.4932 36.4679C21.4114 36.4831 21.3684 36.4597 21.3942 36.3681C21.6502 35.421 22.1442 34.6369 22.9665 34.0793C23.172 33.9401 23.401 33.8572 23.6448 33.8151C24.04 33.747 24.4192 33.9622 24.5054 34.3496C24.6105 34.8223 24.5591 35.2858 24.2882 35.7062Z" fill="#182144"/>
<path d="M30.9865 29.1633C30.8406 29.0453 30.9687 29.0016 31.0465 28.9473C31.2918 28.7763 31.4263 28.4715 31.7345 28.3767C32.1292 29.0001 32.7595 29.2752 33.4158 29.5094C33.5479 29.5566 33.6862 29.5869 33.9014 29.6474C32.8896 29.9104 32.0182 29.8091 31.2159 29.261C31.1431 29.2113 31.081 29.1545 30.9865 29.1633Z" fill="#458CCA"/>
<path d="M66.8421 30.8833C66.5226 30.8454 66.2799 30.6274 65.9904 30.52C65.8786 30.4785 65.7714 30.3294 65.6519 30.4268C65.5527 30.5079 65.7146 30.6294 65.6794 30.7413C65.5021 30.5863 65.4405 30.3635 65.3477 30.1368C65.8655 30.3518 66.3816 30.5597 66.8421 30.8833Z" fill="#63657D"/>
<path d="M73.9512 35.7761C74.0459 35.7168 73.9574 35.6447 73.9646 35.5794C74.1326 35.6706 74.3006 35.7619 74.4684 35.8532C74.5466 35.9534 74.6248 36.0535 74.7401 36.2012C74.4093 36.1134 74.186 35.9332 73.9512 35.7761Z" fill="#263154"/>
<path d="M53.9609 28.9145C54.2098 28.8947 54.3932 28.8871 54.6545 28.9672C54.3849 29.1127 54.1993 29.0933 53.9609 28.9145Z" fill="#A09AA9"/>
<path d="M20.625 69.1773C20.8961 69.2265 21.0188 69.4877 21.2406 69.6074C21.237 69.6418 21.2335 69.6761 21.2299 69.7104C20.9896 69.5766 20.7771 69.4114 20.625 69.1773Z" fill="#424A7F"/>
<path d="M75.8828 52.5566C75.9347 52.5855 75.9866 52.6145 76.0385 52.6435C76.0608 52.8183 75.9867 52.9621 75.8828 53.1763V52.5566Z" fill="#8CB7DE"/>
<path d="M53.9398 15.7519C53.999 15.885 54.1316 15.8307 54.2294 15.8655C54.0786 15.9236 53.9278 15.9817 53.7642 16.0449C53.728 15.8606 53.8536 15.8194 53.9398 15.7519Z" fill="#5A5D76"/>
<path d="M21.3933 36.3679C21.4263 36.401 21.4593 36.4343 21.4923 36.4676C21.4662 36.5537 21.4402 36.6397 21.4143 36.7256C21.3746 36.7764 21.3349 36.8273 21.2266 36.9663C21.2833 36.6856 21.2868 36.514 21.3933 36.3679Z" fill="#4F668A"/>
<path d="M42.9952 22.8213C42.9702 22.7496 42.9804 22.6585 42.8867 22.6248C42.9144 22.558 42.9893 22.464 43.0242 22.4976C43.1289 22.5986 43.0851 22.7196 42.9952 22.8213Z" fill="#555A73"/>
<path d="M13.666 36.6396C13.7774 36.0124 13.9125 35.3919 14.1871 34.8112C15.2111 34.0975 16.1113 33.2329 17.0631 32.4321C18.7142 31.043 20.3555 29.6422 21.9961 28.2405C23.4934 26.9611 24.9938 25.6852 26.4961 24.4119C28.1201 23.0355 29.74 21.6542 31.362 20.2757C32.8406 19.0191 34.3224 17.7662 35.7944 16.502C36.8269 15.6153 37.8817 14.7547 38.8971 13.8479C39.4391 13.7094 39.9908 13.6618 40.5487 13.6721C40.6032 13.624 40.6641 13.6289 40.7268 13.6508C40.8505 13.8609 40.6931 13.9805 40.5661 14.0878C39.163 15.2746 37.7672 16.4699 36.3681 17.6614C34.8811 18.9279 33.3918 20.1917 31.9055 21.4591C30.5292 22.6327 29.1511 23.8043 27.7707 24.9731C26.0923 26.3943 24.4185 27.821 22.7413 29.2436C20.6556 31.0125 18.5795 32.7924 16.4892 34.5559C15.682 35.2369 14.8873 35.9332 14.0683 36.6002C13.9663 36.6832 13.8281 36.9448 13.666 36.6396Z" fill="#6D9CD2"/>
<path d="M38.8975 13.8481C38.7512 14.3371 38.2792 14.52 37.9441 14.818C36.8453 15.795 35.7099 16.7309 34.586 17.6794C33.3299 18.7394 32.0667 19.7911 30.8148 20.8561C29.7271 21.7814 28.6551 22.7253 27.5681 23.6516C26.5145 24.5491 25.4474 25.4307 24.3924 26.3263C23.3367 27.2224 22.2911 28.1306 21.2361 29.0275C20.1816 29.9238 19.1185 30.8103 18.0633 31.7059C17.1946 32.4433 16.3329 33.1891 15.4657 33.9283C15.1147 34.2277 14.7569 34.5194 14.4034 34.8157C14.3276 34.8793 14.2577 34.9105 14.1875 34.8115C14.3193 34.2065 14.5115 33.6229 14.7967 33.0717C15.5975 32.5678 16.2666 31.8999 16.9846 31.2948C18.6341 29.9044 20.2767 28.5055 21.9162 27.1033C23.6111 25.6538 25.3117 24.2114 27.01 22.7664C28.411 21.5746 29.8111 20.382 31.2157 19.1946C33.0406 17.6519 34.8497 16.0907 36.6822 14.5569C36.802 14.4567 36.9329 14.3571 36.982 14.1943C37.598 13.9547 38.2603 13.9707 38.8975 13.8481Z" fill="#729FD4"/>
<path d="M36.9821 14.1944C37.2526 14.2655 37.0316 14.3633 36.9803 14.4093C36.4863 14.8518 35.9895 15.2913 35.4842 15.7209C34.6064 16.4671 33.7211 17.2046 32.8403 17.9476C31.5521 19.0343 30.2625 20.1191 28.9787 21.2109C27.9249 22.1072 26.8818 23.0161 25.8286 23.9131C24.7431 24.8377 23.6485 25.7519 22.5624 26.6759C21.5088 27.5724 20.4637 28.4789 19.4098 29.375C18.3565 30.2706 17.2969 31.1592 16.2398 32.0504C15.8543 32.3753 15.4701 32.702 15.0801 33.0213C15.0034 33.0842 14.9206 33.2257 14.7969 33.0718C14.9162 32.4741 15.2282 31.9574 15.4915 31.4203C16.9221 30.1971 18.3597 28.9821 19.7908 27.7597C21.2661 26.4996 22.7455 25.2444 24.2233 23.987C25.6348 22.7861 27.0487 21.5878 28.4607 20.3874C29.9497 19.1215 31.437 17.8533 32.9286 16.5904C33.7009 15.9364 34.4477 15.2521 35.2428 14.6249C35.7946 14.3682 36.392 14.296 36.9821 14.1944Z" fill="#78A2D5"/>
<path d="M35.2416 14.6248C34.6892 15.3428 33.9405 15.8488 33.2697 16.4373C32.3922 17.2073 31.4922 17.9518 30.6009 18.7059C29.7316 19.4414 28.8591 20.1732 27.9913 20.9105C27.1232 21.6481 26.2611 22.393 25.3926 23.1303C24.5136 23.8766 23.628 24.6151 22.7492 25.3618C21.8919 26.09 21.0418 26.8266 20.1848 27.5552C19.0976 28.4796 18.0069 29.3999 16.9172 30.3213C16.5319 30.6471 16.1449 30.9707 15.7591 31.2959C15.6806 31.3622 15.6009 31.4241 15.4902 31.4202C15.7626 30.6862 16.1223 29.996 16.536 29.3327C18.522 27.7182 20.4528 26.0378 22.4013 24.3789C24.6583 22.4573 26.9255 20.5473 29.1693 18.6099C30.4385 17.514 31.7565 16.4749 32.9796 15.3256C33.7119 15.0221 34.467 14.7921 35.2416 14.6248Z" fill="#7DA5D6"/>
<path d="M32.9787 15.3254C33.0662 15.4804 32.9099 15.5274 32.8416 15.5872C31.8771 16.4323 30.9088 17.2733 29.9354 18.1081C29.0825 18.8395 28.2223 19.5622 27.3648 20.2882C26.2985 21.1909 25.2305 22.0916 24.1659 22.996C23.2984 23.733 22.4365 24.4765 21.5689 25.2134C20.4819 26.1363 19.3911 27.0543 18.3033 27.9761C17.8526 28.3582 17.4052 28.7442 16.9574 29.1296C16.8342 29.2358 16.7012 29.3174 16.5352 29.3325C17.066 28.25 17.721 27.2458 18.451 26.2886C19.1244 25.7924 19.7392 25.2252 20.3761 24.6857C22.0303 23.2846 23.681 21.8795 25.3307 20.4735C26.6069 19.3861 27.8854 18.3015 29.1571 17.2091C29.3535 17.0406 29.601 16.933 29.7518 16.7113C30.7629 16.099 31.8749 15.7217 32.9787 15.3254Z" fill="#81A7D8"/>
<path d="M51.3348 54.1304C50.4594 54.8452 49.6007 55.585 48.4306 56.0806C48.7835 55.3281 49.0416 54.6621 49.2002 53.9646C49.8863 50.9477 49.2501 48.2038 47.4743 45.7008C47.036 45.0833 46.4468 44.6063 45.9249 44.0668C45.8409 43.9799 45.7483 43.8706 45.5965 43.9434C45.4402 43.8663 45.3633 43.7115 45.252 43.5905C45.3277 43.4943 45.4058 43.5478 45.48 43.5899C47.5826 44.7823 49.3353 46.3298 50.4064 48.5413C50.9375 49.6376 51.2466 50.7964 51.3549 52.0224C51.4177 52.7333 51.4199 53.4283 51.3348 54.1304Z" fill="#0E1F66"/>
<path d="M13.6656 36.6397C14.0129 36.7654 14.135 36.4185 14.3074 36.276C16.0722 34.8154 17.8124 33.325 19.5546 31.8374C21.1984 30.4337 22.8313 29.0173 24.4785 27.6175C26.312 26.0597 28.1608 24.52 29.9942 22.9623C31.6414 21.5625 33.2752 20.147 34.918 18.7421C36.6921 17.2249 38.4692 15.7114 40.2466 14.1983C40.4288 14.0432 40.6902 13.9634 40.7232 13.6738C40.8226 13.5787 40.9708 13.683 41.0706 13.5888C41.2159 13.5881 41.3613 13.5874 41.5068 13.5868C41.3734 14.0485 40.9249 14.2115 40.6125 14.4924C39.7126 15.3019 38.7747 16.0692 37.8499 16.8509C36.793 17.7441 35.7319 18.6327 34.6764 19.5276C33.8184 20.2551 32.9683 20.992 32.1105 21.7197C30.8461 22.792 29.576 23.8575 28.3121 24.9302C27.4544 25.6581 26.6054 26.3962 25.7483 27.1249C24.661 28.0492 23.5675 28.9664 22.4802 29.8908C21.6232 30.6197 20.7738 31.3573 19.9168 32.0861C19.0384 32.8333 18.1525 33.5715 17.2744 34.3191C16.3959 35.0671 15.5247 35.8239 14.6468 36.5726C14.3398 36.8343 14.0218 37.083 13.7094 37.3384C13.6352 37.3991 13.564 37.4365 13.4924 37.3365C13.4882 37.0889 13.5443 36.8562 13.6656 36.6397Z" fill="#699AD1"/>
<path d="M29.7538 16.7111C29.6806 17.1228 29.2791 17.231 29.024 17.4606C28.1363 18.2597 27.2116 19.0179 26.2991 19.7894C25.2327 20.6909 24.1623 21.5876 23.0975 22.491C22.2409 23.2179 21.3898 23.9513 20.5368 24.6824C19.9136 25.2167 19.291 25.7519 18.6687 26.2871C18.5956 26.35 18.5256 26.3881 18.4531 26.2884C18.8973 25.5777 19.4339 24.9339 19.9775 24.3028C22.0253 21.9257 24.3509 19.8607 27.0225 18.2021C27.9042 17.6549 28.7779 17.0881 29.7538 16.7111Z" fill="#88ABD9"/>
<path d="M44.8118 13.5856C44.5226 13.5474 44.217 13.6751 43.9414 13.5C44.2306 13.5372 44.5361 13.4098 44.8118 13.5856Z" fill="#5591CD"/>
<path d="M41.0711 13.5887C40.9787 13.713 40.8432 13.6604 40.7238 13.6736C40.6654 13.6733 40.6071 13.6728 40.5488 13.6722C40.7031 13.5206 40.8961 13.6112 41.0711 13.5887Z" fill="#689AD1"/>
<path d="M32.7188 74.1389C35.5852 74.2712 38.3599 73.8128 41.0489 72.8263C43.6478 71.8727 46.0429 70.551 48.1956 68.8044C50.2939 67.102 52.1005 65.1469 53.3064 62.7024C53.9551 61.3876 54.3576 60.0029 54.492 58.5215C54.6109 57.2094 54.3899 55.9721 54.0335 54.7348C54.0728 54.4322 54.3489 54.2941 54.5107 54.0816C55.1344 53.2624 55.5951 52.3781 55.7859 51.3604C55.8057 51.2551 55.8573 51.1557 55.927 50.9628C56.336 51.8093 56.6471 52.5925 56.8571 53.417C57.1618 54.6131 57.3341 55.83 57.2431 57.0592C57.0836 59.2175 56.4551 61.2343 55.3807 63.1285C54.3183 65.0018 52.9475 66.6133 51.3663 68.0441C49.9831 69.2959 48.4482 70.3488 46.7999 71.2386C44.8041 72.3161 42.7108 73.1227 40.5055 73.6408C39.1301 73.9638 37.7393 74.1641 36.3241 74.2436C35.6454 74.2817 34.9656 74.3406 34.2911 74.2972C33.768 74.2636 33.2312 74.299 32.7188 74.1389Z" fill="#0E1F66"/>
</g>
</svg>
