<svg width="42" height="36" viewBox="0 0 42 36" fill="none" xmlns="http://www.w3.org/2000/svg">
<path d="M41.3599 22.2557C41.3599 16.4303 39.0094 10.8435 34.8254 6.72432C30.6413 2.60514 24.9666 0.291016 19.0494 0.291016H16.7198V9.31447L7.57555 0.312041H0.990592L12.1726 11.3294H0.152344V13.6247C0.152816 19.45 2.50354 25.0365 6.68748 29.1556C10.8714 33.2746 16.5459 35.5889 22.4629 35.5894H24.7944V26.5729L33.8229 35.4633H40.4078L29.3398 24.551H41.3599V22.2557ZM21.4023 19.9604H15.4277C14.8094 19.9604 14.2163 20.2022 13.7791 20.6327C13.3419 21.0631 13.0962 21.6469 13.0962 22.2557C13.0962 22.8644 13.3419 23.4482 13.7791 23.8787C14.2163 24.3091 14.8094 24.551 15.4277 24.551H20.1314V30.8481C16.2918 30.3383 12.7285 28.6014 9.98901 25.904C7.24954 23.2067 5.4856 19.6984 4.96827 15.9182H26.0846C26.3961 15.9267 26.7062 15.8737 26.9965 15.7622C27.2867 15.6507 27.5514 15.4829 27.7747 15.2691C27.9981 15.0552 28.1756 14.7994 28.2968 14.5169C28.418 14.2342 28.4805 13.9305 28.4805 13.6238C28.4805 13.3171 28.418 13.0134 28.2968 12.7309C28.1756 12.4482 27.9981 12.1924 27.7747 11.9785C27.5514 11.7646 27.2867 11.597 26.9965 11.4855C26.7062 11.374 26.3961 11.3209 26.0846 11.3294H21.3808V5.03227C25.2204 5.54186 28.7838 7.27855 31.5236 9.97548C34.2633 12.6725 36.0277 16.1804 36.5458 19.9604H21.4023ZM24.0006 13.5459C23.9992 13.1856 24.1063 12.833 24.3087 12.5327C24.5109 12.2325 24.7991 11.9981 25.1368 11.8591C25.4744 11.7202 25.8463 11.6831 26.2055 11.7524C26.5645 11.8217 26.8947 11.9944 27.1541 12.2485C27.4135 12.5027 27.5904 12.8268 27.6626 13.18C27.7347 13.5333 27.6987 13.8996 27.5592 14.2326C27.4198 14.5658 27.1831 14.8506 26.8791 15.0512C26.5751 15.2517 26.2175 15.3589 25.8514 15.3593C25.362 15.3598 24.8923 15.1691 24.5453 14.8292C24.1983 14.4892 24.0025 14.0278 24.0006 13.5459Z" fill="url(#paint0_radial_1914_411)"/>
<path d="M26.6962 14.3806C26.6966 14.2156 26.6472 14.0541 26.5542 13.9166C26.4613 13.7792 26.329 13.6721 26.1741 13.6087C26.0192 13.5454 25.8488 13.5287 25.6843 13.5609C25.5198 13.593 25.3686 13.6725 25.2501 13.7892C25.1316 13.9059 25.0508 14.0547 25.0181 14.2167C24.9855 14.3786 25.0025 14.5464 25.0668 14.6989C25.1312 14.8513 25.2399 14.9816 25.3795 15.0731C25.5191 15.1646 25.6832 15.2133 25.8509 15.213C26.075 15.2125 26.2897 15.1246 26.4481 14.9687C26.6065 14.8126 26.6958 14.6012 26.6962 14.3806Z" fill="url(#paint1_radial_1914_411)"/>
<defs>
<radialGradient id="paint0_radial_1914_411" cx="0" cy="0" r="1" gradientUnits="userSpaceOnUse" gradientTransform="translate(20.7561 11.5) rotate(90) scale(24.0894 28.1221)">
<stop stop-color="#009B1B"/>
<stop offset="1" stop-color="#016913"/>
</radialGradient>
<radialGradient id="paint1_radial_1914_411" cx="0" cy="0" r="1" gradientUnits="userSpaceOnUse" gradientTransform="translate(25.8491 14.0746) rotate(90) scale(1.13835 1.15625)">
<stop stop-color="#009B1B"/>
<stop offset="1" stop-color="#016913"/>
</radialGradient>
</defs>
</svg>
