<svg width="31" height="31" viewBox="0 0 31 31" fill="none" xmlns="http://www.w3.org/2000/svg">
<path d="M30.9062 15.6245C30.9062 23.8746 23.9876 30.5626 15.4531 30.5626C6.9186 30.5626 0 23.8746 0 15.6245C0 7.3745 6.9186 0.686523 15.4531 0.686523C23.9876 0.686523 30.9062 7.3745 30.9062 15.6245Z" fill="white"/>
<path d="M24.9 15.3865L24 14.8865V14.6865L24.7 13.9865C24.8 13.8865 24.8 13.6865 24.7 13.5865L24.6 13.4865L23.7 13.1865C23.7 13.0865 23.7 12.9865 23.6 12.9865L24.2 12.1865C24.3 12.0865 24.3 11.8865 24.1 11.7865C24.1 11.7865 24 11.7865 24 11.6865L23 11.4865C23 11.3865 22.9 11.3865 22.9 11.2865L23.3 10.3865V10.0865C23.2 9.98652 23.1 9.98652 23 9.98652H22C22 9.98652 22 9.88652 21.9 9.88652L22.1 8.88652C22.1 8.68652 22 8.58652 21.9 8.58652H21.8L20.8 8.78652C20.8 8.68652 20.7 8.68652 20.6 8.58652V7.58652C20.6 7.38652 20.5 7.28652 20.3 7.28652H20.2L19.3 7.68652H19.2L19 6.68652C19 6.48652 18.8 6.38652 18.7 6.48652H18.6L17.8 7.08652C17.7 7.08652 17.6 7.08652 17.6 6.98652L17.3 6.08652C17.2 5.98652 17.1 5.88652 16.9 5.88652C16.9 5.88652 16.8 5.88652 16.8 5.98652L16 6.68652H15.8L15.3 5.88652C15.2 5.68652 15 5.68652 14.8 5.68652L14.7 5.78652L14.2 6.68652H14L13.3 5.98652C13.2 5.88652 13 5.88652 12.9 5.98652L12.8 6.08652L12.5 6.98652C12.4 6.98652 12.3 6.98652 12.3 7.08652L11.5 6.48652C11.3 6.38652 11.1 6.38652 11 6.58652V6.68652L10.8 7.68652C10.8 7.68652 10.7 7.68652 10.6 7.78652L9.7 7.38652C9.6 7.28652 9.4 7.38652 9.3 7.48652V8.58652C9.3 8.68652 9.2 8.68652 9.2 8.78652L8.2 8.58652C8 8.48652 7.9 8.58652 7.9 8.78652V8.88652L8.1 9.88652C8 9.88652 8 9.98652 7.9 9.98652H6.9C6.7 9.98652 6.6 10.0865 6.6 10.2865V10.3865L7 11.2865V11.4865L6 11.6865C5.8 11.6865 5.7 11.8865 5.7 11.9865V12.0865L6.3 12.8865C6.3 12.9865 6.3 13.0865 6.2 13.0865L5.4 13.4865C5.3 13.5865 5.2 13.6865 5.2 13.8865C5.2 13.8865 5.2 13.9865 5.3 13.9865L6 14.6865V14.8865L5.2 15.3865C5 15.4865 5 15.6865 5 15.7865L5.1 15.8865L6 16.4865V16.6865L5.3 17.3865C5.2 17.4865 5.2 17.6865 5.3 17.7865L5.4 17.8865L6.3 18.1865C6.3 18.2865 6.3 18.3865 6.4 18.3865L5.8 19.1865C5.7 19.2865 5.7 19.4865 5.9 19.5865C5.9 19.5865 6 19.5865 6 19.6865L7 19.8865C7 19.9865 7.1 19.9865 7.1 20.0865L6.7 20.9865C6.6 21.0865 6.7 21.2865 6.8 21.3865H7.9C8 21.3865 8 21.4865 8.1 21.4865L7.9 22.4865C7.9 22.6865 8 22.7865 8.1 22.7865H8.2L9.2 22.5865C9.2 22.6865 9.3 22.6865 9.4 22.7865V23.7865C9.4 23.9865 9.5 24.0865 9.7 24.0865H9.8L10.7 23.6865H10.8L11 24.6865C11 24.8865 11.2 24.9865 11.3 24.8865H11.4L12.2 24.2865C12.3 24.2865 12.4 24.2865 12.4 24.3865L12.7 25.2865C12.8 25.3865 12.9 25.4865 13.1 25.4865C13.1 25.4865 13.2 25.4865 13.2 25.3865L14 24.6865H14.2L14.7 25.4865C14.8 25.5865 15 25.6865 15.1 25.5865L15.2 25.4865L15.7 24.6865H15.9L16.6 25.3865C16.7 25.4865 16.9 25.4865 17 25.3865L17.1 25.2865L17.4 24.3865C17.5 24.3865 17.6 24.3865 17.6 24.2865L18.4 24.8865C18.5 24.9865 18.7 24.9865 18.8 24.7865C18.8 24.7865 18.8 24.6865 18.9 24.6865L19.1 23.6865C19.2 23.6865 19.2 23.5865 19.3 23.5865L20.2 23.9865C20.3 24.0865 20.5 23.9865 20.6 23.8865V22.7865L20.8 22.5865L21.8 22.7865C22 22.7865 22.1 22.6865 22.1 22.5865V22.4865L21.9 21.4865L22.1 21.2865H23.1C23.3 21.2865 23.4 21.1865 23.4 20.9865V20.8865L23 19.9865C23 19.8865 23.1 19.8865 23.1 19.7865L24.1 19.5865C24.3 19.5865 24.4 19.3865 24.3 19.2865V19.1865L23.7 18.3865L23.8 18.1865L24.7 17.8865C24.8 17.7865 24.9 17.6865 24.9 17.4865C24.9 17.4865 24.9 17.3865 24.8 17.3865L24 16.6865V16.4865L24.8 15.9865C25 15.8865 25 15.6865 24.9 15.3865C24.9 15.4865 24.9 15.4865 24.9 15.3865ZM19.2 22.3865C18.9 22.2865 18.7 21.9865 18.7 21.6865C18.8 21.3865 19.1 21.1865 19.4 21.1865C19.7 21.2865 19.9 21.5865 19.9 21.8865C19.9 22.2865 19.6 22.4865 19.2 22.3865ZM19 20.4865C18.7 20.3865 18.4 20.5865 18.4 20.8865L18 22.2865C17.1 22.6865 16.1 22.8865 15 22.8865C13.9 22.8865 12.9 22.6865 11.9 22.1865L11.6 20.7865C11.5 20.4865 11.3 20.2865 11 20.3865L9.8 20.6865C9.6 20.4865 9.4 20.1865 9.2 19.9865H15.2C15.3 19.9865 15.3 19.9865 15.3 19.8865V17.7865C15.3 17.6865 15.3 17.6865 15.2 17.6865H13.5V16.3865H15.4C15.6 16.3865 16.3 16.3865 16.6 17.3865C16.7 17.6865 16.8 18.6865 17 18.9865C17.1 19.2865 17.6 19.9865 18.1 19.9865H21.2C21 20.2865 20.8 20.4865 20.5 20.7865L19 20.4865ZM10.7 22.3865C10.4 22.4865 10.1 22.2865 10 21.8865C9.9 21.5865 10.1 21.2865 10.5 21.1865C10.9 21.0865 11.1 21.2865 11.2 21.6865C11.2 21.9865 11 22.2865 10.7 22.3865ZM8.4 13.1865C8.5 13.4865 8.4 13.8865 8.1 13.9865C7.8 14.0865 7.4 13.9865 7.3 13.6865C7.2 13.3865 7.3 12.9865 7.6 12.8865C8 12.7865 8.3 12.8865 8.4 13.1865ZM7.7 14.7865L9 14.2865C9.3 14.1865 9.4 13.8865 9.3 13.5865L9 12.9865H10V17.6865H8C7.7 16.6865 7.6 15.7865 7.7 14.7865ZM13.3 14.3865V12.9865H15.8C15.9 12.9865 16.7 13.0865 16.7 13.6865C16.7 14.1865 16.1 14.3865 15.6 14.3865H13.3ZM22.3 15.5865V16.0865H21.5C21.4 16.0865 21.4 16.0865 21.4 16.1865V16.4865C21.4 17.2865 20.9 17.4865 20.5 17.4865C20.1 17.4865 19.7 17.2865 19.6 17.0865C19.4 15.7865 19 15.5865 18.4 15.0865C19.1 14.5865 19.9 13.8865 19.9 12.9865C19.9 11.9865 19.2 11.3865 18.8 11.0865C18.1 10.6865 17.4 10.5865 17.2 10.5865H9.6C10.7 9.38652 12.1 8.58652 13.7 8.28652L14.6 9.28652C14.8 9.48652 15.1 9.48652 15.4 9.28652L16.4 8.28652C18.5 8.68652 20.3 9.98652 21.4 11.8865L20.7 13.4865C20.6 13.7865 20.7 14.0865 21 14.1865L22.3 14.7865V15.5865ZM14.6 7.58652C14.8 7.38652 15.2 7.38652 15.4 7.58652C15.6 7.78652 15.6 8.18652 15.4 8.38652C15.1 8.68652 14.8 8.68652 14.5 8.38652C14.3 8.18652 14.4 7.88652 14.6 7.58652ZM21.5 13.1865C21.6 12.8865 22 12.7865 22.3 12.8865C22.6 12.9865 22.7 13.3865 22.6 13.6865C22.5 13.9865 22.1 14.0865 21.8 13.9865C21.5 13.8865 21.4 13.4865 21.5 13.1865Z" fill="black"/>
</svg>
