<svg width="134" height="134" viewBox="0 0 134 134" fill="none" xmlns="http://www.w3.org/2000/svg">
<g clip-path="url(#clip0_1357_2)">
<g filter="url(#filter0_f_1357_2)">
<circle cx="89" cy="80" r="22" fill="url(#paint0_linear_1357_2)"/>
</g>
<g filter="url(#filter1_i_1357_2)">
<path fill-rule="evenodd" clip-rule="evenodd" d="M34.875 60C28.0875 60 22.375 65.484 22.375 72C22.375 78.516 28.0875 84 34.875 84C38.1563 84 41.8875 82.536 46.2812 79.638C49.4687 77.538 52.6875 74.898 56.0375 72C52.6875 69.102 49.4625 66.468 46.2875 64.362C41.8812 61.464 38.1563 60 34.875 60ZM63 65.904C59.3125 62.706 55.475 59.508 51.5937 56.946C46.6125 53.658 40.9687 51 34.875 51C22.9125 51 13 60.516 13 72C13 83.484 22.9125 93 34.875 93C40.9687 93 46.6125 90.336 51.5937 87.054C55.475 84.492 59.3125 81.294 63 78.096C66.6875 81.294 70.525 84.492 74.4062 87.054C79.3875 90.336 85.0313 93 91.125 93C103.087 93 113 83.484 113 72C113 60.516 103.087 51 91.125 51C85.0313 51 79.3875 53.658 74.4062 56.946C70.525 59.508 66.6875 62.706 63 65.904ZM69.9624 72C73.3124 74.898 76.5375 77.532 79.7125 79.638C84.1125 82.536 87.8375 84 91.125 84C97.9125 84 103.625 78.516 103.625 72C103.625 65.484 97.9125 60 91.125 60C87.8437 60 84.1125 61.464 79.7187 64.362C76.5312 66.462 73.3124 69.102 69.9624 72Z" fill="url(#paint1_linear_1357_2)"/>
</g>
<g opacity="0.2" filter="url(#filter2_d_1357_2)">
<mask id="path-3-inside-1_1357_2" fill="white">
<path fill-rule="evenodd" clip-rule="evenodd" d="M34.875 60C28.0875 60 22.375 65.484 22.375 72C22.375 78.516 28.0875 84 34.875 84C38.1563 84 41.8875 82.536 46.2812 79.638C49.4687 77.538 52.6875 74.898 56.0375 72C52.6875 69.102 49.4625 66.468 46.2875 64.362C41.8812 61.464 38.1563 60 34.875 60ZM63 65.904C59.3125 62.706 55.475 59.508 51.5937 56.946C46.6125 53.658 40.9687 51 34.875 51C22.9125 51 13 60.516 13 72C13 83.484 22.9125 93 34.875 93C40.9687 93 46.6125 90.336 51.5937 87.054C55.475 84.492 59.3125 81.294 63 78.096C66.6875 81.294 70.525 84.492 74.4062 87.054C79.3875 90.336 85.0313 93 91.125 93C103.087 93 113 83.484 113 72C113 60.516 103.087 51 91.125 51C85.0313 51 79.3875 53.658 74.4062 56.946C70.525 59.508 66.6875 62.706 63 65.904ZM69.9624 72C73.3124 74.898 76.5375 77.532 79.7125 79.638C84.1125 82.536 87.8375 84 91.125 84C97.9125 84 103.625 78.516 103.625 72C103.625 65.484 97.9125 60 91.125 60C87.8437 60 84.1125 61.464 79.7187 64.362C76.5312 66.462 73.3124 69.102 69.9624 72Z"/>
</mask>
<path d="M46.2812 79.638L46.0061 79.2205L46.0059 79.2206L46.2812 79.638ZM56.0375 72L56.3646 72.3781L56.8017 72L56.3646 71.6219L56.0375 72ZM46.2875 64.362L46.5639 63.9453L46.5622 63.9442L46.2875 64.362ZM63 65.904L62.6724 66.2817L63 66.5658L63.3275 66.2817L63 65.904ZM51.5937 56.946L51.8692 56.5287L51.8692 56.5287L51.5937 56.946ZM51.5937 87.054L51.8688 87.4715L51.8692 87.4713L51.5937 87.054ZM63 78.096L63.3275 77.7183L63 77.4342L62.6724 77.7183L63 78.096ZM74.4062 87.054L74.1308 87.4713L74.1311 87.4715L74.4062 87.054ZM74.4062 56.946L74.1308 56.5287L74.1308 56.5287L74.4062 56.946ZM69.9624 72L69.6353 71.6219L69.1982 72L69.6353 72.3781L69.9624 72ZM79.7125 79.638L79.4361 80.0547L79.4375 80.0556L79.7125 79.638ZM79.7187 64.362L79.9938 64.7795L79.994 64.7794L79.7187 64.362ZM34.875 59.5C27.8308 59.5 21.875 65.1888 21.875 72H22.875C22.875 65.7792 28.3442 60.5 34.875 60.5V59.5ZM21.875 72C21.875 78.8112 27.8308 84.5 34.875 84.5V83.5C28.3442 83.5 22.875 78.2208 22.875 72H21.875ZM34.875 84.5C38.3002 84.5 42.1307 82.9746 46.5565 80.0554L46.0059 79.2206C41.6443 82.0975 38.0123 83.5 34.875 83.5V84.5ZM46.5563 80.0555C49.7722 77.9368 53.0112 75.2791 56.3646 72.3781L55.7104 71.6219C52.3638 74.5169 49.1652 77.1392 46.0061 79.2205L46.5563 80.0555ZM56.3646 71.6219C53.0104 68.7202 49.7661 66.0693 46.5639 63.9453L46.0111 64.7787C49.1589 66.8666 52.3646 69.4838 55.7104 72.3781L56.3646 71.6219ZM46.5622 63.9442C42.1245 61.0255 38.3003 59.5 34.875 59.5V60.5C38.0122 60.5 41.638 61.9024 46.0127 64.7797L46.5622 63.9442ZM63.3275 65.5263C59.638 62.3265 55.7797 59.11 51.8692 56.5287L51.3183 57.3633C55.1703 59.906 58.9869 63.0855 62.6724 66.2817L63.3275 65.5263ZM51.8692 56.5287C46.8556 53.2193 41.1126 50.5 34.875 50.5V51.5C40.8249 51.5 46.3694 54.0966 51.3183 57.3633L51.8692 56.5287ZM34.875 50.5C22.6558 50.5 12.5 60.2208 12.5 72H13.5C13.5 60.8112 23.1692 51.5 34.875 51.5V50.5ZM12.5 72C12.5 83.7792 22.6558 93.5 34.875 93.5V92.5C23.1692 92.5 13.5 83.1888 13.5 72H12.5ZM34.875 93.5C41.1128 93.5 46.8558 90.7745 51.8688 87.4715L51.3186 86.6365C46.3692 89.8976 40.8247 92.5 34.875 92.5V93.5ZM51.8692 87.4713C55.7797 84.89 59.638 81.6735 63.3275 78.4737L62.6724 77.7183C58.9869 80.9145 55.1703 84.094 51.3183 86.6367L51.8692 87.4713ZM62.6724 78.4737C66.3619 81.6735 70.2203 84.89 74.1308 87.4713L74.6817 86.6367C70.8297 84.094 67.013 80.9145 63.3275 77.7183L62.6724 78.4737ZM74.1311 87.4715C79.1441 90.7745 84.8872 93.5 91.125 93.5V92.5C85.1753 92.5 79.6308 89.8976 74.6813 86.6365L74.1311 87.4715ZM91.125 93.5C103.344 93.5 113.5 83.7792 113.5 72H112.5C112.5 83.1888 102.831 92.5 91.125 92.5V93.5ZM113.5 72C113.5 60.2208 103.344 50.5 91.125 50.5V51.5C102.831 51.5 112.5 60.8112 112.5 72H113.5ZM91.125 50.5C84.8874 50.5 79.1444 53.2193 74.1308 56.5287L74.6817 57.3633C79.6306 54.0966 85.1751 51.5 91.125 51.5V50.5ZM74.1308 56.5287C70.2203 59.11 66.3619 62.3265 62.6724 65.5263L63.3275 66.2817C67.013 63.0855 70.8297 59.906 74.6817 57.3633L74.1308 56.5287ZM69.6353 72.3781C72.9896 75.2798 76.2339 77.9307 79.4361 80.0547L79.9889 79.2213C76.8411 77.1334 73.6353 74.5162 70.2896 71.6219L69.6353 72.3781ZM79.4375 80.0556C83.8693 82.9745 87.6935 84.5 91.125 84.5V83.5C87.9815 83.5 84.3557 82.0975 79.9875 79.2204L79.4375 80.0556ZM91.125 84.5C98.1692 84.5 104.125 78.8112 104.125 72H103.125C103.125 78.2208 97.6558 83.5 91.125 83.5V84.5ZM104.125 72C104.125 65.1888 98.1692 59.5 91.125 59.5V60.5C97.6558 60.5 103.125 65.7792 103.125 72H104.125ZM91.125 59.5C87.6998 59.5 83.8693 61.0254 79.4434 63.9446L79.994 64.7794C84.3557 61.9025 87.9877 60.5 91.125 60.5V59.5ZM79.4437 63.9445C76.2277 66.0632 72.9888 68.7209 69.6353 71.6219L70.2896 72.3781C73.6361 69.4831 76.8347 66.8608 79.9938 64.7795L79.4437 63.9445Z" fill="url(#paint2_linear_1357_2)" mask="url(#path-3-inside-1_1357_2)"/>
</g>
</g>
<defs>
<filter id="filter0_f_1357_2" x="35" y="26" width="108" height="108" filterUnits="userSpaceOnUse" color-interpolation-filters="sRGB">
<feFlood flood-opacity="0" result="BackgroundImageFix"/>
<feBlend mode="normal" in="SourceGraphic" in2="BackgroundImageFix" result="shape"/>
<feGaussianBlur stdDeviation="16" result="effect1_foregroundBlur_1357_2"/>
</filter>
<filter id="filter1_i_1357_2" x="13" y="51" width="100" height="48" filterUnits="userSpaceOnUse" color-interpolation-filters="sRGB">
<feFlood flood-opacity="0" result="BackgroundImageFix"/>
<feBlend mode="normal" in="SourceGraphic" in2="BackgroundImageFix" result="shape"/>
<feColorMatrix in="SourceAlpha" type="matrix" values="0 0 0 0 0 0 0 0 0 0 0 0 0 0 0 0 0 0 127 0" result="hardAlpha"/>
<feOffset dy="6"/>
<feGaussianBlur stdDeviation="3"/>
<feComposite in2="hardAlpha" operator="arithmetic" k2="-1" k3="1"/>
<feColorMatrix type="matrix" values="0 0 0 0 0.0416667 0 0 0 0 0.0416667 0 0 0 0 0.0416667 0 0 0 0.32 0"/>
<feBlend mode="normal" in2="shape" result="effect1_innerShadow_1357_2"/>
</filter>
<filter id="filter2_d_1357_2" x="9" y="51" width="108" height="50" filterUnits="userSpaceOnUse" color-interpolation-filters="sRGB">
<feFlood flood-opacity="0" result="BackgroundImageFix"/>
<feColorMatrix in="SourceAlpha" type="matrix" values="0 0 0 0 0 0 0 0 0 0 0 0 0 0 0 0 0 0 127 0" result="hardAlpha"/>
<feOffset dy="4"/>
<feGaussianBlur stdDeviation="2"/>
<feComposite in2="hardAlpha" operator="out"/>
<feColorMatrix type="matrix" values="0 0 0 0 0 0 0 0 0 0 0 0 0 0 0 0 0 0 0.25 0"/>
<feBlend mode="normal" in2="BackgroundImageFix" result="effect1_dropShadow_1357_2"/>
<feBlend mode="normal" in="SourceGraphic" in2="effect1_dropShadow_1357_2" result="shape"/>
</filter>
<linearGradient id="paint0_linear_1357_2" x1="89" y1="58" x2="89" y2="102" gradientUnits="userSpaceOnUse">
<stop stop-color="#3BDA57" stop-opacity="0.5"/>
<stop offset="1" stop-color="#3BDA57" stop-opacity="0.05"/>
</linearGradient>
<linearGradient id="paint1_linear_1357_2" x1="11.5" y1="49.5" x2="140.207" y2="127.718" gradientUnits="userSpaceOnUse">
<stop offset="0.019097" stop-color="#6D1454"/>
<stop offset="0.31546" stop-color="#001355"/>
<stop offset="0.440672" stop-color="#446AEF"/>
<stop offset="0.65074" stop-color="#3CFF5E"/>
<stop offset="0.81803" stop-color="#00E621"/>
</linearGradient>
<linearGradient id="paint2_linear_1357_2" x1="16.4483" y1="55.0833" x2="113.24" y2="84.0322" gradientUnits="userSpaceOnUse">
<stop offset="0.154514" stop-color="white"/>
<stop offset="1" stop-color="#1A1A1A"/>
</linearGradient>
<clipPath id="clip0_1357_2">
<rect width="134" height="134" fill="white"/>
</clipPath>
</defs>
</svg>
