<svg width="78" height="86" viewBox="0 0 312 344" fill="none"
  xmlns="http://www.w3.org/2000/svg"
  xmlns:xlink="http://www.w3.org/1999/xlink">
  <style type="text/css">
	.st0{fill:#FFFFFF;}
	.st1{fill:#28404E;}
	.st2{fill:#60E6C5;}
  </style>
  <g>
    <path class="st0" d="M222.6,247.9c0,0.2,0,0.3,0,0.5l0,0.1c0,0.3-0.1,0.7-0.2,1.2c-0.2,1.1-0.5,2.6-0.9,4.2c-1,3.7-2.2,6.3-3.2,7.4
		c-1.5,1.6-3.7,3-6.3,4c-2.6,1-5.3,1.4-7.1,1.6c-0.5,0-1.2,0.1-2,0.1c-4,0.1-11.5,0.3-18.2,3.8c-3,1.5-5.8,3.2-8.4,5.6
		c-2.7,2.4-4.7,5.1-6.5,8.4c-1.8,3.2-2.6,6.3-3.1,8c-0.1,0.3-0.1,0.5-0.2,0.7c-0.3,1.1-0.4,1.1-0.5,1.2c0,0,0,0-0.1,0
		c-0.7,0.6-0.9,0.8-1,0.9l0,0c0,0-0.1,0.1-0.5,0.2c-0.2,0.1-0.4,0.1-0.6,0.2c-0.3,0-0.6,0.1-1.3,0.1c-43.6,1.1-76.6-13.5-98.8-35.8
		c-22.3-22.4-34.1-53.1-34.1-85v-59.3v0C29.4,59.1,76.3,15.1,133,15.1c56.6,0,104.4,45.9,104.4,100.7v0v0v0v0v0v0v0v0v0v0v0v0v0v0v0
		v0v0v0v0v0v0v0v0v0v0v0v0v0v0v0v0v0v0v0v0v0v0v0v0v0v0v0v0v0v0v0v0v0v0v0v0v0v0v0v0v0v0v0v0v0v0v0v0v0v0v0v0v0v0v0v0v0v0v0v0v0v0v0
		v0v0v0v0v0v0v0v0v0v0v0v0v0v0v0v0v0v0v0v0v0v0v0v0v0v0v0v0v0v0v0v0v0v0v0v0v0v0v0v0v0v0v0v0v0v0v0v0v0v0v0v0v0v0v0v0v0v0v0v0v0v0v0
		v0v0v0v0v0v0v0v0v0v0v0v0v0v0v0v0v0v0v0v0v0v0v0v0v0v0v0v0v0v0v0v0v0v0v0v0v0v0v0v0v0.1v0v0.1v0v0.1v0.1v0.1v0.1v0.1v0.1v0.1v0.1
		v0.1v0.1v0.1v0.1v0.1v0.1v0.1v0.1v0.1v0.1v0.1v0.1v0.1v0.1v0.1v0.1v0.1v0.1v0.1v0.1v0.1v0.1v0.1v0.1v0.1v0.1v0.1v0.1v0.1v0.1v0.1
		v0.1v0.1v0.1v0.1v0.1v0.1v0.1v0.1v0.1v0.1v0.1v0.1v0.1v0.1v0.1v0.1v0.1v0.1v0.1v0.1v0.1v0.1v0.1v0.1v0.1v0.1v0.1v0.1v0.1v0.1v0.1
		v0.1v0.1v0.1v0.1v0.1v0.1v0.1v0.1v0.1v0.1v0.1v0.1v0.1v0.1v0.1v0.1v0.1v0.1v0.1v0.1v0.1v0.1v0.1v0.1v0.1v0.1v0.1v0.1v0.1v0.1v0.1
		v0.1v0.1v0.1v0.1v0.1v0.1v0.1v0.1v0.1v0.1v0.1v0.1v0.1v0.1v0.1v0.1v0.1v0.1v0.1v0.1v0.1v0.1v0.1v0.1v0.1v0.1v0.1v0.1v0.1v0.1v0.1
		v0.1v0.1v0.1v0.1v0.1v0.1v0.1v0.1v0.1v0.1v0.1v0.1v0.1v0.1v0.1v0.1v0.1v0.1v0.1v0.1v0.1v0.1v0.1v0.1v0.1v0.1v0.1v0.1v0.1v0.1v0.1
		v0.1v0.1v0.1v0.1v0.1v0.1v0.1v0.1v0.1v0.1v0.1v0.1v0.1v0.1v0.1v0.1v0.1v0.1v0.1v0.1v0.1v0.1v0.1v0.1v0.1v0.1v0.1v0.1v0.1v0.1v0.1
		v0.1v0.1v0.1v0.1v0.1v0.1v0.1v0.1v0.1v0.1v0.1v0.1v0.1v0.1v0.1v0.1v0.1v0.1v0.1v0.1v0.1v0.1v0.1v0.1v0.1v0.1v0.1v0.1v0.1v0.1v0.1
		v0.1v0.1v0.1v0.1v0.1v0.1v0.1v0.1v0.1v0.1v0.1v0.1v0.1v0.1v0.1v0.1v0.1v0.1v0.1v0.1v0.1v0.1v0.1v0.1v0.1v0.1v0.1v0.1v0.1v0.1v0.1
		v0.1v0.1v0.1v0.1v0.1v0.1v0.1v0.1v0.1v0.1v0.1v0.1v0.1v0.1v0.1v0.1v0.1v0.1v0.1v0.1v0.1v0.1v0.1v0.1v0.1v0.1v0.1v0.1v0.1v0.1v0.1
		v0.1v0.1v0.1v0.1v0.1v0.1v0.1v0.1v0.1v0.1v0.1v0.1v0.1v0.1v0.1v0.1v0.1v0.1v0.1v0.1v0.1v0.1v0.1v0.1v0.1v0.1v0.1v0.1v0.1v0.1v0.1
		v0.1v0.1v0.1v0.1v0.1v0.1v0.1c0,7.7,3.1,17.6,9.3,26.4c6.3,9,16.2,17.2,30.2,21c3.1,0.8,4.1,2.1,4.4,2.5c0.2,0.4,0.5,1.2,0,2.7
		c-1.1,3.3-6,9.4-17.9,12.6c-0.8,0.2-2,0.4-4.2,0.8c-2,0.3-4.7,0.7-7.4,1.4c-5.5,1.3-12.4,3.7-18.2,9.2c-5.9,5.6-8.4,14-9.5,19.4
		c-0.6,2.9-1,5.6-1.2,7.5C222.8,246.5,222.7,247.3,222.6,247.9"/>
    <g>
      <path class="st1" d="M157.6,301.5c-50,0-80.8-20.2-97.9-37.5c-23-23.2-35.7-54.7-35.7-88.9v-59.3c0-28.8,11.4-55.6,32.2-75.6
			C76.7,20.4,103.9,9.6,133,9.6c59.6,0,109.9,48.6,109.9,106.2v26.3c0,7.1,3.2,15.9,8.3,23.2c4.6,6.5,13,15.1,27.1,18.8
			c4.6,1.2,6.8,3.4,7.7,5c0.8,1.4,1.6,3.8,0.6,7.2c-1.7,5.5-8.4,12.6-21.7,16.2c-1.1,0.3-2.4,0.5-4.8,0.9c-1.7,0.3-4.4,0.7-7,1.3
			c-6.7,1.6-11.8,4.1-15.6,7.8c-3.6,3.5-6.3,9-7.9,16.6c-0.6,2.8-0.9,5.3-1.1,7c-0.1,0.9-0.2,1.6-0.2,2.1l-0.1,1
			c0,0.3-0.1,0.8-0.2,1.4c-0.2,1.1-0.5,2.8-1,4.6c-0.7,2.5-2.2,7.2-4.4,9.6c-2.1,2.3-4.9,4.1-8.5,5.4c-3.6,1.3-6.9,1.8-8.6,1.9
			c-0.6,0-1.4,0.1-2.3,0.1c-3.6,0.1-10.3,0.3-15.9,3.2c-3.2,1.6-5.4,3.1-7.2,4.8c-2,1.8-3.7,4.1-5.4,7c-1.5,2.6-2.2,5.2-2.6,6.7
			c-0.1,0.3-0.2,0.6-0.2,0.8c-0.3,1.1-0.8,2.7-2.3,3.9c-0.8,0.7-1.2,1-1.5,1.2l-0.5,0.3c-0.3,0.2-0.7,0.3-1.1,0.5
			c-0.6,0.3-1.2,0.4-1.9,0.5c-0.6,0.1-1.2,0.1-2,0.2C160.8,301.5,159.2,301.5,157.6,301.5z M133,20.6c-26.2,0-50.7,9.8-69.2,27.6
			C45.2,66,34.9,90,35,115.8v59.4c0,31.3,11.5,60.1,32.5,81.2c23.1,23.2,55.6,35,94.1,34.2c0.5-1.9,1.5-5.2,3.4-8.5
			c2.2-4,4.6-7.1,7.6-9.8c3.3-3,6.9-5,9.6-6.4c7.8-4,16.1-4.2,20.5-4.4c0.7,0,1.3,0,1.7-0.1c0.9-0.1,3.2-0.3,5.7-1.3
			c1.8-0.7,3.3-1.5,4.1-2.4c0.3-0.4,1.1-2,2-5.2c0.4-1.5,0.7-2.9,0.8-3.7c0.1-0.4,0.1-0.7,0.2-0.9l0-0.3c0-0.6,0.1-1.5,0.2-2.5
			c0.3-2.8,0.7-5.5,1.3-8.1c2.1-9.7,5.9-17.2,11.1-22.2c5.3-5.1,12.1-8.5,20.7-10.6c2.8-0.7,5.4-1.1,7.9-1.5
			c1.5-0.2,3.1-0.5,3.7-0.6c7.5-2,11.4-5.2,13.1-7.3c-17-4.6-27.2-15-32.9-23c-6.5-9.2-10.3-20.2-10.3-29.6v-26.3
			C231.9,64.2,186.6,20.6,133,20.6z M162.5,290.2C162.5,290.2,162.5,290.2,162.5,290.2L162.5,290.2z M277,195.4L277,195.4L277,195.4
			z"/>
    </g>
    <g>
      <path class="st1" d="M178,62.7c16.7,0,30.2,13.5,30.2,30.2S194.7,123,178,123s-30.2-13.5-30.2-30.2S161.4,62.7,178,62.7"/>
      <path class="st2" d="M157.8,92.9c0,10.3,8.7,18.7,19.4,18.7V92.9V74.2C166.5,74.2,157.8,82.5,157.8,92.9z"/>
    </g>
    <g>
      <path class="st1" d="M91.5,62.7c16.7,0,30.2,13.5,30.2,30.2S108.2,123,91.5,123s-30.2-13.5-30.2-30.2S74.9,62.7,91.5,62.7"/>
      <path class="st2" d="M71.3,92.9c0,10.3,8.7,18.7,19.4,18.7V92.9V74.2C80,74.2,71.3,82.5,71.3,92.9z"/>
    </g>
  </g>
</svg>
