<svg width="83" height="15" viewBox="0 0 83 15" fill="none" xmlns="http://www.w3.org/2000/svg">
<path d="M31.4191 14.0598H27.0367V3.25532H20.8652V0H37.3931V3.25532H31.4185V14.0598H31.4191Z" fill="white"/>
<path d="M57.5893 10.7864V14.0598H46.8029H42.4741H42.1699V0H42.3488H46.8029H57.5893V3.25532H46.5529V5.6167H56.9098V8.46059H46.5529V10.7858H57.5893V10.7864Z" fill="white"/>
<path d="M68.1411 14.0598H62.2383L69.0531 7.11967L62.4889 0H68.1947L72.0765 4.34625L75.9403 0H81.6997L75.0638 7.11906L82.004 14.0592H76.1192L72.1302 9.83766L68.1411 14.0598Z" fill="white"/>
<path d="M16.4445 0V2.90413H5.25209V3.04991C5.14908 3.05653 5.05209 3.06437 4.95993 3.07581C4.76957 3.10051 4.59006 3.15111 4.4232 3.22822C4.25573 3.30592 4.1226 3.42098 4.0208 3.5764C3.9202 3.73121 3.869 3.93482 3.869 4.18542C3.869 4.63781 4.02983 4.93479 4.35211 5.07937C4.58524 5.18418 4.88583 5.24984 5.25148 5.27755V5.50104H11.9441C11.9549 5.50104 11.9657 5.50285 11.9766 5.50285H11.9784C12.2404 5.51369 12.4766 5.52453 12.6868 5.53538C13.0693 5.55345 13.385 5.57333 13.6356 5.59802C14.5699 5.64862 15.303 5.90645 15.8385 6.36848C15.6391 6.57872 15.5735 6.88413 15.8054 7.19436C15.8897 7.30942 15.968 7.41183 16.0385 7.51182C15.7789 8.35758 15.9325 9.50032 15.7271 10.1738C15.6289 10.4991 15.7397 10.7599 15.9403 10.9244C15.7156 11.5153 15.5572 12.0816 15.6945 12.7303L14.6145 13.8104C14.0783 13.9761 13.4422 14.0586 12.7061 14.0586H0.00585938V11.0171H10.8459C10.9212 11.0171 10.9953 11.0153 11.067 11.0141C11.1278 11.0123 11.1875 11.0093 11.2465 11.0057C11.3465 11.0009 11.4417 10.993 11.5338 10.9828C11.6898 10.9635 11.8374 10.9322 11.9772 10.8828C12.0248 10.8677 12.0706 10.8503 12.1151 10.8304C12.2946 10.7521 12.4374 10.637 12.544 10.4804C12.6519 10.3256 12.7049 10.1226 12.7049 9.87259C12.7049 9.58525 12.6302 9.35695 12.4814 9.18406C12.3495 9.03045 12.1808 8.91359 11.9772 8.83528C11.9525 8.82684 11.9266 8.8172 11.9001 8.80817C11.6898 8.7407 11.4718 8.69492 11.2465 8.67384V8.40818H4.24971C4.21176 8.40637 4.17501 8.40517 4.13646 8.40155C4.10152 8.39975 4.06598 8.39854 4.03104 8.39674C3.66117 8.37987 3.34492 8.35878 3.08227 8.33409C1.88773 8.26963 0.999203 7.90759 0.416088 7.24918C0.437774 7.22087 0.45705 7.18954 0.473917 7.15581C0.646201 6.82871 0.754632 6.46426 0.805233 6.09921C0.87752 5.57272 0.499821 5.0372 0.591987 4.56914C0.677526 4.12879 1.02932 3.91735 0.977517 3.39448C0.919085 2.81196 0.475123 2.3933 0.372114 1.83669C0.354042 1.74091 0.323922 1.65959 0.284164 1.59092L1.60943 0.265655C2.06965 0.0885514 2.62084 0.000602244 3.26179 0.000602244H16.4445V0Z" fill="white"/>
<path d="M4.13662 0V3.28605C3.57339 3.31857 3.35954 3.87217 3.49267 4.30348C3.28725 4.74082 3.48785 5.38297 4.09385 5.42032C4.10831 5.42213 4.12156 5.42333 4.13662 5.42333V8.40818H0V1.87344L0.283726 1.58971C0.283726 1.58971 0.283726 1.59031 0.284328 1.59031L1.60959 0.265052C1.60899 0.265052 1.60778 0.265655 1.60718 0.265655L1.87284 0H4.13662Z" fill="white"/>
<path d="M5.25202 2.9873H2.81836V5.42097H5.25202V2.9873Z" fill="white"/>
<path d="M16.309 5.50342V12.1291L15.6957 12.7424C15.6951 12.7381 15.6939 12.7345 15.6933 12.7303L14.6132 13.8104C14.6205 13.808 14.6265 13.8062 14.6337 13.8038L14.3801 14.0586H11.9766V5.50342H16.309Z" fill="white"/>
<path d="M11.2459 8.59375H11.976H12.8856V11.1238H11.976H11.2459H11.0664V11.0148C11.1279 11.013 11.1875 11.0099 11.2459 11.0057V8.67507V8.59375Z" fill="white"/>
<path d="M11.067 11.0144C11.1284 11.0126 11.1881 11.0096 11.2465 11.0054V11.2463H0.00585938V11.018H10.8459C10.9212 11.0174 10.9947 11.0162 11.067 11.0144Z" fill="white"/>
<path d="M16.445 2.60889H5.25195V3.25465H16.445V2.60889Z" fill="white"/>
<path d="M14.6154 13.8103C14.6226 13.8079 14.6286 13.8061 14.6359 13.8037L14.3822 14.0585H14.3672L14.6154 13.8103Z" fill="white"/>
<path d="M16.309 12.1143V12.1287L15.6958 12.7419C15.6952 12.7377 15.694 12.7341 15.6934 12.7299L16.309 12.1143Z" fill="white"/>
<path d="M15.0236 10.8417L13.0957 12.7695L14.3825 14.0563L16.3104 12.1285L15.0236 10.8417Z" fill="white"/>
</svg>
