<svg width="68" height="12" viewBox="0 0 68 12" fill="none" xmlns="http://www.w3.org/2000/svg">
<path d="M26.0522 11.6585H22.4183V2.69935H17.3008V0H31.0058V2.69935H26.0517V11.6585H26.0522Z" fill="white"/>
<path d="M47.7527 8.94421V11.6585H38.8085H35.219H34.9668V0H35.1152H38.8085H47.7527V2.69935H38.6012V4.65742H47.1893V7.01561H38.6012V8.94372H47.7527V8.94421Z" fill="white"/>
<path d="M56.5021 11.6585H51.6074L57.2584 5.9037L51.8152 0H56.5466L59.7654 3.60396L62.9693 0H67.7451L62.2425 5.9032L67.9973 11.658H63.1176L59.8099 8.15749L56.5021 11.6585Z" fill="white"/>
<path d="M13.635 0.000488281V2.40862H4.35413V2.5295C4.26872 2.535 4.18829 2.54149 4.11187 2.55098C3.95402 2.57146 3.80517 2.61342 3.66681 2.67736C3.52794 2.7418 3.41755 2.8372 3.33314 2.96607C3.24972 3.09445 3.20726 3.26328 3.20726 3.47108C3.20726 3.84621 3.34063 4.09247 3.60787 4.21235C3.80118 4.29927 4.05043 4.35371 4.35363 4.37669V4.56201H9.90318C9.91217 4.56201 9.92116 4.56351 9.93015 4.56351H9.93165C10.1489 4.5725 10.3447 4.58149 10.5191 4.59048C10.8363 4.60546 11.098 4.62195 11.3058 4.64243C12.0805 4.68439 12.6884 4.89818 13.1325 5.2813C12.9672 5.45563 12.9127 5.70888 13.105 5.96613C13.175 6.06153 13.2399 6.14645 13.2983 6.22937C13.0831 6.93068 13.2104 7.87825 13.0401 8.4367C12.9587 8.70644 13.0506 8.92272 13.2169 9.05909C13.0306 9.54911 12.8992 10.0186 13.0131 10.5566L12.1175 11.4522C11.6729 11.5896 11.1455 11.658 10.5351 11.658H0.00390625V9.13601H8.99257C9.05501 9.13601 9.11645 9.13452 9.17589 9.13352C9.22635 9.13202 9.2758 9.12952 9.32475 9.12652C9.40767 9.12253 9.48659 9.11603 9.56301 9.10754C9.69239 9.09156 9.81477 9.06558 9.93065 9.02462C9.97011 9.01214 10.0081 8.99765 10.045 8.98117C10.1939 8.91623 10.3123 8.82082 10.4007 8.69095C10.4901 8.56258 10.5341 8.39424 10.5341 8.18695C10.5341 7.94868 10.4721 7.75937 10.3487 7.61601C10.2394 7.48863 10.0995 7.39173 9.93065 7.32679C9.91017 7.3198 9.88869 7.31181 9.86672 7.30431C9.69239 7.24837 9.51157 7.21041 9.32475 7.19292V6.97264H3.52295C3.49148 6.97114 3.46101 6.97014 3.42904 6.96714C3.40007 6.96565 3.3706 6.96465 3.34163 6.96315C3.03493 6.94916 2.77269 6.93168 2.5549 6.9112C1.56437 6.85775 0.827597 6.55755 0.344072 6.01158C0.362054 5.98811 0.378038 5.96213 0.392025 5.93416C0.534884 5.66293 0.624796 5.36072 0.666755 5.05802C0.726696 4.62145 0.413504 4.17738 0.489929 3.78927C0.560859 3.42412 0.852573 3.2488 0.809615 2.81522C0.761162 2.3322 0.393024 1.98504 0.307608 1.52349C0.292623 1.44407 0.267647 1.37664 0.234679 1.31969L1.3336 0.220772C1.71522 0.073916 2.17228 0.000987669 2.70375 0.000987669H13.635V0.000488281Z" fill="white"/>
<path d="M3.43013 0.000976562V2.7258C2.96309 2.75277 2.78576 3.21182 2.89615 3.56947C2.72582 3.93211 2.89216 4.46459 3.39466 4.49556C3.40665 4.49706 3.41764 4.49806 3.43013 4.49806V6.97313H0V1.55445L0.235269 1.31918C0.235269 1.31918 0.235269 1.31968 0.235768 1.31968L1.33469 0.220761C1.33419 0.220761 1.33319 0.22126 1.33269 0.22126L1.55297 0.000976562H3.43013Z" fill="white"/>
<path d="M4.35591 2.47754H2.33789V4.49556H4.35591V2.47754Z" fill="white"/>
<path d="M13.5241 4.56396V10.0581L13.0156 10.5666C13.0151 10.5631 13.0141 10.5601 13.0136 10.5566L12.118 11.4522C12.124 11.4502 12.129 11.4487 12.135 11.4467L11.9247 11.658H9.93164V4.56396H13.5241Z" fill="white"/>
<path d="M9.32659 7.12646H9.93199H10.6863V9.2244H9.93199H9.32659H9.17773V9.13399C9.22868 9.13249 9.27814 9.13 9.32659 9.1265V7.1939V7.12646Z" fill="white"/>
<path d="M9.1759 9.13396C9.22685 9.13246 9.2763 9.12996 9.32475 9.12646V9.32627H0.00390625V9.13696H8.99258C9.05502 9.13646 9.11596 9.13546 9.1759 9.13396Z" fill="white"/>
<path d="M13.6349 2.16406H4.35352V2.69954H13.6349V2.16406Z" fill="white"/>
<path d="M12.1179 11.4528C12.1239 11.4508 12.1289 11.4493 12.1349 11.4473L11.9246 11.6586H11.9121L12.1179 11.4528Z" fill="white"/>
<path d="M13.5242 10.0459V10.0579L13.0157 10.5664C13.0152 10.5629 13.0142 10.5599 13.0137 10.5564L13.5242 10.0459Z" fill="white"/>
<path d="M12.456 8.99076L10.8574 10.5894L11.9244 11.6564L13.523 10.0578L12.456 8.99076Z" fill="white"/>
</svg>
