<svg id="Шар_1" data-name="Шар 1" xmlns="http://www.w3.org/2000/svg" viewBox="0 0 10863.62 10863.62"><defs><style>.cls-1{fill:#fff;stroke:#fff;stroke-miterlimit:10;}</style></defs><title>Logo_Vector_Black</title><circle class="cls-1" cx="5431.81" cy="5431.81" r="5431.31"/><path d="M5827.55,6906H5428.13V5921.26H4865.65V5624.57H6372v296.69H5827.49V6906Z" transform="translate(-1272.87 -792.81)"/><path d="M8212.63,6607.66V6906H6807.28V5624.57H8212.63v296.69H7206.75v215.22H8150.7v259.2H7206.75V6607.6H8212.63Z" transform="translate(-1272.87 -792.81)"/><path d="M9174.46,6906h-538l621.12-632.54-598.28-648.89h520l353.79,396.12,352.15-396.12h524.92l-604.8,648.84,632.53,632.53H9901.59L9538,6521.18Z" transform="translate(-1272.87 -792.81)"/><path d="M4463,5624.62v264.69H3442.9v13.29c-9.38.6-18.22,1.31-26.62,2.36a167.28,167.28,0,0,0-48.92,13.89,86.35,86.35,0,0,0-36.68,31.73c-9.17,14.11-13.83,32.67-13.83,55.51,0,41.23,14.66,68.3,44,81.47,21.25,9.56,48.64,15.54,82,18.07V6126h610c1,0,2,.16,3,.16h.17q35.82,1.48,64.56,3c34.87,1.65,63.63,3.46,86.47,5.71q127.74,6.93,200.78,70.22c-18.17,19.17-24.15,47-3,75.28,7.69,10.48,14.83,19.82,21.25,28.93-23.66,77.08-9.66,181.23-28.38,242.61-8.95,29.65,1.15,53.43,19.43,68.41-20.48,53.86-34.92,105.47-22.4,164.6l-98.44,98.44q-73.29,22.65-173.93,22.62H2964.76v-277.2h988c6.86,0,13.62-.17,20.15-.28,5.54-.16,11-.44,16.36-.76,9.11-.44,17.79-1.16,26.19-2.09a191.28,191.28,0,0,0,40.41-9.11,121.17,121.17,0,0,0,12.57-4.78c16.36-7.14,29.37-17.63,39.09-31.9,9.83-14.11,14.66-32.61,14.66-55.4,0-26.18-6.81-47-20.37-62.75-12-14-27.4-24.65-45.95-31.79-2.25-.77-4.61-1.65-7-2.47a279.78,279.78,0,0,0-59.57-12.24V6391H3351.55c-3.46-.17-6.81-.28-10.33-.61-3.18-.16-6.42-.27-9.6-.44q-50.57-2.31-86.47-5.71-163.32-8.8-243-98.88a53.22,53.22,0,0,0,5.27-8.51c15.7-29.81,25.58-63,30.19-96.3,6.59-48-27.83-96.79-19.43-139.45,7.79-40.13,39.86-59.4,35.14-107.06-5.33-53.09-45.79-91.25-55.18-142a70.29,70.29,0,0,0-8-22.4l120.79-120.78q62.91-24.23,150.6-24.16H4463Z" transform="translate(-1272.87 -792.81)"/><path d="M3341.22,5624.62v299.5c-51.33,3-70.82,53.42-58.69,92.73-18.72,39.86-.44,98.38,54.8,101.79a31,31,0,0,0,3.89.27V6391h-377V5795.37l25.86-25.86s0,.06,0,.06l120.79-120.79c-.06,0-.17.06-.22.06l24.21-24.22Z" transform="translate(-1272.87 -792.81)"/><rect x="1948.23" y="5104.08" width="221.81" height="221.81"/><path d="M4450.7,6126.21v603.88L4394.81,6786c-.06-.38-.17-.71-.22-1.1l-98.44,98.44,1.86-.6-23.11,23.22H4055.84V6126.21Z" transform="translate(-1272.87 -792.81)"/><path d="M3989.24,6407.87h149.45v230.59H3972.88v-9.94c5.6-.17,11-.44,16.36-.82V6407.87Z" transform="translate(-1272.87 -792.81)"/><path d="M3972.88,6628.52c5.6-.17,11-.44,16.36-.82v22H2964.76v-20.81h988C3959.59,6628.79,3966.29,6628.68,3972.88,6628.52Z" transform="translate(-1272.87 -792.81)"/><rect x="2170.03" y="5069.6" width="1020.15" height="58.86"/><path d="M4296.15,6883.38l1.86-.61L4274.9,6906h-1.37Z" transform="translate(-1272.87 -792.81)"/><path d="M4450.7,6728.77v1.32L4394.81,6786c-.06-.38-.17-.71-.22-1.1Z" transform="translate(-1272.87 -792.81)"/><rect x="4179.92" y="6676.34" width="248.49" height="165.86" transform="translate(-4791.74 4230.44) rotate(-45)"/></svg>