<svg width="35" height="36" viewBox="0 0 35 36" fill="none" xmlns="http://www.w3.org/2000/svg">
<ellipse cx="16.2973" cy="17.915" rx="11.9984" ry="11.4854" fill="white"/>
<path d="M15.5492 2.54236C6.96217 3.41638 0.710214 11.0716 1.58618 19.6394C2.46215 28.2073 10.1345 34.4453 18.7216 33.5712C27.3087 32.6972 33.5606 25.042 32.6846 16.4742C31.8087 7.90632 24.1363 1.66835 15.5492 2.54236ZM24.2732 12.3937L22.9471 24.6514C22.8462 25.5212 22.3594 25.7797 21.6097 25.4511L17.4302 22.9895L15.7408 24.9825C15.6611 25.1104 15.5532 25.2184 15.4252 25.2983C15.2971 25.3781 15.1525 25.4276 15.0024 25.443L14.9959 25.4437L14.8682 21.4672L21.4089 14.2411C21.6917 13.934 21.2947 13.8164 20.9095 14.1338L12.5807 20.6327L8.62311 19.8285C7.76698 19.6504 7.68589 19.0878 8.67193 18.5773L23.0695 11.2883C23.7407 10.9639 24.39 11.3211 24.272 12.3951L24.2732 12.3937Z" fill="#2F9FCF"/>
</svg>
