<svg width="31" height="31" viewBox="0 0 31 31" fill="none" xmlns="http://www.w3.org/2000/svg">
<path d="M30.9062 15.6245C30.9062 23.8746 23.9876 30.5626 15.4531 30.5626C6.9186 30.5626 0 23.8746 0 15.6245C0 7.3745 6.9186 0.686523 15.4531 0.686523C23.9876 0.686523 30.9062 7.3745 30.9062 15.6245Z" fill="#3178C6"/>
<path d="M17.2316 18.7081V21.598C17.6849 21.8388 18.2209 22.0194 18.8397 22.1398C19.4585 22.2603 20.1107 22.3204 20.7964 22.3204C21.4646 22.3204 22.0994 22.2542 22.7007 22.1217C23.3021 21.9893 23.8295 21.771 24.2826 21.4671C24.7358 21.163 25.0946 20.7656 25.3591 20.2749C25.6234 19.7843 25.7556 19.1778 25.7556 18.4553C25.7556 17.9315 25.68 17.4724 25.529 17.078C25.3796 16.6864 25.1575 16.3289 24.8753 16.026C24.5906 15.7189 24.2492 15.4435 23.8513 15.1996C23.4532 14.9558 23.0043 14.7255 22.5046 14.5088C22.1386 14.3522 21.8103 14.2003 21.5198 14.0527C21.2293 13.9052 20.9823 13.7548 20.779 13.6012C20.5756 13.4477 20.4187 13.2851 20.3083 13.1135C20.1979 12.9419 20.1427 12.7478 20.1427 12.531C20.1427 12.3323 20.1921 12.1533 20.2908 11.9937C20.3896 11.8342 20.5291 11.6972 20.7092 11.5828C20.8893 11.4684 21.1101 11.3796 21.3716 11.3163C21.6331 11.2531 21.9236 11.2215 22.2432 11.2215C22.4756 11.2215 22.7211 11.2397 22.9796 11.2757C23.2382 11.3118 23.4982 11.3675 23.7598 11.4428C24.0204 11.5178 24.2754 11.6129 24.5223 11.7273C24.7618 11.8374 24.9909 11.9704 25.2065 12.1246V9.42442C24.7823 9.25586 24.3189 9.13093 23.8164 9.04963C23.3138 8.96833 22.7371 8.92773 22.0863 8.92773C21.4239 8.92773 20.7964 9.0015 20.2038 9.14903C19.6111 9.29645 19.0896 9.52674 18.6393 9.8398C18.189 10.153 17.8331 10.5518 17.5716 11.0365C17.3101 11.5211 17.1794 12.1006 17.1794 12.7749C17.1794 13.6358 17.419 14.3703 17.8985 14.9784C18.3778 15.5864 19.1055 16.1012 20.0817 16.5227C20.442 16.6748 20.7994 16.8344 21.1537 17.0013C21.4849 17.1579 21.7711 17.3204 22.0122 17.4889C22.2534 17.6575 22.4437 17.8411 22.5831 18.0398C22.7225 18.2385 22.7923 18.4643 22.7923 18.7172C22.7934 18.8992 22.7483 19.0783 22.6615 19.2365C22.5744 19.3959 22.4422 19.5344 22.265 19.6518C22.0878 19.7692 21.8669 19.861 21.6026 19.9272C21.3382 19.9935 21.0288 20.0266 20.6743 20.0266C20.0701 20.0266 19.4717 19.9168 18.879 19.6969C18.2862 19.4772 17.7371 19.1476 17.2316 18.7081ZM12.5868 11.5165H16.1704V9.137H6.18164V11.5165H9.74783V22.1112H12.5868V11.5165Z" fill="white"/>
</svg>
