<svg width="31" height="30" viewBox="0 0 31 30" fill="none" xmlns="http://www.w3.org/2000/svg">
<path d="M30.9062 14.9802C30.9062 23.2535 23.9876 29.9603 15.4531 29.9603C6.9186 29.9603 0 23.2535 0 14.9802C0 6.70685 6.9186 0 15.4531 0C23.9876 0 30.9062 6.70685 30.9062 14.9802Z" fill="white"/>
<path d="M25.1831 9.99382C24.5222 10.286 23.8122 10.4835 23.0658 10.5727C23.8359 10.1129 24.4121 9.38924 24.6868 8.53673C23.9632 8.96556 23.1713 9.2674 22.3455 9.42915C21.7902 8.83752 21.0546 8.44538 20.253 8.31361C19.4514 8.18184 18.6286 8.31781 17.9124 8.70041C17.1962 9.08301 16.6266 9.69084 16.2921 10.4295C15.9576 11.1682 15.8769 11.9964 16.0624 12.7856C14.5963 12.7121 13.162 12.3319 11.8527 11.6696C10.5434 11.0073 9.38827 10.0777 8.46232 8.94108C8.14572 9.48601 7.96367 10.1178 7.96367 10.7907C7.96331 11.3964 8.11282 11.9929 8.39891 12.5271C8.685 13.0614 9.09883 13.5169 9.60369 13.8533C9.01818 13.8347 8.4456 13.6769 7.93359 13.3929V13.4403C7.93353 14.2898 8.22806 15.1133 8.7672 15.7708C9.30634 16.4284 10.0569 16.8796 10.8915 17.0479C10.3483 17.1945 9.77888 17.2161 9.22613 17.111C9.46161 17.842 9.92029 18.4813 10.538 18.9392C11.1556 19.3972 11.9014 19.651 12.6708 19.6651C11.3647 20.6881 9.75161 21.2431 8.0911 21.2406C7.79696 21.2407 7.50307 21.2236 7.21094 21.1893C8.89645 22.2706 10.8585 22.8445 12.8624 22.8422C19.6456 22.8422 23.3539 17.2366 23.3539 12.3749C23.3539 12.217 23.3499 12.0574 23.3428 11.8995C24.0641 11.379 24.6867 10.7345 25.1815 9.99619L25.1831 9.99382Z" fill="#2299ED"/>
</svg>
