<svg width="42" height="39" viewBox="0 0 42 39" fill="none" xmlns="http://www.w3.org/2000/svg">
<path fill-rule="evenodd" clip-rule="evenodd" d="M19.1503 38.5938C19.6339 38.8646 20.2142 39 20.7945 39C21.3748 39 21.9358 38.8839 22.4001 38.6131C25.94 36.6594 32.3234 34.5509 36.3082 34.0287L36.9466 33.9513C39.4999 33.6418 41.5891 31.2818 41.5891 28.6898V5.34187C41.5891 3.81372 40.9894 2.42097 39.8868 1.41509C38.8036 0.409219 37.3528 -0.093719 35.9407 0.0416872H35.7086C31.4336 0.409218 25.0115 2.57572 21.3748 4.85828L21.0653 5.05172C20.9493 5.10975 20.6591 5.10975 20.5237 5.03237L20.0595 4.76156C16.4228 2.479 10.0007 0.351187 5.74509 0.0223433C4.23628 -0.113063 2.80484 0.370531 1.70225 1.37641C0.599656 2.38228 0 3.77503 0 5.30319V28.6704C0 31.2432 2.08913 33.6224 4.62316 33.9319L5.18412 34.0093C9.16894 34.5316 15.533 36.6207 19.1503 38.5938ZM3.65597 3.52356C4.10087 3.11734 4.66184 2.90456 5.28084 2.90456H5.51297C9.30434 3.21406 15.2622 5.18712 18.57 7.21822L19.0343 7.48903C19.1332 7.55064 19.2366 7.60629 19.3438 7.65599V35.4448C15.4016 33.5281 9.5273 31.6739 5.571 31.1464L4.99069 31.0691C3.88809 30.9143 2.90156 29.8117 2.90156 28.6704V5.30319C2.90156 4.60681 3.17238 3.96847 3.65597 3.52356ZM35.9407 31.1464C32.0117 31.668 26.1921 33.502 22.2453 35.4268V7.6721C22.3793 7.61346 22.5087 7.546 22.6322 7.46969L22.9417 7.25691C26.1914 5.22581 32.1493 3.23341 35.844 2.90456H36.0761C36.7918 2.86588 37.4302 3.07866 37.9331 3.52356C38.4167 3.98781 38.6875 4.60681 38.6875 5.32253V28.6704C38.6875 29.8117 37.701 30.9337 36.5984 31.0691L35.9407 31.1464ZM12.5727 14.1625H8.22031C7.42722 14.1625 6.76953 13.5049 6.76953 12.7118C6.76953 11.9187 7.42722 11.261 8.22031 11.261H12.5727C13.3658 11.261 14.0234 11.9187 14.0234 12.7118C14.0234 13.5049 13.3658 14.1625 12.5727 14.1625ZM8.22031 19.9658H14.0234C14.8165 19.9658 15.4742 19.3081 15.4742 18.515C15.4742 17.7219 14.8165 17.0642 14.0234 17.0642H8.22031C7.42722 17.0642 6.76953 17.7219 6.76953 18.515C6.76953 19.3081 7.42722 19.9658 8.22031 19.9658Z" fill="url(#paint0_linear_2053_371)"/>
<defs>
<linearGradient id="paint0_linear_2053_371" x1="1.50193e-07" y1="-4" x2="42" y2="34" gradientUnits="userSpaceOnUse">
<stop stop-color="#3CFF5E"/>
<stop offset="0.487847" stop-color="#0058BF"/>
<stop offset="0.940972" stop-color="#F91690"/>
</linearGradient>
</defs>
</svg>
