<svg width="36" height="36" viewBox="0 0 36 36" fill="none" xmlns="http://www.w3.org/2000/svg">
<path fill-rule="evenodd" clip-rule="evenodd" d="M25.7143 17.64C25.7143 18.3359 26.2784 18.9 26.9743 18.9H28.2857C30.3317 18.9 32.2938 18.1035 33.7405 16.6857C35.1872 15.268 36 13.345 36 11.34C36 9.33496 35.1872 7.41205 33.7405 5.99427C32.2938 4.5765 30.3317 3.78 28.2857 3.78H14.1171C13.4213 3.78 12.8571 4.34412 12.8571 5.04C12.8571 5.73588 13.4213 6.3 14.1171 6.3H28.2857C29.6497 6.3 30.9578 6.831 31.9223 7.77618C32.8867 8.72136 33.4286 10.0033 33.4286 11.34C33.4286 12.6767 32.8867 13.9586 31.9223 14.9038C30.9578 15.849 29.6497 16.38 28.2857 16.38H26.9743C26.2784 16.38 25.7143 16.9441 25.7143 17.64ZM0 5.04C0 7.82351 2.25648 10.08 5.04 10.08H5.24572C8.02923 10.08 10.2857 7.82351 10.2857 5.04C10.2857 2.25649 8.02923 0 5.24571 0H5.04C2.25648 0 0 2.25649 0 5.04ZM7.71429 5.04C7.71429 6.43176 6.58604 7.56 5.19429 7.56H5.09143C3.69967 7.56 2.57143 6.43176 2.57143 5.04C2.57143 3.64824 3.69967 2.52 5.09143 2.52H5.19429C6.58604 2.52 7.71429 3.64824 7.71429 5.04ZM23.4 18C23.4 20.9823 20.9823 23.4 18 23.4C15.0177 23.4 12.6 20.9823 12.6 18C12.6 15.0177 15.0177 12.6 18 12.6C20.9823 12.6 23.4 15.0177 23.4 18ZM15.3 18C15.3 19.4912 16.5088 20.7 18 20.7C19.4912 20.7 20.7 19.4912 20.7 18C20.7 16.5088 19.4912 15.3 18 15.3C16.5088 15.3 15.3 16.5088 15.3 18ZM36 30.96C36 33.7435 33.7435 36 30.96 36H30.7543C27.9708 36 25.7143 33.7435 25.7143 30.96C25.7143 28.1765 27.9708 25.92 30.7543 25.92H30.96C33.7435 25.92 36 28.1765 36 30.96ZM28.2857 30.96C28.2857 32.3518 29.414 33.48 30.8057 33.48H30.9086C32.3003 33.48 33.4286 32.3518 33.4286 30.96C33.4286 29.5682 32.3003 28.44 30.9086 28.44H30.8057C29.414 28.44 28.2857 29.5682 28.2857 30.96ZM23.1429 30.96C23.1429 31.6559 22.5787 32.22 21.8829 32.22H7.71429C5.66833 32.22 3.70617 31.4235 2.25946 30.0057C0.812753 28.588 0 26.665 0 24.66C0 22.655 0.812753 20.732 2.25946 19.3143C3.70617 17.8965 5.66833 17.1 7.71429 17.1H9.02571C9.72159 17.1 10.2857 17.6641 10.2857 18.36C10.2857 19.0559 9.72159 19.62 9.02571 19.62H7.71429C6.35032 19.62 5.04221 20.151 4.07774 21.0962C3.11326 22.0414 2.57143 23.3233 2.57143 24.66C2.57143 25.9967 3.11326 27.2786 4.07774 28.2238C5.04221 29.169 6.35032 29.7 7.71429 29.7H21.8829C22.5787 29.7 23.1429 30.2641 23.1429 30.96Z" fill="url(#paint0_linear_2053_401)"/>
<defs>
<linearGradient id="paint0_linear_2053_401" x1="7.65" y1="9.38774e-09" x2="36" y2="36" gradientUnits="userSpaceOnUse">
<stop stop-color="#3CFF5E"/>
<stop offset="0.560764" stop-color="#446AEF"/>
<stop offset="0.940972" stop-color="#F91690"/>
</linearGradient>
</defs>
</svg>
