<svg width="84" height="96" viewBox="0 0 84 96" fill="none" xmlns="http://www.w3.org/2000/svg">
<path d="M32.6316 21.8049C31.5933 21.6565 31.5439 21.6071 32.0383 21.5576C32.9778 21.4093 35.1533 21.6071 36.6861 21.9532C40.2462 22.7938 43.4601 24.9693 46.8718 28.7766L47.7618 29.8149L49.0473 29.6172C54.5357 28.7271 60.1724 29.4194 64.8697 31.5949C66.1552 32.1883 68.1825 33.375 68.4297 33.6716C68.5286 33.7705 68.6769 34.4133 68.7758 35.0561C69.1219 37.38 68.9736 39.1106 68.2319 40.4456C67.8364 41.1872 67.8364 41.385 68.0836 42.0278C68.2814 42.5223 68.8747 42.8684 69.4186 42.8684C70.6053 42.8684 71.8414 40.9895 72.4347 38.3689L72.682 37.3305L73.127 37.825C75.6487 40.6433 77.6265 44.5495 77.9231 47.3184L78.022 48.0601L77.577 47.4173C76.8353 46.2801 76.1431 45.5384 75.2037 44.8956C73.5225 43.7584 71.7425 43.4123 67.0453 43.165C62.793 42.9178 60.3702 42.5717 57.9968 41.7806C53.9424 40.4456 51.8657 38.715 47.0695 32.3366C44.9434 29.5183 43.6084 27.9855 42.2734 26.6999C39.3561 23.8815 36.4389 22.3982 32.6316 21.8049Z" fill="#FF007A"/>
<path d="M69.4709 28.0845C69.5698 26.2056 69.817 24.9695 70.3609 23.8323C70.5587 23.3873 70.7565 22.9917 70.8059 22.9917C70.8554 22.9917 70.7565 23.3378 70.6081 23.7334C70.2126 24.8212 70.1631 26.3539 70.4103 28.0845C70.7565 30.3095 70.9048 30.6062 73.2782 33.029C74.3659 34.1662 75.6515 35.6001 76.146 36.1935L76.9865 37.2813L76.146 36.4901C75.1076 35.5012 72.7343 33.6223 72.1904 33.3751C71.8443 33.1773 71.7948 33.1773 71.5476 33.4246C71.3498 33.6223 71.3004 33.919 71.3004 35.3529C71.2509 37.5779 70.9542 38.9624 70.2126 40.3963C69.817 41.138 69.7676 40.9896 70.1137 40.1491C70.3609 39.5063 70.4103 39.2096 70.4103 37.0835C70.4103 32.7818 69.9159 31.7434 66.8998 30.0129C66.1581 29.5679 64.8725 28.9251 64.1309 28.579C63.3397 28.2329 62.7464 27.9362 62.7958 27.9362C62.8947 27.8373 65.812 28.6779 66.9492 29.1723C68.6798 29.8645 68.9764 29.914 69.1742 29.8645C69.3226 29.7162 69.4215 29.3206 69.4709 28.0845Z" fill="#FF007A"/>
<path d="M34.6659 35.4517C32.5893 32.5839 31.2542 28.1339 31.5509 24.8211L31.6498 23.7827L32.1443 23.8816C33.0343 24.0299 34.5671 24.6233 35.3087 25.0683C37.2865 26.255 38.1765 27.8866 39.0171 31.9411C39.2643 33.1278 39.6104 34.5122 39.7588 34.9572C40.006 35.6989 40.9454 37.4295 41.7366 38.5173C42.2804 39.3084 41.9343 39.704 40.6982 39.6051C38.8193 39.4073 36.2976 37.6767 34.6659 35.4517Z" fill="#FF007A"/>
<path d="M66.9524 56.96C57.1623 53.0044 53.7012 49.5927 53.7012 43.8077C53.7012 42.9671 53.7506 42.2749 53.7506 42.2749C53.8001 42.2749 54.1462 42.5716 54.5912 42.9177C56.569 44.4999 58.794 45.1921 64.9746 46.0822C68.5841 46.626 70.6608 47.0216 72.5397 47.6644C78.5225 49.6422 82.2308 53.6967 83.1209 59.185C83.3681 60.7673 83.2197 63.7834 82.8242 65.3656C82.4781 66.6018 81.4892 68.8762 81.2419 68.9257C81.1925 68.9257 81.0936 68.6784 81.0936 68.2829C80.9947 66.2062 79.9564 64.2284 78.2258 62.6956C76.1491 60.9156 73.4791 59.5806 66.9524 56.96Z" fill="#FF007A"/>
<path d="M60.0245 58.5923C59.9256 57.8506 59.6784 56.9112 59.53 56.5156L59.2828 55.7739L59.7278 56.3178C60.3706 57.0595 60.865 57.9495 61.31 59.1856C61.6561 60.1251 61.6561 60.4217 61.6561 61.9545C61.6561 63.4379 61.6067 63.784 61.31 64.6245C60.8156 65.9596 60.2222 66.899 59.2333 67.9374C57.4533 69.7668 55.1294 70.7557 51.8166 71.2007C51.2233 71.2502 49.5422 71.3985 48.0588 71.4974C44.3504 71.6952 41.8782 72.0907 39.6532 72.8818C39.3565 72.9807 39.0599 73.0796 39.0104 73.0302C38.9115 72.9313 40.4443 72.0413 41.6804 71.4479C43.411 70.6074 45.191 70.1624 49.0972 69.4701C51.0255 69.1735 53.0033 68.7779 53.4977 68.5801C58.3928 67.0473 60.8156 63.2401 60.0245 58.5923Z" fill="#FF007A"/>
<path d="M64.5269 66.5533C63.2413 63.735 62.9446 61.065 63.6369 58.5433C63.7357 58.2961 63.8346 58.0488 63.9335 58.0488C64.0324 58.0488 64.3291 58.1972 64.6258 58.3949C65.2191 58.7905 66.4552 59.4827 69.6197 61.2133C73.6247 63.3889 75.8992 65.07 77.4814 66.9983C78.8659 68.6795 79.7064 70.6078 80.102 72.9812C80.3492 74.3162 80.2009 77.5301 79.8548 78.8651C78.767 83.0679 76.2947 86.4302 72.6853 88.3585C72.1414 88.6552 71.6964 88.853 71.6469 88.853C71.5975 88.853 71.7953 88.3585 72.0919 87.7652C73.2786 85.2435 73.4269 82.8207 72.5369 80.1012C71.993 78.4201 70.8558 76.3929 68.5813 72.9812C65.8619 69.0256 65.2191 67.9872 64.5269 66.5533Z" fill="#FF007A"/>
<path d="M27.6907 81.6835C31.3496 78.6179 35.8491 76.4424 40.0024 75.7501C41.7825 75.4535 44.7492 75.5524 46.3808 75.9974C49.0014 76.6896 51.3748 78.1729 52.6109 80.0024C53.7976 81.7824 54.3415 83.3152 54.8853 86.7269C55.0831 88.0619 55.3303 89.4464 55.3798 89.743C55.7754 91.5231 56.5665 92.9075 57.5554 93.6492C59.0882 94.7864 61.7582 94.8359 64.3788 93.847C64.8238 93.6986 65.2193 93.5503 65.2193 93.5997C65.3182 93.6986 63.9832 94.5886 63.0932 95.0336C61.8571 95.6764 60.8682 95.8742 59.5332 95.8742C57.1598 95.8742 55.1326 94.6381 53.5009 92.1658C53.1548 91.6714 52.4625 90.2375 51.8692 88.9025C50.1386 84.8974 49.2486 83.7108 47.2214 82.3758C45.4414 81.2385 43.1669 80.9913 41.4364 81.8319C39.1619 82.9197 38.5685 85.8369 40.1508 87.6169C40.7936 88.3586 41.9802 88.9519 42.9691 89.1003C44.7986 89.3475 46.3808 87.9136 46.3808 86.0841C46.3808 84.8974 45.9358 84.2052 44.7492 83.6613C43.1669 82.9691 41.4363 83.7602 41.4858 85.293C41.4858 85.9358 41.7825 86.3313 42.4252 86.628C42.8208 86.8258 42.8208 86.8258 42.5241 86.7763C41.0902 86.4797 40.7441 84.6997 41.8814 83.5624C43.2658 82.178 46.1831 82.7713 47.172 84.6997C47.5675 85.4908 47.617 87.073 47.2708 88.0619C46.4303 90.2375 44.0569 91.3747 41.6341 90.7319C40.0024 90.2869 39.3102 89.8419 37.3324 87.8147C33.8713 84.2547 32.5363 83.5624 27.5918 82.8208L26.6523 82.6724L27.6907 81.6835Z" fill="#FF007A"/>
<path fill-rule="evenodd" clip-rule="evenodd" d="M1.68332 2.12613C13.204 16.119 30.9547 37.8747 31.8447 39.0614C32.5863 40.0503 32.2897 40.9898 31.0536 41.682C30.3613 42.0776 28.9274 42.4731 28.2352 42.4731C27.4441 42.4731 26.5046 42.0776 25.8618 41.4348C25.4168 40.9898 23.4885 38.1714 19.1373 31.3975C15.8245 26.2058 13.0062 21.9041 12.9567 21.8546C12.759 21.7557 12.759 21.7557 18.7912 32.5347C22.5985 39.3086 23.8346 41.7314 23.8346 42.0281C23.8346 42.6709 23.6368 43.017 22.8457 43.907C21.5107 45.3904 20.9174 47.0715 20.4724 50.5821C19.9779 54.4882 18.6429 57.2571 14.8356 61.9544C12.6106 64.7233 12.2645 65.2177 11.7206 66.355C11.0284 67.7394 10.8306 68.5305 10.7317 70.3106C10.6328 72.1895 10.8306 73.3761 11.3745 75.1561C11.869 76.7384 12.4129 77.7767 13.7479 79.804C14.8851 81.584 15.5773 82.919 15.5773 83.4134C15.5773 83.809 15.6762 83.809 17.4562 83.4134C21.7085 82.4245 25.2191 80.7434 27.1474 78.6667C28.3341 77.3812 28.6308 76.6889 28.6308 74.9089C28.6308 73.7717 28.5813 73.5245 28.2846 72.8322C27.7902 71.7445 26.8507 70.8544 24.8235 69.47C22.1535 67.6405 21.0163 66.1572 20.7196 64.1794C20.4724 62.4983 20.769 61.361 22.2524 58.246C23.7852 55.0321 24.1807 53.6971 24.4279 50.4337C24.5763 48.357 24.8235 47.5165 25.4168 46.8737C26.0596 46.1815 26.6035 45.9343 28.1363 45.7365C30.658 45.3904 32.2897 44.7476 33.5752 43.5115C34.7125 42.4731 35.2069 41.4348 35.2564 39.902L35.3058 38.7648L34.663 38.0725C32.3391 35.4025 0.150534 0 0.00219933 0C-0.0472455 0 0.743872 0.939452 1.68332 2.12613ZM16.8629 72.4367C17.4068 71.4972 17.1101 70.3106 16.2201 69.7172C15.3795 69.1733 14.094 69.4205 14.094 70.1622C14.094 70.36 14.1929 70.5578 14.4895 70.6567C14.9345 70.9039 14.984 71.1511 14.6379 71.695C14.2918 72.2389 14.2918 72.7334 14.7368 73.0795C15.429 73.6234 16.3684 73.3267 16.8629 72.4367Z" fill="#FF007A"/>
<path fill-rule="evenodd" clip-rule="evenodd" d="M36.8822 46.4285C35.6955 46.7746 34.5582 48.0602 34.2121 49.3457C34.0144 50.1368 34.1132 51.5707 34.4594 52.0157C35.0032 52.708 35.4977 52.9058 36.8822 52.9058C39.6016 52.9058 41.9255 51.7191 42.1728 50.2852C42.42 49.0985 41.3816 47.4668 39.9477 46.7252C39.2061 46.3296 37.6733 46.1813 36.8822 46.4285ZM40.0466 48.9007C40.4422 48.3074 40.2938 47.6646 39.5522 47.2196C38.2172 46.379 36.1899 47.0713 36.1899 48.3568C36.1899 48.9996 37.2283 49.6918 38.2172 49.6918C38.8599 49.6918 39.75 49.2963 40.0466 48.9007Z" fill="#FF007A"/>
</svg>
