<?xml version="1.0" encoding="UTF-8" standalone="no"?>
<svg
   version="1.0"
   width="100.00002pt"
   height="79.10054pt"
   viewBox="0 0 100.00002 79.10054"
   preserveAspectRatio="xMidYMid"
   fill="currentColor"
   id="svg431"
   xmlns="http://www.w3.org/2000/svg"
   xmlns:svg="http://www.w3.org/2000/svg">
  <defs
     id="defs435" />
  <g
     transform="matrix(0.01899279,0,0,-0.01899279,-1.2802432,90.736086)"
     fill="currentColor"
     stroke="none"
     id="g429">
    <path
       fill="#ebbe5a"
       d="m 812,4181 c 6,-18 1023,-1300 1029,-1298 18,6 236,283 229,292 -4,6 -116,150 -248,321 -133,172 -242,315 -242,318 0,3 103,6 230,6 h 229 l 215,-267 215,-268 -33,-40 C 2288,3064 810,1209 810,1205 c 0,-3 319,-5 708,-5 h 708 l 164,204 c 90,111 162,207 161,212 -4,12 -225,283 -231,283 -3,0 -67,-74 -143,-165 l -138,-164 h -230 c -141,0 -229,4 -227,9 2,6 293,376 648,822 355,447 657,830 673,850 l 27,37 -352,451 -353,451 h -708 c -412,0 -707,-4 -705,-9 z"
       id="path425" />
    <path
       d="m 3011,3988 c -90,-112 -163,-207 -163,-211 1,-10 225,-286 232,-286 3,0 67,74 143,165 l 138,164 h 230 c 142,0 229,-4 227,-10 -1,-5 -304,-392 -673,-860 -368,-468 -670,-855 -670,-860 0,-4 157,-206 350,-449 l 350,-441 h 708 c 412,0 707,4 705,9 -6,18 -1023,1300 -1029,1298 -18,-6 -236,-283 -229,-292 4,-5 116,-150 248,-321 133,-172 242,-315 242,-318 0,-3 -103,-6 -229,-6 h -230 l -210,255 c -116,140 -211,260 -211,266 0,5 371,478 825,1049 454,572 825,1042 825,1045 0,3 -319,5 -708,5 h -708 z"
       id="path427"
       style="fill:#ebbe5a;fill-opacity:1" />
  </g>
</svg>
