<svg width="31" height="31" viewBox="0 0 31 31" fill="none" xmlns="http://www.w3.org/2000/svg">
<path d="M30.9062 15.9343C30.9062 24.2076 23.9876 30.9144 15.4531 30.9144C6.9186 30.9144 0 24.2076 0 15.9343C0 7.66095 6.9186 0.954102 15.4531 0.954102C23.9876 0.954102 30.9062 7.66095 30.9062 15.9343Z" fill="#2D2D2D"/>
<ellipse cx="14.3919" cy="16.7161" rx="5.08921" ry="4.42309" fill="white"/>
<path d="M24.3371 12.1882C24.2321 11.8146 24.0276 11.4763 23.7453 11.2093C23.4551 10.9341 23.0993 10.7373 22.7116 10.6373C21.2608 10.2558 15.4481 10.2558 15.4481 10.2558C13.0249 10.2283 10.6022 10.3493 8.19384 10.6181C7.80617 10.7254 7.45108 10.9266 7.16017 11.2039C6.87432 11.4783 6.66728 11.8167 6.55912 12.1875C6.29931 13.584 6.17307 15.002 6.18212 16.4224C6.17285 17.8415 6.29877 19.259 6.55912 20.6573C6.66496 21.0265 6.87123 21.3634 7.15785 21.6355C7.44447 21.9076 7.80139 22.1041 8.19384 22.2082C9.66401 22.589 15.4481 22.589 15.4481 22.589C17.8744 22.6165 20.3002 22.4955 22.7116 22.2267C23.0993 22.1268 23.4551 21.9299 23.7453 21.6547C24.0312 21.3826 24.2343 21.0443 24.3363 20.6758C24.6029 19.2798 24.7325 17.8612 24.7234 16.4401C24.7434 15.013 24.614 13.5877 24.3371 12.1875V12.1882ZM13.6002 19.0617V13.7838L18.4363 16.4232L13.6002 19.0617Z" fill="#FA0205"/>
</svg>
